G75*
%MOIN*%
%OFA0B0*%
%FSLAX24Y24*%
%IPPOS*%
%LPD*%
%AMOC8*
5,1,8,0,0,1.08239X$1,22.5*
%
%ADD10C,0.0630*%
%ADD11OC8,0.0630*%
%ADD12C,0.0580*%
%ADD13C,0.0600*%
%ADD14OC8,0.0560*%
%ADD15C,0.0515*%
%ADD16C,0.0200*%
%ADD17C,0.0396*%
%ADD18C,0.0800*%
%ADD19C,0.0160*%
%ADD20C,0.0120*%
D10*
X084818Y057393D03*
D11*
X084818Y056393D03*
X084818Y055393D03*
X084818Y054393D03*
X084818Y053393D03*
X084818Y052393D03*
X084818Y051393D03*
X084818Y050393D03*
X084818Y049393D03*
X084818Y048393D03*
X084818Y047393D03*
X084818Y046393D03*
X084818Y045393D03*
X084818Y044393D03*
X084818Y043393D03*
X084818Y042393D03*
X084818Y041393D03*
X084818Y040393D03*
X084818Y039393D03*
X084818Y038393D03*
X084818Y037393D03*
X084818Y036393D03*
X084818Y035393D03*
X084818Y034393D03*
X084818Y033393D03*
X084818Y032393D03*
X084818Y031393D03*
X084818Y030393D03*
X084818Y029393D03*
X084818Y028393D03*
X084818Y027393D03*
X084818Y026393D03*
X082818Y026393D03*
X082818Y027393D03*
X082818Y028393D03*
X082818Y029393D03*
X082818Y030393D03*
X082818Y031393D03*
X082818Y032393D03*
X082818Y033393D03*
X082818Y034393D03*
X082818Y035393D03*
X082818Y036393D03*
X082818Y037393D03*
X082818Y038393D03*
X082818Y039393D03*
X082818Y040393D03*
X082818Y041393D03*
X082818Y042393D03*
X082818Y043393D03*
X082818Y044393D03*
X082818Y045393D03*
X082818Y046393D03*
X082818Y047393D03*
X082818Y048393D03*
X082818Y049393D03*
X082818Y050393D03*
X082818Y051393D03*
X082818Y052393D03*
X082818Y053393D03*
X082818Y054393D03*
X082818Y055393D03*
X082818Y056393D03*
X082818Y057393D03*
D12*
X044918Y055393D03*
X043918Y055393D03*
X042918Y055393D03*
X041918Y055393D03*
X040918Y055393D03*
X039918Y055393D03*
X038918Y055393D03*
X037918Y055393D03*
X036918Y055393D03*
X035918Y055393D03*
X034918Y055393D03*
X033918Y055393D03*
X032918Y055393D03*
X031918Y055393D03*
X032918Y054393D03*
X034918Y054393D03*
X035918Y054393D03*
X036918Y054393D03*
X037918Y053393D03*
X037918Y052393D03*
X038918Y052393D03*
X039918Y052393D03*
X040918Y052393D03*
X041918Y052393D03*
X042918Y052393D03*
X043918Y052393D03*
X044918Y052393D03*
X044918Y051393D03*
X044918Y050393D03*
X044918Y049393D03*
X043918Y049393D03*
X042918Y049393D03*
X041918Y049393D03*
X040918Y049393D03*
X039918Y049393D03*
X038918Y049393D03*
X037918Y049393D03*
X036918Y049393D03*
X035918Y049393D03*
X034918Y049393D03*
X033918Y049393D03*
X032918Y049393D03*
X031918Y049393D03*
X038918Y053393D03*
X039918Y053393D03*
X040918Y053393D03*
X041918Y053393D03*
X042918Y053393D03*
X043918Y053393D03*
X044918Y053393D03*
X044918Y054393D03*
D13*
X056718Y053863D02*
X056718Y053263D01*
X057718Y053263D02*
X057718Y053863D01*
X047388Y044093D02*
X046788Y044093D01*
X046788Y043093D02*
X047388Y043093D01*
X078918Y043343D02*
X078918Y043943D01*
X079918Y043943D02*
X079918Y043343D01*
X079868Y028893D02*
X080468Y028893D01*
X080468Y027893D02*
X079868Y027893D01*
X079868Y026893D02*
X080468Y026893D01*
D14*
X073418Y040893D03*
X072418Y040893D03*
X072418Y041893D03*
X073418Y041893D03*
X073418Y042893D03*
X072418Y042893D03*
X072418Y043893D03*
X073418Y043893D03*
X073418Y044893D03*
X072418Y044893D03*
X072418Y045893D03*
X073418Y045893D03*
X073418Y046893D03*
X072418Y046893D03*
X072418Y047893D03*
X073418Y047893D03*
X073418Y048893D03*
X072418Y048893D03*
X072418Y049893D03*
X073418Y049893D03*
X073418Y050893D03*
X072418Y050893D03*
X072418Y051893D03*
X073418Y051893D03*
X073418Y052893D03*
X072418Y052893D03*
X078868Y053893D03*
X079868Y053893D03*
X079868Y054893D03*
X078868Y054893D03*
X078868Y055893D03*
X079868Y055893D03*
X079868Y056893D03*
X078868Y056893D03*
X050918Y053893D03*
X049918Y053893D03*
X049918Y052893D03*
X049918Y051893D03*
X050918Y051893D03*
X050918Y052893D03*
X050918Y050893D03*
X049918Y050893D03*
X046418Y028393D03*
X045418Y028393D03*
X044418Y028393D03*
X044418Y027393D03*
X045418Y027393D03*
X046418Y027393D03*
X043418Y027393D03*
X042418Y027393D03*
X041418Y027393D03*
X040418Y027393D03*
X039418Y027393D03*
X038418Y027393D03*
X037418Y027393D03*
X036418Y027393D03*
X035418Y027393D03*
X034418Y027393D03*
X034418Y028393D03*
X035418Y028393D03*
X036418Y028393D03*
X037418Y028393D03*
X038418Y028393D03*
X039418Y028393D03*
X040418Y028393D03*
X041418Y028393D03*
X042418Y028393D03*
X043418Y028393D03*
D15*
X078918Y046393D03*
X079918Y046393D03*
X079918Y047393D03*
X078918Y047393D03*
X078918Y048393D03*
X079918Y048393D03*
X079918Y049393D03*
X078918Y049393D03*
D16*
X024418Y023008D02*
X024418Y022703D01*
X086418Y022703D01*
X086418Y023239D01*
X086320Y023182D01*
X085989Y023093D01*
X085647Y023093D01*
X085316Y023182D01*
X085020Y023353D01*
X084778Y023595D01*
X084606Y023892D01*
X084518Y024222D01*
X084518Y024564D01*
X084606Y024895D01*
X084778Y025192D01*
X085020Y025434D01*
X085316Y025605D01*
X085647Y025693D01*
X085989Y025693D01*
X086320Y025605D01*
X086418Y025548D01*
X086418Y058239D01*
X086320Y058182D01*
X085989Y058093D01*
X085647Y058093D01*
X085316Y058182D01*
X085020Y058353D01*
X084778Y058595D01*
X084648Y058820D01*
X084648Y057880D01*
X084697Y057896D01*
X084777Y057908D01*
X084818Y057908D01*
X084818Y057393D01*
X084818Y057393D01*
X085333Y057393D01*
X085333Y057353D01*
X085320Y057273D01*
X085295Y057196D01*
X085258Y057123D01*
X085211Y057058D01*
X085188Y057035D01*
X085533Y056689D01*
X085533Y056097D01*
X085329Y055893D01*
X085533Y055689D01*
X085533Y055097D01*
X085329Y054893D01*
X085533Y054689D01*
X085533Y054097D01*
X085329Y053893D01*
X085533Y053689D01*
X085533Y053097D01*
X085329Y052893D01*
X085533Y052689D01*
X085533Y052097D01*
X085329Y051893D01*
X085533Y051689D01*
X085533Y051097D01*
X085329Y050893D01*
X085533Y050689D01*
X085533Y050097D01*
X085329Y049893D01*
X085533Y049689D01*
X085533Y049097D01*
X085329Y048893D01*
X085533Y048689D01*
X085533Y048097D01*
X085329Y047893D01*
X085533Y047689D01*
X085533Y047097D01*
X085329Y046893D01*
X085533Y046689D01*
X085533Y046097D01*
X085329Y045893D01*
X085533Y045689D01*
X085533Y045097D01*
X085329Y044893D01*
X085533Y044689D01*
X085533Y044097D01*
X085329Y043893D01*
X085533Y043689D01*
X085533Y043097D01*
X085329Y042893D01*
X085533Y042689D01*
X085533Y042097D01*
X085329Y041893D01*
X085533Y041689D01*
X085533Y041097D01*
X085329Y040893D01*
X085533Y040689D01*
X085533Y040097D01*
X085329Y039893D01*
X085533Y039689D01*
X085533Y039097D01*
X085329Y038893D01*
X085533Y038689D01*
X085533Y038097D01*
X085329Y037893D01*
X085533Y037689D01*
X085533Y037097D01*
X085329Y036893D01*
X085533Y036689D01*
X085533Y036097D01*
X085329Y035893D01*
X085533Y035689D01*
X085533Y035097D01*
X085329Y034893D01*
X085533Y034689D01*
X085533Y034097D01*
X085329Y033893D01*
X085533Y033689D01*
X085533Y033097D01*
X085329Y032893D01*
X085533Y032689D01*
X086418Y032689D01*
X086418Y032887D02*
X085335Y032887D01*
X085522Y033086D02*
X086418Y033086D01*
X086418Y033284D02*
X085533Y033284D01*
X085533Y033483D02*
X086418Y033483D01*
X086418Y033681D02*
X085533Y033681D01*
X085342Y033880D02*
X086418Y033880D01*
X086418Y034078D02*
X085514Y034078D01*
X085533Y034277D02*
X086418Y034277D01*
X086418Y034475D02*
X085533Y034475D01*
X085533Y034674D02*
X086418Y034674D01*
X086418Y034872D02*
X085350Y034872D01*
X085507Y035071D02*
X086418Y035071D01*
X086418Y035269D02*
X085533Y035269D01*
X085533Y035468D02*
X086418Y035468D01*
X086418Y035666D02*
X085533Y035666D01*
X085357Y035865D02*
X086418Y035865D01*
X086418Y036063D02*
X085499Y036063D01*
X085533Y036262D02*
X086418Y036262D01*
X086418Y036460D02*
X085533Y036460D01*
X085533Y036659D02*
X086418Y036659D01*
X086418Y036857D02*
X085365Y036857D01*
X085492Y037056D02*
X086418Y037056D01*
X086418Y037254D02*
X085533Y037254D01*
X085533Y037453D02*
X086418Y037453D01*
X086418Y037651D02*
X085533Y037651D01*
X085372Y037850D02*
X086418Y037850D01*
X086418Y038048D02*
X085484Y038048D01*
X085533Y038247D02*
X086418Y038247D01*
X086418Y038445D02*
X085533Y038445D01*
X085533Y038644D02*
X086418Y038644D01*
X086418Y038842D02*
X085380Y038842D01*
X085477Y039041D02*
X086418Y039041D01*
X086418Y039239D02*
X085533Y039239D01*
X085533Y039438D02*
X086418Y039438D01*
X086418Y039636D02*
X085533Y039636D01*
X085387Y039835D02*
X086418Y039835D01*
X086418Y040033D02*
X085469Y040033D01*
X085533Y040232D02*
X086418Y040232D01*
X086418Y040430D02*
X085533Y040430D01*
X085533Y040629D02*
X086418Y040629D01*
X086418Y040827D02*
X085395Y040827D01*
X085462Y041026D02*
X086418Y041026D01*
X086418Y041224D02*
X085533Y041224D01*
X085533Y041423D02*
X086418Y041423D01*
X086418Y041621D02*
X085533Y041621D01*
X085402Y041820D02*
X086418Y041820D01*
X086418Y042018D02*
X085454Y042018D01*
X085533Y042217D02*
X086418Y042217D01*
X086418Y042415D02*
X085533Y042415D01*
X085533Y042614D02*
X086418Y042614D01*
X086418Y042812D02*
X085410Y042812D01*
X085447Y043011D02*
X086418Y043011D01*
X086418Y043209D02*
X085533Y043209D01*
X085533Y043408D02*
X086418Y043408D01*
X086418Y043606D02*
X085533Y043606D01*
X085417Y043805D02*
X086418Y043805D01*
X086418Y044003D02*
X085439Y044003D01*
X085533Y044202D02*
X086418Y044202D01*
X086418Y044400D02*
X085533Y044400D01*
X085533Y044599D02*
X086418Y044599D01*
X086418Y044797D02*
X085425Y044797D01*
X085432Y044996D02*
X086418Y044996D01*
X086418Y045194D02*
X085533Y045194D01*
X085533Y045393D02*
X086418Y045393D01*
X086418Y045591D02*
X085533Y045591D01*
X085432Y045790D02*
X086418Y045790D01*
X086418Y045988D02*
X085424Y045988D01*
X085533Y046187D02*
X086418Y046187D01*
X086418Y046385D02*
X085533Y046385D01*
X085533Y046584D02*
X086418Y046584D01*
X086418Y046782D02*
X085440Y046782D01*
X085417Y046981D02*
X086418Y046981D01*
X086418Y047179D02*
X085533Y047179D01*
X085533Y047378D02*
X086418Y047378D01*
X086418Y047576D02*
X085533Y047576D01*
X085447Y047775D02*
X086418Y047775D01*
X086418Y047973D02*
X085409Y047973D01*
X085533Y048172D02*
X086418Y048172D01*
X086418Y048370D02*
X085533Y048370D01*
X085533Y048569D02*
X086418Y048569D01*
X086418Y048767D02*
X085455Y048767D01*
X085402Y048966D02*
X086418Y048966D01*
X086418Y049164D02*
X085533Y049164D01*
X085533Y049363D02*
X086418Y049363D01*
X086418Y049561D02*
X085533Y049561D01*
X085462Y049760D02*
X086418Y049760D01*
X086418Y049958D02*
X085394Y049958D01*
X085533Y050157D02*
X086418Y050157D01*
X086418Y050355D02*
X085533Y050355D01*
X085533Y050554D02*
X086418Y050554D01*
X086418Y050752D02*
X085470Y050752D01*
X085387Y050951D02*
X086418Y050951D01*
X086418Y051149D02*
X085533Y051149D01*
X085533Y051348D02*
X086418Y051348D01*
X086418Y051546D02*
X085533Y051546D01*
X085477Y051745D02*
X086418Y051745D01*
X086418Y051943D02*
X085379Y051943D01*
X085533Y052142D02*
X086418Y052142D01*
X086418Y052340D02*
X085533Y052340D01*
X085533Y052539D02*
X086418Y052539D01*
X086418Y052737D02*
X085485Y052737D01*
X085372Y052936D02*
X086418Y052936D01*
X086418Y053134D02*
X085533Y053134D01*
X085533Y053333D02*
X086418Y053333D01*
X086418Y053531D02*
X085533Y053531D01*
X085492Y053730D02*
X086418Y053730D01*
X086418Y053928D02*
X085364Y053928D01*
X085533Y054127D02*
X086418Y054127D01*
X086418Y054325D02*
X085533Y054325D01*
X085533Y054524D02*
X086418Y054524D01*
X086418Y054722D02*
X085500Y054722D01*
X085357Y054921D02*
X086418Y054921D01*
X086418Y055119D02*
X085533Y055119D01*
X085533Y055318D02*
X086418Y055318D01*
X086418Y055516D02*
X085533Y055516D01*
X085507Y055715D02*
X086418Y055715D01*
X086418Y055913D02*
X085349Y055913D01*
X085533Y056112D02*
X086418Y056112D01*
X086418Y056310D02*
X085533Y056310D01*
X085533Y056509D02*
X086418Y056509D01*
X086418Y056707D02*
X085515Y056707D01*
X085316Y056906D02*
X086418Y056906D01*
X086418Y057104D02*
X085245Y057104D01*
X085325Y057303D02*
X086418Y057303D01*
X086418Y057501D02*
X085322Y057501D01*
X085320Y057514D02*
X085295Y057591D01*
X085258Y057663D01*
X085211Y057729D01*
X085153Y057786D01*
X085088Y057834D01*
X085016Y057871D01*
X084938Y057896D01*
X084858Y057908D01*
X084818Y057908D01*
X084818Y057393D01*
X085333Y057393D01*
X085333Y057434D01*
X085320Y057514D01*
X085232Y057700D02*
X086418Y057700D01*
X086418Y057898D02*
X084921Y057898D01*
X084818Y057898D02*
X084818Y057898D01*
X084715Y057898D02*
X084648Y057898D01*
X084648Y058097D02*
X085633Y058097D01*
X086002Y058097D02*
X086418Y058097D01*
X085119Y058295D02*
X084648Y058295D01*
X084648Y058494D02*
X084879Y058494D01*
X084721Y058692D02*
X084648Y058692D01*
X084818Y057700D02*
X084818Y057700D01*
X084818Y057501D02*
X084818Y057501D01*
X084818Y057393D02*
X084818Y057393D01*
X083188Y057752D02*
X083188Y058944D01*
X082469Y059663D01*
X074239Y059663D01*
X074318Y059584D01*
X074466Y059328D01*
X074543Y059041D01*
X074543Y058745D01*
X074466Y058459D01*
X074318Y058203D01*
X074239Y058123D01*
X076252Y058123D01*
X076279Y058150D01*
X076499Y058241D01*
X076737Y058241D01*
X076957Y058150D01*
X077125Y057982D01*
X077216Y057762D01*
X077216Y057524D01*
X077143Y057347D01*
X077499Y056991D01*
X077537Y056991D01*
X077757Y056900D01*
X077925Y056732D01*
X078016Y056512D01*
X078016Y056274D01*
X077925Y056055D01*
X077764Y055893D01*
X077925Y055732D01*
X078016Y055512D01*
X078016Y055274D01*
X077925Y055055D01*
X077764Y054893D01*
X077925Y054732D01*
X078016Y054512D01*
X078016Y054274D01*
X077925Y054055D01*
X077757Y053886D01*
X077537Y053795D01*
X077299Y053795D01*
X077079Y053886D01*
X076911Y054055D01*
X076820Y054274D01*
X076820Y054313D01*
X075469Y055663D01*
X074516Y055663D01*
X074516Y055524D01*
X074425Y055305D01*
X074257Y055136D01*
X074037Y055045D01*
X073799Y055045D01*
X073579Y055136D01*
X073532Y055183D01*
X054608Y055183D01*
X052428Y053003D01*
X052259Y052933D01*
X051598Y052933D01*
X051598Y052612D01*
X051380Y052393D01*
X051598Y052175D01*
X051598Y051612D01*
X051380Y051393D01*
X051598Y051175D01*
X051598Y050612D01*
X051200Y050213D01*
X050636Y050213D01*
X050276Y050573D01*
X050117Y050413D01*
X049918Y050413D01*
X049918Y050893D01*
X049918Y050893D01*
X049918Y050413D01*
X049719Y050413D01*
X049438Y050694D01*
X049438Y050893D01*
X049918Y050893D01*
X049918Y050893D01*
X049918Y050893D01*
X049918Y051373D01*
X050117Y051373D01*
X050276Y051214D01*
X050456Y051393D01*
X050276Y051573D01*
X050117Y051413D01*
X049918Y051413D01*
X049918Y051893D01*
X049918Y051893D01*
X049918Y051413D01*
X049719Y051413D01*
X049438Y051694D01*
X049438Y051893D01*
X049918Y051893D01*
X049918Y051893D01*
X049438Y051893D01*
X049438Y052092D01*
X049598Y052252D01*
X049238Y052612D01*
X049238Y052813D01*
X045928Y049503D01*
X045759Y049433D01*
X045608Y049433D01*
X045608Y049256D01*
X045503Y049002D01*
X045309Y048808D01*
X045055Y048703D01*
X044781Y048703D01*
X044527Y048808D01*
X044476Y048860D01*
X044516Y048762D01*
X044516Y048524D01*
X044425Y048305D01*
X044257Y048136D01*
X044037Y048045D01*
X043799Y048045D01*
X043579Y048136D01*
X043552Y048163D01*
X033572Y048163D01*
X033396Y048236D01*
X032929Y048703D01*
X032781Y048703D01*
X032527Y048808D01*
X032333Y049002D01*
X032299Y049084D01*
X032292Y049074D01*
X032237Y049020D01*
X032175Y048974D01*
X032106Y048939D01*
X032033Y048915D01*
X031956Y048903D01*
X031918Y048903D01*
X031918Y049393D01*
X031918Y049393D01*
X031918Y048903D01*
X031879Y048903D01*
X031803Y048915D01*
X031730Y048939D01*
X031661Y048974D01*
X031599Y049020D01*
X031544Y049074D01*
X031499Y049136D01*
X031464Y049205D01*
X031440Y049279D01*
X031428Y049355D01*
X031428Y049393D01*
X031918Y049393D01*
X031918Y049393D01*
X031918Y049393D01*
X031918Y049883D01*
X031956Y049883D01*
X032033Y049871D01*
X032106Y049847D01*
X032175Y049812D01*
X032237Y049767D01*
X032292Y049713D01*
X032299Y049702D01*
X032333Y049784D01*
X032527Y049978D01*
X032781Y050083D01*
X033055Y050083D01*
X033309Y049978D01*
X033418Y049869D01*
X033527Y049978D01*
X033781Y050083D01*
X034055Y050083D01*
X034309Y049978D01*
X034418Y049869D01*
X034527Y049978D01*
X034781Y050083D01*
X035055Y050083D01*
X035309Y049978D01*
X035418Y049869D01*
X035527Y049978D01*
X035781Y050083D01*
X036055Y050083D01*
X036309Y049978D01*
X036418Y049869D01*
X036527Y049978D01*
X036781Y050083D01*
X037055Y050083D01*
X037309Y049978D01*
X037418Y049869D01*
X037527Y049978D01*
X037781Y050083D01*
X038055Y050083D01*
X038309Y049978D01*
X038418Y049869D01*
X038527Y049978D01*
X038781Y050083D01*
X039055Y050083D01*
X039309Y049978D01*
X039418Y049869D01*
X039527Y049978D01*
X039781Y050083D01*
X040055Y050083D01*
X040309Y049978D01*
X040418Y049869D01*
X040527Y049978D01*
X040781Y050083D01*
X040827Y050083D01*
X040365Y050545D01*
X040299Y050545D01*
X040079Y050636D01*
X039911Y050805D01*
X039820Y051024D01*
X039820Y051262D01*
X039911Y051482D01*
X040045Y051616D01*
X039957Y051703D01*
X039781Y051703D01*
X039527Y051808D01*
X039333Y052002D01*
X039299Y052084D01*
X039292Y052074D01*
X039237Y052020D01*
X039175Y051974D01*
X039106Y051939D01*
X039033Y051915D01*
X038956Y051903D01*
X038918Y051903D01*
X038918Y052393D01*
X038918Y052393D01*
X038918Y051903D01*
X038879Y051903D01*
X038803Y051915D01*
X038730Y051939D01*
X038661Y051974D01*
X038599Y052020D01*
X038544Y052074D01*
X038537Y052084D01*
X038503Y052002D01*
X038309Y051808D01*
X038055Y051703D01*
X037781Y051703D01*
X037527Y051808D01*
X037333Y052002D01*
X037228Y052256D01*
X037228Y052531D01*
X037333Y052784D01*
X037442Y052893D01*
X037333Y053002D01*
X037228Y053256D01*
X037228Y053531D01*
X031218Y053531D01*
X031218Y053333D02*
X037228Y053333D01*
X037228Y053531D02*
X037333Y053784D01*
X037527Y053978D01*
X037781Y054083D01*
X038055Y054083D01*
X038309Y053978D01*
X038418Y053869D01*
X038527Y053978D01*
X038781Y054083D01*
X039055Y054083D01*
X039309Y053978D01*
X039418Y053869D01*
X039527Y053978D01*
X039781Y054083D01*
X040055Y054083D01*
X040309Y053978D01*
X040418Y053869D01*
X040527Y053978D01*
X040781Y054083D01*
X041055Y054083D01*
X041309Y053978D01*
X041418Y053869D01*
X041527Y053978D01*
X041781Y054083D01*
X042055Y054083D01*
X042309Y053978D01*
X042418Y053869D01*
X042438Y053889D01*
X042438Y054489D01*
X042511Y054665D01*
X042617Y054771D01*
X042527Y054808D01*
X042418Y054918D01*
X042309Y054808D01*
X042055Y054703D01*
X041781Y054703D01*
X041527Y054808D01*
X041418Y054918D01*
X041309Y054808D01*
X041055Y054703D01*
X040781Y054703D01*
X040527Y054808D01*
X040418Y054918D01*
X040309Y054808D01*
X040055Y054703D01*
X039781Y054703D01*
X039527Y054808D01*
X039418Y054918D01*
X039309Y054808D01*
X039055Y054703D01*
X038781Y054703D01*
X038527Y054808D01*
X038418Y054918D01*
X038309Y054808D01*
X038055Y054703D01*
X037781Y054703D01*
X037527Y054808D01*
X037418Y054918D01*
X037394Y054893D01*
X037503Y054784D01*
X037608Y054531D01*
X037608Y054256D01*
X037503Y054002D01*
X037309Y053808D01*
X037055Y053703D01*
X036781Y053703D01*
X036527Y053808D01*
X036418Y053918D01*
X036309Y053808D01*
X036055Y053703D01*
X035781Y053703D01*
X035527Y053808D01*
X035418Y053918D01*
X035309Y053808D01*
X035055Y053703D01*
X034781Y053703D01*
X034527Y053808D01*
X034333Y054002D01*
X034228Y054256D01*
X034228Y054531D01*
X034333Y054784D01*
X034442Y054893D01*
X034418Y054918D01*
X034309Y054808D01*
X034055Y054703D01*
X033781Y054703D01*
X033527Y054808D01*
X033333Y055002D01*
X033299Y055084D01*
X033292Y055074D01*
X033237Y055020D01*
X033227Y055012D01*
X033309Y054978D01*
X033503Y054784D01*
X033608Y054531D01*
X033608Y054256D01*
X033503Y054002D01*
X033309Y053808D01*
X033055Y053703D01*
X032781Y053703D01*
X032527Y053808D01*
X032333Y054002D01*
X032228Y054256D01*
X032228Y054531D01*
X032333Y054784D01*
X032527Y054978D01*
X032609Y055012D01*
X032599Y055020D01*
X032544Y055074D01*
X032537Y055084D01*
X032503Y055002D01*
X032309Y054808D01*
X032055Y054703D01*
X031781Y054703D01*
X031527Y054808D01*
X031333Y055002D01*
X031228Y055256D01*
X031228Y055531D01*
X031333Y055784D01*
X031527Y055978D01*
X031781Y056083D01*
X032055Y056083D01*
X032309Y055978D01*
X032503Y055784D01*
X032537Y055702D01*
X032544Y055713D01*
X032599Y055767D01*
X032661Y055812D01*
X032730Y055847D01*
X032803Y055871D01*
X032879Y055883D01*
X032918Y055883D01*
X032918Y055393D01*
X032918Y055393D01*
X032918Y055883D01*
X032956Y055883D01*
X033033Y055871D01*
X033106Y055847D01*
X033175Y055812D01*
X033237Y055767D01*
X033292Y055713D01*
X033299Y055702D01*
X033333Y055784D01*
X033527Y055978D01*
X033781Y056083D01*
X034055Y056083D01*
X034309Y055978D01*
X034418Y055869D01*
X034527Y055978D01*
X034781Y056083D01*
X035055Y056083D01*
X035309Y055978D01*
X035418Y055869D01*
X035527Y055978D01*
X035781Y056083D01*
X036055Y056083D01*
X036309Y055978D01*
X036418Y055869D01*
X036527Y055978D01*
X036781Y056083D01*
X037055Y056083D01*
X037309Y055978D01*
X037418Y055869D01*
X037527Y055978D01*
X037781Y056083D01*
X038055Y056083D01*
X038309Y055978D01*
X038418Y055869D01*
X038527Y055978D01*
X038781Y056083D01*
X039055Y056083D01*
X039309Y055978D01*
X039418Y055869D01*
X039527Y055978D01*
X039781Y056083D01*
X040055Y056083D01*
X040309Y055978D01*
X040418Y055869D01*
X040527Y055978D01*
X040781Y056083D01*
X041055Y056083D01*
X041309Y055978D01*
X041418Y055869D01*
X041527Y055978D01*
X041781Y056083D01*
X042055Y056083D01*
X042309Y055978D01*
X042418Y055869D01*
X042527Y055978D01*
X042781Y056083D01*
X042938Y056083D01*
X042938Y058989D01*
X043011Y059165D01*
X044761Y060915D01*
X044896Y061050D01*
X044976Y061083D01*
X029418Y061083D01*
X029418Y047094D01*
X029342Y046910D01*
X029201Y046769D01*
X029017Y046693D01*
X024418Y046693D01*
X024418Y025779D01*
X024681Y025931D01*
X025101Y026043D01*
X025535Y026043D01*
X025955Y025931D01*
X026331Y025714D01*
X026638Y025406D01*
X026855Y025030D01*
X026968Y024611D01*
X026968Y024176D01*
X026855Y023756D01*
X084684Y023756D01*
X084589Y023955D02*
X026909Y023955D01*
X026962Y024153D02*
X031114Y024153D01*
X031259Y024093D02*
X030965Y024215D01*
X029740Y025440D01*
X029618Y025734D01*
X029618Y057552D01*
X029740Y057846D01*
X031465Y059572D01*
X031759Y059693D01*
X032077Y059693D01*
X032371Y059572D01*
X032596Y059346D01*
X032718Y059052D01*
X032718Y058734D01*
X032596Y058440D01*
X031218Y057062D01*
X031218Y043625D01*
X031296Y043546D01*
X031418Y043252D01*
X031418Y042934D01*
X031296Y042640D01*
X031218Y042562D01*
X031218Y026225D01*
X031749Y025693D01*
X080836Y025693D01*
X080868Y025725D01*
X080868Y026303D01*
X080864Y026300D01*
X080607Y026193D01*
X079729Y026193D01*
X079471Y026300D01*
X079274Y026497D01*
X079168Y026754D01*
X079168Y027033D01*
X079274Y027290D01*
X079471Y027487D01*
X079539Y027515D01*
X079486Y027568D01*
X079440Y027631D01*
X079404Y027701D01*
X079380Y027776D01*
X079368Y027854D01*
X079368Y027893D01*
X080168Y027893D01*
X080168Y027893D01*
X079368Y027893D01*
X079368Y027933D01*
X079380Y028010D01*
X079404Y028085D01*
X079440Y028155D01*
X079486Y028219D01*
X079539Y028272D01*
X079471Y028300D01*
X079274Y028497D01*
X079168Y028754D01*
X079168Y029033D01*
X079274Y029290D01*
X079471Y029487D01*
X079729Y029593D01*
X080607Y029593D01*
X080864Y029487D01*
X080868Y029483D01*
X080868Y029812D01*
X080836Y029843D01*
X079259Y029843D01*
X078965Y029965D01*
X078836Y030093D01*
X062259Y030093D01*
X061965Y030215D01*
X061740Y030440D01*
X057040Y035140D01*
X056918Y035434D01*
X056918Y052804D01*
X056910Y052800D01*
X056835Y052776D01*
X056757Y052763D01*
X056718Y052763D01*
X056718Y053563D01*
X056718Y053563D01*
X056718Y052763D01*
X056678Y052763D01*
X056601Y052776D01*
X056526Y052800D01*
X056456Y052836D01*
X056392Y052882D01*
X056336Y052938D01*
X056290Y053001D01*
X056254Y053071D01*
X056230Y053146D01*
X056218Y053224D01*
X056218Y053563D01*
X056718Y053563D01*
X056718Y053563D01*
X056718Y053563D01*
X056718Y054363D01*
X056757Y054363D01*
X056835Y054351D01*
X056910Y054327D01*
X056980Y054291D01*
X057044Y054245D01*
X057096Y054192D01*
X057124Y054260D01*
X057321Y054457D01*
X057579Y054563D01*
X057857Y054563D01*
X058114Y054457D01*
X058311Y054260D01*
X058418Y054003D01*
X058418Y053964D01*
X058518Y053722D01*
X058518Y035925D01*
X062749Y031693D01*
X079577Y031693D01*
X079871Y031572D01*
X079999Y031443D01*
X081327Y031443D01*
X081621Y031322D01*
X082121Y030822D01*
X082178Y030765D01*
X082307Y030893D01*
X082103Y031097D01*
X082103Y031689D01*
X082307Y031893D01*
X082103Y032097D01*
X082103Y032689D01*
X074528Y032689D01*
X074543Y032745D02*
X074466Y032459D01*
X074318Y032203D01*
X074109Y031993D01*
X073852Y031845D01*
X073566Y031768D01*
X073270Y031768D01*
X072984Y031845D01*
X072727Y031993D01*
X072518Y032203D01*
X072370Y032459D01*
X072293Y032745D01*
X072293Y033041D01*
X072370Y033328D01*
X072518Y033584D01*
X072727Y033794D01*
X072984Y033942D01*
X073270Y034018D01*
X073566Y034018D01*
X073852Y033942D01*
X074109Y033794D01*
X074318Y033584D01*
X074466Y033328D01*
X074543Y033041D01*
X074543Y032745D01*
X074543Y032887D02*
X082301Y032887D01*
X082307Y032893D02*
X082103Y032689D01*
X082103Y032490D02*
X074475Y032490D01*
X074370Y032292D02*
X082103Y032292D01*
X082107Y032093D02*
X074209Y032093D01*
X073938Y031895D02*
X082305Y031895D01*
X082110Y031696D02*
X062746Y031696D01*
X062548Y031895D02*
X072897Y031895D01*
X072627Y032093D02*
X062349Y032093D01*
X062151Y032292D02*
X072466Y032292D01*
X072361Y032490D02*
X061952Y032490D01*
X061754Y032689D02*
X072308Y032689D01*
X072293Y032887D02*
X061555Y032887D01*
X061357Y033086D02*
X072305Y033086D01*
X072358Y033284D02*
X061158Y033284D01*
X060960Y033483D02*
X072459Y033483D01*
X072615Y033681D02*
X060761Y033681D01*
X060563Y033880D02*
X072877Y033880D01*
X073959Y033880D02*
X082293Y033880D01*
X082307Y033893D02*
X082103Y033689D01*
X082103Y033097D01*
X082307Y032893D01*
X082114Y033086D02*
X074531Y033086D01*
X074478Y033284D02*
X082103Y033284D01*
X082103Y033483D02*
X074377Y033483D01*
X074221Y033681D02*
X082103Y033681D01*
X082307Y033893D02*
X082103Y034097D01*
X082103Y034689D01*
X082307Y034893D01*
X082103Y035097D01*
X082103Y035689D01*
X082307Y035893D01*
X082103Y036097D01*
X082103Y036689D01*
X082307Y036893D01*
X082103Y037097D01*
X082103Y037689D01*
X082307Y037893D01*
X082103Y038097D01*
X082103Y038689D01*
X082307Y038893D01*
X082103Y039097D01*
X082103Y039689D01*
X082307Y039893D01*
X082103Y040097D01*
X082103Y040689D01*
X082307Y040893D01*
X082103Y041097D01*
X082103Y041689D01*
X082307Y041893D01*
X082103Y042097D01*
X082103Y042689D01*
X082307Y042893D01*
X082103Y043097D01*
X082103Y043689D01*
X082307Y043893D01*
X082103Y044097D01*
X082103Y044689D01*
X082307Y044893D01*
X082103Y045097D01*
X082103Y045689D01*
X082307Y045893D01*
X082103Y046097D01*
X082103Y046689D01*
X082307Y046893D01*
X082103Y047097D01*
X082103Y047689D01*
X082307Y047893D01*
X082103Y048097D01*
X082103Y048689D01*
X082307Y048893D01*
X082103Y049097D01*
X082103Y049689D01*
X082307Y049893D01*
X082103Y050097D01*
X082103Y050689D01*
X082307Y050893D01*
X082103Y051097D01*
X082103Y051689D01*
X082307Y051893D01*
X082103Y052097D01*
X082103Y052689D01*
X082307Y052893D01*
X082103Y053097D01*
X082103Y053689D01*
X082307Y053893D01*
X082103Y054097D01*
X082103Y054689D01*
X082307Y054893D01*
X082103Y055097D01*
X082103Y055689D01*
X082307Y055893D01*
X082103Y056097D01*
X082103Y056689D01*
X082448Y057035D01*
X082303Y057180D01*
X082303Y057393D01*
X082818Y057393D01*
X082818Y057393D01*
X082818Y057393D01*
X082818Y057908D01*
X083031Y057908D01*
X083188Y057752D01*
X083188Y057898D02*
X083041Y057898D01*
X082818Y057898D02*
X082818Y057898D01*
X082818Y057908D02*
X082605Y057908D01*
X082303Y057607D01*
X082303Y057393D01*
X082818Y057393D01*
X082818Y057908D01*
X082818Y057700D02*
X082818Y057700D01*
X082818Y057501D02*
X082818Y057501D01*
X082595Y057898D02*
X077160Y057898D01*
X077216Y057700D02*
X082396Y057700D01*
X082303Y057501D02*
X079221Y057501D01*
X079150Y057573D02*
X078586Y057573D01*
X078188Y057175D01*
X078188Y056612D01*
X078406Y056393D01*
X078188Y056175D01*
X078188Y055612D01*
X078406Y055393D01*
X078188Y055175D01*
X078188Y054612D01*
X078406Y054393D01*
X078188Y054175D01*
X078188Y053612D01*
X078586Y053213D01*
X079150Y053213D01*
X079509Y053573D01*
X079669Y053413D01*
X079868Y053413D01*
X080067Y053413D01*
X080348Y053694D01*
X080348Y053893D01*
X079868Y053893D01*
X079868Y053413D01*
X079868Y053893D01*
X079868Y053893D01*
X079868Y053893D01*
X080348Y053893D01*
X080348Y054092D01*
X080067Y054373D01*
X079868Y054373D01*
X079868Y053893D01*
X079868Y053893D01*
X079868Y054373D01*
X079669Y054373D01*
X079509Y054214D01*
X079330Y054393D01*
X079509Y054573D01*
X079669Y054413D01*
X079868Y054413D01*
X080067Y054413D01*
X080348Y054694D01*
X080348Y054893D01*
X079868Y054893D01*
X079868Y054413D01*
X079868Y054893D01*
X079868Y054893D01*
X079868Y054893D01*
X080348Y054893D01*
X080348Y055092D01*
X080067Y055373D01*
X079868Y055373D01*
X079868Y054893D01*
X079868Y054893D01*
X079868Y055373D01*
X079669Y055373D01*
X079509Y055214D01*
X079330Y055393D01*
X079509Y055573D01*
X079669Y055413D01*
X079868Y055413D01*
X080067Y055413D01*
X080348Y055694D01*
X080348Y055893D01*
X079868Y055893D01*
X079868Y055413D01*
X079868Y055893D01*
X079868Y055893D01*
X079868Y055893D01*
X080348Y055893D01*
X080348Y056092D01*
X080067Y056373D01*
X079868Y056373D01*
X079868Y055893D01*
X079868Y055893D01*
X079868Y056373D01*
X079669Y056373D01*
X079509Y056214D01*
X079330Y056393D01*
X079509Y056573D01*
X079669Y056413D01*
X079868Y056413D01*
X080067Y056413D01*
X080348Y056694D01*
X080348Y056893D01*
X079868Y056893D01*
X079868Y056413D01*
X079868Y056893D01*
X079868Y056893D01*
X079868Y056893D01*
X080348Y056893D01*
X080348Y057092D01*
X080067Y057373D01*
X079868Y057373D01*
X079868Y056893D01*
X079868Y056893D01*
X079868Y057373D01*
X079669Y057373D01*
X079509Y057214D01*
X079150Y057573D01*
X079420Y057303D02*
X079599Y057303D01*
X079868Y057303D02*
X079868Y057303D01*
X079868Y057104D02*
X079868Y057104D01*
X079868Y056906D02*
X079868Y056906D01*
X079868Y056707D02*
X079868Y056707D01*
X079868Y056509D02*
X079868Y056509D01*
X079868Y056310D02*
X079868Y056310D01*
X079868Y056112D02*
X079868Y056112D01*
X079868Y055913D02*
X079868Y055913D01*
X079868Y055715D02*
X079868Y055715D01*
X079868Y055516D02*
X079868Y055516D01*
X079868Y055318D02*
X079868Y055318D01*
X079868Y055119D02*
X079868Y055119D01*
X079868Y054921D02*
X079868Y054921D01*
X079868Y054722D02*
X079868Y054722D01*
X079868Y054524D02*
X079868Y054524D01*
X079868Y054325D02*
X079868Y054325D01*
X079868Y054127D02*
X079868Y054127D01*
X079868Y053928D02*
X079868Y053928D01*
X079868Y053730D02*
X079868Y053730D01*
X079868Y053531D02*
X079868Y053531D01*
X080185Y053531D02*
X082103Y053531D01*
X082103Y053333D02*
X079269Y053333D01*
X079468Y053531D02*
X079551Y053531D01*
X079621Y054325D02*
X079397Y054325D01*
X079460Y054524D02*
X079558Y054524D01*
X080115Y054325D02*
X082103Y054325D01*
X082103Y054127D02*
X080313Y054127D01*
X080348Y053928D02*
X082272Y053928D01*
X082143Y053730D02*
X080348Y053730D01*
X080177Y054524D02*
X082103Y054524D01*
X082136Y054722D02*
X080348Y054722D01*
X080348Y054921D02*
X082279Y054921D01*
X082103Y055119D02*
X080321Y055119D01*
X080122Y055318D02*
X082103Y055318D01*
X082103Y055516D02*
X080170Y055516D01*
X080348Y055715D02*
X082128Y055715D01*
X082287Y055913D02*
X080348Y055913D01*
X080328Y056112D02*
X082103Y056112D01*
X082103Y056310D02*
X080130Y056310D01*
X080162Y056509D02*
X082103Y056509D01*
X082121Y056707D02*
X080348Y056707D01*
X080348Y056906D02*
X082319Y056906D01*
X082378Y057104D02*
X080336Y057104D01*
X080137Y057303D02*
X082303Y057303D01*
X083188Y058097D02*
X077010Y058097D01*
X077206Y057501D02*
X078514Y057501D01*
X078316Y057303D02*
X077187Y057303D01*
X077386Y057104D02*
X078188Y057104D01*
X078188Y056906D02*
X077743Y056906D01*
X077935Y056707D02*
X078188Y056707D01*
X078291Y056509D02*
X078016Y056509D01*
X078016Y056310D02*
X078323Y056310D01*
X078188Y056112D02*
X077949Y056112D01*
X077784Y055913D02*
X078188Y055913D01*
X078188Y055715D02*
X077932Y055715D01*
X078014Y055516D02*
X078283Y055516D01*
X078331Y055318D02*
X078016Y055318D01*
X077952Y055119D02*
X078188Y055119D01*
X078188Y054921D02*
X077791Y054921D01*
X077929Y054722D02*
X078188Y054722D01*
X078276Y054524D02*
X078011Y054524D01*
X078016Y054325D02*
X078338Y054325D01*
X078188Y054127D02*
X077955Y054127D01*
X077799Y053928D02*
X078188Y053928D01*
X078188Y053730D02*
X058515Y053730D01*
X058518Y053531D02*
X073094Y053531D01*
X073136Y053573D02*
X072776Y053214D01*
X072617Y053373D01*
X072418Y053373D01*
X072418Y052893D01*
X072418Y052413D01*
X072617Y052413D01*
X072776Y052573D01*
X072956Y052393D01*
X072776Y052214D01*
X072617Y052373D01*
X072418Y052373D01*
X072418Y051893D01*
X072418Y051413D01*
X072617Y051413D01*
X072776Y051573D01*
X072956Y051393D01*
X072776Y051214D01*
X072617Y051373D01*
X072418Y051373D01*
X072418Y050893D01*
X072418Y050413D01*
X072617Y050413D01*
X072776Y050573D01*
X072956Y050393D01*
X072776Y050214D01*
X072617Y050373D01*
X072418Y050373D01*
X072418Y049893D01*
X072418Y049413D01*
X072617Y049413D01*
X072776Y049573D01*
X072956Y049393D01*
X072776Y049214D01*
X072617Y049373D01*
X072418Y049373D01*
X072418Y048893D01*
X072418Y048413D01*
X072617Y048413D01*
X072776Y048573D01*
X072956Y048393D01*
X072776Y048214D01*
X072617Y048373D01*
X072418Y048373D01*
X072418Y047893D01*
X072418Y047413D01*
X072617Y047413D01*
X072776Y047573D01*
X072956Y047393D01*
X072776Y047214D01*
X072617Y047373D01*
X072418Y047373D01*
X072418Y046893D01*
X072418Y046413D01*
X072617Y046413D01*
X072776Y046573D01*
X072956Y046393D01*
X072776Y046214D01*
X072617Y046373D01*
X072418Y046373D01*
X072418Y045893D01*
X072418Y045413D01*
X072617Y045413D01*
X072776Y045573D01*
X072956Y045393D01*
X058518Y045393D01*
X058518Y045591D02*
X072041Y045591D01*
X071938Y045694D02*
X072219Y045413D01*
X072418Y045413D01*
X072418Y045893D01*
X072418Y045893D01*
X071938Y045893D01*
X071938Y045694D01*
X071938Y045790D02*
X058518Y045790D01*
X058518Y045988D02*
X071938Y045988D01*
X071938Y045893D02*
X072418Y045893D01*
X072418Y045893D01*
X072418Y045893D01*
X072418Y046373D01*
X072219Y046373D01*
X071938Y046092D01*
X071938Y045893D01*
X072033Y046187D02*
X058518Y046187D01*
X058518Y046385D02*
X072948Y046385D01*
X072418Y046413D02*
X072418Y046893D01*
X072418Y046893D01*
X071938Y046893D01*
X071938Y046694D01*
X072219Y046413D01*
X072418Y046413D01*
X072418Y046584D02*
X072418Y046584D01*
X072418Y046782D02*
X072418Y046782D01*
X072418Y046893D02*
X072418Y046893D01*
X072418Y046893D01*
X071938Y046893D01*
X071938Y047092D01*
X072219Y047373D01*
X072418Y047373D01*
X072418Y046893D01*
X072418Y046981D02*
X072418Y046981D01*
X072418Y047179D02*
X072418Y047179D01*
X072418Y047413D02*
X072418Y047893D01*
X072418Y047893D01*
X071938Y047893D01*
X071938Y047694D01*
X072219Y047413D01*
X072418Y047413D01*
X072418Y047576D02*
X072418Y047576D01*
X072418Y047775D02*
X072418Y047775D01*
X072418Y047893D02*
X072418Y047893D01*
X072418Y047893D01*
X071938Y047893D01*
X071938Y048092D01*
X072219Y048373D01*
X072418Y048373D01*
X072418Y047893D01*
X072418Y047973D02*
X072418Y047973D01*
X072418Y048172D02*
X072418Y048172D01*
X072418Y048370D02*
X072418Y048370D01*
X072418Y048413D02*
X072418Y048893D01*
X072418Y048893D01*
X071938Y048893D01*
X071938Y048694D01*
X072219Y048413D01*
X072418Y048413D01*
X072418Y048569D02*
X072418Y048569D01*
X072418Y048767D02*
X072418Y048767D01*
X072418Y048893D02*
X072418Y048893D01*
X072418Y048893D01*
X071938Y048893D01*
X071938Y049092D01*
X072219Y049373D01*
X072418Y049373D01*
X072418Y048893D01*
X072418Y048966D02*
X072418Y048966D01*
X072418Y049164D02*
X072418Y049164D01*
X072418Y049363D02*
X072418Y049363D01*
X072418Y049413D02*
X072418Y049893D01*
X072418Y049893D01*
X071938Y049893D01*
X071938Y049694D01*
X072219Y049413D01*
X072418Y049413D01*
X072418Y049561D02*
X072418Y049561D01*
X072418Y049760D02*
X072418Y049760D01*
X072418Y049893D02*
X072418Y049893D01*
X072418Y049893D01*
X071938Y049893D01*
X071938Y050092D01*
X072219Y050373D01*
X072418Y050373D01*
X072418Y049893D01*
X072418Y049958D02*
X072418Y049958D01*
X072418Y050157D02*
X072418Y050157D01*
X072418Y050355D02*
X072418Y050355D01*
X072418Y050413D02*
X072219Y050413D01*
X071938Y050694D01*
X071938Y050893D01*
X072418Y050893D01*
X072418Y050893D01*
X072418Y050413D01*
X072418Y050554D02*
X072418Y050554D01*
X072418Y050752D02*
X072418Y050752D01*
X072418Y050893D02*
X072418Y050893D01*
X072418Y050893D01*
X071938Y050893D01*
X071938Y051092D01*
X072219Y051373D01*
X072418Y051373D01*
X072418Y050893D01*
X072418Y050951D02*
X072418Y050951D01*
X072418Y051149D02*
X072418Y051149D01*
X072418Y051348D02*
X072418Y051348D01*
X072418Y051413D02*
X072418Y051893D01*
X072418Y051893D01*
X071938Y051893D01*
X071938Y051694D01*
X072219Y051413D01*
X072418Y051413D01*
X072418Y051546D02*
X072418Y051546D01*
X072418Y051745D02*
X072418Y051745D01*
X072418Y051893D02*
X072418Y051893D01*
X072418Y051893D01*
X071938Y051893D01*
X071938Y052092D01*
X072219Y052373D01*
X072418Y052373D01*
X072418Y051893D01*
X072418Y051943D02*
X072418Y051943D01*
X072418Y052142D02*
X072418Y052142D01*
X072418Y052340D02*
X072418Y052340D01*
X072418Y052413D02*
X072418Y052893D01*
X072418Y052893D01*
X071938Y052893D01*
X071938Y052694D01*
X072219Y052413D01*
X072418Y052413D01*
X072418Y052539D02*
X072418Y052539D01*
X072418Y052737D02*
X072418Y052737D01*
X072418Y052893D02*
X072418Y052893D01*
X072418Y052893D01*
X071938Y052893D01*
X071938Y053092D01*
X072219Y053373D01*
X072418Y053373D01*
X072418Y052893D01*
X072418Y052936D02*
X072418Y052936D01*
X072418Y053134D02*
X072418Y053134D01*
X072418Y053333D02*
X072418Y053333D01*
X072657Y053333D02*
X072896Y053333D01*
X073136Y053573D02*
X073700Y053573D01*
X074098Y053175D01*
X074098Y052612D01*
X073880Y052393D01*
X074098Y052175D01*
X074098Y051612D01*
X073880Y051393D01*
X074098Y051175D01*
X074098Y050612D01*
X073880Y050393D01*
X074098Y050175D01*
X074098Y049612D01*
X073880Y049393D01*
X074098Y049175D01*
X074098Y048612D01*
X073880Y048393D01*
X074098Y048175D01*
X074098Y047612D01*
X073880Y047393D01*
X074098Y047175D01*
X074098Y046612D01*
X073880Y046393D01*
X074098Y046175D01*
X074098Y045612D01*
X073880Y045393D01*
X082103Y045393D01*
X082103Y045591D02*
X074078Y045591D01*
X074098Y045790D02*
X078657Y045790D01*
X078545Y045836D02*
X078787Y045736D01*
X079049Y045736D01*
X079290Y045836D01*
X079418Y045963D01*
X079545Y045836D01*
X079787Y045736D01*
X080049Y045736D01*
X080290Y045836D01*
X080475Y046021D01*
X080575Y046263D01*
X080575Y046524D01*
X080475Y046766D01*
X080348Y046893D01*
X080475Y047021D01*
X080575Y047263D01*
X080575Y047524D01*
X080475Y047766D01*
X080348Y047893D01*
X080475Y048021D01*
X080575Y048263D01*
X080575Y048524D01*
X080475Y048766D01*
X080348Y048893D01*
X080475Y049021D01*
X080575Y049263D01*
X080575Y049524D01*
X080475Y049766D01*
X080290Y049951D01*
X080049Y050051D01*
X079787Y050051D01*
X079545Y049951D01*
X079418Y049823D01*
X079290Y049951D01*
X079049Y050051D01*
X078787Y050051D01*
X078545Y049951D01*
X078360Y049766D01*
X078260Y049524D01*
X078260Y049263D01*
X078360Y049021D01*
X078488Y048893D01*
X078360Y048766D01*
X078260Y048524D01*
X078260Y048263D01*
X078360Y048021D01*
X078488Y047893D01*
X078360Y047766D01*
X078260Y047524D01*
X078260Y047263D01*
X078360Y047021D01*
X078488Y046893D01*
X078360Y046766D01*
X078260Y046524D01*
X078260Y046263D01*
X078360Y046021D01*
X078545Y045836D01*
X078393Y045988D02*
X074098Y045988D01*
X074086Y046187D02*
X078292Y046187D01*
X078260Y046385D02*
X073887Y046385D01*
X074070Y046584D02*
X078285Y046584D01*
X078377Y046782D02*
X074098Y046782D01*
X074098Y046981D02*
X078400Y046981D01*
X078295Y047179D02*
X074093Y047179D01*
X073895Y047378D02*
X078260Y047378D01*
X078282Y047576D02*
X074063Y047576D01*
X074098Y047775D02*
X078370Y047775D01*
X078408Y047973D02*
X074098Y047973D01*
X074098Y048172D02*
X078298Y048172D01*
X078260Y048370D02*
X073902Y048370D01*
X074055Y048569D02*
X078279Y048569D01*
X078362Y048767D02*
X074098Y048767D01*
X074098Y048966D02*
X078415Y048966D01*
X078301Y049164D02*
X074098Y049164D01*
X073910Y049363D02*
X078260Y049363D01*
X078276Y049561D02*
X074048Y049561D01*
X074098Y049760D02*
X078358Y049760D01*
X078564Y049958D02*
X074098Y049958D01*
X074098Y050157D02*
X082103Y050157D01*
X082103Y050355D02*
X073917Y050355D01*
X074040Y050554D02*
X082103Y050554D01*
X082166Y050752D02*
X074098Y050752D01*
X074098Y050951D02*
X082249Y050951D01*
X082103Y051149D02*
X074098Y051149D01*
X073925Y051348D02*
X082103Y051348D01*
X082103Y051546D02*
X074033Y051546D01*
X074098Y051745D02*
X082158Y051745D01*
X082257Y051943D02*
X074098Y051943D01*
X074098Y052142D02*
X082103Y052142D01*
X082103Y052340D02*
X073932Y052340D01*
X074025Y052539D02*
X082103Y052539D01*
X082151Y052737D02*
X074098Y052737D01*
X074098Y052936D02*
X082264Y052936D01*
X082103Y053134D02*
X074098Y053134D01*
X073940Y053333D02*
X078467Y053333D01*
X078268Y053531D02*
X073741Y053531D01*
X072811Y052539D02*
X072742Y052539D01*
X072650Y052340D02*
X072903Y052340D01*
X072186Y052340D02*
X058518Y052340D01*
X058518Y052142D02*
X071988Y052142D01*
X071938Y051943D02*
X058518Y051943D01*
X058518Y051745D02*
X071938Y051745D01*
X072086Y051546D02*
X058518Y051546D01*
X058518Y051348D02*
X072194Y051348D01*
X071995Y051149D02*
X058518Y051149D01*
X058518Y050951D02*
X071938Y050951D01*
X071938Y050752D02*
X058518Y050752D01*
X058518Y050554D02*
X072078Y050554D01*
X072201Y050355D02*
X058518Y050355D01*
X058518Y050157D02*
X072003Y050157D01*
X071938Y049958D02*
X058518Y049958D01*
X058518Y049760D02*
X071938Y049760D01*
X072071Y049561D02*
X058518Y049561D01*
X058518Y049363D02*
X072209Y049363D01*
X072010Y049164D02*
X058518Y049164D01*
X058518Y048966D02*
X071938Y048966D01*
X071938Y048767D02*
X058518Y048767D01*
X058518Y048569D02*
X072063Y048569D01*
X072216Y048370D02*
X058518Y048370D01*
X058518Y048172D02*
X072018Y048172D01*
X071938Y047973D02*
X058518Y047973D01*
X058518Y047775D02*
X071938Y047775D01*
X072056Y047576D02*
X058518Y047576D01*
X058518Y047378D02*
X072941Y047378D01*
X072025Y047179D02*
X058518Y047179D01*
X058518Y046981D02*
X071938Y046981D01*
X071938Y046782D02*
X058518Y046782D01*
X058518Y046584D02*
X072048Y046584D01*
X072418Y046187D02*
X072418Y046187D01*
X072418Y045988D02*
X072418Y045988D01*
X072418Y045790D02*
X072418Y045790D01*
X072418Y045591D02*
X072418Y045591D01*
X072418Y045373D02*
X072219Y045373D01*
X071938Y045092D01*
X071938Y044893D01*
X071938Y044694D01*
X072219Y044413D01*
X072418Y044413D01*
X072617Y044413D01*
X072776Y044573D01*
X072956Y044393D01*
X072776Y044214D01*
X072617Y044373D01*
X072418Y044373D01*
X072418Y043893D01*
X072418Y043413D01*
X072617Y043413D01*
X072776Y043573D01*
X072956Y043393D01*
X072776Y043214D01*
X072617Y043373D01*
X072418Y043373D01*
X072418Y042893D01*
X072418Y042413D01*
X072617Y042413D01*
X072776Y042573D01*
X072956Y042393D01*
X072776Y042214D01*
X072617Y042373D01*
X072418Y042373D01*
X072418Y041893D01*
X072418Y041413D01*
X072617Y041413D01*
X072776Y041573D01*
X072956Y041393D01*
X072776Y041214D01*
X072617Y041373D01*
X072418Y041373D01*
X072418Y040893D01*
X072418Y040413D01*
X072617Y040413D01*
X072776Y040573D01*
X073136Y040213D01*
X073700Y040213D01*
X074098Y040612D01*
X074098Y041175D01*
X073880Y041393D01*
X074098Y041612D01*
X074098Y042175D01*
X073880Y042393D01*
X074098Y042612D01*
X074098Y043175D01*
X073880Y043393D01*
X074098Y043612D01*
X074098Y044175D01*
X073880Y044393D01*
X074098Y044612D01*
X074098Y045175D01*
X073880Y045393D01*
X074078Y045194D02*
X082103Y045194D01*
X082204Y044996D02*
X074098Y044996D01*
X074098Y044797D02*
X082211Y044797D01*
X082103Y044599D02*
X079164Y044599D01*
X079057Y044643D02*
X078779Y044643D01*
X078521Y044537D01*
X078324Y044340D01*
X078218Y044083D01*
X078218Y043204D01*
X078324Y042947D01*
X078521Y042750D01*
X078779Y042643D01*
X079057Y042643D01*
X079314Y042750D01*
X079511Y042947D01*
X079539Y043015D01*
X079592Y042962D01*
X079656Y042916D01*
X079726Y042880D01*
X079801Y042856D01*
X079878Y042843D01*
X079918Y042843D01*
X079957Y042843D01*
X080035Y042856D01*
X080110Y042880D01*
X080180Y042916D01*
X080244Y042962D01*
X080299Y043018D01*
X080345Y043081D01*
X080381Y043151D01*
X080406Y043226D01*
X080418Y043304D01*
X080418Y043643D01*
X079918Y043643D01*
X079918Y042843D01*
X079918Y043643D01*
X079918Y043643D01*
X079918Y043643D01*
X080418Y043643D01*
X080418Y043983D01*
X080406Y044060D01*
X080381Y044135D01*
X080345Y044205D01*
X080299Y044269D01*
X080244Y044325D01*
X080180Y044371D01*
X080110Y044407D01*
X080035Y044431D01*
X079957Y044443D01*
X079918Y044443D01*
X079918Y043643D01*
X079918Y043643D01*
X079918Y044443D01*
X079878Y044443D01*
X079801Y044431D01*
X079726Y044407D01*
X079656Y044371D01*
X079592Y044325D01*
X079539Y044272D01*
X079511Y044340D01*
X079314Y044537D01*
X079057Y044643D01*
X078671Y044599D02*
X074085Y044599D01*
X073887Y044400D02*
X078385Y044400D01*
X078267Y044202D02*
X074071Y044202D01*
X074098Y044003D02*
X078218Y044003D01*
X078218Y043805D02*
X074098Y043805D01*
X074093Y043606D02*
X078218Y043606D01*
X078218Y043408D02*
X073894Y043408D01*
X074063Y043209D02*
X078218Y043209D01*
X078298Y043011D02*
X074098Y043011D01*
X074098Y042812D02*
X078459Y042812D01*
X079377Y042812D02*
X082226Y042812D01*
X082189Y043011D02*
X080293Y043011D01*
X080400Y043209D02*
X082103Y043209D01*
X082103Y043408D02*
X080418Y043408D01*
X080418Y043606D02*
X082103Y043606D01*
X082218Y043805D02*
X080418Y043805D01*
X080415Y044003D02*
X082197Y044003D01*
X082103Y044202D02*
X080347Y044202D01*
X080122Y044400D02*
X082103Y044400D01*
X083329Y043893D02*
X083533Y044097D01*
X083533Y044429D01*
X083818Y044714D01*
X084103Y044429D01*
X084103Y044097D01*
X084307Y043893D01*
X084103Y043689D01*
X084103Y043097D01*
X084307Y042893D01*
X084103Y042689D01*
X084103Y042097D01*
X084307Y041893D01*
X084103Y041689D01*
X084103Y041097D01*
X084307Y040893D01*
X084103Y040689D01*
X084103Y040097D01*
X084307Y039893D01*
X084103Y039689D01*
X084103Y039097D01*
X084307Y038893D01*
X084103Y038689D01*
X084103Y038097D01*
X084307Y037893D01*
X084103Y037689D01*
X084103Y037097D01*
X084307Y036893D01*
X084103Y036689D01*
X084103Y036097D01*
X084307Y035893D01*
X084103Y035689D01*
X084103Y035097D01*
X084307Y034893D01*
X084103Y034689D01*
X084103Y034097D01*
X084307Y033893D01*
X084103Y033689D01*
X084103Y033097D01*
X084307Y032893D01*
X084103Y032689D01*
X083533Y032689D01*
X083329Y032893D01*
X083533Y033097D01*
X083533Y033689D01*
X083329Y033893D01*
X083533Y034097D01*
X083533Y034689D01*
X083329Y034893D01*
X083533Y035097D01*
X083533Y035689D01*
X083329Y035893D01*
X083533Y036097D01*
X083533Y036689D01*
X083329Y036893D01*
X083533Y037097D01*
X083533Y037689D01*
X083329Y037893D01*
X083533Y038097D01*
X083533Y038689D01*
X083329Y038893D01*
X083533Y039097D01*
X083533Y039689D01*
X083329Y039893D01*
X083533Y040097D01*
X083533Y040689D01*
X083329Y040893D01*
X083533Y041097D01*
X083533Y041689D01*
X083329Y041893D01*
X083533Y042097D01*
X083533Y042689D01*
X083329Y042893D01*
X083533Y043097D01*
X083533Y043689D01*
X083329Y043893D01*
X083417Y043805D02*
X084218Y043805D01*
X084197Y044003D02*
X083439Y044003D01*
X083533Y044202D02*
X084103Y044202D01*
X084103Y044400D02*
X083533Y044400D01*
X083702Y044599D02*
X083933Y044599D01*
X084103Y043606D02*
X083533Y043606D01*
X083533Y043408D02*
X084103Y043408D01*
X084103Y043209D02*
X083533Y043209D01*
X083447Y043011D02*
X084189Y043011D01*
X084226Y042812D02*
X083410Y042812D01*
X083533Y042614D02*
X084103Y042614D01*
X084103Y042415D02*
X083533Y042415D01*
X083533Y042217D02*
X084103Y042217D01*
X084182Y042018D02*
X083454Y042018D01*
X083402Y041820D02*
X084233Y041820D01*
X084103Y041621D02*
X083533Y041621D01*
X083533Y041423D02*
X084103Y041423D01*
X084103Y041224D02*
X083533Y041224D01*
X083462Y041026D02*
X084174Y041026D01*
X084241Y040827D02*
X083395Y040827D01*
X083533Y040629D02*
X084103Y040629D01*
X084103Y040430D02*
X083533Y040430D01*
X083533Y040232D02*
X084103Y040232D01*
X084167Y040033D02*
X083469Y040033D01*
X083387Y039835D02*
X084248Y039835D01*
X084103Y039636D02*
X083533Y039636D01*
X083533Y039438D02*
X084103Y039438D01*
X084103Y039239D02*
X083533Y039239D01*
X083477Y039041D02*
X084159Y039041D01*
X084256Y038842D02*
X083380Y038842D01*
X083533Y038644D02*
X084103Y038644D01*
X084103Y038445D02*
X083533Y038445D01*
X083533Y038247D02*
X084103Y038247D01*
X084152Y038048D02*
X083484Y038048D01*
X083372Y037850D02*
X084263Y037850D01*
X084103Y037651D02*
X083533Y037651D01*
X083533Y037453D02*
X084103Y037453D01*
X084103Y037254D02*
X083533Y037254D01*
X083492Y037056D02*
X084144Y037056D01*
X084271Y036857D02*
X083365Y036857D01*
X083533Y036659D02*
X084103Y036659D01*
X084103Y036460D02*
X083533Y036460D01*
X083533Y036262D02*
X084103Y036262D01*
X084137Y036063D02*
X083499Y036063D01*
X083357Y035865D02*
X084278Y035865D01*
X084103Y035666D02*
X083533Y035666D01*
X083533Y035468D02*
X084103Y035468D01*
X084103Y035269D02*
X083533Y035269D01*
X083507Y035071D02*
X084129Y035071D01*
X084286Y034872D02*
X083350Y034872D01*
X083533Y034674D02*
X084103Y034674D01*
X084103Y034475D02*
X083533Y034475D01*
X083533Y034277D02*
X084103Y034277D01*
X084122Y034078D02*
X083514Y034078D01*
X083342Y033880D02*
X084293Y033880D01*
X084103Y033681D02*
X083533Y033681D01*
X083533Y033483D02*
X084103Y033483D01*
X084103Y033284D02*
X083533Y033284D01*
X083522Y033086D02*
X084114Y033086D01*
X084301Y032887D02*
X083335Y032887D01*
X083533Y032689D02*
X083533Y032097D01*
X083329Y031893D01*
X083533Y031689D01*
X083533Y031097D01*
X083329Y030893D01*
X083533Y030689D01*
X083533Y030097D01*
X083329Y029893D01*
X083533Y029689D01*
X083533Y029097D01*
X083329Y028893D01*
X083533Y028689D01*
X083533Y028097D01*
X083329Y027893D01*
X083533Y027689D01*
X083533Y027097D01*
X083329Y026893D01*
X083533Y026689D01*
X083533Y026097D01*
X083114Y025678D01*
X082522Y025678D01*
X082468Y025732D01*
X082468Y025234D01*
X082346Y024940D01*
X081621Y024215D01*
X081327Y024093D01*
X031259Y024093D01*
X030828Y024352D02*
X026968Y024352D01*
X026968Y024550D02*
X030629Y024550D01*
X030431Y024749D02*
X026931Y024749D01*
X026878Y024947D02*
X030232Y024947D01*
X030034Y025146D02*
X026789Y025146D01*
X026674Y025344D02*
X029835Y025344D01*
X029697Y025543D02*
X026502Y025543D01*
X026283Y025741D02*
X029618Y025741D01*
X029618Y025940D02*
X025921Y025940D01*
X026014Y026337D02*
X024418Y026337D01*
X024418Y026535D02*
X025685Y026535D01*
X025727Y026493D02*
X025984Y026345D01*
X026270Y026268D01*
X026566Y026268D01*
X026852Y026345D01*
X027109Y026493D01*
X027318Y026703D01*
X027466Y026959D01*
X027543Y027245D01*
X027543Y027541D01*
X027466Y027828D01*
X027318Y028084D01*
X027109Y028294D01*
X026852Y028442D01*
X026566Y028518D01*
X026270Y028518D01*
X025984Y028442D01*
X025727Y028294D01*
X025518Y028084D01*
X025370Y027828D01*
X025293Y027541D01*
X025293Y027245D01*
X025370Y026959D01*
X025518Y026703D01*
X025727Y026493D01*
X025500Y026734D02*
X024418Y026734D01*
X024418Y026932D02*
X025385Y026932D01*
X025323Y027131D02*
X024418Y027131D01*
X024418Y027329D02*
X025293Y027329D01*
X025293Y027528D02*
X024418Y027528D01*
X024418Y027726D02*
X025342Y027726D01*
X025426Y027925D02*
X024418Y027925D01*
X024418Y028123D02*
X025557Y028123D01*
X025776Y028322D02*
X024418Y028322D01*
X024418Y028520D02*
X029618Y028520D01*
X029618Y028322D02*
X027060Y028322D01*
X027279Y028123D02*
X029618Y028123D01*
X029618Y027925D02*
X027410Y027925D01*
X027493Y027726D02*
X029618Y027726D01*
X029618Y027528D02*
X027543Y027528D01*
X027543Y027329D02*
X029618Y027329D01*
X029618Y027131D02*
X027512Y027131D01*
X027451Y026932D02*
X029618Y026932D01*
X029618Y026734D02*
X027336Y026734D01*
X027151Y026535D02*
X029618Y026535D01*
X029618Y026337D02*
X026822Y026337D01*
X024715Y025940D02*
X024418Y025940D01*
X024418Y026138D02*
X029618Y026138D01*
X031218Y026337D02*
X052014Y026337D01*
X051984Y026345D02*
X052270Y026268D01*
X052566Y026268D01*
X052852Y026345D01*
X053109Y026493D01*
X053318Y026703D01*
X053466Y026959D01*
X053543Y027245D01*
X053543Y027541D01*
X053466Y027828D01*
X053318Y028084D01*
X053109Y028294D01*
X052852Y028442D01*
X052566Y028518D01*
X052270Y028518D01*
X051984Y028442D01*
X051727Y028294D01*
X051518Y028084D01*
X051370Y027828D01*
X051293Y027541D01*
X051293Y027245D01*
X051370Y026959D01*
X051518Y026703D01*
X051727Y026493D01*
X051984Y026345D01*
X051685Y026535D02*
X031218Y026535D01*
X031218Y026734D02*
X034116Y026734D01*
X034136Y026713D02*
X034700Y026713D01*
X034918Y026932D01*
X035136Y026713D01*
X035700Y026713D01*
X035918Y026932D01*
X036136Y026713D01*
X036700Y026713D01*
X036918Y026932D01*
X037136Y026713D01*
X037700Y026713D01*
X037918Y026932D01*
X038136Y026713D01*
X038700Y026713D01*
X038918Y026932D01*
X039136Y026713D01*
X039700Y026713D01*
X039918Y026932D01*
X040136Y026713D01*
X040700Y026713D01*
X040918Y026932D01*
X041136Y026713D01*
X041700Y026713D01*
X041918Y026932D01*
X042136Y026713D01*
X042700Y026713D01*
X042918Y026932D01*
X043136Y026713D01*
X043700Y026713D01*
X043918Y026932D01*
X044136Y026713D01*
X044700Y026713D01*
X044918Y026932D01*
X045136Y026713D01*
X045700Y026713D01*
X045918Y026932D01*
X046136Y026713D01*
X046700Y026713D01*
X047098Y027112D01*
X047098Y027675D01*
X046738Y028035D01*
X046898Y028194D01*
X046898Y028393D01*
X046418Y028393D01*
X046418Y028393D01*
X045938Y028393D01*
X045938Y028194D01*
X046098Y028035D01*
X045918Y027855D01*
X045738Y028035D01*
X045898Y028194D01*
X045898Y028393D01*
X045418Y028393D01*
X045418Y028393D01*
X044938Y028393D01*
X044938Y028194D01*
X045098Y028035D01*
X044918Y027855D01*
X044738Y028035D01*
X044898Y028194D01*
X044898Y028393D01*
X044418Y028393D01*
X044418Y028393D01*
X043938Y028393D01*
X043938Y028194D01*
X044098Y028035D01*
X043918Y027855D01*
X043738Y028035D01*
X043898Y028194D01*
X043898Y028393D01*
X043418Y028393D01*
X043418Y028393D01*
X042938Y028393D01*
X042938Y028194D01*
X043098Y028035D01*
X042918Y027855D01*
X042738Y028035D01*
X042898Y028194D01*
X042898Y028393D01*
X042418Y028393D01*
X042418Y028393D01*
X041938Y028393D01*
X041938Y028194D01*
X042098Y028035D01*
X041918Y027855D01*
X041738Y028035D01*
X041898Y028194D01*
X041898Y028393D01*
X041418Y028393D01*
X041418Y028393D01*
X040938Y028393D01*
X040938Y028194D01*
X041098Y028035D01*
X040918Y027855D01*
X040738Y028035D01*
X040898Y028194D01*
X040898Y028393D01*
X040418Y028393D01*
X040418Y028393D01*
X039938Y028393D01*
X039938Y028194D01*
X040098Y028035D01*
X039918Y027855D01*
X039738Y028035D01*
X039898Y028194D01*
X039898Y028393D01*
X039418Y028393D01*
X039418Y028393D01*
X038938Y028393D01*
X038938Y028194D01*
X039098Y028035D01*
X038918Y027855D01*
X038738Y028035D01*
X038898Y028194D01*
X038898Y028393D01*
X038418Y028393D01*
X038418Y028393D01*
X037938Y028393D01*
X037938Y028194D01*
X038098Y028035D01*
X037918Y027855D01*
X037738Y028035D01*
X037898Y028194D01*
X037898Y028393D01*
X037418Y028393D01*
X037418Y028393D01*
X036938Y028393D01*
X036938Y028194D01*
X037098Y028035D01*
X036918Y027855D01*
X036738Y028035D01*
X036898Y028194D01*
X036898Y028393D01*
X036418Y028393D01*
X036418Y028393D01*
X035938Y028393D01*
X035938Y028194D01*
X036098Y028035D01*
X035918Y027855D01*
X035738Y028035D01*
X035898Y028194D01*
X035898Y028393D01*
X035418Y028393D01*
X035418Y028393D01*
X034938Y028393D01*
X034938Y028194D01*
X035098Y028035D01*
X034918Y027855D01*
X034738Y028035D01*
X034898Y028194D01*
X034898Y028393D01*
X034418Y028393D01*
X034418Y028393D01*
X034898Y028393D01*
X034898Y028592D01*
X034617Y028873D01*
X034418Y028873D01*
X034418Y028393D01*
X033938Y028393D01*
X033938Y028194D01*
X034098Y028035D01*
X033738Y027675D01*
X033738Y027112D01*
X034136Y026713D01*
X033917Y026932D02*
X031218Y026932D01*
X031218Y027131D02*
X033738Y027131D01*
X033738Y027329D02*
X031218Y027329D01*
X031218Y027528D02*
X033738Y027528D01*
X033789Y027726D02*
X031218Y027726D01*
X031218Y027925D02*
X033988Y027925D01*
X034009Y028123D02*
X031218Y028123D01*
X031218Y028322D02*
X033938Y028322D01*
X033938Y028393D02*
X034418Y028393D01*
X034418Y028393D01*
X034418Y028393D01*
X034418Y028873D01*
X034219Y028873D01*
X033938Y028592D01*
X033938Y028393D01*
X033938Y028520D02*
X031218Y028520D01*
X031218Y028719D02*
X034065Y028719D01*
X034418Y028719D02*
X034418Y028719D01*
X034418Y028520D02*
X034418Y028520D01*
X034771Y028719D02*
X035065Y028719D01*
X034938Y028592D02*
X034938Y028393D01*
X035418Y028393D01*
X035418Y028393D01*
X035898Y028393D01*
X035898Y028592D01*
X035617Y028873D01*
X035418Y028873D01*
X035418Y028393D01*
X035418Y028393D01*
X035418Y028873D01*
X035219Y028873D01*
X034938Y028592D01*
X034938Y028520D02*
X034898Y028520D01*
X034898Y028322D02*
X034938Y028322D01*
X035009Y028123D02*
X034827Y028123D01*
X034848Y027925D02*
X034988Y027925D01*
X035418Y028520D02*
X035418Y028520D01*
X035418Y028719D02*
X035418Y028719D01*
X035771Y028719D02*
X036065Y028719D01*
X035938Y028592D02*
X035938Y028393D01*
X036418Y028393D01*
X036418Y028393D01*
X036898Y028393D01*
X036898Y028592D01*
X036617Y028873D01*
X036418Y028873D01*
X036418Y028393D01*
X036418Y028393D01*
X036418Y028873D01*
X036219Y028873D01*
X035938Y028592D01*
X035938Y028520D02*
X035898Y028520D01*
X035898Y028322D02*
X035938Y028322D01*
X036009Y028123D02*
X035827Y028123D01*
X035848Y027925D02*
X035988Y027925D01*
X036418Y028520D02*
X036418Y028520D01*
X036418Y028719D02*
X036418Y028719D01*
X036771Y028719D02*
X037065Y028719D01*
X036938Y028592D02*
X036938Y028393D01*
X037418Y028393D01*
X037418Y028393D01*
X037898Y028393D01*
X037898Y028592D01*
X037617Y028873D01*
X037418Y028873D01*
X037418Y028393D01*
X037418Y028393D01*
X037418Y028873D01*
X037219Y028873D01*
X036938Y028592D01*
X036938Y028520D02*
X036898Y028520D01*
X036898Y028322D02*
X036938Y028322D01*
X037009Y028123D02*
X036827Y028123D01*
X036848Y027925D02*
X036988Y027925D01*
X037418Y028520D02*
X037418Y028520D01*
X037418Y028719D02*
X037418Y028719D01*
X037771Y028719D02*
X038065Y028719D01*
X037938Y028592D02*
X038219Y028873D01*
X038418Y028873D01*
X038418Y028393D01*
X038418Y028393D01*
X038898Y028393D01*
X038898Y028592D01*
X038617Y028873D01*
X038418Y028873D01*
X038418Y028393D01*
X038418Y028393D01*
X037938Y028393D01*
X037938Y028592D01*
X037938Y028520D02*
X037898Y028520D01*
X037898Y028322D02*
X037938Y028322D01*
X038009Y028123D02*
X037827Y028123D01*
X037848Y027925D02*
X037988Y027925D01*
X038418Y028520D02*
X038418Y028520D01*
X038418Y028719D02*
X038418Y028719D01*
X038771Y028719D02*
X039065Y028719D01*
X038938Y028592D02*
X038938Y028393D01*
X039418Y028393D01*
X039418Y028393D01*
X039898Y028393D01*
X039898Y028592D01*
X039617Y028873D01*
X039418Y028873D01*
X039418Y028393D01*
X039418Y028393D01*
X039418Y028873D01*
X039219Y028873D01*
X038938Y028592D01*
X038938Y028520D02*
X038898Y028520D01*
X038898Y028322D02*
X038938Y028322D01*
X039009Y028123D02*
X038827Y028123D01*
X038848Y027925D02*
X038988Y027925D01*
X039418Y028520D02*
X039418Y028520D01*
X039418Y028719D02*
X039418Y028719D01*
X039771Y028719D02*
X040065Y028719D01*
X039938Y028592D02*
X039938Y028393D01*
X040418Y028393D01*
X040418Y028393D01*
X040898Y028393D01*
X040898Y028592D01*
X040617Y028873D01*
X040418Y028873D01*
X040418Y028393D01*
X040418Y028393D01*
X040418Y028873D01*
X040219Y028873D01*
X039938Y028592D01*
X039938Y028520D02*
X039898Y028520D01*
X039898Y028322D02*
X039938Y028322D01*
X040009Y028123D02*
X039827Y028123D01*
X039848Y027925D02*
X039988Y027925D01*
X040418Y028520D02*
X040418Y028520D01*
X040418Y028719D02*
X040418Y028719D01*
X040771Y028719D02*
X041065Y028719D01*
X040938Y028592D02*
X040938Y028393D01*
X041418Y028393D01*
X041418Y028393D01*
X041898Y028393D01*
X041898Y028592D01*
X041617Y028873D01*
X041418Y028873D01*
X041418Y028393D01*
X041418Y028393D01*
X041418Y028873D01*
X041219Y028873D01*
X040938Y028592D01*
X040938Y028520D02*
X040898Y028520D01*
X040898Y028322D02*
X040938Y028322D01*
X041009Y028123D02*
X040827Y028123D01*
X040848Y027925D02*
X040988Y027925D01*
X041418Y028520D02*
X041418Y028520D01*
X041418Y028719D02*
X041418Y028719D01*
X041771Y028719D02*
X042065Y028719D01*
X041938Y028592D02*
X041938Y028393D01*
X042418Y028393D01*
X042418Y028393D01*
X042898Y028393D01*
X042898Y028592D01*
X042617Y028873D01*
X042418Y028873D01*
X042418Y028393D01*
X042418Y028393D01*
X042418Y028873D01*
X042219Y028873D01*
X041938Y028592D01*
X041938Y028520D02*
X041898Y028520D01*
X041898Y028322D02*
X041938Y028322D01*
X042009Y028123D02*
X041827Y028123D01*
X041848Y027925D02*
X041988Y027925D01*
X042418Y028520D02*
X042418Y028520D01*
X042418Y028719D02*
X042418Y028719D01*
X042771Y028719D02*
X043065Y028719D01*
X042938Y028592D02*
X042938Y028393D01*
X043418Y028393D01*
X043418Y028393D01*
X043898Y028393D01*
X043898Y028592D01*
X043617Y028873D01*
X043418Y028873D01*
X043418Y028393D01*
X043418Y028393D01*
X043418Y028873D01*
X043219Y028873D01*
X042938Y028592D01*
X042938Y028520D02*
X042898Y028520D01*
X042898Y028322D02*
X042938Y028322D01*
X043009Y028123D02*
X042827Y028123D01*
X042848Y027925D02*
X042988Y027925D01*
X043418Y028520D02*
X043418Y028520D01*
X043418Y028719D02*
X043418Y028719D01*
X043771Y028719D02*
X044065Y028719D01*
X043938Y028592D02*
X043938Y028393D01*
X044418Y028393D01*
X044418Y028393D01*
X044898Y028393D01*
X044898Y028592D01*
X044617Y028873D01*
X044418Y028873D01*
X044418Y028393D01*
X044418Y028393D01*
X044418Y028873D01*
X044219Y028873D01*
X043938Y028592D01*
X043938Y028520D02*
X043898Y028520D01*
X043898Y028322D02*
X043938Y028322D01*
X044009Y028123D02*
X043827Y028123D01*
X043848Y027925D02*
X043988Y027925D01*
X044418Y028520D02*
X044418Y028520D01*
X044418Y028719D02*
X044418Y028719D01*
X044771Y028719D02*
X045065Y028719D01*
X044938Y028592D02*
X044938Y028393D01*
X045418Y028393D01*
X045418Y028393D01*
X045898Y028393D01*
X045898Y028592D01*
X045617Y028873D01*
X045418Y028873D01*
X045418Y028393D01*
X045418Y028393D01*
X045418Y028873D01*
X045219Y028873D01*
X044938Y028592D01*
X044938Y028520D02*
X044898Y028520D01*
X044898Y028322D02*
X044938Y028322D01*
X045009Y028123D02*
X044827Y028123D01*
X044848Y027925D02*
X044988Y027925D01*
X045418Y028520D02*
X045418Y028520D01*
X045418Y028719D02*
X045418Y028719D01*
X045771Y028719D02*
X046065Y028719D01*
X045938Y028592D02*
X045938Y028393D01*
X046418Y028393D01*
X046418Y028393D01*
X046898Y028393D01*
X046898Y028592D01*
X046617Y028873D01*
X046418Y028873D01*
X046418Y028393D01*
X046418Y028393D01*
X046418Y028873D01*
X046219Y028873D01*
X045938Y028592D01*
X045938Y028520D02*
X045898Y028520D01*
X045898Y028322D02*
X045938Y028322D01*
X046009Y028123D02*
X045827Y028123D01*
X045848Y027925D02*
X045988Y027925D01*
X046418Y028520D02*
X046418Y028520D01*
X046418Y028719D02*
X046418Y028719D01*
X046771Y028719D02*
X079182Y028719D01*
X079168Y028917D02*
X031218Y028917D01*
X031218Y029116D02*
X079202Y029116D01*
X079299Y029314D02*
X031218Y029314D01*
X031218Y029513D02*
X079534Y029513D01*
X079098Y029910D02*
X031218Y029910D01*
X031218Y030108D02*
X062222Y030108D01*
X061873Y030307D02*
X031218Y030307D01*
X031218Y030505D02*
X061674Y030505D01*
X061476Y030704D02*
X031218Y030704D01*
X031218Y030902D02*
X061277Y030902D01*
X061079Y031101D02*
X031218Y031101D01*
X031218Y031299D02*
X060880Y031299D01*
X060682Y031498D02*
X031218Y031498D01*
X031218Y031696D02*
X060483Y031696D01*
X060285Y031895D02*
X056938Y031895D01*
X056852Y031845D02*
X057109Y031993D01*
X057318Y032203D01*
X057466Y032459D01*
X057543Y032745D01*
X057543Y033041D01*
X057466Y033328D01*
X057318Y033584D01*
X057109Y033794D01*
X056852Y033942D01*
X056566Y034018D01*
X056270Y034018D01*
X055984Y033942D01*
X055727Y033794D01*
X055518Y033584D01*
X055370Y033328D01*
X055293Y033041D01*
X055293Y032745D01*
X055370Y032459D01*
X055518Y032203D01*
X055727Y031993D01*
X055984Y031845D01*
X056270Y031768D01*
X056566Y031768D01*
X056852Y031845D01*
X057209Y032093D02*
X060086Y032093D01*
X059888Y032292D02*
X057370Y032292D01*
X057475Y032490D02*
X059689Y032490D01*
X059491Y032689D02*
X057528Y032689D01*
X057543Y032887D02*
X059292Y032887D01*
X059094Y033086D02*
X057531Y033086D01*
X057478Y033284D02*
X058895Y033284D01*
X058697Y033483D02*
X057377Y033483D01*
X057221Y033681D02*
X058498Y033681D01*
X058300Y033880D02*
X056959Y033880D01*
X057704Y034475D02*
X031218Y034475D01*
X031218Y034277D02*
X057903Y034277D01*
X058101Y034078D02*
X031218Y034078D01*
X031218Y033880D02*
X055877Y033880D01*
X055615Y033681D02*
X031218Y033681D01*
X031218Y033483D02*
X055459Y033483D01*
X055358Y033284D02*
X031218Y033284D01*
X031218Y033086D02*
X055305Y033086D01*
X055293Y032887D02*
X031218Y032887D01*
X031218Y032689D02*
X055308Y032689D01*
X055361Y032490D02*
X031218Y032490D01*
X031218Y032292D02*
X055466Y032292D01*
X055627Y032093D02*
X031218Y032093D01*
X031218Y031895D02*
X055897Y031895D01*
X057506Y034674D02*
X031218Y034674D01*
X031218Y034872D02*
X057307Y034872D01*
X057109Y035071D02*
X031218Y035071D01*
X031218Y035269D02*
X056986Y035269D01*
X056918Y035468D02*
X031218Y035468D01*
X031218Y035666D02*
X056918Y035666D01*
X056918Y035865D02*
X031218Y035865D01*
X031218Y036063D02*
X056918Y036063D01*
X056918Y036262D02*
X031218Y036262D01*
X031218Y036460D02*
X056918Y036460D01*
X056918Y036659D02*
X031218Y036659D01*
X031218Y036857D02*
X056918Y036857D01*
X056918Y037056D02*
X031218Y037056D01*
X031218Y037254D02*
X056918Y037254D01*
X056918Y037453D02*
X031218Y037453D01*
X031218Y037651D02*
X056918Y037651D01*
X056918Y037850D02*
X031218Y037850D01*
X031218Y038048D02*
X056918Y038048D01*
X056918Y038247D02*
X031218Y038247D01*
X031218Y038445D02*
X056918Y038445D01*
X056918Y038644D02*
X031218Y038644D01*
X031218Y038842D02*
X056918Y038842D01*
X056918Y039041D02*
X031218Y039041D01*
X031218Y039239D02*
X056918Y039239D01*
X056918Y039438D02*
X031218Y039438D01*
X031218Y039636D02*
X056918Y039636D01*
X056918Y039835D02*
X031218Y039835D01*
X031218Y040033D02*
X056918Y040033D01*
X056918Y040232D02*
X031218Y040232D01*
X031218Y040430D02*
X056918Y040430D01*
X056918Y040629D02*
X031218Y040629D01*
X031218Y040827D02*
X056918Y040827D01*
X056918Y041026D02*
X031218Y041026D01*
X031218Y041224D02*
X056918Y041224D01*
X056918Y041423D02*
X031218Y041423D01*
X031218Y041621D02*
X056918Y041621D01*
X056918Y041820D02*
X031218Y041820D01*
X031218Y042018D02*
X056918Y042018D01*
X056918Y042217D02*
X031218Y042217D01*
X031218Y042415D02*
X046595Y042415D01*
X046649Y042393D02*
X047527Y042393D01*
X047784Y042500D01*
X047981Y042697D01*
X048088Y042954D01*
X048088Y043233D01*
X047981Y043490D01*
X047784Y043687D01*
X047716Y043715D01*
X047769Y043768D01*
X047815Y043831D01*
X047851Y043901D01*
X047876Y043976D01*
X047888Y044054D01*
X047888Y044093D01*
X047088Y044093D01*
X047088Y044093D01*
X047888Y044093D01*
X047888Y044133D01*
X047876Y044210D01*
X047851Y044285D01*
X047815Y044355D01*
X047769Y044419D01*
X047714Y044475D01*
X047650Y044521D01*
X047580Y044557D01*
X047505Y044581D01*
X047427Y044593D01*
X047088Y044593D01*
X047088Y044093D01*
X046288Y044093D01*
X046288Y044054D01*
X046300Y043976D01*
X046324Y043901D01*
X046360Y043831D01*
X046406Y043768D01*
X046459Y043715D01*
X046391Y043687D01*
X046194Y043490D01*
X046088Y043233D01*
X046088Y042954D01*
X046194Y042697D01*
X046391Y042500D01*
X046649Y042393D01*
X046277Y042614D02*
X031270Y042614D01*
X031367Y042812D02*
X046147Y042812D01*
X046088Y043011D02*
X031418Y043011D01*
X031418Y043209D02*
X046088Y043209D01*
X046160Y043408D02*
X031353Y043408D01*
X031236Y043606D02*
X046311Y043606D01*
X046379Y043805D02*
X031218Y043805D01*
X031218Y044003D02*
X046296Y044003D01*
X046288Y044093D02*
X047088Y044093D01*
X047088Y044093D01*
X047088Y044093D01*
X047088Y044593D01*
X046748Y044593D01*
X046671Y044581D01*
X046596Y044557D01*
X046526Y044521D01*
X046462Y044475D01*
X046406Y044419D01*
X046360Y044355D01*
X046324Y044285D01*
X046300Y044210D01*
X046288Y044133D01*
X046288Y044093D01*
X046299Y044202D02*
X031218Y044202D01*
X031218Y044400D02*
X046393Y044400D01*
X047088Y044400D02*
X047088Y044400D01*
X047088Y044202D02*
X047088Y044202D01*
X047783Y044400D02*
X051293Y044400D01*
X051293Y044541D02*
X051293Y044245D01*
X051370Y043959D01*
X051518Y043703D01*
X051727Y043493D01*
X051984Y043345D01*
X052270Y043268D01*
X052566Y043268D01*
X052852Y043345D01*
X053109Y043493D01*
X053318Y043703D01*
X053466Y043959D01*
X053543Y044245D01*
X053543Y044541D01*
X053466Y044828D01*
X053318Y045084D01*
X053109Y045294D01*
X052852Y045442D01*
X052566Y045518D01*
X052270Y045518D01*
X051984Y045442D01*
X051727Y045294D01*
X051518Y045084D01*
X051370Y044828D01*
X051293Y044541D01*
X051308Y044599D02*
X031218Y044599D01*
X031218Y044797D02*
X051361Y044797D01*
X051467Y044996D02*
X031218Y044996D01*
X031218Y045194D02*
X051628Y045194D01*
X051899Y045393D02*
X031218Y045393D01*
X031218Y045591D02*
X056918Y045591D01*
X056918Y045393D02*
X052937Y045393D01*
X053208Y045194D02*
X056918Y045194D01*
X056918Y044996D02*
X053369Y044996D01*
X053474Y044797D02*
X056918Y044797D01*
X056918Y044599D02*
X053527Y044599D01*
X053543Y044400D02*
X056918Y044400D01*
X056918Y044202D02*
X053531Y044202D01*
X053478Y044003D02*
X056918Y044003D01*
X056918Y043805D02*
X053377Y043805D01*
X053222Y043606D02*
X056918Y043606D01*
X056918Y043408D02*
X052961Y043408D01*
X051875Y043408D02*
X048015Y043408D01*
X048088Y043209D02*
X056918Y043209D01*
X056918Y043011D02*
X048088Y043011D01*
X048029Y042812D02*
X056918Y042812D01*
X056918Y042614D02*
X047898Y042614D01*
X047580Y042415D02*
X056918Y042415D01*
X058518Y042415D02*
X072217Y042415D01*
X072219Y042413D02*
X072418Y042413D01*
X072418Y042893D01*
X072418Y042893D01*
X071938Y042893D01*
X071938Y042694D01*
X072219Y042413D01*
X072219Y042373D02*
X071938Y042092D01*
X071938Y041893D01*
X071938Y041694D01*
X072219Y041413D01*
X072418Y041413D01*
X072418Y041893D01*
X072418Y041893D01*
X071938Y041893D01*
X072418Y041893D01*
X072418Y041893D01*
X072418Y041893D01*
X072418Y042373D01*
X072219Y042373D01*
X072418Y042415D02*
X072418Y042415D01*
X072418Y042217D02*
X072418Y042217D01*
X072418Y042018D02*
X072418Y042018D01*
X072418Y041820D02*
X072418Y041820D01*
X072418Y041621D02*
X072418Y041621D01*
X072418Y041423D02*
X072418Y041423D01*
X072418Y041373D02*
X072219Y041373D01*
X071938Y041092D01*
X071938Y040893D01*
X071938Y040694D01*
X072219Y040413D01*
X072418Y040413D01*
X072418Y040893D01*
X072418Y040893D01*
X071938Y040893D01*
X072418Y040893D01*
X072418Y040893D01*
X072418Y040893D01*
X072418Y041373D01*
X072418Y041224D02*
X072418Y041224D01*
X072418Y041026D02*
X072418Y041026D01*
X072418Y040827D02*
X072418Y040827D01*
X072418Y040629D02*
X072418Y040629D01*
X072418Y040430D02*
X072418Y040430D01*
X072634Y040430D02*
X072919Y040430D01*
X073118Y040232D02*
X058518Y040232D01*
X058518Y040430D02*
X072202Y040430D01*
X072003Y040629D02*
X058518Y040629D01*
X058518Y040827D02*
X071938Y040827D01*
X071938Y041026D02*
X058518Y041026D01*
X058518Y041224D02*
X072070Y041224D01*
X072209Y041423D02*
X058518Y041423D01*
X058518Y041621D02*
X072011Y041621D01*
X071938Y041820D02*
X058518Y041820D01*
X058518Y042018D02*
X071938Y042018D01*
X072063Y042217D02*
X058518Y042217D01*
X058518Y042614D02*
X072018Y042614D01*
X071938Y042812D02*
X058518Y042812D01*
X058518Y043011D02*
X071938Y043011D01*
X071938Y043092D02*
X071938Y042893D01*
X072418Y042893D01*
X072418Y042893D01*
X072418Y042893D01*
X072418Y043373D01*
X072219Y043373D01*
X071938Y043092D01*
X072055Y043209D02*
X058518Y043209D01*
X058518Y043408D02*
X072942Y043408D01*
X072418Y043413D02*
X072418Y043893D01*
X072418Y043893D01*
X071938Y043893D01*
X071938Y043694D01*
X072219Y043413D01*
X072418Y043413D01*
X072418Y043606D02*
X072418Y043606D01*
X072418Y043805D02*
X072418Y043805D01*
X072418Y043893D02*
X072418Y043893D01*
X072418Y043893D01*
X071938Y043893D01*
X071938Y044092D01*
X072219Y044373D01*
X072418Y044373D01*
X072418Y043893D01*
X072418Y044003D02*
X072418Y044003D01*
X072418Y044202D02*
X072418Y044202D01*
X072418Y044413D02*
X072418Y044893D01*
X072418Y044893D01*
X072418Y044413D01*
X072418Y044599D02*
X072418Y044599D01*
X072418Y044797D02*
X072418Y044797D01*
X072418Y044893D02*
X071938Y044893D01*
X072418Y044893D01*
X072418Y044893D01*
X072418Y044893D01*
X072418Y045373D01*
X072617Y045373D01*
X072776Y045214D01*
X072956Y045393D01*
X072418Y045373D02*
X072418Y044893D01*
X072418Y044996D02*
X072418Y044996D01*
X072418Y045194D02*
X072418Y045194D01*
X072040Y045194D02*
X058518Y045194D01*
X058518Y044996D02*
X071938Y044996D01*
X071938Y044797D02*
X058518Y044797D01*
X058518Y044599D02*
X072033Y044599D01*
X072048Y044202D02*
X058518Y044202D01*
X058518Y044400D02*
X072949Y044400D01*
X071938Y044003D02*
X058518Y044003D01*
X058518Y043805D02*
X071938Y043805D01*
X072026Y043606D02*
X058518Y043606D01*
X056918Y045790D02*
X031218Y045790D01*
X031218Y045988D02*
X056918Y045988D01*
X056918Y046187D02*
X031218Y046187D01*
X031218Y046385D02*
X056918Y046385D01*
X056918Y046584D02*
X031218Y046584D01*
X031218Y046782D02*
X056918Y046782D01*
X056918Y046981D02*
X031218Y046981D01*
X031218Y047179D02*
X056918Y047179D01*
X056918Y047378D02*
X031218Y047378D01*
X031218Y047576D02*
X056918Y047576D01*
X056918Y047775D02*
X031218Y047775D01*
X031218Y047973D02*
X056918Y047973D01*
X056918Y048172D02*
X044292Y048172D01*
X044452Y048370D02*
X056918Y048370D01*
X056918Y048569D02*
X044516Y048569D01*
X044514Y048767D02*
X044626Y048767D01*
X045210Y048767D02*
X056918Y048767D01*
X056918Y048966D02*
X045466Y048966D01*
X045570Y049164D02*
X056918Y049164D01*
X056918Y049363D02*
X045608Y049363D01*
X045986Y049561D02*
X056918Y049561D01*
X056918Y049760D02*
X046185Y049760D01*
X046383Y049958D02*
X056918Y049958D01*
X056918Y050157D02*
X046582Y050157D01*
X046780Y050355D02*
X050494Y050355D01*
X050296Y050554D02*
X050257Y050554D01*
X049918Y050554D02*
X049918Y050554D01*
X049918Y050752D02*
X049918Y050752D01*
X049918Y050893D02*
X049438Y050893D01*
X049438Y051092D01*
X049719Y051373D01*
X049918Y051373D01*
X049918Y050893D01*
X049918Y050951D02*
X049918Y050951D01*
X049918Y051149D02*
X049918Y051149D01*
X049918Y051348D02*
X049918Y051348D01*
X049918Y051546D02*
X049918Y051546D01*
X049918Y051745D02*
X049918Y051745D01*
X050250Y051546D02*
X050303Y051546D01*
X050411Y051348D02*
X050142Y051348D01*
X049694Y051348D02*
X047773Y051348D01*
X047971Y051546D02*
X049586Y051546D01*
X049438Y051745D02*
X048170Y051745D01*
X048368Y051943D02*
X049438Y051943D01*
X049488Y052142D02*
X048567Y052142D01*
X048765Y052340D02*
X049509Y052340D01*
X049311Y052539D02*
X048964Y052539D01*
X049162Y052737D02*
X049238Y052737D01*
X049495Y051149D02*
X047574Y051149D01*
X047376Y050951D02*
X049438Y050951D01*
X049438Y050752D02*
X047177Y050752D01*
X046979Y050554D02*
X049578Y050554D01*
X051342Y050355D02*
X056918Y050355D01*
X056918Y050554D02*
X051540Y050554D01*
X051598Y050752D02*
X056918Y050752D01*
X056918Y050951D02*
X051598Y050951D01*
X051598Y051149D02*
X056918Y051149D01*
X056918Y051348D02*
X051425Y051348D01*
X051533Y051546D02*
X056918Y051546D01*
X056918Y051745D02*
X051598Y051745D01*
X051598Y051943D02*
X056918Y051943D01*
X056918Y052142D02*
X051598Y052142D01*
X051432Y052340D02*
X056918Y052340D01*
X056918Y052539D02*
X051525Y052539D01*
X051598Y052737D02*
X056918Y052737D01*
X056718Y052936D02*
X056718Y052936D01*
X056718Y053134D02*
X056718Y053134D01*
X056718Y053333D02*
X056718Y053333D01*
X056718Y053531D02*
X056718Y053531D01*
X056718Y053563D02*
X056218Y053563D01*
X056218Y053903D01*
X056230Y053980D01*
X056254Y054055D01*
X056290Y054125D01*
X056336Y054189D01*
X056392Y054245D01*
X056456Y054291D01*
X056526Y054327D01*
X056601Y054351D01*
X056678Y054363D01*
X056718Y054363D01*
X056718Y053563D01*
X056718Y053730D02*
X056718Y053730D01*
X056718Y053928D02*
X056718Y053928D01*
X056718Y054127D02*
X056718Y054127D01*
X056718Y054325D02*
X056718Y054325D01*
X056912Y054325D02*
X057190Y054325D01*
X057483Y054524D02*
X053949Y054524D01*
X054147Y054722D02*
X076410Y054722D01*
X076608Y054524D02*
X057952Y054524D01*
X058246Y054325D02*
X076807Y054325D01*
X076881Y054127D02*
X058366Y054127D01*
X058433Y053928D02*
X077037Y053928D01*
X076211Y054921D02*
X054346Y054921D01*
X054544Y055119D02*
X073620Y055119D01*
X074216Y055119D02*
X076013Y055119D01*
X075814Y055318D02*
X074430Y055318D01*
X074513Y055516D02*
X075616Y055516D01*
X074372Y058295D02*
X083188Y058295D01*
X083188Y058494D02*
X074476Y058494D01*
X074529Y058692D02*
X083188Y058692D01*
X083188Y058891D02*
X074543Y058891D01*
X074530Y059089D02*
X083043Y059089D01*
X082844Y059288D02*
X074477Y059288D01*
X074374Y059486D02*
X082646Y059486D01*
X079573Y056509D02*
X079445Y056509D01*
X079412Y056310D02*
X079606Y056310D01*
X079566Y055516D02*
X079453Y055516D01*
X079405Y055318D02*
X079614Y055318D01*
X072803Y051546D02*
X072750Y051546D01*
X072642Y051348D02*
X072911Y051348D01*
X072796Y050554D02*
X072757Y050554D01*
X072635Y050355D02*
X072918Y050355D01*
X072788Y049561D02*
X072765Y049561D01*
X072627Y049363D02*
X072926Y049363D01*
X072781Y048569D02*
X072772Y048569D01*
X072620Y048370D02*
X072933Y048370D01*
X072093Y052539D02*
X058518Y052539D01*
X058518Y052737D02*
X071938Y052737D01*
X071938Y052936D02*
X058518Y052936D01*
X058518Y053134D02*
X071980Y053134D01*
X072179Y053333D02*
X058518Y053333D01*
X056338Y052936D02*
X052266Y052936D01*
X052559Y053134D02*
X056234Y053134D01*
X056218Y053333D02*
X052758Y053333D01*
X052956Y053531D02*
X056218Y053531D01*
X056218Y053730D02*
X053155Y053730D01*
X053353Y053928D02*
X056222Y053928D01*
X056291Y054127D02*
X053552Y054127D01*
X053750Y054325D02*
X056523Y054325D01*
X044954Y061074D02*
X029418Y061074D01*
X029418Y060876D02*
X044722Y060876D01*
X044523Y060677D02*
X029418Y060677D01*
X029418Y060479D02*
X044325Y060479D01*
X044126Y060280D02*
X029418Y060280D01*
X029418Y060082D02*
X043928Y060082D01*
X043729Y059883D02*
X029418Y059883D01*
X029418Y059685D02*
X031738Y059685D01*
X032097Y059685D02*
X043531Y059685D01*
X043332Y059486D02*
X032456Y059486D01*
X032620Y059288D02*
X043134Y059288D01*
X042980Y059089D02*
X032703Y059089D01*
X032718Y058891D02*
X042938Y058891D01*
X042938Y058692D02*
X032701Y058692D01*
X032618Y058494D02*
X042938Y058494D01*
X042938Y058295D02*
X032451Y058295D01*
X032253Y058097D02*
X042938Y058097D01*
X042938Y057898D02*
X032054Y057898D01*
X031856Y057700D02*
X042938Y057700D01*
X042938Y057501D02*
X031657Y057501D01*
X031459Y057303D02*
X042938Y057303D01*
X042938Y057104D02*
X031260Y057104D01*
X031218Y056906D02*
X042938Y056906D01*
X042938Y056707D02*
X031218Y056707D01*
X031218Y056509D02*
X042938Y056509D01*
X042938Y056310D02*
X031218Y056310D01*
X031218Y056112D02*
X042938Y056112D01*
X042462Y055913D02*
X042374Y055913D01*
X041462Y055913D02*
X041374Y055913D01*
X040462Y055913D02*
X040374Y055913D01*
X039462Y055913D02*
X039374Y055913D01*
X038462Y055913D02*
X038374Y055913D01*
X037462Y055913D02*
X037374Y055913D01*
X036462Y055913D02*
X036374Y055913D01*
X035462Y055913D02*
X035374Y055913D01*
X034462Y055913D02*
X034374Y055913D01*
X033462Y055913D02*
X032374Y055913D01*
X032531Y055715D02*
X032546Y055715D01*
X032918Y055715D02*
X032918Y055715D01*
X032918Y055516D02*
X032918Y055516D01*
X033289Y055715D02*
X033304Y055715D01*
X033366Y054921D02*
X033414Y054921D01*
X033528Y054722D02*
X033735Y054722D01*
X033608Y054524D02*
X034228Y054524D01*
X034228Y054325D02*
X033608Y054325D01*
X033554Y054127D02*
X034281Y054127D01*
X034407Y053928D02*
X033429Y053928D01*
X033119Y053730D02*
X034716Y053730D01*
X035119Y053730D02*
X035716Y053730D01*
X036119Y053730D02*
X036716Y053730D01*
X037119Y053730D02*
X037310Y053730D01*
X037429Y053928D02*
X037477Y053928D01*
X037554Y054127D02*
X042438Y054127D01*
X042438Y054325D02*
X037608Y054325D01*
X037608Y054524D02*
X042452Y054524D01*
X042568Y054722D02*
X042101Y054722D01*
X041735Y054722D02*
X041101Y054722D01*
X040735Y054722D02*
X040101Y054722D01*
X039735Y054722D02*
X039101Y054722D01*
X038735Y054722D02*
X038101Y054722D01*
X037735Y054722D02*
X037528Y054722D01*
X038359Y053928D02*
X038477Y053928D01*
X039359Y053928D02*
X039477Y053928D01*
X040359Y053928D02*
X040477Y053928D01*
X041359Y053928D02*
X041477Y053928D01*
X042359Y053928D02*
X042438Y053928D01*
X039392Y051943D02*
X039114Y051943D01*
X038918Y051943D02*
X038918Y051943D01*
X038722Y051943D02*
X038444Y051943D01*
X038155Y051745D02*
X039680Y051745D01*
X039975Y051546D02*
X031218Y051546D01*
X031218Y051348D02*
X039855Y051348D01*
X039820Y051149D02*
X031218Y051149D01*
X031218Y050951D02*
X039850Y050951D01*
X039963Y050752D02*
X031218Y050752D01*
X031218Y050554D02*
X040278Y050554D01*
X040555Y050355D02*
X031218Y050355D01*
X031218Y050157D02*
X040754Y050157D01*
X040507Y049958D02*
X040329Y049958D01*
X039507Y049958D02*
X039329Y049958D01*
X038507Y049958D02*
X038329Y049958D01*
X037507Y049958D02*
X037329Y049958D01*
X036507Y049958D02*
X036329Y049958D01*
X035507Y049958D02*
X035329Y049958D01*
X034507Y049958D02*
X034329Y049958D01*
X033507Y049958D02*
X033329Y049958D01*
X032507Y049958D02*
X031218Y049958D01*
X031218Y049760D02*
X031591Y049760D01*
X031599Y049767D02*
X031544Y049713D01*
X031499Y049650D01*
X031464Y049581D01*
X031440Y049508D01*
X031428Y049432D01*
X031428Y049393D01*
X031918Y049393D01*
X031918Y049883D01*
X031879Y049883D01*
X031803Y049871D01*
X031730Y049847D01*
X031661Y049812D01*
X031599Y049767D01*
X031457Y049561D02*
X031218Y049561D01*
X031218Y049363D02*
X031428Y049363D01*
X031485Y049164D02*
X031218Y049164D01*
X031218Y048966D02*
X031677Y048966D01*
X031918Y048966D02*
X031918Y048966D01*
X031918Y049164D02*
X031918Y049164D01*
X031918Y049363D02*
X031918Y049363D01*
X031918Y049561D02*
X031918Y049561D01*
X031918Y049760D02*
X031918Y049760D01*
X032244Y049760D02*
X032323Y049760D01*
X032369Y048966D02*
X032158Y048966D01*
X032626Y048767D02*
X031218Y048767D01*
X031218Y048569D02*
X033063Y048569D01*
X033262Y048370D02*
X031218Y048370D01*
X031218Y048172D02*
X033552Y048172D01*
X029618Y048172D02*
X029418Y048172D01*
X029418Y048370D02*
X029618Y048370D01*
X029618Y048569D02*
X029418Y048569D01*
X029418Y048767D02*
X029618Y048767D01*
X029618Y048966D02*
X029418Y048966D01*
X029418Y049164D02*
X029618Y049164D01*
X029618Y049363D02*
X029418Y049363D01*
X029418Y049561D02*
X029618Y049561D01*
X029618Y049760D02*
X029418Y049760D01*
X029418Y049958D02*
X029618Y049958D01*
X029618Y050157D02*
X029418Y050157D01*
X029418Y050355D02*
X029618Y050355D01*
X029618Y050554D02*
X029418Y050554D01*
X029418Y050752D02*
X029618Y050752D01*
X029618Y050951D02*
X029418Y050951D01*
X029418Y051149D02*
X029618Y051149D01*
X029618Y051348D02*
X029418Y051348D01*
X029418Y051546D02*
X029618Y051546D01*
X029618Y051745D02*
X029418Y051745D01*
X029418Y051943D02*
X029618Y051943D01*
X029618Y052142D02*
X029418Y052142D01*
X029418Y052340D02*
X029618Y052340D01*
X029618Y052539D02*
X029418Y052539D01*
X029418Y052737D02*
X029618Y052737D01*
X029618Y052936D02*
X029418Y052936D01*
X029418Y053134D02*
X029618Y053134D01*
X029618Y053333D02*
X029418Y053333D01*
X029418Y053531D02*
X029618Y053531D01*
X029618Y053730D02*
X029418Y053730D01*
X029418Y053928D02*
X029618Y053928D01*
X029618Y054127D02*
X029418Y054127D01*
X029418Y054325D02*
X029618Y054325D01*
X029618Y054524D02*
X029418Y054524D01*
X029418Y054722D02*
X029618Y054722D01*
X029618Y054921D02*
X029418Y054921D01*
X029418Y055119D02*
X029618Y055119D01*
X029618Y055318D02*
X029418Y055318D01*
X029418Y055516D02*
X029618Y055516D01*
X029618Y055715D02*
X029418Y055715D01*
X029418Y055913D02*
X029618Y055913D01*
X029618Y056112D02*
X029418Y056112D01*
X029418Y056310D02*
X029618Y056310D01*
X029618Y056509D02*
X029418Y056509D01*
X029418Y056707D02*
X029618Y056707D01*
X029618Y056906D02*
X029418Y056906D01*
X029418Y057104D02*
X029618Y057104D01*
X029618Y057303D02*
X029418Y057303D01*
X029418Y057501D02*
X029618Y057501D01*
X029679Y057700D02*
X029418Y057700D01*
X029418Y057898D02*
X029792Y057898D01*
X029990Y058097D02*
X029418Y058097D01*
X029418Y058295D02*
X030189Y058295D01*
X030387Y058494D02*
X029418Y058494D01*
X029418Y058692D02*
X030586Y058692D01*
X030784Y058891D02*
X029418Y058891D01*
X029418Y059089D02*
X030983Y059089D01*
X031181Y059288D02*
X029418Y059288D01*
X029418Y059486D02*
X031380Y059486D01*
X031462Y055913D02*
X031218Y055913D01*
X031218Y055715D02*
X031304Y055715D01*
X031228Y055516D02*
X031218Y055516D01*
X031218Y055318D02*
X031228Y055318D01*
X031218Y055119D02*
X031284Y055119D01*
X031218Y054921D02*
X031414Y054921D01*
X031218Y054722D02*
X031735Y054722D01*
X032101Y054722D02*
X032307Y054722D01*
X032228Y054524D02*
X031218Y054524D01*
X031218Y054325D02*
X032228Y054325D01*
X032281Y054127D02*
X031218Y054127D01*
X031218Y053928D02*
X032407Y053928D01*
X032716Y053730D02*
X031218Y053730D01*
X031218Y053134D02*
X037278Y053134D01*
X037399Y052936D02*
X031218Y052936D01*
X031218Y052737D02*
X037314Y052737D01*
X037231Y052539D02*
X031218Y052539D01*
X031218Y052340D02*
X037228Y052340D01*
X037275Y052142D02*
X031218Y052142D01*
X031218Y051943D02*
X037392Y051943D01*
X037680Y051745D02*
X031218Y051745D01*
X032421Y054921D02*
X032470Y054921D01*
X034101Y054722D02*
X034307Y054722D01*
X038918Y052340D02*
X038918Y052340D01*
X038918Y052142D02*
X038918Y052142D01*
X029618Y047973D02*
X029418Y047973D01*
X029418Y047775D02*
X029618Y047775D01*
X029618Y047576D02*
X029418Y047576D01*
X029418Y047378D02*
X029618Y047378D01*
X029618Y047179D02*
X029418Y047179D01*
X029371Y046981D02*
X029618Y046981D01*
X029618Y046782D02*
X029214Y046782D01*
X029618Y046584D02*
X024418Y046584D01*
X024418Y046385D02*
X029618Y046385D01*
X029618Y046187D02*
X024418Y046187D01*
X024418Y045988D02*
X029618Y045988D01*
X029618Y045790D02*
X024418Y045790D01*
X024418Y045591D02*
X029618Y045591D01*
X029618Y045393D02*
X026937Y045393D01*
X026852Y045442D02*
X026566Y045518D01*
X026270Y045518D01*
X025984Y045442D01*
X025727Y045294D01*
X025518Y045084D01*
X025370Y044828D01*
X025293Y044541D01*
X025293Y044245D01*
X025370Y043959D01*
X025518Y043703D01*
X025727Y043493D01*
X025984Y043345D01*
X026270Y043268D01*
X026566Y043268D01*
X026852Y043345D01*
X027109Y043493D01*
X027318Y043703D01*
X027466Y043959D01*
X027543Y044245D01*
X027543Y044541D01*
X027466Y044828D01*
X027318Y045084D01*
X027109Y045294D01*
X026852Y045442D01*
X027208Y045194D02*
X029618Y045194D01*
X029618Y044996D02*
X027369Y044996D01*
X027474Y044797D02*
X029618Y044797D01*
X029618Y044599D02*
X027527Y044599D01*
X027543Y044400D02*
X029618Y044400D01*
X029618Y044202D02*
X027531Y044202D01*
X027478Y044003D02*
X029618Y044003D01*
X029618Y043805D02*
X027377Y043805D01*
X027222Y043606D02*
X029618Y043606D01*
X029618Y043408D02*
X026961Y043408D01*
X025875Y043408D02*
X024418Y043408D01*
X024418Y043606D02*
X025614Y043606D01*
X025459Y043805D02*
X024418Y043805D01*
X024418Y044003D02*
X025358Y044003D01*
X025304Y044202D02*
X024418Y044202D01*
X024418Y044400D02*
X025293Y044400D01*
X025308Y044599D02*
X024418Y044599D01*
X024418Y044797D02*
X025361Y044797D01*
X025467Y044996D02*
X024418Y044996D01*
X024418Y045194D02*
X025628Y045194D01*
X025899Y045393D02*
X024418Y045393D01*
X024418Y043209D02*
X029618Y043209D01*
X029618Y043011D02*
X024418Y043011D01*
X024418Y042812D02*
X029618Y042812D01*
X029618Y042614D02*
X024418Y042614D01*
X024418Y042415D02*
X029618Y042415D01*
X029618Y042217D02*
X024418Y042217D01*
X024418Y042018D02*
X029618Y042018D01*
X029618Y041820D02*
X024418Y041820D01*
X024418Y041621D02*
X029618Y041621D01*
X029618Y041423D02*
X024418Y041423D01*
X024418Y041224D02*
X029618Y041224D01*
X029618Y041026D02*
X024418Y041026D01*
X024418Y040827D02*
X029618Y040827D01*
X029618Y040629D02*
X024418Y040629D01*
X024418Y040430D02*
X029618Y040430D01*
X029618Y040232D02*
X024418Y040232D01*
X024418Y040033D02*
X029618Y040033D01*
X029618Y039835D02*
X024418Y039835D01*
X024418Y039636D02*
X029618Y039636D01*
X029618Y039438D02*
X024418Y039438D01*
X024418Y039239D02*
X029618Y039239D01*
X029618Y039041D02*
X024418Y039041D01*
X024418Y038842D02*
X029618Y038842D01*
X029618Y038644D02*
X024418Y038644D01*
X024418Y038445D02*
X029618Y038445D01*
X029618Y038247D02*
X024418Y038247D01*
X024418Y038048D02*
X029618Y038048D01*
X029618Y037850D02*
X024418Y037850D01*
X024418Y037651D02*
X029618Y037651D01*
X029618Y037453D02*
X024418Y037453D01*
X024418Y037254D02*
X029618Y037254D01*
X029618Y037056D02*
X024418Y037056D01*
X024418Y036857D02*
X029618Y036857D01*
X029618Y036659D02*
X024418Y036659D01*
X024418Y036460D02*
X029618Y036460D01*
X029618Y036262D02*
X024418Y036262D01*
X024418Y036063D02*
X029618Y036063D01*
X029618Y035865D02*
X024418Y035865D01*
X024418Y035666D02*
X029618Y035666D01*
X029618Y035468D02*
X024418Y035468D01*
X024418Y035269D02*
X029618Y035269D01*
X029618Y035071D02*
X024418Y035071D01*
X024418Y034872D02*
X029618Y034872D01*
X029618Y034674D02*
X024418Y034674D01*
X024418Y034475D02*
X029618Y034475D01*
X029618Y034277D02*
X024418Y034277D01*
X024418Y034078D02*
X029618Y034078D01*
X029618Y033880D02*
X024418Y033880D01*
X024418Y033681D02*
X029618Y033681D01*
X029618Y033483D02*
X024418Y033483D01*
X024418Y033284D02*
X029618Y033284D01*
X029618Y033086D02*
X024418Y033086D01*
X024418Y032887D02*
X029618Y032887D01*
X029618Y032689D02*
X024418Y032689D01*
X024418Y032490D02*
X029618Y032490D01*
X029618Y032292D02*
X024418Y032292D01*
X024418Y032093D02*
X029618Y032093D01*
X029618Y031895D02*
X024418Y031895D01*
X024418Y031696D02*
X029618Y031696D01*
X029618Y031498D02*
X024418Y031498D01*
X024418Y031299D02*
X029618Y031299D01*
X029618Y031101D02*
X024418Y031101D01*
X024418Y030902D02*
X029618Y030902D01*
X029618Y030704D02*
X024418Y030704D01*
X024418Y030505D02*
X029618Y030505D01*
X029618Y030307D02*
X024418Y030307D01*
X024418Y030108D02*
X029618Y030108D01*
X029618Y029910D02*
X024418Y029910D01*
X024418Y029711D02*
X029618Y029711D01*
X029618Y029513D02*
X024418Y029513D01*
X024418Y029314D02*
X029618Y029314D01*
X029618Y029116D02*
X024418Y029116D01*
X024418Y028917D02*
X029618Y028917D01*
X029618Y028719D02*
X024418Y028719D01*
X026855Y023756D02*
X026638Y023380D01*
X026331Y023073D01*
X025955Y022856D01*
X025535Y022743D01*
X025101Y022743D01*
X024681Y022856D01*
X024418Y023008D01*
X024418Y022962D02*
X024496Y022962D01*
X024418Y022764D02*
X025024Y022764D01*
X025612Y022764D02*
X086418Y022764D01*
X086418Y022962D02*
X026139Y022962D01*
X026419Y023161D02*
X085395Y023161D01*
X085013Y023359D02*
X026617Y023359D01*
X026741Y023558D02*
X084815Y023558D01*
X084536Y024153D02*
X081472Y024153D01*
X081758Y024352D02*
X084518Y024352D01*
X084518Y024550D02*
X081956Y024550D01*
X082155Y024749D02*
X084567Y024749D01*
X084637Y024947D02*
X082349Y024947D01*
X082431Y025146D02*
X084751Y025146D01*
X084930Y025344D02*
X082468Y025344D01*
X082468Y025543D02*
X085209Y025543D01*
X085114Y025678D02*
X085533Y026097D01*
X085533Y026689D01*
X085329Y026893D01*
X085533Y027097D01*
X085533Y027689D01*
X085329Y027893D01*
X085533Y028097D01*
X085533Y028689D01*
X085329Y028893D01*
X085533Y029097D01*
X085533Y029689D01*
X085329Y029893D01*
X085533Y030097D01*
X085533Y030689D01*
X085329Y030893D01*
X085533Y031097D01*
X085533Y031689D01*
X085329Y031893D01*
X085533Y032097D01*
X085533Y032689D01*
X085533Y032490D02*
X086418Y032490D01*
X086418Y032292D02*
X085533Y032292D01*
X085529Y032093D02*
X086418Y032093D01*
X086418Y031895D02*
X085331Y031895D01*
X085526Y031696D02*
X086418Y031696D01*
X086418Y031498D02*
X085533Y031498D01*
X085533Y031299D02*
X086418Y031299D01*
X086418Y031101D02*
X085533Y031101D01*
X085338Y030902D02*
X086418Y030902D01*
X086418Y030704D02*
X085518Y030704D01*
X085533Y030505D02*
X086418Y030505D01*
X086418Y030307D02*
X085533Y030307D01*
X085533Y030108D02*
X086418Y030108D01*
X086418Y029910D02*
X085346Y029910D01*
X085511Y029711D02*
X086418Y029711D01*
X086418Y029513D02*
X085533Y029513D01*
X085533Y029314D02*
X086418Y029314D01*
X086418Y029116D02*
X085533Y029116D01*
X085353Y028917D02*
X086418Y028917D01*
X086418Y028719D02*
X085503Y028719D01*
X085533Y028520D02*
X086418Y028520D01*
X086418Y028322D02*
X085533Y028322D01*
X085533Y028123D02*
X086418Y028123D01*
X086418Y027925D02*
X085361Y027925D01*
X085496Y027726D02*
X086418Y027726D01*
X086418Y027528D02*
X085533Y027528D01*
X085533Y027329D02*
X086418Y027329D01*
X086418Y027131D02*
X085533Y027131D01*
X085368Y026932D02*
X086418Y026932D01*
X086418Y026734D02*
X085488Y026734D01*
X085533Y026535D02*
X086418Y026535D01*
X086418Y026337D02*
X085533Y026337D01*
X085533Y026138D02*
X086418Y026138D01*
X086418Y025940D02*
X085376Y025940D01*
X085177Y025741D02*
X086418Y025741D01*
X085114Y025678D02*
X084522Y025678D01*
X084103Y026097D01*
X084103Y026689D01*
X084307Y026893D01*
X084103Y027097D01*
X084103Y027689D01*
X084307Y027893D01*
X084103Y028097D01*
X084103Y028689D01*
X084307Y028893D01*
X084103Y029097D01*
X084103Y029689D01*
X084307Y029893D01*
X084103Y030097D01*
X084103Y030689D01*
X084307Y030893D01*
X084103Y031097D01*
X084103Y031689D01*
X084307Y031893D01*
X084103Y032097D01*
X084103Y032689D01*
X084103Y032490D02*
X083533Y032490D01*
X083533Y032292D02*
X084103Y032292D01*
X084107Y032093D02*
X083529Y032093D01*
X083331Y031895D02*
X084305Y031895D01*
X084110Y031696D02*
X083526Y031696D01*
X083533Y031498D02*
X084103Y031498D01*
X084103Y031299D02*
X083533Y031299D01*
X083533Y031101D02*
X084103Y031101D01*
X084298Y030902D02*
X083338Y030902D01*
X083518Y030704D02*
X084117Y030704D01*
X084103Y030505D02*
X083533Y030505D01*
X083533Y030307D02*
X084103Y030307D01*
X084103Y030108D02*
X083533Y030108D01*
X083346Y029910D02*
X084290Y029910D01*
X084125Y029711D02*
X083511Y029711D01*
X083533Y029513D02*
X084103Y029513D01*
X084103Y029314D02*
X083533Y029314D01*
X083533Y029116D02*
X084103Y029116D01*
X084283Y028917D02*
X083353Y028917D01*
X083503Y028719D02*
X084132Y028719D01*
X084103Y028520D02*
X083533Y028520D01*
X083533Y028322D02*
X084103Y028322D01*
X084103Y028123D02*
X083533Y028123D01*
X083361Y027925D02*
X084275Y027925D01*
X084140Y027726D02*
X083496Y027726D01*
X083533Y027528D02*
X084103Y027528D01*
X084103Y027329D02*
X083533Y027329D01*
X083533Y027131D02*
X084103Y027131D01*
X084268Y026932D02*
X083368Y026932D01*
X083488Y026734D02*
X084147Y026734D01*
X084103Y026535D02*
X083533Y026535D01*
X083533Y026337D02*
X084103Y026337D01*
X084103Y026138D02*
X083533Y026138D01*
X083376Y025940D02*
X084260Y025940D01*
X084459Y025741D02*
X083177Y025741D01*
X080868Y025741D02*
X031701Y025741D01*
X031503Y025940D02*
X080868Y025940D01*
X080868Y026138D02*
X031304Y026138D01*
X034720Y026734D02*
X035116Y026734D01*
X035720Y026734D02*
X036116Y026734D01*
X036720Y026734D02*
X037116Y026734D01*
X037720Y026734D02*
X038116Y026734D01*
X038720Y026734D02*
X039116Y026734D01*
X039720Y026734D02*
X040116Y026734D01*
X040720Y026734D02*
X041116Y026734D01*
X041720Y026734D02*
X042116Y026734D01*
X042720Y026734D02*
X043116Y026734D01*
X043720Y026734D02*
X044116Y026734D01*
X044720Y026734D02*
X045116Y026734D01*
X045720Y026734D02*
X046116Y026734D01*
X046720Y026734D02*
X051500Y026734D01*
X051385Y026932D02*
X046919Y026932D01*
X047098Y027131D02*
X051323Y027131D01*
X051293Y027329D02*
X047098Y027329D01*
X047098Y027528D02*
X051293Y027528D01*
X051342Y027726D02*
X047046Y027726D01*
X046848Y027925D02*
X051426Y027925D01*
X051557Y028123D02*
X046827Y028123D01*
X046898Y028322D02*
X051776Y028322D01*
X053060Y028322D02*
X079449Y028322D01*
X079424Y028123D02*
X053279Y028123D01*
X053410Y027925D02*
X079368Y027925D01*
X079396Y027726D02*
X053493Y027726D01*
X053543Y027528D02*
X079526Y027528D01*
X079314Y027329D02*
X053543Y027329D01*
X053512Y027131D02*
X079209Y027131D01*
X079168Y026932D02*
X053451Y026932D01*
X053336Y026734D02*
X079176Y026734D01*
X079258Y026535D02*
X053151Y026535D01*
X052822Y026337D02*
X079434Y026337D01*
X079265Y028520D02*
X046898Y028520D01*
X058578Y035865D02*
X082278Y035865D01*
X082137Y036063D02*
X058518Y036063D01*
X058518Y036262D02*
X082103Y036262D01*
X082103Y036460D02*
X058518Y036460D01*
X058518Y036659D02*
X082103Y036659D01*
X082271Y036857D02*
X058518Y036857D01*
X058518Y037056D02*
X082144Y037056D01*
X082103Y037254D02*
X058518Y037254D01*
X058518Y037453D02*
X082103Y037453D01*
X082103Y037651D02*
X058518Y037651D01*
X058518Y037850D02*
X082263Y037850D01*
X082152Y038048D02*
X058518Y038048D01*
X058518Y038247D02*
X082103Y038247D01*
X082103Y038445D02*
X058518Y038445D01*
X058518Y038644D02*
X082103Y038644D01*
X082256Y038842D02*
X058518Y038842D01*
X058518Y039041D02*
X082159Y039041D01*
X082103Y039239D02*
X058518Y039239D01*
X058518Y039438D02*
X082103Y039438D01*
X082103Y039636D02*
X058518Y039636D01*
X058518Y039835D02*
X082248Y039835D01*
X082167Y040033D02*
X058518Y040033D01*
X058776Y035666D02*
X082103Y035666D01*
X082103Y035468D02*
X058975Y035468D01*
X059173Y035269D02*
X082103Y035269D01*
X082129Y035071D02*
X059372Y035071D01*
X059570Y034872D02*
X082286Y034872D01*
X082103Y034674D02*
X059769Y034674D01*
X059967Y034475D02*
X082103Y034475D01*
X082103Y034277D02*
X060166Y034277D01*
X060364Y034078D02*
X082122Y034078D01*
X082103Y031498D02*
X079945Y031498D01*
X081643Y031299D02*
X082103Y031299D01*
X082103Y031101D02*
X081842Y031101D01*
X082040Y030902D02*
X082298Y030902D01*
X080868Y029711D02*
X031218Y029711D01*
X047865Y043606D02*
X051614Y043606D01*
X051459Y043805D02*
X047796Y043805D01*
X047880Y044003D02*
X051358Y044003D01*
X051304Y044202D02*
X047877Y044202D01*
X072418Y043209D02*
X072418Y043209D01*
X072418Y043011D02*
X072418Y043011D01*
X072418Y042812D02*
X072418Y042812D01*
X072418Y042614D02*
X072418Y042614D01*
X072619Y042415D02*
X072934Y042415D01*
X072780Y042217D02*
X072773Y042217D01*
X072626Y041423D02*
X072927Y041423D01*
X072787Y041224D02*
X072766Y041224D01*
X073909Y041423D02*
X082103Y041423D01*
X082103Y041621D02*
X074098Y041621D01*
X074098Y041820D02*
X082233Y041820D01*
X082182Y042018D02*
X074098Y042018D01*
X074056Y042217D02*
X082103Y042217D01*
X082103Y042415D02*
X073902Y042415D01*
X074098Y042614D02*
X082103Y042614D01*
X082103Y041224D02*
X074048Y041224D01*
X074098Y041026D02*
X082174Y041026D01*
X082241Y040827D02*
X074098Y040827D01*
X074098Y040629D02*
X082103Y040629D01*
X082103Y040430D02*
X073917Y040430D01*
X073718Y040232D02*
X082103Y040232D01*
X079918Y043011D02*
X079918Y043011D01*
X079918Y043209D02*
X079918Y043209D01*
X079918Y043408D02*
X079918Y043408D01*
X079918Y043606D02*
X079918Y043606D01*
X079918Y043805D02*
X079918Y043805D01*
X079918Y044003D02*
X079918Y044003D01*
X079918Y044202D02*
X079918Y044202D01*
X079918Y044400D02*
X079918Y044400D01*
X079714Y044400D02*
X079451Y044400D01*
X079538Y043011D02*
X079543Y043011D01*
X079657Y045790D02*
X079179Y045790D01*
X080179Y045790D02*
X082203Y045790D01*
X082212Y045988D02*
X080443Y045988D01*
X080544Y046187D02*
X082103Y046187D01*
X082103Y046385D02*
X080575Y046385D01*
X080551Y046584D02*
X082103Y046584D01*
X082196Y046782D02*
X080459Y046782D01*
X080435Y046981D02*
X082219Y046981D01*
X082103Y047179D02*
X080541Y047179D01*
X080575Y047378D02*
X082103Y047378D01*
X082103Y047576D02*
X080554Y047576D01*
X080466Y047775D02*
X082188Y047775D01*
X082227Y047973D02*
X080428Y047973D01*
X080538Y048172D02*
X082103Y048172D01*
X082103Y048370D02*
X080575Y048370D01*
X080557Y048569D02*
X082103Y048569D01*
X082181Y048767D02*
X080474Y048767D01*
X080420Y048966D02*
X082234Y048966D01*
X082103Y049164D02*
X080535Y049164D01*
X080575Y049363D02*
X082103Y049363D01*
X082103Y049561D02*
X080560Y049561D01*
X080478Y049760D02*
X082173Y049760D01*
X082242Y049958D02*
X080272Y049958D01*
X079564Y049958D02*
X079272Y049958D01*
X080801Y029513D02*
X080868Y029513D01*
X086241Y023161D02*
X086418Y023161D01*
D17*
X078918Y028393D03*
X079418Y030643D03*
X081168Y033643D03*
X078918Y034143D03*
X076168Y034143D03*
X076168Y036143D03*
X077668Y036893D03*
X077668Y037643D03*
X076168Y038393D03*
X077668Y038643D03*
X077668Y039643D03*
X078918Y039643D03*
X078918Y038643D03*
X079918Y038643D03*
X079918Y039643D03*
X081668Y038393D03*
X079918Y037643D03*
X079918Y036893D03*
X078918Y036893D03*
X078918Y037643D03*
X081668Y035893D03*
X077418Y041393D03*
X078668Y041643D03*
X079918Y041643D03*
X067418Y035393D03*
X066668Y033143D03*
X061918Y036393D03*
X062418Y037643D03*
X059918Y035893D03*
X059418Y037643D03*
X059418Y039643D03*
X055918Y038393D03*
X055668Y036643D03*
X053168Y037393D03*
X052918Y036393D03*
X052168Y035143D03*
X050168Y036643D03*
X049418Y035893D03*
X052668Y038643D03*
X056168Y042143D03*
X055418Y045893D03*
X053918Y046893D03*
X050418Y047393D03*
X047168Y045143D03*
X044918Y046893D03*
X043918Y048643D03*
X040418Y051143D03*
X038918Y051643D03*
X032668Y050393D03*
X033168Y056393D03*
X033668Y056893D03*
X031918Y058893D03*
X046168Y056143D03*
X049168Y052143D03*
X048668Y051143D03*
X055418Y053893D03*
X062418Y054393D03*
X062418Y051393D03*
X059918Y046393D03*
X063418Y045393D03*
X075418Y053893D03*
X075418Y055393D03*
X073918Y055643D03*
X076618Y057643D03*
X077418Y056393D03*
X077418Y055393D03*
X077418Y054393D03*
X081918Y057643D03*
X082418Y058393D03*
X084918Y058393D03*
X053668Y032393D03*
X053668Y031393D03*
X053668Y030393D03*
X053668Y029393D03*
X052418Y029393D03*
X051418Y029393D03*
X050418Y029393D03*
X050418Y030393D03*
X051418Y030393D03*
X052418Y030393D03*
X052418Y031393D03*
X051418Y031393D03*
X050418Y031393D03*
X050418Y032393D03*
X051418Y032393D03*
X052418Y032393D03*
X047168Y029643D03*
X047668Y028393D03*
X057168Y027643D03*
X075418Y026393D03*
X076418Y027893D03*
X077668Y026393D03*
X035918Y029393D03*
X033918Y029143D03*
X027668Y032393D03*
X026918Y039143D03*
D18*
X030418Y042893D02*
X030618Y043093D01*
X030418Y042893D02*
X030418Y025893D01*
X031418Y024893D01*
X081168Y024893D01*
X081668Y025393D01*
X081668Y030143D01*
X081168Y030643D01*
X079668Y030643D01*
X079418Y030893D01*
X062418Y030893D01*
X057718Y035593D01*
X057718Y053563D01*
X031918Y058893D02*
X030418Y057393D01*
X030418Y042893D01*
X079418Y030643D02*
X079668Y030643D01*
D19*
X082818Y044393D02*
X083668Y045243D01*
X083668Y059143D01*
X082668Y060143D01*
X046168Y060143D01*
X044418Y058393D01*
X044418Y055893D01*
X044418Y054893D02*
X043918Y054393D01*
X043918Y053393D01*
X042918Y053393D02*
X042918Y054393D01*
X043418Y054893D01*
X043418Y055893D02*
X043418Y058893D01*
X045168Y060643D01*
X082918Y060643D01*
X084168Y059393D01*
X084168Y045043D01*
X084818Y044393D01*
X077418Y054393D02*
X075668Y056143D01*
X050918Y056143D01*
X045668Y050893D01*
X045668Y051893D02*
X050418Y056643D01*
X076168Y056643D01*
X077418Y055393D01*
X077418Y056393D02*
X076668Y057143D01*
X049918Y057143D01*
X045668Y052893D01*
X046168Y056143D02*
X047668Y057643D01*
X076618Y057643D01*
X043918Y048643D02*
X033668Y048643D01*
X032918Y049393D01*
D20*
X039918Y052393D02*
X041418Y050893D01*
X045668Y050893D01*
X045668Y049893D02*
X044418Y049893D01*
X044168Y050143D01*
X041418Y050143D01*
X040418Y051143D01*
X041418Y051893D02*
X045668Y051893D01*
X045668Y052893D02*
X042418Y052893D01*
X041918Y053393D01*
X040918Y052393D02*
X041418Y051893D01*
X043418Y054893D02*
X043418Y055893D01*
X044418Y055893D02*
X044418Y054893D01*
X049168Y053393D02*
X052168Y053393D01*
X054418Y055643D01*
X073918Y055643D01*
X049168Y053393D02*
X045668Y049893D01*
M02*
