G75*
%MOIN*%
%OFA0B0*%
%FSLAX24Y24*%
%IPPOS*%
%LPD*%
%AMOC8*
5,1,8,0,0,1.08239X$1,22.5*
%
%ADD10C,0.0000*%
%ADD11C,0.0050*%
%ADD12C,0.0060*%
%ADD13C,0.0020*%
%ADD14C,0.0070*%
%ADD15R,0.0150X0.0200*%
%ADD16R,0.1300X0.0200*%
%ADD17C,0.0100*%
%ADD18C,0.0080*%
%ADD19C,0.0040*%
%ADD20R,0.0380X0.0660*%
%ADD21C,0.0020*%
%ADD22C,0.0030*%
%ADD23R,0.0100X0.0100*%
%ADD24R,0.0200X0.0100*%
%ADD25R,0.0500X0.0100*%
%ADD26R,0.0400X0.0100*%
%ADD27R,0.0300X0.0100*%
%ADD28R,0.0800X0.0100*%
%ADD29R,0.0900X0.0100*%
%ADD30R,0.1000X0.0100*%
%ADD31R,0.0600X0.0100*%
%ADD32R,0.3300X0.0400*%
%ADD33R,0.0400X0.2500*%
%ADD34C,0.0150*%
D10*
X023918Y022203D02*
X023918Y047193D01*
X028918Y047193D01*
X028918Y061583D01*
X086918Y061583D01*
X086918Y022203D01*
X023918Y022203D01*
X024768Y024393D02*
X024770Y024440D01*
X024776Y024486D01*
X024786Y024532D01*
X024799Y024576D01*
X024817Y024620D01*
X024838Y024661D01*
X024862Y024701D01*
X024890Y024739D01*
X024921Y024774D01*
X024955Y024806D01*
X024991Y024835D01*
X025030Y024861D01*
X025070Y024884D01*
X025113Y024903D01*
X025157Y024919D01*
X025202Y024931D01*
X025248Y024939D01*
X025295Y024943D01*
X025341Y024943D01*
X025388Y024939D01*
X025434Y024931D01*
X025479Y024919D01*
X025523Y024903D01*
X025566Y024884D01*
X025606Y024861D01*
X025645Y024835D01*
X025681Y024806D01*
X025715Y024774D01*
X025746Y024739D01*
X025774Y024701D01*
X025798Y024661D01*
X025819Y024620D01*
X025837Y024576D01*
X025850Y024532D01*
X025860Y024486D01*
X025866Y024440D01*
X025868Y024393D01*
X025866Y024346D01*
X025860Y024300D01*
X025850Y024254D01*
X025837Y024210D01*
X025819Y024166D01*
X025798Y024125D01*
X025774Y024085D01*
X025746Y024047D01*
X025715Y024012D01*
X025681Y023980D01*
X025645Y023951D01*
X025606Y023925D01*
X025566Y023902D01*
X025523Y023883D01*
X025479Y023867D01*
X025434Y023855D01*
X025388Y023847D01*
X025341Y023843D01*
X025295Y023843D01*
X025248Y023847D01*
X025202Y023855D01*
X025157Y023867D01*
X025113Y023883D01*
X025070Y023902D01*
X025030Y023925D01*
X024991Y023951D01*
X024955Y023980D01*
X024921Y024012D01*
X024890Y024047D01*
X024862Y024085D01*
X024838Y024125D01*
X024817Y024166D01*
X024799Y024210D01*
X024786Y024254D01*
X024776Y024300D01*
X024770Y024346D01*
X024768Y024393D01*
X025793Y027393D02*
X025795Y027443D01*
X025801Y027492D01*
X025811Y027541D01*
X025824Y027588D01*
X025842Y027635D01*
X025863Y027680D01*
X025887Y027723D01*
X025915Y027764D01*
X025946Y027803D01*
X025980Y027839D01*
X026017Y027873D01*
X026057Y027903D01*
X026098Y027930D01*
X026142Y027954D01*
X026187Y027974D01*
X026234Y027990D01*
X026282Y028003D01*
X026331Y028012D01*
X026381Y028017D01*
X026430Y028018D01*
X026480Y028015D01*
X026529Y028008D01*
X026578Y027997D01*
X026625Y027983D01*
X026671Y027964D01*
X026716Y027942D01*
X026759Y027917D01*
X026799Y027888D01*
X026837Y027856D01*
X026873Y027822D01*
X026906Y027784D01*
X026935Y027744D01*
X026961Y027702D01*
X026984Y027658D01*
X027003Y027612D01*
X027019Y027565D01*
X027031Y027516D01*
X027039Y027467D01*
X027043Y027418D01*
X027043Y027368D01*
X027039Y027319D01*
X027031Y027270D01*
X027019Y027221D01*
X027003Y027174D01*
X026984Y027128D01*
X026961Y027084D01*
X026935Y027042D01*
X026906Y027002D01*
X026873Y026964D01*
X026837Y026930D01*
X026799Y026898D01*
X026759Y026869D01*
X026716Y026844D01*
X026671Y026822D01*
X026625Y026803D01*
X026578Y026789D01*
X026529Y026778D01*
X026480Y026771D01*
X026430Y026768D01*
X026381Y026769D01*
X026331Y026774D01*
X026282Y026783D01*
X026234Y026796D01*
X026187Y026812D01*
X026142Y026832D01*
X026098Y026856D01*
X026057Y026883D01*
X026017Y026913D01*
X025980Y026947D01*
X025946Y026983D01*
X025915Y027022D01*
X025887Y027063D01*
X025863Y027106D01*
X025842Y027151D01*
X025824Y027198D01*
X025811Y027245D01*
X025801Y027294D01*
X025795Y027343D01*
X025793Y027393D01*
X025793Y044393D02*
X025795Y044443D01*
X025801Y044492D01*
X025811Y044541D01*
X025824Y044588D01*
X025842Y044635D01*
X025863Y044680D01*
X025887Y044723D01*
X025915Y044764D01*
X025946Y044803D01*
X025980Y044839D01*
X026017Y044873D01*
X026057Y044903D01*
X026098Y044930D01*
X026142Y044954D01*
X026187Y044974D01*
X026234Y044990D01*
X026282Y045003D01*
X026331Y045012D01*
X026381Y045017D01*
X026430Y045018D01*
X026480Y045015D01*
X026529Y045008D01*
X026578Y044997D01*
X026625Y044983D01*
X026671Y044964D01*
X026716Y044942D01*
X026759Y044917D01*
X026799Y044888D01*
X026837Y044856D01*
X026873Y044822D01*
X026906Y044784D01*
X026935Y044744D01*
X026961Y044702D01*
X026984Y044658D01*
X027003Y044612D01*
X027019Y044565D01*
X027031Y044516D01*
X027039Y044467D01*
X027043Y044418D01*
X027043Y044368D01*
X027039Y044319D01*
X027031Y044270D01*
X027019Y044221D01*
X027003Y044174D01*
X026984Y044128D01*
X026961Y044084D01*
X026935Y044042D01*
X026906Y044002D01*
X026873Y043964D01*
X026837Y043930D01*
X026799Y043898D01*
X026759Y043869D01*
X026716Y043844D01*
X026671Y043822D01*
X026625Y043803D01*
X026578Y043789D01*
X026529Y043778D01*
X026480Y043771D01*
X026430Y043768D01*
X026381Y043769D01*
X026331Y043774D01*
X026282Y043783D01*
X026234Y043796D01*
X026187Y043812D01*
X026142Y043832D01*
X026098Y043856D01*
X026057Y043883D01*
X026017Y043913D01*
X025980Y043947D01*
X025946Y043983D01*
X025915Y044022D01*
X025887Y044063D01*
X025863Y044106D01*
X025842Y044151D01*
X025824Y044198D01*
X025811Y044245D01*
X025801Y044294D01*
X025795Y044343D01*
X025793Y044393D01*
X051793Y044393D02*
X051795Y044443D01*
X051801Y044492D01*
X051811Y044541D01*
X051824Y044588D01*
X051842Y044635D01*
X051863Y044680D01*
X051887Y044723D01*
X051915Y044764D01*
X051946Y044803D01*
X051980Y044839D01*
X052017Y044873D01*
X052057Y044903D01*
X052098Y044930D01*
X052142Y044954D01*
X052187Y044974D01*
X052234Y044990D01*
X052282Y045003D01*
X052331Y045012D01*
X052381Y045017D01*
X052430Y045018D01*
X052480Y045015D01*
X052529Y045008D01*
X052578Y044997D01*
X052625Y044983D01*
X052671Y044964D01*
X052716Y044942D01*
X052759Y044917D01*
X052799Y044888D01*
X052837Y044856D01*
X052873Y044822D01*
X052906Y044784D01*
X052935Y044744D01*
X052961Y044702D01*
X052984Y044658D01*
X053003Y044612D01*
X053019Y044565D01*
X053031Y044516D01*
X053039Y044467D01*
X053043Y044418D01*
X053043Y044368D01*
X053039Y044319D01*
X053031Y044270D01*
X053019Y044221D01*
X053003Y044174D01*
X052984Y044128D01*
X052961Y044084D01*
X052935Y044042D01*
X052906Y044002D01*
X052873Y043964D01*
X052837Y043930D01*
X052799Y043898D01*
X052759Y043869D01*
X052716Y043844D01*
X052671Y043822D01*
X052625Y043803D01*
X052578Y043789D01*
X052529Y043778D01*
X052480Y043771D01*
X052430Y043768D01*
X052381Y043769D01*
X052331Y043774D01*
X052282Y043783D01*
X052234Y043796D01*
X052187Y043812D01*
X052142Y043832D01*
X052098Y043856D01*
X052057Y043883D01*
X052017Y043913D01*
X051980Y043947D01*
X051946Y043983D01*
X051915Y044022D01*
X051887Y044063D01*
X051863Y044106D01*
X051842Y044151D01*
X051824Y044198D01*
X051811Y044245D01*
X051801Y044294D01*
X051795Y044343D01*
X051793Y044393D01*
X055793Y032893D02*
X055795Y032943D01*
X055801Y032992D01*
X055811Y033041D01*
X055824Y033088D01*
X055842Y033135D01*
X055863Y033180D01*
X055887Y033223D01*
X055915Y033264D01*
X055946Y033303D01*
X055980Y033339D01*
X056017Y033373D01*
X056057Y033403D01*
X056098Y033430D01*
X056142Y033454D01*
X056187Y033474D01*
X056234Y033490D01*
X056282Y033503D01*
X056331Y033512D01*
X056381Y033517D01*
X056430Y033518D01*
X056480Y033515D01*
X056529Y033508D01*
X056578Y033497D01*
X056625Y033483D01*
X056671Y033464D01*
X056716Y033442D01*
X056759Y033417D01*
X056799Y033388D01*
X056837Y033356D01*
X056873Y033322D01*
X056906Y033284D01*
X056935Y033244D01*
X056961Y033202D01*
X056984Y033158D01*
X057003Y033112D01*
X057019Y033065D01*
X057031Y033016D01*
X057039Y032967D01*
X057043Y032918D01*
X057043Y032868D01*
X057039Y032819D01*
X057031Y032770D01*
X057019Y032721D01*
X057003Y032674D01*
X056984Y032628D01*
X056961Y032584D01*
X056935Y032542D01*
X056906Y032502D01*
X056873Y032464D01*
X056837Y032430D01*
X056799Y032398D01*
X056759Y032369D01*
X056716Y032344D01*
X056671Y032322D01*
X056625Y032303D01*
X056578Y032289D01*
X056529Y032278D01*
X056480Y032271D01*
X056430Y032268D01*
X056381Y032269D01*
X056331Y032274D01*
X056282Y032283D01*
X056234Y032296D01*
X056187Y032312D01*
X056142Y032332D01*
X056098Y032356D01*
X056057Y032383D01*
X056017Y032413D01*
X055980Y032447D01*
X055946Y032483D01*
X055915Y032522D01*
X055887Y032563D01*
X055863Y032606D01*
X055842Y032651D01*
X055824Y032698D01*
X055811Y032745D01*
X055801Y032794D01*
X055795Y032843D01*
X055793Y032893D01*
X051793Y027393D02*
X051795Y027443D01*
X051801Y027492D01*
X051811Y027541D01*
X051824Y027588D01*
X051842Y027635D01*
X051863Y027680D01*
X051887Y027723D01*
X051915Y027764D01*
X051946Y027803D01*
X051980Y027839D01*
X052017Y027873D01*
X052057Y027903D01*
X052098Y027930D01*
X052142Y027954D01*
X052187Y027974D01*
X052234Y027990D01*
X052282Y028003D01*
X052331Y028012D01*
X052381Y028017D01*
X052430Y028018D01*
X052480Y028015D01*
X052529Y028008D01*
X052578Y027997D01*
X052625Y027983D01*
X052671Y027964D01*
X052716Y027942D01*
X052759Y027917D01*
X052799Y027888D01*
X052837Y027856D01*
X052873Y027822D01*
X052906Y027784D01*
X052935Y027744D01*
X052961Y027702D01*
X052984Y027658D01*
X053003Y027612D01*
X053019Y027565D01*
X053031Y027516D01*
X053039Y027467D01*
X053043Y027418D01*
X053043Y027368D01*
X053039Y027319D01*
X053031Y027270D01*
X053019Y027221D01*
X053003Y027174D01*
X052984Y027128D01*
X052961Y027084D01*
X052935Y027042D01*
X052906Y027002D01*
X052873Y026964D01*
X052837Y026930D01*
X052799Y026898D01*
X052759Y026869D01*
X052716Y026844D01*
X052671Y026822D01*
X052625Y026803D01*
X052578Y026789D01*
X052529Y026778D01*
X052480Y026771D01*
X052430Y026768D01*
X052381Y026769D01*
X052331Y026774D01*
X052282Y026783D01*
X052234Y026796D01*
X052187Y026812D01*
X052142Y026832D01*
X052098Y026856D01*
X052057Y026883D01*
X052017Y026913D01*
X051980Y026947D01*
X051946Y026983D01*
X051915Y027022D01*
X051887Y027063D01*
X051863Y027106D01*
X051842Y027151D01*
X051824Y027198D01*
X051811Y027245D01*
X051801Y027294D01*
X051795Y027343D01*
X051793Y027393D01*
X072793Y032893D02*
X072795Y032943D01*
X072801Y032992D01*
X072811Y033041D01*
X072824Y033088D01*
X072842Y033135D01*
X072863Y033180D01*
X072887Y033223D01*
X072915Y033264D01*
X072946Y033303D01*
X072980Y033339D01*
X073017Y033373D01*
X073057Y033403D01*
X073098Y033430D01*
X073142Y033454D01*
X073187Y033474D01*
X073234Y033490D01*
X073282Y033503D01*
X073331Y033512D01*
X073381Y033517D01*
X073430Y033518D01*
X073480Y033515D01*
X073529Y033508D01*
X073578Y033497D01*
X073625Y033483D01*
X073671Y033464D01*
X073716Y033442D01*
X073759Y033417D01*
X073799Y033388D01*
X073837Y033356D01*
X073873Y033322D01*
X073906Y033284D01*
X073935Y033244D01*
X073961Y033202D01*
X073984Y033158D01*
X074003Y033112D01*
X074019Y033065D01*
X074031Y033016D01*
X074039Y032967D01*
X074043Y032918D01*
X074043Y032868D01*
X074039Y032819D01*
X074031Y032770D01*
X074019Y032721D01*
X074003Y032674D01*
X073984Y032628D01*
X073961Y032584D01*
X073935Y032542D01*
X073906Y032502D01*
X073873Y032464D01*
X073837Y032430D01*
X073799Y032398D01*
X073759Y032369D01*
X073716Y032344D01*
X073671Y032322D01*
X073625Y032303D01*
X073578Y032289D01*
X073529Y032278D01*
X073480Y032271D01*
X073430Y032268D01*
X073381Y032269D01*
X073331Y032274D01*
X073282Y032283D01*
X073234Y032296D01*
X073187Y032312D01*
X073142Y032332D01*
X073098Y032356D01*
X073057Y032383D01*
X073017Y032413D01*
X072980Y032447D01*
X072946Y032483D01*
X072915Y032522D01*
X072887Y032563D01*
X072863Y032606D01*
X072842Y032651D01*
X072824Y032698D01*
X072811Y032745D01*
X072801Y032794D01*
X072795Y032843D01*
X072793Y032893D01*
X085268Y024393D02*
X085270Y024440D01*
X085276Y024486D01*
X085286Y024532D01*
X085299Y024576D01*
X085317Y024620D01*
X085338Y024661D01*
X085362Y024701D01*
X085390Y024739D01*
X085421Y024774D01*
X085455Y024806D01*
X085491Y024835D01*
X085530Y024861D01*
X085570Y024884D01*
X085613Y024903D01*
X085657Y024919D01*
X085702Y024931D01*
X085748Y024939D01*
X085795Y024943D01*
X085841Y024943D01*
X085888Y024939D01*
X085934Y024931D01*
X085979Y024919D01*
X086023Y024903D01*
X086066Y024884D01*
X086106Y024861D01*
X086145Y024835D01*
X086181Y024806D01*
X086215Y024774D01*
X086246Y024739D01*
X086274Y024701D01*
X086298Y024661D01*
X086319Y024620D01*
X086337Y024576D01*
X086350Y024532D01*
X086360Y024486D01*
X086366Y024440D01*
X086368Y024393D01*
X086366Y024346D01*
X086360Y024300D01*
X086350Y024254D01*
X086337Y024210D01*
X086319Y024166D01*
X086298Y024125D01*
X086274Y024085D01*
X086246Y024047D01*
X086215Y024012D01*
X086181Y023980D01*
X086145Y023951D01*
X086106Y023925D01*
X086066Y023902D01*
X086023Y023883D01*
X085979Y023867D01*
X085934Y023855D01*
X085888Y023847D01*
X085841Y023843D01*
X085795Y023843D01*
X085748Y023847D01*
X085702Y023855D01*
X085657Y023867D01*
X085613Y023883D01*
X085570Y023902D01*
X085530Y023925D01*
X085491Y023951D01*
X085455Y023980D01*
X085421Y024012D01*
X085390Y024047D01*
X085362Y024085D01*
X085338Y024125D01*
X085317Y024166D01*
X085299Y024210D01*
X085286Y024254D01*
X085276Y024300D01*
X085270Y024346D01*
X085268Y024393D01*
X072793Y058893D02*
X072795Y058943D01*
X072801Y058992D01*
X072811Y059041D01*
X072824Y059088D01*
X072842Y059135D01*
X072863Y059180D01*
X072887Y059223D01*
X072915Y059264D01*
X072946Y059303D01*
X072980Y059339D01*
X073017Y059373D01*
X073057Y059403D01*
X073098Y059430D01*
X073142Y059454D01*
X073187Y059474D01*
X073234Y059490D01*
X073282Y059503D01*
X073331Y059512D01*
X073381Y059517D01*
X073430Y059518D01*
X073480Y059515D01*
X073529Y059508D01*
X073578Y059497D01*
X073625Y059483D01*
X073671Y059464D01*
X073716Y059442D01*
X073759Y059417D01*
X073799Y059388D01*
X073837Y059356D01*
X073873Y059322D01*
X073906Y059284D01*
X073935Y059244D01*
X073961Y059202D01*
X073984Y059158D01*
X074003Y059112D01*
X074019Y059065D01*
X074031Y059016D01*
X074039Y058967D01*
X074043Y058918D01*
X074043Y058868D01*
X074039Y058819D01*
X074031Y058770D01*
X074019Y058721D01*
X074003Y058674D01*
X073984Y058628D01*
X073961Y058584D01*
X073935Y058542D01*
X073906Y058502D01*
X073873Y058464D01*
X073837Y058430D01*
X073799Y058398D01*
X073759Y058369D01*
X073716Y058344D01*
X073671Y058322D01*
X073625Y058303D01*
X073578Y058289D01*
X073529Y058278D01*
X073480Y058271D01*
X073430Y058268D01*
X073381Y058269D01*
X073331Y058274D01*
X073282Y058283D01*
X073234Y058296D01*
X073187Y058312D01*
X073142Y058332D01*
X073098Y058356D01*
X073057Y058383D01*
X073017Y058413D01*
X072980Y058447D01*
X072946Y058483D01*
X072915Y058522D01*
X072887Y058563D01*
X072863Y058606D01*
X072842Y058651D01*
X072824Y058698D01*
X072811Y058745D01*
X072801Y058794D01*
X072795Y058843D01*
X072793Y058893D01*
X085268Y059393D02*
X085270Y059440D01*
X085276Y059486D01*
X085286Y059532D01*
X085299Y059576D01*
X085317Y059620D01*
X085338Y059661D01*
X085362Y059701D01*
X085390Y059739D01*
X085421Y059774D01*
X085455Y059806D01*
X085491Y059835D01*
X085530Y059861D01*
X085570Y059884D01*
X085613Y059903D01*
X085657Y059919D01*
X085702Y059931D01*
X085748Y059939D01*
X085795Y059943D01*
X085841Y059943D01*
X085888Y059939D01*
X085934Y059931D01*
X085979Y059919D01*
X086023Y059903D01*
X086066Y059884D01*
X086106Y059861D01*
X086145Y059835D01*
X086181Y059806D01*
X086215Y059774D01*
X086246Y059739D01*
X086274Y059701D01*
X086298Y059661D01*
X086319Y059620D01*
X086337Y059576D01*
X086350Y059532D01*
X086360Y059486D01*
X086366Y059440D01*
X086368Y059393D01*
X086366Y059346D01*
X086360Y059300D01*
X086350Y059254D01*
X086337Y059210D01*
X086319Y059166D01*
X086298Y059125D01*
X086274Y059085D01*
X086246Y059047D01*
X086215Y059012D01*
X086181Y058980D01*
X086145Y058951D01*
X086106Y058925D01*
X086066Y058902D01*
X086023Y058883D01*
X085979Y058867D01*
X085934Y058855D01*
X085888Y058847D01*
X085841Y058843D01*
X085795Y058843D01*
X085748Y058847D01*
X085702Y058855D01*
X085657Y058867D01*
X085613Y058883D01*
X085570Y058902D01*
X085530Y058925D01*
X085491Y058951D01*
X085455Y058980D01*
X085421Y059012D01*
X085390Y059047D01*
X085362Y059085D01*
X085338Y059125D01*
X085317Y059166D01*
X085299Y059210D01*
X085286Y059254D01*
X085276Y059300D01*
X085270Y059346D01*
X085268Y059393D01*
X055793Y058893D02*
X055795Y058943D01*
X055801Y058992D01*
X055811Y059041D01*
X055824Y059088D01*
X055842Y059135D01*
X055863Y059180D01*
X055887Y059223D01*
X055915Y059264D01*
X055946Y059303D01*
X055980Y059339D01*
X056017Y059373D01*
X056057Y059403D01*
X056098Y059430D01*
X056142Y059454D01*
X056187Y059474D01*
X056234Y059490D01*
X056282Y059503D01*
X056331Y059512D01*
X056381Y059517D01*
X056430Y059518D01*
X056480Y059515D01*
X056529Y059508D01*
X056578Y059497D01*
X056625Y059483D01*
X056671Y059464D01*
X056716Y059442D01*
X056759Y059417D01*
X056799Y059388D01*
X056837Y059356D01*
X056873Y059322D01*
X056906Y059284D01*
X056935Y059244D01*
X056961Y059202D01*
X056984Y059158D01*
X057003Y059112D01*
X057019Y059065D01*
X057031Y059016D01*
X057039Y058967D01*
X057043Y058918D01*
X057043Y058868D01*
X057039Y058819D01*
X057031Y058770D01*
X057019Y058721D01*
X057003Y058674D01*
X056984Y058628D01*
X056961Y058584D01*
X056935Y058542D01*
X056906Y058502D01*
X056873Y058464D01*
X056837Y058430D01*
X056799Y058398D01*
X056759Y058369D01*
X056716Y058344D01*
X056671Y058322D01*
X056625Y058303D01*
X056578Y058289D01*
X056529Y058278D01*
X056480Y058271D01*
X056430Y058268D01*
X056381Y058269D01*
X056331Y058274D01*
X056282Y058283D01*
X056234Y058296D01*
X056187Y058312D01*
X056142Y058332D01*
X056098Y058356D01*
X056057Y058383D01*
X056017Y058413D01*
X055980Y058447D01*
X055946Y058483D01*
X055915Y058522D01*
X055887Y058563D01*
X055863Y058606D01*
X055842Y058651D01*
X055824Y058698D01*
X055811Y058745D01*
X055801Y058794D01*
X055795Y058843D01*
X055793Y058893D01*
D11*
X051918Y052569D02*
X051993Y052493D01*
X051993Y052343D01*
X051918Y052268D01*
X051843Y052268D01*
X051768Y052343D01*
X051768Y052493D01*
X051843Y052569D01*
X051918Y052569D01*
X051768Y052493D02*
X051693Y052569D01*
X051618Y052569D01*
X051542Y052493D01*
X051542Y052343D01*
X051618Y052268D01*
X051693Y052268D01*
X051768Y052343D01*
X051143Y050219D02*
X051143Y049918D01*
X051143Y050068D02*
X050692Y050068D01*
X050843Y049918D01*
X050143Y049918D02*
X049843Y050219D01*
X049768Y050219D01*
X049692Y050143D01*
X049692Y049993D01*
X049768Y049918D01*
X050143Y049918D02*
X050143Y050219D01*
X056010Y051868D02*
X056236Y051868D01*
X056311Y051943D01*
X056311Y052244D01*
X056236Y052319D01*
X056010Y052319D01*
X056010Y051868D01*
X056471Y051868D02*
X056771Y052169D01*
X056771Y052244D01*
X056696Y052319D01*
X056546Y052319D01*
X056471Y052244D01*
X056471Y051868D02*
X056771Y051868D01*
X056931Y051793D02*
X057232Y051793D01*
X057392Y051868D02*
X057392Y052319D01*
X057617Y052319D01*
X057692Y052244D01*
X057692Y052093D01*
X057617Y052018D01*
X057392Y052018D01*
X057852Y051943D02*
X057927Y051868D01*
X058077Y051868D01*
X058152Y051943D01*
X058152Y052244D01*
X058077Y052319D01*
X057927Y052319D01*
X057852Y052244D01*
X057852Y051943D01*
X058312Y051868D02*
X058463Y052018D01*
X058613Y051868D01*
X058613Y052319D01*
X058312Y052319D02*
X058312Y051868D01*
X046168Y043309D02*
X046168Y043009D01*
X046093Y042849D02*
X046093Y042549D01*
X046093Y042699D02*
X045642Y042699D01*
X045793Y042549D01*
X045718Y042389D02*
X045642Y042313D01*
X045642Y042088D01*
X046093Y042088D01*
X046093Y042313D01*
X046018Y042389D01*
X045718Y042389D01*
X045642Y043469D02*
X045642Y043695D01*
X045718Y043770D01*
X045868Y043770D01*
X045943Y043695D01*
X045943Y043469D01*
X046093Y043469D02*
X045642Y043469D01*
X045718Y043930D02*
X046018Y043930D01*
X046093Y044005D01*
X046093Y044155D01*
X046018Y044230D01*
X045718Y044230D01*
X045642Y044155D01*
X045642Y044005D01*
X045718Y043930D01*
X045642Y044390D02*
X046093Y044390D01*
X045943Y044540D01*
X046093Y044691D01*
X045642Y044691D01*
X047058Y028619D02*
X046982Y028544D01*
X047058Y028619D02*
X047208Y028619D01*
X047283Y028544D01*
X047283Y028469D01*
X046982Y028168D01*
X047283Y028168D01*
X047133Y027619D02*
X047133Y027168D01*
X047283Y027168D02*
X046982Y027168D01*
X046982Y027469D02*
X047133Y027619D01*
X040803Y026769D02*
X040653Y026694D01*
X040503Y026543D01*
X040728Y026543D01*
X040803Y026468D01*
X040803Y026393D01*
X040728Y026318D01*
X040578Y026318D01*
X040503Y026393D01*
X040503Y026543D01*
X040343Y026619D02*
X040343Y026694D01*
X040268Y026769D01*
X040118Y026769D01*
X040043Y026694D01*
X040343Y026619D02*
X040043Y026318D01*
X040343Y026318D01*
X074042Y046593D02*
X074118Y046518D01*
X074042Y046593D02*
X074042Y046743D01*
X074118Y046819D01*
X074193Y046819D01*
X074493Y046518D01*
X074493Y046819D01*
X074418Y046979D02*
X074493Y047054D01*
X074493Y047204D01*
X074418Y047279D01*
X074343Y047279D01*
X074268Y047204D01*
X074268Y046979D01*
X074418Y046979D01*
X074268Y046979D02*
X074118Y047129D01*
X074042Y047279D01*
X076693Y047198D02*
X077008Y047198D01*
X077113Y047303D01*
X077113Y047724D01*
X077008Y047829D01*
X076693Y047829D01*
X076693Y047198D01*
X076693Y046809D02*
X077008Y046809D01*
X077113Y046704D01*
X077113Y046283D01*
X077008Y046178D01*
X076693Y046178D01*
X076693Y046809D01*
X077319Y046704D02*
X077424Y046809D01*
X077634Y046809D01*
X077739Y046704D01*
X077739Y046599D01*
X077634Y046494D01*
X077739Y046388D01*
X077739Y046283D01*
X077634Y046178D01*
X077424Y046178D01*
X077319Y046283D01*
X077529Y046494D02*
X077634Y046494D01*
X077739Y047198D02*
X077319Y047198D01*
X077739Y047619D01*
X077739Y047724D01*
X077634Y047829D01*
X077424Y047829D01*
X077319Y047724D01*
X077319Y048218D02*
X077739Y048218D01*
X077529Y048218D02*
X077529Y048849D01*
X077319Y048639D01*
X077113Y048744D02*
X077008Y048849D01*
X076693Y048849D01*
X076693Y048218D01*
X077008Y048218D01*
X077113Y048323D01*
X077113Y048744D01*
X077008Y049238D02*
X076693Y049238D01*
X076693Y049869D01*
X077008Y049869D01*
X077113Y049764D01*
X077113Y049343D01*
X077008Y049238D01*
X077319Y049343D02*
X077739Y049764D01*
X077739Y049343D01*
X077634Y049238D01*
X077424Y049238D01*
X077319Y049343D01*
X077319Y049764D01*
X077424Y049869D01*
X077634Y049869D01*
X077739Y049764D01*
X077678Y050218D02*
X077468Y050218D01*
X077363Y050323D01*
X077363Y050534D01*
X077468Y050639D01*
X077678Y050639D01*
X077783Y050534D01*
X077783Y050428D01*
X077363Y050428D01*
X077155Y050218D02*
X076945Y050218D01*
X077050Y050218D02*
X077050Y050849D01*
X076945Y050849D01*
X076634Y050639D02*
X076739Y050534D01*
X076739Y050428D01*
X076319Y050428D01*
X076319Y050323D02*
X076319Y050534D01*
X076424Y050639D01*
X076634Y050639D01*
X076634Y050218D02*
X076424Y050218D01*
X076319Y050323D01*
X076113Y050323D02*
X076008Y050428D01*
X075798Y050428D01*
X075693Y050534D01*
X075798Y050639D01*
X076113Y050639D01*
X076113Y050323D02*
X076008Y050218D01*
X075693Y050218D01*
X075903Y051238D02*
X075903Y051869D01*
X075693Y051869D02*
X076113Y051869D01*
X076319Y051659D02*
X076319Y051238D01*
X076319Y051448D02*
X076529Y051659D01*
X076634Y051659D01*
X076841Y051659D02*
X076946Y051659D01*
X076946Y051238D01*
X076841Y051238D02*
X077051Y051238D01*
X077258Y051343D02*
X077363Y051238D01*
X077679Y051238D01*
X077679Y051133D02*
X077679Y051659D01*
X077363Y051659D01*
X077258Y051554D01*
X077258Y051343D01*
X077468Y051028D02*
X077573Y051028D01*
X077679Y051133D01*
X077884Y051343D02*
X077989Y051238D01*
X078305Y051238D01*
X078305Y051133D02*
X078305Y051659D01*
X077989Y051659D01*
X077884Y051554D01*
X077884Y051343D01*
X078094Y051028D02*
X078200Y051028D01*
X078305Y051133D01*
X078510Y051343D02*
X078510Y051554D01*
X078616Y051659D01*
X078826Y051659D01*
X078931Y051554D01*
X078931Y051448D01*
X078510Y051448D01*
X078510Y051343D02*
X078616Y051238D01*
X078826Y051238D01*
X079137Y051238D02*
X079137Y051659D01*
X079347Y051659D02*
X079452Y051659D01*
X079347Y051659D02*
X079137Y051448D01*
X078720Y050744D02*
X078720Y050323D01*
X078825Y050218D01*
X078409Y050218D02*
X078094Y050218D01*
X077989Y050323D01*
X077989Y050534D01*
X078094Y050639D01*
X078409Y050639D01*
X078615Y050639D02*
X078825Y050639D01*
X078418Y049893D02*
X080018Y049893D01*
X080418Y049493D02*
X080418Y045893D01*
X078418Y045893D01*
X078418Y049893D01*
X076946Y051869D02*
X076946Y051974D01*
X078642Y052993D02*
X078718Y052918D01*
X078642Y052993D02*
X078642Y053143D01*
X078718Y053219D01*
X078793Y053219D01*
X079093Y052918D01*
X079093Y053219D01*
X079642Y053068D02*
X080093Y053068D01*
X080093Y052918D02*
X080093Y053219D01*
X079793Y052918D02*
X079642Y053068D01*
X080568Y055268D02*
X080492Y055343D01*
X080492Y055493D01*
X080568Y055569D01*
X080643Y055569D01*
X080718Y055493D01*
X080718Y055343D01*
X080643Y055268D01*
X080568Y055268D01*
X080718Y055343D02*
X080793Y055268D01*
X080868Y055268D01*
X080943Y055343D01*
X080943Y055493D01*
X080868Y055569D01*
X080793Y055569D01*
X080718Y055493D01*
X073643Y053758D02*
X073643Y053458D01*
X073643Y053608D02*
X073192Y053608D01*
X073343Y053458D01*
X072643Y053458D02*
X072343Y053758D01*
X072268Y053758D01*
X072192Y053683D01*
X072192Y053533D01*
X072268Y053458D01*
X072643Y053458D02*
X072643Y053758D01*
X075663Y044839D02*
X075963Y044839D01*
X076123Y044839D02*
X076348Y044839D01*
X076423Y044764D01*
X076423Y044613D01*
X076348Y044538D01*
X076123Y044538D01*
X076123Y044388D02*
X076123Y044839D01*
X075813Y044613D02*
X075663Y044613D01*
X075663Y044388D02*
X075663Y044839D01*
X076584Y044313D02*
X076884Y044313D01*
X077194Y044388D02*
X077194Y044839D01*
X077044Y044839D02*
X077344Y044839D01*
X077504Y044839D02*
X077730Y044839D01*
X077805Y044764D01*
X077805Y044613D01*
X077730Y044538D01*
X077504Y044538D01*
X077504Y044388D02*
X077504Y044839D01*
X077655Y044538D02*
X077805Y044388D01*
X077965Y044388D02*
X078115Y044388D01*
X078040Y044388D02*
X078040Y044839D01*
X077965Y044839D02*
X078115Y044839D01*
X078272Y044764D02*
X078272Y044463D01*
X078347Y044388D01*
X078497Y044388D01*
X078572Y044463D01*
X078572Y044613D01*
X078422Y044613D01*
X078572Y044764D02*
X078497Y044839D01*
X078347Y044839D01*
X078272Y044764D01*
X078972Y027609D02*
X078972Y027309D01*
X079198Y027309D01*
X079123Y027459D01*
X079123Y027534D01*
X079198Y027609D01*
X079348Y027609D01*
X079423Y027534D01*
X079423Y027384D01*
X079348Y027309D01*
X079198Y027149D02*
X079273Y027074D01*
X079273Y026849D01*
X079423Y026849D02*
X078972Y026849D01*
X078972Y027074D01*
X079048Y027149D01*
X079198Y027149D01*
X078972Y026689D02*
X078972Y026538D01*
X078972Y026613D02*
X079348Y026613D01*
X079423Y026538D01*
X079423Y026463D01*
X079348Y026388D01*
D12*
X023718Y020793D02*
X023018Y020793D01*
X023018Y023393D01*
X023018Y060393D01*
X023018Y062993D01*
X023718Y062993D01*
X025318Y062993D01*
X025318Y060693D01*
X026568Y060693D01*
X026568Y058143D01*
X023918Y058143D01*
X023918Y025643D01*
X026568Y025643D01*
X026568Y023093D01*
X025318Y023093D01*
X025318Y020793D01*
X023718Y020793D01*
X023718Y023393D01*
X023018Y023393D01*
X024168Y024393D02*
X024768Y023393D01*
X025868Y023393D01*
X026468Y024393D01*
X025868Y025393D01*
X024768Y025393D01*
X024168Y024393D01*
X024768Y024393D02*
X024770Y024440D01*
X024776Y024486D01*
X024786Y024532D01*
X024799Y024576D01*
X024817Y024620D01*
X024838Y024661D01*
X024862Y024701D01*
X024890Y024739D01*
X024921Y024774D01*
X024955Y024806D01*
X024991Y024835D01*
X025030Y024861D01*
X025070Y024884D01*
X025113Y024903D01*
X025157Y024919D01*
X025202Y024931D01*
X025248Y024939D01*
X025295Y024943D01*
X025341Y024943D01*
X025388Y024939D01*
X025434Y024931D01*
X025479Y024919D01*
X025523Y024903D01*
X025566Y024884D01*
X025606Y024861D01*
X025645Y024835D01*
X025681Y024806D01*
X025715Y024774D01*
X025746Y024739D01*
X025774Y024701D01*
X025798Y024661D01*
X025819Y024620D01*
X025837Y024576D01*
X025850Y024532D01*
X025860Y024486D01*
X025866Y024440D01*
X025868Y024393D01*
X025866Y024346D01*
X025860Y024300D01*
X025850Y024254D01*
X025837Y024210D01*
X025819Y024166D01*
X025798Y024125D01*
X025774Y024085D01*
X025746Y024047D01*
X025715Y024012D01*
X025681Y023980D01*
X025645Y023951D01*
X025606Y023925D01*
X025566Y023902D01*
X025523Y023883D01*
X025479Y023867D01*
X025434Y023855D01*
X025388Y023847D01*
X025341Y023843D01*
X025295Y023843D01*
X025248Y023847D01*
X025202Y023855D01*
X025157Y023867D01*
X025113Y023883D01*
X025070Y023902D01*
X025030Y023925D01*
X024991Y023951D01*
X024955Y023980D01*
X024921Y024012D01*
X024890Y024047D01*
X024862Y024085D01*
X024838Y024125D01*
X024817Y024166D01*
X024799Y024210D01*
X024786Y024254D01*
X024776Y024300D01*
X024770Y024346D01*
X024768Y024393D01*
X032418Y026143D02*
X034118Y026143D01*
X034118Y026193D01*
X034718Y026193D01*
X034718Y026143D01*
X035268Y026143D01*
X035418Y026343D01*
X035618Y026343D01*
X036218Y026343D01*
X036418Y026343D01*
X036568Y026143D01*
X039618Y026143D01*
X039618Y026543D01*
X039618Y026643D01*
X036218Y026643D01*
X035618Y026643D01*
X032918Y026643D01*
X032918Y029143D01*
X047918Y029143D01*
X047918Y026643D01*
X046218Y026643D01*
X045618Y026643D01*
X041218Y026643D01*
X041218Y026543D01*
X041218Y026143D01*
X039618Y026143D01*
X039618Y026643D02*
X039618Y026943D01*
X041218Y026943D01*
X041218Y026643D01*
X041218Y026143D02*
X045268Y026143D01*
X045418Y026343D01*
X045618Y026343D01*
X046218Y026343D01*
X046218Y026543D01*
X046218Y026643D01*
X046218Y026343D02*
X046418Y026343D01*
X046568Y026143D01*
X048418Y026143D01*
X048418Y029643D01*
X047918Y029643D01*
X047918Y029743D01*
X047418Y029743D01*
X047418Y029643D01*
X040668Y029643D01*
X040668Y029743D01*
X040168Y029743D01*
X040168Y029643D01*
X033418Y029643D01*
X033418Y029743D01*
X032918Y029743D01*
X032918Y029643D01*
X032418Y029643D01*
X032418Y026143D01*
X035618Y026343D02*
X035618Y026543D01*
X035618Y026643D01*
X036218Y026643D02*
X036218Y026543D01*
X036218Y026343D01*
X045618Y026343D02*
X045618Y026543D01*
X045618Y026643D01*
X046838Y042593D02*
X046588Y042843D01*
X046588Y043343D01*
X046838Y043593D01*
X046588Y043843D01*
X046588Y044343D01*
X046838Y044593D01*
X047338Y044593D01*
X047588Y044343D01*
X047588Y043843D01*
X047338Y043593D01*
X047588Y043343D01*
X047588Y042843D01*
X047338Y042593D01*
X046838Y042593D01*
X046838Y043593D02*
X047338Y043593D01*
X048668Y048893D02*
X052168Y048893D01*
X052168Y050593D01*
X052118Y050593D01*
X052118Y051193D01*
X052168Y051193D01*
X051968Y051143D01*
X051968Y050693D01*
X051768Y050693D01*
X051668Y050693D01*
X051668Y049393D01*
X049168Y049393D01*
X049168Y055393D01*
X051668Y055393D01*
X051668Y055093D01*
X051668Y053693D01*
X051768Y053693D01*
X051968Y053693D01*
X051968Y053893D01*
X051968Y054893D01*
X051968Y055093D01*
X051768Y055093D01*
X051668Y055093D01*
X051968Y054893D02*
X052168Y054743D01*
X052168Y053193D01*
X051768Y053193D01*
X051668Y053193D01*
X051668Y053693D01*
X051968Y053893D02*
X052168Y054043D01*
X052168Y055893D01*
X048668Y055893D01*
X048668Y055393D01*
X048568Y055393D01*
X048568Y054893D01*
X048668Y054893D01*
X048668Y052643D01*
X048568Y052643D01*
X048568Y052143D01*
X048668Y052143D01*
X048668Y049893D01*
X048568Y049893D01*
X048568Y049393D01*
X048668Y049393D01*
X048668Y048893D01*
X051668Y050693D02*
X051668Y051593D01*
X051768Y051593D01*
X051968Y051593D01*
X052168Y051593D01*
X052168Y051193D01*
X051968Y051143D02*
X051968Y051593D01*
X052168Y051593D02*
X052168Y053193D01*
X051668Y053193D02*
X051368Y053193D01*
X051368Y051593D01*
X051668Y051593D01*
X056218Y053313D02*
X056468Y053063D01*
X056968Y053063D01*
X057218Y053313D01*
X057218Y053813D01*
X056968Y054063D01*
X056468Y054063D01*
X056218Y053813D01*
X056218Y053313D01*
X057218Y053313D02*
X057468Y053063D01*
X057968Y053063D01*
X058218Y053313D01*
X058218Y053813D01*
X057968Y054063D01*
X057468Y054063D01*
X057218Y053813D01*
X071068Y053893D02*
X071168Y053893D01*
X071168Y047143D01*
X071068Y047143D01*
X071068Y046643D01*
X071168Y046643D01*
X071168Y039893D01*
X071068Y039893D01*
X071068Y039393D01*
X071168Y039393D01*
X071168Y038893D01*
X074668Y038893D01*
X074668Y040593D01*
X074618Y040593D01*
X074618Y041193D01*
X074668Y041193D01*
X074668Y041743D01*
X074468Y041893D01*
X074468Y042093D01*
X074468Y042693D01*
X074468Y042893D01*
X074668Y043043D01*
X074668Y046093D01*
X074268Y046093D01*
X074168Y046093D01*
X074168Y042693D01*
X074168Y042093D01*
X074168Y039393D01*
X071668Y039393D01*
X071668Y054393D01*
X074168Y054393D01*
X074168Y052693D01*
X074168Y052093D01*
X074168Y047693D01*
X074268Y047693D01*
X074668Y047693D01*
X074668Y046093D01*
X074168Y046093D02*
X073868Y046093D01*
X073868Y047693D01*
X074168Y047693D01*
X074668Y047693D02*
X074668Y051743D01*
X074468Y051893D01*
X074468Y052093D01*
X074468Y052693D01*
X074268Y052693D01*
X074168Y052693D01*
X074468Y052693D02*
X074468Y052893D01*
X074668Y053043D01*
X074668Y054893D01*
X071168Y054893D01*
X071168Y054393D01*
X071068Y054393D01*
X071068Y053893D01*
X074168Y052093D02*
X074268Y052093D01*
X074468Y052093D01*
X077518Y052393D02*
X077618Y052393D01*
X077618Y051893D01*
X081118Y051893D01*
X081118Y053593D01*
X081068Y053593D01*
X081068Y054193D01*
X081118Y054193D01*
X080918Y054143D01*
X080918Y053693D01*
X080718Y053693D01*
X080618Y053693D01*
X080618Y052393D01*
X078118Y052393D01*
X078118Y058393D01*
X080618Y058393D01*
X080618Y058093D01*
X080618Y056693D01*
X080718Y056693D01*
X080918Y056693D01*
X080918Y056893D01*
X080918Y057893D01*
X080918Y058093D01*
X080718Y058093D01*
X080618Y058093D01*
X080918Y057893D02*
X081118Y057743D01*
X081118Y056193D01*
X080718Y056193D01*
X080618Y056193D01*
X080618Y056693D01*
X080918Y056893D02*
X081118Y057043D01*
X081118Y058893D01*
X077618Y058893D01*
X077618Y058393D01*
X077518Y058393D01*
X077518Y057893D01*
X077618Y057893D01*
X077618Y055643D01*
X077518Y055643D01*
X077518Y055143D01*
X077618Y055143D01*
X077618Y052893D01*
X077518Y052893D01*
X077518Y052393D01*
X080618Y053693D02*
X080618Y054593D01*
X080718Y054593D01*
X080918Y054593D01*
X081118Y054593D01*
X081118Y054193D01*
X080918Y054143D02*
X080918Y054593D01*
X081118Y054593D02*
X081118Y056193D01*
X080618Y056193D02*
X080318Y056193D01*
X080318Y054593D01*
X080618Y054593D01*
X082921Y057923D02*
X083068Y057923D01*
X083141Y057997D01*
X082921Y057923D02*
X082848Y057997D01*
X082848Y058290D01*
X082921Y058364D01*
X083068Y058364D01*
X083141Y058290D01*
X084348Y058217D02*
X084348Y057923D01*
X084348Y058143D02*
X084641Y058143D01*
X084641Y058217D02*
X084641Y057923D01*
X084641Y058217D02*
X084495Y058364D01*
X084348Y058217D01*
X084818Y058393D02*
X085318Y058393D01*
X085318Y057143D01*
X085318Y056143D01*
X085318Y055643D01*
X085318Y054143D01*
X085318Y053643D01*
X085318Y050143D01*
X085318Y049643D01*
X085318Y046143D01*
X085318Y045643D01*
X085318Y042143D01*
X085318Y041643D01*
X085318Y038143D01*
X085318Y037643D01*
X085318Y034143D01*
X085318Y033643D01*
X085318Y030143D01*
X085318Y029643D01*
X085318Y028143D01*
X085318Y027643D01*
X085318Y026643D01*
X085318Y025393D01*
X086318Y025393D01*
X086948Y024763D01*
X086948Y023393D01*
X087568Y023393D01*
X087568Y024393D01*
X089818Y024393D01*
X089818Y059393D01*
X087568Y059393D01*
X087568Y060393D01*
X086948Y060393D01*
X086948Y058893D01*
X086448Y058393D01*
X085318Y058393D01*
X084818Y058393D02*
X084818Y060393D01*
X086948Y060393D01*
X085318Y059393D02*
X085320Y059437D01*
X085326Y059481D01*
X085336Y059524D01*
X085349Y059566D01*
X085366Y059607D01*
X085387Y059646D01*
X085411Y059683D01*
X085438Y059718D01*
X085468Y059750D01*
X085501Y059780D01*
X085537Y059806D01*
X085574Y059830D01*
X085614Y059849D01*
X085655Y059866D01*
X085698Y059878D01*
X085741Y059887D01*
X085785Y059892D01*
X085829Y059893D01*
X085873Y059890D01*
X085917Y059883D01*
X085960Y059872D01*
X086002Y059858D01*
X086042Y059840D01*
X086081Y059818D01*
X086117Y059794D01*
X086151Y059766D01*
X086183Y059735D01*
X086212Y059701D01*
X086238Y059665D01*
X086260Y059627D01*
X086279Y059587D01*
X086294Y059545D01*
X086306Y059503D01*
X086314Y059459D01*
X086318Y059415D01*
X086318Y059371D01*
X086314Y059327D01*
X086306Y059283D01*
X086294Y059241D01*
X086279Y059199D01*
X086260Y059159D01*
X086238Y059121D01*
X086212Y059085D01*
X086183Y059051D01*
X086151Y059020D01*
X086117Y058992D01*
X086081Y058968D01*
X086042Y058946D01*
X086002Y058928D01*
X085960Y058914D01*
X085917Y058903D01*
X085873Y058896D01*
X085829Y058893D01*
X085785Y058894D01*
X085741Y058899D01*
X085698Y058908D01*
X085655Y058920D01*
X085614Y058937D01*
X085574Y058956D01*
X085537Y058980D01*
X085501Y059006D01*
X085468Y059036D01*
X085438Y059068D01*
X085411Y059103D01*
X085387Y059140D01*
X085366Y059179D01*
X085349Y059220D01*
X085336Y059262D01*
X085326Y059305D01*
X085320Y059349D01*
X085318Y059393D01*
X085995Y057864D02*
X085848Y057717D01*
X085995Y057864D02*
X085995Y057423D01*
X086141Y057423D02*
X085848Y057423D01*
X080168Y044143D02*
X080418Y043893D01*
X080418Y043393D01*
X080168Y043143D01*
X079668Y043143D01*
X079418Y043393D01*
X079168Y043143D01*
X078668Y043143D01*
X078418Y043393D01*
X078418Y043893D01*
X078668Y044143D01*
X079168Y044143D01*
X079418Y043893D01*
X079668Y044143D01*
X080168Y044143D01*
X079418Y043893D02*
X079418Y043393D01*
X074468Y042693D02*
X074268Y042693D01*
X074168Y042693D01*
X074168Y042093D02*
X074268Y042093D01*
X074468Y042093D01*
X079918Y029393D02*
X080418Y029393D01*
X080668Y029143D01*
X080668Y028643D01*
X080418Y028393D01*
X080668Y028143D01*
X080668Y027643D01*
X080418Y027393D01*
X080668Y027143D01*
X080668Y026643D01*
X080418Y026393D01*
X079918Y026393D01*
X079668Y026643D01*
X079668Y027143D01*
X079918Y027393D01*
X079668Y027643D01*
X079668Y028143D01*
X079918Y028393D01*
X079668Y028643D01*
X079668Y029143D01*
X079918Y029393D01*
X079918Y028393D02*
X080418Y028393D01*
X080418Y027393D02*
X079918Y027393D01*
X084818Y025393D02*
X085318Y025393D01*
X084818Y025393D02*
X084818Y023393D01*
X086948Y023393D01*
X085318Y024393D02*
X085320Y024437D01*
X085326Y024481D01*
X085336Y024524D01*
X085349Y024566D01*
X085366Y024607D01*
X085387Y024646D01*
X085411Y024683D01*
X085438Y024718D01*
X085468Y024750D01*
X085501Y024780D01*
X085537Y024806D01*
X085574Y024830D01*
X085614Y024849D01*
X085655Y024866D01*
X085698Y024878D01*
X085741Y024887D01*
X085785Y024892D01*
X085829Y024893D01*
X085873Y024890D01*
X085917Y024883D01*
X085960Y024872D01*
X086002Y024858D01*
X086042Y024840D01*
X086081Y024818D01*
X086117Y024794D01*
X086151Y024766D01*
X086183Y024735D01*
X086212Y024701D01*
X086238Y024665D01*
X086260Y024627D01*
X086279Y024587D01*
X086294Y024545D01*
X086306Y024503D01*
X086314Y024459D01*
X086318Y024415D01*
X086318Y024371D01*
X086314Y024327D01*
X086306Y024283D01*
X086294Y024241D01*
X086279Y024199D01*
X086260Y024159D01*
X086238Y024121D01*
X086212Y024085D01*
X086183Y024051D01*
X086151Y024020D01*
X086117Y023992D01*
X086081Y023968D01*
X086042Y023946D01*
X086002Y023928D01*
X085960Y023914D01*
X085917Y023903D01*
X085873Y023896D01*
X085829Y023893D01*
X085785Y023894D01*
X085741Y023899D01*
X085698Y023908D01*
X085655Y023920D01*
X085614Y023937D01*
X085574Y023956D01*
X085537Y023980D01*
X085501Y024006D01*
X085468Y024036D01*
X085438Y024068D01*
X085411Y024103D01*
X085387Y024140D01*
X085366Y024179D01*
X085349Y024220D01*
X085336Y024262D01*
X085326Y024305D01*
X085320Y024349D01*
X085318Y024393D01*
X085921Y025923D02*
X085848Y025997D01*
X085921Y025923D02*
X086068Y025923D01*
X086141Y025997D01*
X086141Y026070D01*
X086068Y026143D01*
X085995Y026143D01*
X086068Y026143D02*
X086141Y026217D01*
X086141Y026290D01*
X086068Y026364D01*
X085921Y026364D01*
X085848Y026290D01*
X086308Y026290D02*
X086382Y026364D01*
X086528Y026364D01*
X086602Y026290D01*
X086602Y026217D01*
X086308Y025923D01*
X086602Y025923D01*
X026468Y059393D02*
X025868Y058393D01*
X024768Y058393D01*
X024168Y059393D01*
X024768Y060393D01*
X025868Y060393D01*
X026468Y059393D01*
X024768Y059393D02*
X024770Y059440D01*
X024776Y059486D01*
X024786Y059532D01*
X024799Y059576D01*
X024817Y059620D01*
X024838Y059661D01*
X024862Y059701D01*
X024890Y059739D01*
X024921Y059774D01*
X024955Y059806D01*
X024991Y059835D01*
X025030Y059861D01*
X025070Y059884D01*
X025113Y059903D01*
X025157Y059919D01*
X025202Y059931D01*
X025248Y059939D01*
X025295Y059943D01*
X025341Y059943D01*
X025388Y059939D01*
X025434Y059931D01*
X025479Y059919D01*
X025523Y059903D01*
X025566Y059884D01*
X025606Y059861D01*
X025645Y059835D01*
X025681Y059806D01*
X025715Y059774D01*
X025746Y059739D01*
X025774Y059701D01*
X025798Y059661D01*
X025819Y059620D01*
X025837Y059576D01*
X025850Y059532D01*
X025860Y059486D01*
X025866Y059440D01*
X025868Y059393D01*
X025866Y059346D01*
X025860Y059300D01*
X025850Y059254D01*
X025837Y059210D01*
X025819Y059166D01*
X025798Y059125D01*
X025774Y059085D01*
X025746Y059047D01*
X025715Y059012D01*
X025681Y058980D01*
X025645Y058951D01*
X025606Y058925D01*
X025566Y058902D01*
X025523Y058883D01*
X025479Y058867D01*
X025434Y058855D01*
X025388Y058847D01*
X025341Y058843D01*
X025295Y058843D01*
X025248Y058847D01*
X025202Y058855D01*
X025157Y058867D01*
X025113Y058883D01*
X025070Y058902D01*
X025030Y058925D01*
X024991Y058951D01*
X024955Y058980D01*
X024921Y059012D01*
X024890Y059047D01*
X024862Y059085D01*
X024838Y059125D01*
X024817Y059166D01*
X024799Y059210D01*
X024786Y059254D01*
X024776Y059300D01*
X024770Y059346D01*
X024768Y059393D01*
X023718Y060393D02*
X023018Y060393D01*
X023718Y060393D02*
X023718Y062993D01*
D13*
X049068Y055493D02*
X049068Y049293D01*
X051768Y049293D01*
X051768Y050693D01*
X051768Y051593D01*
X051768Y053193D02*
X051768Y055093D01*
X051768Y055493D02*
X049068Y055493D01*
X051768Y055493D02*
X051768Y053693D01*
X071568Y054493D02*
X071568Y039293D01*
X074268Y039293D01*
X074268Y042093D01*
X074268Y042693D02*
X074268Y046093D01*
X074268Y047693D02*
X074268Y052093D01*
X074268Y052693D02*
X074268Y054493D01*
X071568Y054493D01*
X078018Y052293D02*
X080718Y052293D01*
X080718Y053693D01*
X080718Y054593D01*
X080718Y056193D02*
X080718Y058093D01*
X080718Y058493D02*
X078018Y058493D01*
X078018Y052293D01*
X080718Y056693D02*
X080718Y058493D01*
X085318Y057143D02*
X086918Y057143D01*
X086918Y056143D01*
X085318Y056143D01*
X085318Y055643D02*
X086918Y055643D01*
X086918Y054143D01*
X085318Y054143D01*
X085318Y053643D02*
X086918Y053643D01*
X086918Y050143D01*
X085318Y050143D01*
X085318Y049643D02*
X086918Y049643D01*
X086918Y046143D01*
X085318Y046143D01*
X085318Y045643D02*
X086918Y045643D01*
X086918Y042143D01*
X085318Y042143D01*
X085318Y041643D02*
X086918Y041643D01*
X086918Y038143D01*
X085318Y038143D01*
X085318Y037643D02*
X086918Y037643D01*
X086918Y034143D01*
X085318Y034143D01*
X085318Y033643D02*
X086918Y033643D01*
X086918Y030143D01*
X085318Y030143D01*
X085318Y029643D02*
X086918Y029643D01*
X086918Y028143D01*
X085318Y028143D01*
X085318Y027643D02*
X086918Y027643D01*
X086918Y026643D01*
X085318Y026643D01*
X048018Y026543D02*
X048018Y029243D01*
X032818Y029243D01*
X032818Y026543D01*
X035618Y026543D01*
X036218Y026543D02*
X039618Y026543D01*
X041218Y026543D02*
X045618Y026543D01*
X046218Y026543D02*
X048018Y026543D01*
D14*
X031883Y027428D02*
X031883Y027744D01*
X031778Y027849D01*
X031357Y027849D01*
X031252Y027744D01*
X031252Y027428D01*
X031883Y027428D01*
X031883Y028073D02*
X031883Y028493D01*
X031883Y028283D02*
X031252Y028283D01*
X031462Y028073D01*
X049519Y056478D02*
X049940Y056478D01*
X050164Y056583D02*
X050269Y056478D01*
X050479Y056478D01*
X050584Y056583D01*
X050808Y056478D02*
X051124Y056478D01*
X051229Y056583D01*
X051229Y057004D01*
X051124Y057109D01*
X050808Y057109D01*
X050808Y056478D01*
X050584Y057004D02*
X050479Y057109D01*
X050269Y057109D01*
X050164Y057004D01*
X050164Y056583D01*
X049519Y056478D02*
X049519Y057109D01*
X072414Y038609D02*
X072729Y038609D01*
X072834Y038504D01*
X072834Y038083D01*
X072729Y037978D01*
X072414Y037978D01*
X072414Y038609D01*
X073058Y038504D02*
X073163Y038609D01*
X073374Y038609D01*
X073479Y038504D01*
X073479Y038399D01*
X073058Y037978D01*
X073479Y037978D01*
X087402Y052428D02*
X087402Y052744D01*
X087507Y052849D01*
X087928Y052849D01*
X088033Y052744D01*
X088033Y052428D01*
X087402Y052428D01*
X087402Y053073D02*
X087402Y053283D01*
X087402Y053178D02*
X088033Y053178D01*
X088033Y053073D02*
X088033Y053283D01*
X088033Y053503D02*
X087402Y053503D01*
X088033Y053923D01*
X087402Y053923D01*
X087718Y054792D02*
X087718Y055212D01*
X087612Y055436D02*
X087402Y055646D01*
X088033Y055646D01*
X088033Y055436D02*
X088033Y055857D01*
X087928Y056081D02*
X087718Y056081D01*
X087718Y056396D01*
X087823Y056501D01*
X087928Y056501D01*
X088033Y056396D01*
X088033Y056186D01*
X087928Y056081D01*
X087718Y056081D02*
X087507Y056291D01*
X087402Y056501D01*
X087612Y056725D02*
X087402Y056935D01*
X088033Y056935D01*
X088033Y056725D02*
X088033Y057146D01*
X088033Y057370D02*
X087612Y057790D01*
X087507Y057790D01*
X087402Y057685D01*
X087402Y057475D01*
X087507Y057370D01*
X088033Y057370D02*
X088033Y057790D01*
X088402Y057578D02*
X088402Y057368D01*
X088507Y057262D01*
X088928Y057262D01*
X089033Y057368D01*
X089033Y057578D01*
X088928Y057683D01*
X088507Y057683D02*
X088402Y057578D01*
X088718Y056394D02*
X088612Y056289D01*
X088718Y056184D01*
X089033Y056184D01*
X089033Y056394D02*
X088718Y056394D01*
X088718Y056184D02*
X088612Y056078D01*
X088612Y055973D01*
X089033Y055973D01*
X088612Y055751D02*
X088612Y055646D01*
X088823Y055436D01*
X089033Y055436D02*
X088612Y055436D01*
X088718Y055212D02*
X088612Y055107D01*
X088612Y054897D01*
X088718Y054792D01*
X088928Y054792D01*
X089033Y054897D01*
X089033Y055107D01*
X088928Y055212D01*
X088718Y055212D01*
X088718Y054572D02*
X088718Y054362D01*
X088507Y054467D02*
X089033Y054467D01*
X089033Y054138D02*
X088612Y054138D01*
X088507Y054467D02*
X088402Y054572D01*
X088033Y055107D02*
X087402Y055107D01*
X087718Y054792D01*
X088612Y053717D02*
X088928Y053717D01*
X089033Y053822D01*
X089033Y054138D01*
X089033Y053493D02*
X089033Y053178D01*
X088928Y053073D01*
X088823Y053178D01*
X088823Y053493D01*
X088718Y053493D02*
X089033Y053493D01*
X088718Y053493D02*
X088612Y053388D01*
X088612Y053178D01*
X088612Y052849D02*
X088718Y052744D01*
X088718Y052428D01*
X089033Y052428D02*
X089033Y052744D01*
X088928Y052849D01*
X088823Y052849D01*
X088718Y052744D01*
X088612Y052849D02*
X088507Y052849D01*
X088402Y052744D01*
X088402Y052428D01*
X089033Y052428D01*
X079979Y059533D02*
X079874Y059428D01*
X079663Y059428D01*
X079558Y059533D01*
X079558Y059954D01*
X079663Y060059D01*
X079874Y060059D01*
X079979Y059954D01*
X079334Y060059D02*
X079334Y059428D01*
X078914Y060059D01*
X078914Y059428D01*
X078690Y059428D02*
X078269Y059428D01*
X078269Y060059D01*
X078690Y060059D01*
X078479Y059744D02*
X078269Y059744D01*
D15*
X085243Y057393D03*
X085243Y056393D03*
X085243Y055393D03*
X085243Y054393D03*
X085243Y053393D03*
X085243Y052393D03*
X085243Y051393D03*
X085243Y050393D03*
X085243Y049393D03*
X085243Y048393D03*
X085243Y047393D03*
X085243Y046393D03*
X085243Y045393D03*
X085243Y044393D03*
X085243Y043393D03*
X085243Y042393D03*
X085243Y041393D03*
X085243Y040393D03*
X085243Y039393D03*
X085243Y038393D03*
X085243Y037393D03*
X085243Y036393D03*
X085243Y035393D03*
X085243Y034393D03*
X085243Y033393D03*
X085243Y032393D03*
X085243Y031393D03*
X085243Y030393D03*
X085243Y029393D03*
X085243Y028393D03*
X085243Y027393D03*
X085243Y026393D03*
D16*
X083818Y026393D03*
X083818Y027393D03*
X083818Y028393D03*
X083818Y029393D03*
X083818Y030393D03*
X083818Y031393D03*
X083818Y032393D03*
X083818Y033393D03*
X083818Y034393D03*
X083818Y035393D03*
X083818Y036393D03*
X083818Y037393D03*
X083818Y038393D03*
X083818Y039393D03*
X083818Y040393D03*
X083818Y041393D03*
X083818Y042393D03*
X083818Y043393D03*
X083818Y044393D03*
X083818Y045393D03*
X083818Y046393D03*
X083818Y047393D03*
X083818Y048393D03*
X083818Y049393D03*
X083818Y050393D03*
X083818Y051393D03*
X083818Y052393D03*
X083818Y053393D03*
X083818Y054393D03*
X083818Y055393D03*
X083818Y056393D03*
X083818Y057393D03*
D17*
X088768Y026965D02*
X088768Y026364D01*
X088768Y026664D02*
X087867Y026664D01*
X088167Y026364D01*
X087867Y026044D02*
X087867Y025744D01*
X087867Y025894D02*
X088618Y025894D01*
X088768Y025744D01*
X088768Y025593D01*
X088618Y025443D01*
D18*
X080923Y036259D02*
X076912Y036259D01*
X053923Y033027D02*
X049912Y033027D01*
X045418Y048893D02*
X031418Y048893D01*
X031418Y051893D01*
X031918Y051893D01*
X031918Y052893D01*
X031418Y052893D01*
X031418Y055893D01*
X045418Y055893D01*
X045418Y048893D01*
D19*
X031148Y051317D02*
X030687Y051317D01*
X030687Y051470D02*
X030687Y051163D01*
X030687Y051624D02*
X031148Y051624D01*
X031148Y051931D01*
X031148Y052084D02*
X031148Y052391D01*
X031148Y052544D02*
X030687Y052544D01*
X031148Y052851D01*
X030687Y052851D01*
X030764Y053005D02*
X030841Y053005D01*
X030918Y053082D01*
X030918Y053235D01*
X030994Y053312D01*
X031071Y053312D01*
X031148Y053235D01*
X031148Y053082D01*
X031071Y053005D01*
X030764Y053005D02*
X030687Y053082D01*
X030687Y053235D01*
X030764Y053312D01*
X030764Y053465D02*
X030918Y053619D01*
X031148Y053619D01*
X030918Y053619D02*
X030764Y053772D01*
X030687Y053772D01*
X030687Y053465D02*
X030764Y053465D01*
X030687Y052391D02*
X030687Y052084D01*
X031148Y052084D01*
X030918Y052084D02*
X030918Y052238D01*
X030687Y051931D02*
X030687Y051624D01*
X030918Y051624D02*
X030918Y051777D01*
X054598Y033960D02*
X054598Y033653D01*
X054598Y033806D02*
X054137Y033806D01*
X054291Y033653D01*
X054137Y033499D02*
X054521Y033499D01*
X054598Y033423D01*
X054598Y033269D01*
X054521Y033193D01*
X054137Y033193D01*
X049245Y029374D02*
X048938Y029374D01*
X048938Y028913D01*
X048938Y029144D02*
X049091Y029144D01*
X074804Y028602D02*
X074804Y026279D01*
X076024Y026279D01*
X076812Y026279D02*
X078032Y026279D01*
X078032Y028602D01*
X077127Y029507D01*
X076812Y029507D01*
X076024Y029507D02*
X075709Y029507D01*
X074804Y028602D01*
X076064Y029409D02*
X075987Y029389D01*
X075912Y029366D01*
X075838Y029338D01*
X075766Y029307D01*
X075695Y029272D01*
X075626Y029234D01*
X075560Y029192D01*
X075495Y029147D01*
X075433Y029099D01*
X075373Y029047D01*
X075316Y028993D01*
X075262Y028936D01*
X075210Y028876D01*
X075162Y028814D01*
X075117Y028749D01*
X075076Y028682D01*
X075038Y028613D01*
X075003Y028542D01*
X074972Y028470D01*
X074944Y028396D01*
X074921Y028321D01*
X074901Y028245D01*
X074885Y028167D01*
X074873Y028089D01*
X074865Y028011D01*
X074861Y027932D01*
X074861Y027854D01*
X074865Y027775D01*
X074873Y027697D01*
X074885Y027619D01*
X074901Y027541D01*
X074921Y027465D01*
X074944Y027390D01*
X074972Y027316D01*
X075003Y027244D01*
X075038Y027173D01*
X075076Y027104D01*
X075117Y027037D01*
X075162Y026972D01*
X075210Y026910D01*
X075262Y026850D01*
X075316Y026793D01*
X075373Y026739D01*
X075433Y026687D01*
X075495Y026639D01*
X075560Y026594D01*
X075626Y026552D01*
X075695Y026514D01*
X075766Y026479D01*
X075838Y026448D01*
X075912Y026420D01*
X075987Y026397D01*
X076064Y026377D01*
X076772Y026377D02*
X076849Y026397D01*
X076924Y026420D01*
X076998Y026448D01*
X077070Y026479D01*
X077141Y026514D01*
X077210Y026552D01*
X077276Y026594D01*
X077341Y026639D01*
X077403Y026687D01*
X077463Y026739D01*
X077520Y026793D01*
X077574Y026850D01*
X077626Y026910D01*
X077674Y026972D01*
X077719Y027037D01*
X077760Y027104D01*
X077798Y027173D01*
X077833Y027244D01*
X077864Y027316D01*
X077892Y027390D01*
X077915Y027465D01*
X077935Y027541D01*
X077951Y027619D01*
X077963Y027697D01*
X077971Y027775D01*
X077975Y027854D01*
X077975Y027932D01*
X077971Y028011D01*
X077963Y028089D01*
X077951Y028167D01*
X077935Y028245D01*
X077915Y028321D01*
X077892Y028396D01*
X077864Y028470D01*
X077833Y028542D01*
X077798Y028613D01*
X077760Y028682D01*
X077719Y028749D01*
X077674Y028814D01*
X077626Y028876D01*
X077574Y028936D01*
X077520Y028993D01*
X077463Y029047D01*
X077403Y029099D01*
X077341Y029147D01*
X077276Y029192D01*
X077210Y029234D01*
X077141Y029272D01*
X077070Y029307D01*
X076998Y029338D01*
X076924Y029366D01*
X076849Y029389D01*
X076772Y029409D01*
X076621Y035213D02*
X076698Y035290D01*
X076698Y035444D01*
X076621Y035520D01*
X076237Y035520D01*
X076314Y035674D02*
X076237Y035750D01*
X076237Y035904D01*
X076314Y035981D01*
X076391Y035981D01*
X076698Y035674D01*
X076698Y035981D01*
X076621Y035213D02*
X076237Y035213D01*
X071898Y055413D02*
X071437Y055413D01*
X071437Y055720D01*
X071668Y055567D02*
X071668Y055413D01*
D20*
X077578Y035963D03*
X078248Y035963D03*
X078918Y035963D03*
X079588Y035963D03*
X080258Y035963D03*
X053258Y033323D03*
X052588Y033323D03*
X051918Y033323D03*
X051248Y033323D03*
X050578Y033323D03*
D21*
X050193Y034141D02*
X049642Y034141D01*
X049642Y035145D01*
X050193Y035145D01*
X050193Y034141D01*
X050312Y035279D02*
X050312Y036007D01*
X051524Y036007D01*
X051524Y035279D01*
X050312Y035279D01*
X052554Y034787D02*
X053282Y034787D01*
X053282Y036000D01*
X052554Y036000D01*
X052554Y034787D01*
X053455Y034858D02*
X053455Y035429D01*
X054380Y035429D01*
X054380Y034858D01*
X053455Y034858D01*
X076612Y034557D02*
X076612Y033829D01*
X077824Y033829D01*
X077824Y034557D01*
X076612Y034557D01*
X077332Y033256D02*
X077332Y032331D01*
X077903Y032331D01*
X077903Y033256D01*
X077332Y033256D01*
X079412Y033229D02*
X079412Y033957D01*
X080624Y033957D01*
X080624Y033229D01*
X079412Y033229D01*
X080642Y034191D02*
X081193Y034191D01*
X081193Y035195D01*
X080642Y035195D01*
X080642Y034191D01*
X076920Y053618D02*
X075916Y053618D01*
X075916Y054169D01*
X076920Y054169D01*
X076920Y053618D01*
X076920Y054618D02*
X075916Y054618D01*
X075916Y055169D01*
X076920Y055169D01*
X076920Y054618D01*
X076920Y055618D02*
X075916Y055618D01*
X075916Y056169D01*
X076920Y056169D01*
X076920Y055618D01*
X076920Y056618D02*
X075916Y056618D01*
X075916Y057169D01*
X076920Y057169D01*
X076920Y056618D01*
X033024Y056529D02*
X031812Y056529D01*
X031812Y057257D01*
X033024Y057257D01*
X033024Y056529D01*
X032203Y057431D02*
X031632Y057431D01*
X031632Y058356D01*
X032203Y058356D01*
X032203Y057431D01*
D22*
X032553Y057614D02*
X032615Y057552D01*
X032738Y057552D01*
X032800Y057614D01*
X032921Y057552D02*
X033168Y057799D01*
X033168Y057861D01*
X033106Y057922D01*
X032983Y057922D01*
X032921Y057861D01*
X032800Y057861D02*
X032738Y057922D01*
X032615Y057922D01*
X032553Y057861D01*
X032553Y057614D01*
X032921Y057552D02*
X033168Y057552D01*
X031338Y057686D02*
X031338Y057933D01*
X031338Y058054D02*
X031338Y058301D01*
X031338Y058178D02*
X030968Y058178D01*
X031091Y058054D01*
X030968Y057686D02*
X031338Y057686D01*
X050888Y035235D02*
X050826Y035173D01*
X050826Y034926D01*
X050888Y034865D01*
X051011Y034865D01*
X051073Y034926D01*
X051194Y035050D02*
X051441Y035050D01*
X051380Y035235D02*
X051194Y035050D01*
X051073Y035173D02*
X051011Y035235D01*
X050888Y035235D01*
X051380Y035235D02*
X051380Y034865D01*
X052139Y034840D02*
X052201Y034778D01*
X052447Y034778D01*
X052509Y034840D01*
X052509Y034964D01*
X052447Y035025D01*
X052447Y035147D02*
X052509Y035208D01*
X052509Y035332D01*
X052447Y035394D01*
X052324Y035394D01*
X052262Y035332D01*
X052262Y035270D01*
X052324Y035147D01*
X052139Y035147D01*
X052139Y035394D01*
X052201Y035025D02*
X052139Y034964D01*
X052139Y034840D01*
X053669Y034814D02*
X053669Y034443D01*
X053916Y034443D01*
X054037Y034443D02*
X054284Y034690D01*
X054284Y034752D01*
X054222Y034814D01*
X054099Y034814D01*
X054037Y034752D01*
X054037Y034443D02*
X054284Y034443D01*
X049588Y034332D02*
X049526Y034393D01*
X049588Y034332D02*
X049588Y034208D01*
X049526Y034146D01*
X049279Y034146D01*
X049218Y034208D01*
X049218Y034332D01*
X049279Y034393D01*
X049279Y034515D02*
X049218Y034577D01*
X049218Y034700D01*
X049279Y034762D01*
X049341Y034762D01*
X049403Y034700D01*
X049464Y034762D01*
X049526Y034762D01*
X049588Y034700D01*
X049588Y034577D01*
X049526Y034515D01*
X049403Y034638D02*
X049403Y034700D01*
X075521Y028203D02*
X075521Y027956D01*
X075706Y027956D01*
X075644Y028079D01*
X075644Y028141D01*
X075706Y028203D01*
X075829Y028203D01*
X075891Y028141D01*
X075891Y028018D01*
X075829Y027956D01*
X075891Y027835D02*
X075891Y027588D01*
X075644Y027835D01*
X075582Y027835D01*
X075521Y027773D01*
X075521Y027649D01*
X075582Y027588D01*
X075582Y027466D02*
X075521Y027404D01*
X075521Y027281D01*
X075582Y027219D01*
X075829Y027219D01*
X075891Y027281D01*
X075891Y027404D01*
X075829Y027466D01*
X076918Y032336D02*
X077288Y032336D01*
X077288Y032583D01*
X077226Y032704D02*
X077164Y032704D01*
X077103Y032766D01*
X077103Y032889D01*
X077164Y032951D01*
X077226Y032951D01*
X077288Y032889D01*
X077288Y032766D01*
X077226Y032704D01*
X077103Y032766D02*
X077041Y032704D01*
X076979Y032704D01*
X076918Y032766D01*
X076918Y032889D01*
X076979Y032951D01*
X077041Y032951D01*
X077103Y032889D01*
X077188Y033415D02*
X077126Y033476D01*
X077188Y033415D02*
X077311Y033415D01*
X077373Y033476D01*
X077373Y033600D01*
X077311Y033661D01*
X077250Y033661D01*
X077126Y033600D01*
X077126Y033785D01*
X077373Y033785D01*
X077494Y033661D02*
X077618Y033785D01*
X077618Y033415D01*
X077741Y033415D02*
X077494Y033415D01*
X077005Y033476D02*
X076943Y033415D01*
X076820Y033415D01*
X076758Y033476D01*
X076758Y033723D01*
X076820Y033785D01*
X076943Y033785D01*
X077005Y033723D01*
X079403Y034064D02*
X079465Y034002D01*
X079588Y034002D01*
X079650Y034064D01*
X079771Y034002D02*
X080018Y034002D01*
X079895Y034002D02*
X079895Y034372D01*
X079771Y034249D01*
X079650Y034311D02*
X079588Y034372D01*
X079465Y034372D01*
X079403Y034311D01*
X079403Y034064D01*
X080140Y034064D02*
X080386Y034311D01*
X080386Y034064D01*
X080325Y034002D01*
X080201Y034002D01*
X080140Y034064D01*
X080140Y034311D01*
X080201Y034372D01*
X080325Y034372D01*
X080386Y034311D01*
X081247Y034545D02*
X081309Y034483D01*
X081556Y034483D01*
X081618Y034545D01*
X081618Y034669D01*
X081556Y034730D01*
X081556Y034852D02*
X081618Y034914D01*
X081618Y035037D01*
X081556Y035099D01*
X081309Y035099D01*
X081247Y035037D01*
X081247Y034914D01*
X081309Y034852D01*
X081371Y034852D01*
X081433Y034914D01*
X081433Y035099D01*
X081309Y034730D02*
X081247Y034669D01*
X081247Y034545D01*
X076823Y053193D02*
X076576Y053193D01*
X076700Y053193D02*
X076700Y053564D01*
X076576Y053440D01*
X076455Y053502D02*
X076393Y053564D01*
X076270Y053564D01*
X076208Y053502D01*
X076208Y053255D01*
X076270Y053193D01*
X076393Y053193D01*
X076455Y053255D01*
X076393Y054193D02*
X076270Y054193D01*
X076208Y054255D01*
X076087Y054255D02*
X076025Y054193D01*
X075901Y054193D01*
X075840Y054255D01*
X075840Y054502D01*
X075901Y054564D01*
X076025Y054564D01*
X076087Y054502D01*
X076208Y054564D02*
X076208Y054379D01*
X076331Y054440D01*
X076393Y054440D01*
X076455Y054379D01*
X076455Y054255D01*
X076393Y054193D01*
X076576Y054255D02*
X076638Y054193D01*
X076762Y054193D01*
X076823Y054255D01*
X076823Y054317D01*
X076762Y054379D01*
X076576Y054379D01*
X076576Y054255D01*
X076576Y054379D02*
X076700Y054502D01*
X076823Y054564D01*
X076455Y054564D02*
X076208Y054564D01*
X076270Y055193D02*
X076208Y055255D01*
X076270Y055193D02*
X076393Y055193D01*
X076455Y055255D01*
X076455Y055379D01*
X076393Y055440D01*
X076331Y055440D01*
X076208Y055379D01*
X076208Y055564D01*
X076455Y055564D01*
X076576Y055564D02*
X076576Y055379D01*
X076700Y055440D01*
X076762Y055440D01*
X076823Y055379D01*
X076823Y055255D01*
X076762Y055193D01*
X076638Y055193D01*
X076576Y055255D01*
X076576Y055564D02*
X076823Y055564D01*
X076762Y056193D02*
X076762Y056564D01*
X076576Y056379D01*
X076823Y056379D01*
X076455Y056379D02*
X076455Y056255D01*
X076393Y056193D01*
X076270Y056193D01*
X076208Y056255D01*
X076087Y056255D02*
X076025Y056193D01*
X075901Y056193D01*
X075840Y056255D01*
X075840Y056502D01*
X075901Y056564D01*
X076025Y056564D01*
X076087Y056502D01*
X076208Y056564D02*
X076208Y056379D01*
X076331Y056440D01*
X076393Y056440D01*
X076455Y056379D01*
X076455Y056564D02*
X076208Y056564D01*
X076025Y055564D02*
X075901Y055564D01*
X075840Y055502D01*
X075840Y055255D01*
X075901Y055193D01*
X076025Y055193D01*
X076087Y055255D01*
X076087Y055502D02*
X076025Y055564D01*
D23*
X064518Y042143D03*
X064518Y042043D03*
X064518Y041943D03*
X064518Y041543D03*
X064418Y041443D03*
X064518Y041243D03*
X064418Y041043D03*
X064118Y041043D03*
X063918Y041043D03*
X063718Y041243D03*
X063818Y041343D03*
X063818Y041543D03*
X063918Y041743D03*
X063918Y041843D03*
X063718Y041843D03*
X063718Y041743D03*
X063518Y041743D03*
X063518Y041843D03*
X063318Y041843D03*
X063318Y041743D03*
X063218Y041643D03*
X063118Y041743D03*
X062918Y041743D03*
X062718Y041943D03*
X062718Y042043D03*
X062718Y042143D03*
X062918Y042143D03*
X062918Y042343D03*
X063518Y042243D03*
X063518Y042143D03*
X063718Y042243D03*
X063718Y042343D03*
X063918Y042343D03*
X063918Y042243D03*
X063918Y042043D03*
X064118Y042043D03*
X064118Y041943D03*
X064118Y042143D03*
X062618Y041443D03*
X062718Y041143D03*
X062718Y040943D03*
X062518Y041043D03*
X062418Y040943D03*
X062218Y040943D03*
X062218Y041343D03*
X062318Y041543D03*
X062318Y041943D03*
X062318Y042043D03*
X062318Y042143D03*
X062918Y041343D03*
X063218Y041143D03*
X063518Y041243D03*
X063618Y041043D03*
X063418Y040843D03*
X063418Y040643D03*
X063218Y040743D03*
X063018Y040743D03*
X062918Y040443D03*
X062718Y040343D03*
X062718Y040243D03*
X062718Y040143D03*
X062918Y040143D03*
X062918Y039943D03*
X063118Y040143D03*
X063318Y039943D03*
X063218Y040443D03*
X063618Y040443D03*
X063718Y040543D03*
X063918Y040543D03*
X064118Y040543D03*
X064318Y040443D03*
X064318Y040643D03*
X064618Y040543D03*
X064618Y040443D03*
X064618Y040343D03*
X064518Y040243D03*
X064518Y039943D03*
X064318Y039943D03*
X064118Y039943D03*
X062318Y040143D03*
X062318Y040243D03*
X062318Y040343D03*
D24*
X062668Y040743D03*
X062768Y040843D03*
X062868Y041043D03*
X062868Y041443D03*
X062968Y041543D03*
X062968Y041843D03*
X062968Y041943D03*
X063268Y041943D03*
X063568Y041643D03*
X063868Y041443D03*
X063968Y041243D03*
X064268Y041243D03*
X064568Y040843D03*
X064368Y040743D03*
X064368Y040543D03*
X064568Y040043D03*
X063768Y039943D03*
X063668Y040043D03*
X063468Y040243D03*
X063268Y040543D03*
X062968Y040543D03*
X062968Y040243D03*
X062968Y040043D03*
X063668Y040643D03*
X063568Y040743D03*
X063268Y041243D03*
X063268Y041343D03*
X062568Y041343D03*
X062568Y041543D03*
X063468Y042343D03*
D25*
X063718Y041943D03*
X063418Y041543D03*
X063318Y041443D03*
X063718Y040943D03*
X064318Y041843D03*
X064318Y042243D03*
X062518Y042243D03*
X062518Y041843D03*
X062518Y040443D03*
X062518Y040043D03*
D26*
X063068Y040943D03*
X063568Y041143D03*
X064368Y041143D03*
X064068Y040043D03*
X063068Y042243D03*
D27*
X063218Y042143D03*
X063018Y042043D03*
X063618Y042043D03*
X063818Y042143D03*
X064218Y041543D03*
X064418Y041343D03*
X064518Y040943D03*
X064018Y040643D03*
X064018Y040443D03*
X063918Y040843D03*
X063218Y041043D03*
X062818Y041243D03*
X062318Y041243D03*
X062318Y041143D03*
X062318Y041443D03*
X062418Y040843D03*
X062318Y040743D03*
X063318Y040043D03*
X063418Y040143D03*
X064518Y040143D03*
D28*
X063268Y040343D03*
X062568Y041643D03*
D29*
X064218Y041643D03*
D30*
X062668Y040643D03*
D31*
X063968Y040143D03*
X064068Y040243D03*
D32*
X063418Y039693D03*
X063418Y042593D03*
D33*
X064868Y041143D03*
X061968Y041143D03*
D34*
X080018Y049893D02*
X080418Y049493D01*
X080418Y049693D01*
X080318Y049793D01*
X080218Y049793D01*
X080418Y049693D02*
X080418Y049893D01*
X080018Y049893D01*
M02*
