G75*
%MOIN*%
%OFA0B0*%
%FSLAX24Y24*%
%IPPOS*%
%LPD*%
%AMOC8*
5,1,8,0,0,1.08239X$1,22.5*
%
%ADD10C,0.0000*%
D10*
X023918Y022203D02*
X023918Y047193D01*
X028918Y047193D01*
X028918Y061583D01*
X086918Y061583D01*
X086918Y022203D01*
X023918Y022203D01*
X024768Y024393D02*
X024770Y024440D01*
X024776Y024486D01*
X024786Y024532D01*
X024799Y024576D01*
X024817Y024620D01*
X024838Y024661D01*
X024862Y024701D01*
X024890Y024739D01*
X024921Y024774D01*
X024955Y024806D01*
X024991Y024835D01*
X025030Y024861D01*
X025070Y024884D01*
X025113Y024903D01*
X025157Y024919D01*
X025202Y024931D01*
X025248Y024939D01*
X025295Y024943D01*
X025341Y024943D01*
X025388Y024939D01*
X025434Y024931D01*
X025479Y024919D01*
X025523Y024903D01*
X025566Y024884D01*
X025606Y024861D01*
X025645Y024835D01*
X025681Y024806D01*
X025715Y024774D01*
X025746Y024739D01*
X025774Y024701D01*
X025798Y024661D01*
X025819Y024620D01*
X025837Y024576D01*
X025850Y024532D01*
X025860Y024486D01*
X025866Y024440D01*
X025868Y024393D01*
X025866Y024346D01*
X025860Y024300D01*
X025850Y024254D01*
X025837Y024210D01*
X025819Y024166D01*
X025798Y024125D01*
X025774Y024085D01*
X025746Y024047D01*
X025715Y024012D01*
X025681Y023980D01*
X025645Y023951D01*
X025606Y023925D01*
X025566Y023902D01*
X025523Y023883D01*
X025479Y023867D01*
X025434Y023855D01*
X025388Y023847D01*
X025341Y023843D01*
X025295Y023843D01*
X025248Y023847D01*
X025202Y023855D01*
X025157Y023867D01*
X025113Y023883D01*
X025070Y023902D01*
X025030Y023925D01*
X024991Y023951D01*
X024955Y023980D01*
X024921Y024012D01*
X024890Y024047D01*
X024862Y024085D01*
X024838Y024125D01*
X024817Y024166D01*
X024799Y024210D01*
X024786Y024254D01*
X024776Y024300D01*
X024770Y024346D01*
X024768Y024393D01*
X025793Y027393D02*
X025795Y027443D01*
X025801Y027492D01*
X025811Y027541D01*
X025824Y027588D01*
X025842Y027635D01*
X025863Y027680D01*
X025887Y027723D01*
X025915Y027764D01*
X025946Y027803D01*
X025980Y027839D01*
X026017Y027873D01*
X026057Y027903D01*
X026098Y027930D01*
X026142Y027954D01*
X026187Y027974D01*
X026234Y027990D01*
X026282Y028003D01*
X026331Y028012D01*
X026381Y028017D01*
X026430Y028018D01*
X026480Y028015D01*
X026529Y028008D01*
X026578Y027997D01*
X026625Y027983D01*
X026671Y027964D01*
X026716Y027942D01*
X026759Y027917D01*
X026799Y027888D01*
X026837Y027856D01*
X026873Y027822D01*
X026906Y027784D01*
X026935Y027744D01*
X026961Y027702D01*
X026984Y027658D01*
X027003Y027612D01*
X027019Y027565D01*
X027031Y027516D01*
X027039Y027467D01*
X027043Y027418D01*
X027043Y027368D01*
X027039Y027319D01*
X027031Y027270D01*
X027019Y027221D01*
X027003Y027174D01*
X026984Y027128D01*
X026961Y027084D01*
X026935Y027042D01*
X026906Y027002D01*
X026873Y026964D01*
X026837Y026930D01*
X026799Y026898D01*
X026759Y026869D01*
X026716Y026844D01*
X026671Y026822D01*
X026625Y026803D01*
X026578Y026789D01*
X026529Y026778D01*
X026480Y026771D01*
X026430Y026768D01*
X026381Y026769D01*
X026331Y026774D01*
X026282Y026783D01*
X026234Y026796D01*
X026187Y026812D01*
X026142Y026832D01*
X026098Y026856D01*
X026057Y026883D01*
X026017Y026913D01*
X025980Y026947D01*
X025946Y026983D01*
X025915Y027022D01*
X025887Y027063D01*
X025863Y027106D01*
X025842Y027151D01*
X025824Y027198D01*
X025811Y027245D01*
X025801Y027294D01*
X025795Y027343D01*
X025793Y027393D01*
X025793Y044393D02*
X025795Y044443D01*
X025801Y044492D01*
X025811Y044541D01*
X025824Y044588D01*
X025842Y044635D01*
X025863Y044680D01*
X025887Y044723D01*
X025915Y044764D01*
X025946Y044803D01*
X025980Y044839D01*
X026017Y044873D01*
X026057Y044903D01*
X026098Y044930D01*
X026142Y044954D01*
X026187Y044974D01*
X026234Y044990D01*
X026282Y045003D01*
X026331Y045012D01*
X026381Y045017D01*
X026430Y045018D01*
X026480Y045015D01*
X026529Y045008D01*
X026578Y044997D01*
X026625Y044983D01*
X026671Y044964D01*
X026716Y044942D01*
X026759Y044917D01*
X026799Y044888D01*
X026837Y044856D01*
X026873Y044822D01*
X026906Y044784D01*
X026935Y044744D01*
X026961Y044702D01*
X026984Y044658D01*
X027003Y044612D01*
X027019Y044565D01*
X027031Y044516D01*
X027039Y044467D01*
X027043Y044418D01*
X027043Y044368D01*
X027039Y044319D01*
X027031Y044270D01*
X027019Y044221D01*
X027003Y044174D01*
X026984Y044128D01*
X026961Y044084D01*
X026935Y044042D01*
X026906Y044002D01*
X026873Y043964D01*
X026837Y043930D01*
X026799Y043898D01*
X026759Y043869D01*
X026716Y043844D01*
X026671Y043822D01*
X026625Y043803D01*
X026578Y043789D01*
X026529Y043778D01*
X026480Y043771D01*
X026430Y043768D01*
X026381Y043769D01*
X026331Y043774D01*
X026282Y043783D01*
X026234Y043796D01*
X026187Y043812D01*
X026142Y043832D01*
X026098Y043856D01*
X026057Y043883D01*
X026017Y043913D01*
X025980Y043947D01*
X025946Y043983D01*
X025915Y044022D01*
X025887Y044063D01*
X025863Y044106D01*
X025842Y044151D01*
X025824Y044198D01*
X025811Y044245D01*
X025801Y044294D01*
X025795Y044343D01*
X025793Y044393D01*
X051793Y044393D02*
X051795Y044443D01*
X051801Y044492D01*
X051811Y044541D01*
X051824Y044588D01*
X051842Y044635D01*
X051863Y044680D01*
X051887Y044723D01*
X051915Y044764D01*
X051946Y044803D01*
X051980Y044839D01*
X052017Y044873D01*
X052057Y044903D01*
X052098Y044930D01*
X052142Y044954D01*
X052187Y044974D01*
X052234Y044990D01*
X052282Y045003D01*
X052331Y045012D01*
X052381Y045017D01*
X052430Y045018D01*
X052480Y045015D01*
X052529Y045008D01*
X052578Y044997D01*
X052625Y044983D01*
X052671Y044964D01*
X052716Y044942D01*
X052759Y044917D01*
X052799Y044888D01*
X052837Y044856D01*
X052873Y044822D01*
X052906Y044784D01*
X052935Y044744D01*
X052961Y044702D01*
X052984Y044658D01*
X053003Y044612D01*
X053019Y044565D01*
X053031Y044516D01*
X053039Y044467D01*
X053043Y044418D01*
X053043Y044368D01*
X053039Y044319D01*
X053031Y044270D01*
X053019Y044221D01*
X053003Y044174D01*
X052984Y044128D01*
X052961Y044084D01*
X052935Y044042D01*
X052906Y044002D01*
X052873Y043964D01*
X052837Y043930D01*
X052799Y043898D01*
X052759Y043869D01*
X052716Y043844D01*
X052671Y043822D01*
X052625Y043803D01*
X052578Y043789D01*
X052529Y043778D01*
X052480Y043771D01*
X052430Y043768D01*
X052381Y043769D01*
X052331Y043774D01*
X052282Y043783D01*
X052234Y043796D01*
X052187Y043812D01*
X052142Y043832D01*
X052098Y043856D01*
X052057Y043883D01*
X052017Y043913D01*
X051980Y043947D01*
X051946Y043983D01*
X051915Y044022D01*
X051887Y044063D01*
X051863Y044106D01*
X051842Y044151D01*
X051824Y044198D01*
X051811Y044245D01*
X051801Y044294D01*
X051795Y044343D01*
X051793Y044393D01*
X055793Y032893D02*
X055795Y032943D01*
X055801Y032992D01*
X055811Y033041D01*
X055824Y033088D01*
X055842Y033135D01*
X055863Y033180D01*
X055887Y033223D01*
X055915Y033264D01*
X055946Y033303D01*
X055980Y033339D01*
X056017Y033373D01*
X056057Y033403D01*
X056098Y033430D01*
X056142Y033454D01*
X056187Y033474D01*
X056234Y033490D01*
X056282Y033503D01*
X056331Y033512D01*
X056381Y033517D01*
X056430Y033518D01*
X056480Y033515D01*
X056529Y033508D01*
X056578Y033497D01*
X056625Y033483D01*
X056671Y033464D01*
X056716Y033442D01*
X056759Y033417D01*
X056799Y033388D01*
X056837Y033356D01*
X056873Y033322D01*
X056906Y033284D01*
X056935Y033244D01*
X056961Y033202D01*
X056984Y033158D01*
X057003Y033112D01*
X057019Y033065D01*
X057031Y033016D01*
X057039Y032967D01*
X057043Y032918D01*
X057043Y032868D01*
X057039Y032819D01*
X057031Y032770D01*
X057019Y032721D01*
X057003Y032674D01*
X056984Y032628D01*
X056961Y032584D01*
X056935Y032542D01*
X056906Y032502D01*
X056873Y032464D01*
X056837Y032430D01*
X056799Y032398D01*
X056759Y032369D01*
X056716Y032344D01*
X056671Y032322D01*
X056625Y032303D01*
X056578Y032289D01*
X056529Y032278D01*
X056480Y032271D01*
X056430Y032268D01*
X056381Y032269D01*
X056331Y032274D01*
X056282Y032283D01*
X056234Y032296D01*
X056187Y032312D01*
X056142Y032332D01*
X056098Y032356D01*
X056057Y032383D01*
X056017Y032413D01*
X055980Y032447D01*
X055946Y032483D01*
X055915Y032522D01*
X055887Y032563D01*
X055863Y032606D01*
X055842Y032651D01*
X055824Y032698D01*
X055811Y032745D01*
X055801Y032794D01*
X055795Y032843D01*
X055793Y032893D01*
X051793Y027393D02*
X051795Y027443D01*
X051801Y027492D01*
X051811Y027541D01*
X051824Y027588D01*
X051842Y027635D01*
X051863Y027680D01*
X051887Y027723D01*
X051915Y027764D01*
X051946Y027803D01*
X051980Y027839D01*
X052017Y027873D01*
X052057Y027903D01*
X052098Y027930D01*
X052142Y027954D01*
X052187Y027974D01*
X052234Y027990D01*
X052282Y028003D01*
X052331Y028012D01*
X052381Y028017D01*
X052430Y028018D01*
X052480Y028015D01*
X052529Y028008D01*
X052578Y027997D01*
X052625Y027983D01*
X052671Y027964D01*
X052716Y027942D01*
X052759Y027917D01*
X052799Y027888D01*
X052837Y027856D01*
X052873Y027822D01*
X052906Y027784D01*
X052935Y027744D01*
X052961Y027702D01*
X052984Y027658D01*
X053003Y027612D01*
X053019Y027565D01*
X053031Y027516D01*
X053039Y027467D01*
X053043Y027418D01*
X053043Y027368D01*
X053039Y027319D01*
X053031Y027270D01*
X053019Y027221D01*
X053003Y027174D01*
X052984Y027128D01*
X052961Y027084D01*
X052935Y027042D01*
X052906Y027002D01*
X052873Y026964D01*
X052837Y026930D01*
X052799Y026898D01*
X052759Y026869D01*
X052716Y026844D01*
X052671Y026822D01*
X052625Y026803D01*
X052578Y026789D01*
X052529Y026778D01*
X052480Y026771D01*
X052430Y026768D01*
X052381Y026769D01*
X052331Y026774D01*
X052282Y026783D01*
X052234Y026796D01*
X052187Y026812D01*
X052142Y026832D01*
X052098Y026856D01*
X052057Y026883D01*
X052017Y026913D01*
X051980Y026947D01*
X051946Y026983D01*
X051915Y027022D01*
X051887Y027063D01*
X051863Y027106D01*
X051842Y027151D01*
X051824Y027198D01*
X051811Y027245D01*
X051801Y027294D01*
X051795Y027343D01*
X051793Y027393D01*
X072793Y032893D02*
X072795Y032943D01*
X072801Y032992D01*
X072811Y033041D01*
X072824Y033088D01*
X072842Y033135D01*
X072863Y033180D01*
X072887Y033223D01*
X072915Y033264D01*
X072946Y033303D01*
X072980Y033339D01*
X073017Y033373D01*
X073057Y033403D01*
X073098Y033430D01*
X073142Y033454D01*
X073187Y033474D01*
X073234Y033490D01*
X073282Y033503D01*
X073331Y033512D01*
X073381Y033517D01*
X073430Y033518D01*
X073480Y033515D01*
X073529Y033508D01*
X073578Y033497D01*
X073625Y033483D01*
X073671Y033464D01*
X073716Y033442D01*
X073759Y033417D01*
X073799Y033388D01*
X073837Y033356D01*
X073873Y033322D01*
X073906Y033284D01*
X073935Y033244D01*
X073961Y033202D01*
X073984Y033158D01*
X074003Y033112D01*
X074019Y033065D01*
X074031Y033016D01*
X074039Y032967D01*
X074043Y032918D01*
X074043Y032868D01*
X074039Y032819D01*
X074031Y032770D01*
X074019Y032721D01*
X074003Y032674D01*
X073984Y032628D01*
X073961Y032584D01*
X073935Y032542D01*
X073906Y032502D01*
X073873Y032464D01*
X073837Y032430D01*
X073799Y032398D01*
X073759Y032369D01*
X073716Y032344D01*
X073671Y032322D01*
X073625Y032303D01*
X073578Y032289D01*
X073529Y032278D01*
X073480Y032271D01*
X073430Y032268D01*
X073381Y032269D01*
X073331Y032274D01*
X073282Y032283D01*
X073234Y032296D01*
X073187Y032312D01*
X073142Y032332D01*
X073098Y032356D01*
X073057Y032383D01*
X073017Y032413D01*
X072980Y032447D01*
X072946Y032483D01*
X072915Y032522D01*
X072887Y032563D01*
X072863Y032606D01*
X072842Y032651D01*
X072824Y032698D01*
X072811Y032745D01*
X072801Y032794D01*
X072795Y032843D01*
X072793Y032893D01*
X085268Y024393D02*
X085270Y024440D01*
X085276Y024486D01*
X085286Y024532D01*
X085299Y024576D01*
X085317Y024620D01*
X085338Y024661D01*
X085362Y024701D01*
X085390Y024739D01*
X085421Y024774D01*
X085455Y024806D01*
X085491Y024835D01*
X085530Y024861D01*
X085570Y024884D01*
X085613Y024903D01*
X085657Y024919D01*
X085702Y024931D01*
X085748Y024939D01*
X085795Y024943D01*
X085841Y024943D01*
X085888Y024939D01*
X085934Y024931D01*
X085979Y024919D01*
X086023Y024903D01*
X086066Y024884D01*
X086106Y024861D01*
X086145Y024835D01*
X086181Y024806D01*
X086215Y024774D01*
X086246Y024739D01*
X086274Y024701D01*
X086298Y024661D01*
X086319Y024620D01*
X086337Y024576D01*
X086350Y024532D01*
X086360Y024486D01*
X086366Y024440D01*
X086368Y024393D01*
X086366Y024346D01*
X086360Y024300D01*
X086350Y024254D01*
X086337Y024210D01*
X086319Y024166D01*
X086298Y024125D01*
X086274Y024085D01*
X086246Y024047D01*
X086215Y024012D01*
X086181Y023980D01*
X086145Y023951D01*
X086106Y023925D01*
X086066Y023902D01*
X086023Y023883D01*
X085979Y023867D01*
X085934Y023855D01*
X085888Y023847D01*
X085841Y023843D01*
X085795Y023843D01*
X085748Y023847D01*
X085702Y023855D01*
X085657Y023867D01*
X085613Y023883D01*
X085570Y023902D01*
X085530Y023925D01*
X085491Y023951D01*
X085455Y023980D01*
X085421Y024012D01*
X085390Y024047D01*
X085362Y024085D01*
X085338Y024125D01*
X085317Y024166D01*
X085299Y024210D01*
X085286Y024254D01*
X085276Y024300D01*
X085270Y024346D01*
X085268Y024393D01*
X072793Y058893D02*
X072795Y058943D01*
X072801Y058992D01*
X072811Y059041D01*
X072824Y059088D01*
X072842Y059135D01*
X072863Y059180D01*
X072887Y059223D01*
X072915Y059264D01*
X072946Y059303D01*
X072980Y059339D01*
X073017Y059373D01*
X073057Y059403D01*
X073098Y059430D01*
X073142Y059454D01*
X073187Y059474D01*
X073234Y059490D01*
X073282Y059503D01*
X073331Y059512D01*
X073381Y059517D01*
X073430Y059518D01*
X073480Y059515D01*
X073529Y059508D01*
X073578Y059497D01*
X073625Y059483D01*
X073671Y059464D01*
X073716Y059442D01*
X073759Y059417D01*
X073799Y059388D01*
X073837Y059356D01*
X073873Y059322D01*
X073906Y059284D01*
X073935Y059244D01*
X073961Y059202D01*
X073984Y059158D01*
X074003Y059112D01*
X074019Y059065D01*
X074031Y059016D01*
X074039Y058967D01*
X074043Y058918D01*
X074043Y058868D01*
X074039Y058819D01*
X074031Y058770D01*
X074019Y058721D01*
X074003Y058674D01*
X073984Y058628D01*
X073961Y058584D01*
X073935Y058542D01*
X073906Y058502D01*
X073873Y058464D01*
X073837Y058430D01*
X073799Y058398D01*
X073759Y058369D01*
X073716Y058344D01*
X073671Y058322D01*
X073625Y058303D01*
X073578Y058289D01*
X073529Y058278D01*
X073480Y058271D01*
X073430Y058268D01*
X073381Y058269D01*
X073331Y058274D01*
X073282Y058283D01*
X073234Y058296D01*
X073187Y058312D01*
X073142Y058332D01*
X073098Y058356D01*
X073057Y058383D01*
X073017Y058413D01*
X072980Y058447D01*
X072946Y058483D01*
X072915Y058522D01*
X072887Y058563D01*
X072863Y058606D01*
X072842Y058651D01*
X072824Y058698D01*
X072811Y058745D01*
X072801Y058794D01*
X072795Y058843D01*
X072793Y058893D01*
X085268Y059393D02*
X085270Y059440D01*
X085276Y059486D01*
X085286Y059532D01*
X085299Y059576D01*
X085317Y059620D01*
X085338Y059661D01*
X085362Y059701D01*
X085390Y059739D01*
X085421Y059774D01*
X085455Y059806D01*
X085491Y059835D01*
X085530Y059861D01*
X085570Y059884D01*
X085613Y059903D01*
X085657Y059919D01*
X085702Y059931D01*
X085748Y059939D01*
X085795Y059943D01*
X085841Y059943D01*
X085888Y059939D01*
X085934Y059931D01*
X085979Y059919D01*
X086023Y059903D01*
X086066Y059884D01*
X086106Y059861D01*
X086145Y059835D01*
X086181Y059806D01*
X086215Y059774D01*
X086246Y059739D01*
X086274Y059701D01*
X086298Y059661D01*
X086319Y059620D01*
X086337Y059576D01*
X086350Y059532D01*
X086360Y059486D01*
X086366Y059440D01*
X086368Y059393D01*
X086366Y059346D01*
X086360Y059300D01*
X086350Y059254D01*
X086337Y059210D01*
X086319Y059166D01*
X086298Y059125D01*
X086274Y059085D01*
X086246Y059047D01*
X086215Y059012D01*
X086181Y058980D01*
X086145Y058951D01*
X086106Y058925D01*
X086066Y058902D01*
X086023Y058883D01*
X085979Y058867D01*
X085934Y058855D01*
X085888Y058847D01*
X085841Y058843D01*
X085795Y058843D01*
X085748Y058847D01*
X085702Y058855D01*
X085657Y058867D01*
X085613Y058883D01*
X085570Y058902D01*
X085530Y058925D01*
X085491Y058951D01*
X085455Y058980D01*
X085421Y059012D01*
X085390Y059047D01*
X085362Y059085D01*
X085338Y059125D01*
X085317Y059166D01*
X085299Y059210D01*
X085286Y059254D01*
X085276Y059300D01*
X085270Y059346D01*
X085268Y059393D01*
X055793Y058893D02*
X055795Y058943D01*
X055801Y058992D01*
X055811Y059041D01*
X055824Y059088D01*
X055842Y059135D01*
X055863Y059180D01*
X055887Y059223D01*
X055915Y059264D01*
X055946Y059303D01*
X055980Y059339D01*
X056017Y059373D01*
X056057Y059403D01*
X056098Y059430D01*
X056142Y059454D01*
X056187Y059474D01*
X056234Y059490D01*
X056282Y059503D01*
X056331Y059512D01*
X056381Y059517D01*
X056430Y059518D01*
X056480Y059515D01*
X056529Y059508D01*
X056578Y059497D01*
X056625Y059483D01*
X056671Y059464D01*
X056716Y059442D01*
X056759Y059417D01*
X056799Y059388D01*
X056837Y059356D01*
X056873Y059322D01*
X056906Y059284D01*
X056935Y059244D01*
X056961Y059202D01*
X056984Y059158D01*
X057003Y059112D01*
X057019Y059065D01*
X057031Y059016D01*
X057039Y058967D01*
X057043Y058918D01*
X057043Y058868D01*
X057039Y058819D01*
X057031Y058770D01*
X057019Y058721D01*
X057003Y058674D01*
X056984Y058628D01*
X056961Y058584D01*
X056935Y058542D01*
X056906Y058502D01*
X056873Y058464D01*
X056837Y058430D01*
X056799Y058398D01*
X056759Y058369D01*
X056716Y058344D01*
X056671Y058322D01*
X056625Y058303D01*
X056578Y058289D01*
X056529Y058278D01*
X056480Y058271D01*
X056430Y058268D01*
X056381Y058269D01*
X056331Y058274D01*
X056282Y058283D01*
X056234Y058296D01*
X056187Y058312D01*
X056142Y058332D01*
X056098Y058356D01*
X056057Y058383D01*
X056017Y058413D01*
X055980Y058447D01*
X055946Y058483D01*
X055915Y058522D01*
X055887Y058563D01*
X055863Y058606D01*
X055842Y058651D01*
X055824Y058698D01*
X055811Y058745D01*
X055801Y058794D01*
X055795Y058843D01*
X055793Y058893D01*
M02*
