%
M48
M72
T01C0.0236
T02C0.0315
T03C0.0360
T04C0.0380
T05C0.0400
T06C0.1100
T07C0.1250
%
T01
X33918Y29143
X35918Y29393
X27668Y32393
X26918Y39143
X32668Y50393
X38918Y51643
X40418Y51143
X43918Y48643
X44918Y46893
X47168Y45143
X50418Y47393
X53918Y46893
X55418Y45893
X56168Y42143
X59418Y39643
X59418Y37643
X59918Y35893
X61918Y36393
X62418Y37643
X67418Y35393
X66668Y33143
X57168Y27643
X53668Y29393
X53668Y30393
X53668Y31393
X53668Y32393
X52418Y32393
X52418Y31393
X52418Y30393
X51418Y30393
X50418Y30393
X50418Y31393
X51418Y31393
X51418Y32393
X50418Y32393
X50418Y29393
X51418Y29393
X52418Y29393
X47668Y28393
X47168Y29643
X52168Y35143
X52918Y36393
X53168Y37393
X52668Y38643
X50168Y36643
X49418Y35893
X55668Y36643
X55918Y38393
X63418Y45393
X59918Y46393
X62418Y51393
X62418Y54393
X55418Y53893
X49168Y52143
X48668Y51143
X46168Y56143
X33668Y56893
X33168Y56393
X31918Y58893
X73918Y55643
X75418Y55393
X75418Y53893
X77418Y54393
X77418Y55393
X77418Y56393
X76618Y57643
X81918Y57643
X82418Y58393
X84918Y58393
X79918Y41643
X78668Y41643
X77418Y41393
X77668Y39643
X77668Y38643
X76168Y38393
X77668Y37643
X77668Y36893
X76168Y36143
X76168Y34143
X78918Y34143
X81168Y33643
X81668Y35893
X79918Y36893
X79918Y37643
X78918Y37643
X78918Y36893
X78918Y38643
X79918Y38643
X79918Y39643
X78918Y39643
X81668Y38393
X79418Y30643
X78918Y28393
X77668Y26393
X76418Y27893
X75418Y26393
T02
X78918Y46393
X79918Y46393
X79918Y47393
X78918Y47393
X78918Y48393
X79918Y48393
X79918Y49393
X78918Y49393
T03
X82818Y49393
X82818Y48393
X82818Y47393
X82818Y46393
X82818Y45393
X82818Y44393
X82818Y43393
X82818Y42393
X82818Y41393
X82818Y40393
X82818Y39393
X82818Y38393
X82818Y37393
X82818Y36393
X82818Y35393
X82818Y34393
X82818Y33393
X82818Y32393
X82818Y31393
X82818Y30393
X82818Y29393
X82818Y28393
X82818Y27393
X82818Y26393
X84818Y26393
X84818Y27393
X84818Y28393
X84818Y29393
X84818Y30393
X84818Y31393
X84818Y32393
X84818Y33393
X84818Y34393
X84818Y35393
X84818Y36393
X84818Y37393
X84818Y38393
X84818Y39393
X84818Y40393
X84818Y41393
X84818Y42393
X84818Y43393
X84818Y44393
X84818Y45393
X84818Y46393
X84818Y47393
X84818Y48393
X84818Y49393
X84818Y50393
X84818Y51393
X84818Y52393
X84818Y53393
X84818Y54393
X84818Y55393
X84818Y56393
X84818Y57393
X82818Y57393
X82818Y56393
X82818Y55393
X82818Y54393
X82818Y53393
X82818Y52393
X82818Y51393
X82818Y50393
X79868Y53893
X78868Y53893
X78868Y54893
X79868Y54893
X79868Y55893
X78868Y55893
X78868Y56893
X79868Y56893
X73418Y52893
X73418Y51893
X72418Y51893
X72418Y52893
X72418Y50893
X72418Y49893
X73418Y49893
X73418Y50893
X73418Y48893
X73418Y47893
X72418Y47893
X72418Y48893
X72418Y46893
X72418Y45893
X72418Y44893
X73418Y44893
X73418Y45893
X73418Y46893
X73418Y43893
X73418Y42893
X72418Y42893
X72418Y43893
X72418Y41893
X72418Y40893
X73418Y40893
X73418Y41893
X50918Y50893
X49918Y50893
X49918Y51893
X50918Y51893
X50918Y52893
X49918Y52893
X49918Y53893
X50918Y53893
X46418Y28393
X45418Y28393
X44418Y28393
X44418Y27393
X45418Y27393
X46418Y27393
X43418Y27393
X42418Y27393
X41418Y27393
X40418Y27393
X39418Y27393
X38418Y27393
X37418Y27393
X36418Y27393
X35418Y27393
X34418Y27393
X34418Y28393
X35418Y28393
X36418Y28393
X37418Y28393
X38418Y28393
X39418Y28393
X40418Y28393
X41418Y28393
X42418Y28393
X43418Y28393
T04
X43918Y49393
X44918Y49393
X44918Y50393
X44918Y51393
X44918Y52393
X43918Y52393
X42918Y52393
X41918Y52393
X40918Y52393
X39918Y52393
X38918Y52393
X37918Y52393
X37918Y53393
X36918Y54393
X35918Y54393
X34918Y54393
X34918Y55393
X35918Y55393
X36918Y55393
X37918Y55393
X38918Y55393
X39918Y55393
X40918Y55393
X41918Y55393
X42918Y55393
X43918Y55393
X44918Y55393
X44918Y54393
X44918Y53393
X43918Y53393
X42918Y53393
X41918Y53393
X40918Y53393
X39918Y53393
X38918Y53393
X38918Y49393
X39918Y49393
X40918Y49393
X41918Y49393
X42918Y49393
X37918Y49393
X36918Y49393
X35918Y49393
X34918Y49393
X33918Y49393
X32918Y49393
X31918Y49393
X32918Y54393
X32918Y55393
X33918Y55393
X31918Y55393
T05
X47088Y44093
X47088Y43093
X56718Y53563
X57718Y53563
X78918Y43643
X79918Y43643
X80168Y28893
X80168Y27893
X80168Y26893
T06
X25318Y24393
X85818Y24393
X85818Y59393
T07
X73418Y58893
X56418Y58893
X52418Y44393
X56418Y32893
X52418Y27393
X73418Y32893
X26418Y27393
X26418Y44393
M30
