G75*
%MOIN*%
%OFA0B0*%
%FSLAX24Y24*%
%IPPOS*%
%LPD*%
%AMOC8*
5,1,8,0,0,1.08239X$1,22.5*
%
%ADD10OC8,0.0560*%
%ADD11R,0.0390X0.0410*%
%ADD12R,0.0410X0.0870*%
%ADD13R,0.0410X0.0390*%
%ADD14R,0.0870X0.0410*%
%ADD15R,0.2000X0.0900*%
%ADD16C,0.0600*%
%ADD17C,0.0310*%
%ADD18C,0.0357*%
%ADD19C,0.0100*%
%ADD20C,0.0396*%
%ADD21C,0.0120*%
%ADD22C,0.0060*%
D10*
X019333Y042713D03*
X019333Y043713D03*
X020333Y043713D03*
X020333Y042713D03*
X021333Y042713D03*
X021333Y043713D03*
X022333Y043713D03*
X022333Y042713D03*
X023333Y042713D03*
X023333Y043713D03*
X024333Y043713D03*
X024333Y042713D03*
X025333Y042713D03*
X026333Y042713D03*
X026333Y043713D03*
X025333Y043713D03*
X027333Y043713D03*
X027333Y042713D03*
X028333Y042713D03*
X028333Y043713D03*
X029333Y043713D03*
X029333Y042713D03*
X030333Y042713D03*
X030333Y043713D03*
X031333Y043713D03*
X031333Y042713D03*
D11*
X029423Y035308D03*
X029423Y034718D03*
X027573Y031878D03*
X027573Y031378D03*
D12*
X026993Y030783D03*
X028153Y030783D03*
X028153Y032473D03*
X026993Y032473D03*
X028843Y034123D03*
X030003Y034123D03*
X030003Y035903D03*
X028843Y035903D03*
D13*
X028538Y038413D03*
X029868Y032583D03*
D14*
X030463Y032003D03*
X030463Y033163D03*
X029133Y037833D03*
X029133Y038993D03*
D15*
X010843Y038473D03*
X010843Y036953D03*
X010843Y033473D03*
X010843Y031953D03*
X010843Y028473D03*
X010843Y041953D03*
D16*
X031703Y028013D02*
X032303Y028013D01*
X032303Y027013D02*
X031703Y027013D01*
D17*
X030973Y026993D03*
X029663Y026923D03*
X028363Y026273D03*
X029663Y028623D03*
X030113Y029323D03*
X029603Y030463D03*
X028153Y031013D03*
X026993Y031033D03*
X026573Y031173D03*
X026183Y030853D03*
X025683Y031123D03*
X025473Y030743D03*
X025013Y031093D03*
X024703Y030843D03*
X024173Y030783D03*
X023723Y031043D03*
X023273Y030943D03*
X022843Y031033D03*
X022083Y030943D03*
X022093Y030113D03*
X022453Y029233D03*
X021413Y029353D03*
X018963Y028873D03*
X017913Y028623D03*
X018463Y027773D03*
X018163Y026773D03*
X019453Y025733D03*
X019713Y026723D03*
X020753Y025733D03*
X021653Y026133D03*
X023153Y026133D03*
X024753Y025833D03*
X025963Y027873D03*
X025663Y028873D03*
X027243Y028993D03*
X027703Y029513D03*
X026993Y032233D03*
X026563Y032403D03*
X026253Y033123D03*
X024893Y032753D03*
X024533Y032663D03*
X023953Y032743D03*
X024203Y033183D03*
X023713Y033373D03*
X023363Y033583D03*
X022933Y032843D03*
X022533Y032673D03*
X022073Y032683D03*
X021493Y032833D03*
X021433Y033583D03*
X020493Y033593D03*
X020023Y033643D03*
X018833Y033843D03*
X018233Y033663D03*
X018233Y034083D03*
X018103Y033173D03*
X017343Y033253D03*
X017293Y033933D03*
X016783Y033993D03*
X016263Y034023D03*
X015513Y033873D03*
X015273Y034593D03*
X014473Y034243D03*
X014023Y033893D03*
X013573Y033443D03*
X013273Y032993D03*
X013043Y032433D03*
X012823Y031893D03*
X012723Y031193D03*
X012273Y030643D03*
X012823Y029893D03*
X013223Y030243D03*
X013423Y030843D03*
X013423Y031443D03*
X013613Y031973D03*
X013913Y032573D03*
X014313Y033073D03*
X014813Y033523D03*
X015043Y032523D03*
X015513Y031823D03*
X015163Y031423D03*
X015763Y030973D03*
X016113Y031423D03*
X016513Y031723D03*
X017013Y031973D03*
X016363Y032473D03*
X015913Y032173D03*
X016853Y032733D03*
X017823Y032433D03*
X020053Y032093D03*
X019803Y035253D03*
X020443Y035253D03*
X021433Y035083D03*
X021483Y035613D03*
X021753Y035963D03*
X021503Y036333D03*
X021413Y036943D03*
X020673Y037593D03*
X019783Y037053D03*
X019053Y037003D03*
X018193Y037003D03*
X017893Y037513D03*
X017373Y037013D03*
X016593Y037013D03*
X015923Y037443D03*
X015373Y037993D03*
X014673Y038193D03*
X014023Y037993D03*
X013823Y038593D03*
X013823Y039193D03*
X013773Y039893D03*
X013323Y040443D03*
X012823Y040643D03*
X012223Y040643D03*
X011523Y040693D03*
X011373Y039743D03*
X010973Y039243D03*
X010523Y039743D03*
X010473Y040693D03*
X012123Y039793D03*
X012873Y039743D03*
X012973Y039043D03*
X012973Y038593D03*
X012573Y038043D03*
X013123Y037493D03*
X013523Y037043D03*
X013023Y036793D03*
X013173Y036043D03*
X012573Y036093D03*
X012473Y035693D03*
X011873Y035743D03*
X011323Y035743D03*
X010523Y035743D03*
X011023Y034693D03*
X010523Y034193D03*
X010423Y032693D03*
X011423Y032743D03*
X011473Y031243D03*
X011323Y030743D03*
X010523Y030793D03*
X010273Y031243D03*
X010423Y029693D03*
X010723Y029193D03*
X011073Y029693D03*
X011723Y029693D03*
X012323Y029243D03*
X012173Y028443D03*
X013223Y028893D03*
X015673Y029813D03*
X015273Y026413D03*
X014243Y025673D03*
X013053Y025733D03*
X010323Y027693D03*
X016553Y025733D03*
X023773Y031613D03*
X023893Y034433D03*
X023893Y035133D03*
X024593Y035133D03*
X024593Y034433D03*
X025733Y035413D03*
X026133Y035413D03*
X026223Y036393D03*
X025733Y036713D03*
X025033Y037213D03*
X024433Y037413D03*
X024133Y037013D03*
X023533Y036913D03*
X023493Y037473D03*
X024153Y038503D03*
X024793Y038473D03*
X025043Y039453D03*
X025683Y039363D03*
X025953Y039023D03*
X026533Y039213D03*
X027033Y039413D03*
X027553Y038823D03*
X028353Y039223D03*
X028453Y040223D03*
X028833Y041013D03*
X029233Y040613D03*
X029483Y041353D03*
X028393Y041433D03*
X028453Y041923D03*
X027453Y042123D03*
X027393Y041353D03*
X026453Y042023D03*
X025353Y041923D03*
X024653Y041123D03*
X023753Y040623D03*
X022853Y040673D03*
X022353Y041523D03*
X021453Y041523D03*
X021153Y040523D03*
X020253Y041423D03*
X018953Y041023D03*
X018113Y041953D03*
X018103Y043123D03*
X018353Y044323D03*
X016843Y043913D03*
X016843Y043303D03*
X016913Y042263D03*
X016693Y040733D03*
X016693Y039863D03*
X015453Y040403D03*
X014883Y040863D03*
X015123Y042183D03*
X015553Y043833D03*
X013253Y044133D03*
X013453Y042533D03*
X012173Y041943D03*
X010373Y042743D03*
X010473Y037693D03*
X011523Y037693D03*
X012123Y037243D03*
X012223Y036443D03*
X012273Y034793D03*
X011673Y034693D03*
X012973Y034743D03*
X013623Y034843D03*
X014273Y034993D03*
X014373Y036393D03*
X015173Y036543D03*
X016653Y036103D03*
X017473Y036093D03*
X018173Y036093D03*
X018123Y035643D03*
X018323Y035143D03*
X018933Y035103D03*
X019053Y036043D03*
X019683Y036093D03*
X018943Y038403D03*
X018483Y038403D03*
X021263Y038543D03*
X021583Y039063D03*
X023503Y039273D03*
X023913Y039493D03*
X025853Y037533D03*
X026653Y038423D03*
X028023Y037493D03*
X029253Y038323D03*
X030353Y039123D03*
X031353Y040223D03*
X031213Y041133D03*
X032753Y041023D03*
X033903Y041423D03*
X035203Y042643D03*
X034653Y043623D03*
X033353Y044523D03*
X031553Y044723D03*
X029053Y044623D03*
X026253Y044823D03*
X024353Y044823D03*
X023053Y044623D03*
X021053Y044723D03*
X027353Y040223D03*
X027993Y035883D03*
X027413Y035313D03*
X027513Y034083D03*
X027913Y034103D03*
X027983Y032703D03*
X031613Y034773D03*
X033143Y033583D03*
X033843Y031883D03*
X033253Y030973D03*
X032053Y030823D03*
X031753Y029333D03*
X034373Y027093D03*
X032063Y025873D03*
X034993Y029923D03*
X035893Y029973D03*
X035893Y030573D03*
X036193Y031123D03*
X035843Y031673D03*
X037843Y028873D03*
X033943Y035383D03*
X033353Y036273D03*
X034043Y037363D03*
X033253Y037823D03*
X032053Y036823D03*
X037653Y038323D03*
X024593Y035833D03*
X023893Y035833D03*
X023193Y035833D03*
X023193Y035133D03*
X023193Y034433D03*
X022293Y034833D03*
X016793Y034853D03*
X016023Y034793D03*
D18*
X017643Y031933D03*
X018093Y031063D03*
X018923Y031403D03*
X018923Y031853D03*
X019863Y030763D03*
X020733Y028553D03*
X021093Y027773D03*
X021493Y027773D03*
X020473Y026793D03*
X022993Y027773D03*
X023493Y027783D03*
X024133Y026803D03*
X023803Y028553D03*
X028723Y028803D03*
X029023Y031583D03*
X029493Y031583D03*
X028823Y032733D03*
X028153Y033593D03*
X028353Y036193D03*
X028083Y036913D03*
X029523Y036273D03*
X030053Y036273D03*
X023243Y039653D03*
X019413Y034983D03*
X019603Y034043D03*
X016723Y038443D03*
X016673Y044463D03*
X016533Y028093D03*
X016733Y027093D03*
X013763Y026493D03*
D19*
X010083Y025463D02*
X010083Y044963D01*
X017293Y044963D01*
X017293Y041183D01*
X021898Y039038D01*
X021993Y038942D01*
X021993Y036303D01*
X025183Y036303D01*
X025183Y033963D01*
X022923Y033963D01*
X022923Y033168D01*
X022869Y033168D01*
X022749Y033119D01*
X022658Y033027D01*
X022639Y032981D01*
X022598Y032998D01*
X022469Y032998D01*
X022349Y032949D01*
X022258Y032857D01*
X022208Y032738D01*
X022208Y032609D01*
X022258Y032489D01*
X022349Y032398D01*
X022393Y032380D01*
X022393Y032347D01*
X022882Y031858D01*
X022923Y031817D01*
X022923Y029983D01*
X031433Y029983D01*
X031583Y029943D01*
X031583Y029173D01*
X031603Y028480D01*
X031437Y028412D01*
X031305Y028280D01*
X031233Y028107D01*
X031233Y027920D01*
X031305Y027747D01*
X031437Y027615D01*
X031610Y027543D01*
X032397Y027543D01*
X032570Y027615D01*
X032702Y027747D01*
X032773Y027920D01*
X032773Y028107D01*
X032702Y028280D01*
X032570Y028412D01*
X032397Y028483D01*
X031610Y028483D01*
X031437Y028412D01*
X031305Y028280D01*
X031233Y028107D01*
X031233Y027920D01*
X031305Y027747D01*
X031437Y027615D01*
X031610Y027543D01*
X031629Y027543D01*
X031686Y025463D01*
X010083Y025463D01*
X010083Y025509D02*
X031685Y025509D01*
X031682Y025607D02*
X010083Y025607D01*
X010083Y025706D02*
X031680Y025706D01*
X031677Y025804D02*
X010083Y025804D01*
X010083Y025903D02*
X011004Y025903D01*
X011159Y025838D02*
X010838Y025972D01*
X010592Y026218D01*
X010458Y026539D01*
X010458Y026887D01*
X010592Y027209D01*
X010838Y027455D01*
X011159Y027588D01*
X011507Y027588D01*
X011829Y027455D01*
X012075Y027209D01*
X012208Y026887D01*
X012208Y026539D01*
X012075Y026218D01*
X011829Y025972D01*
X011507Y025838D01*
X011159Y025838D01*
X010808Y026001D02*
X010083Y026001D01*
X010083Y026100D02*
X010709Y026100D01*
X010611Y026198D02*
X010083Y026198D01*
X010083Y026297D02*
X010559Y026297D01*
X010518Y026395D02*
X010083Y026395D01*
X010083Y026494D02*
X010477Y026494D01*
X010458Y026592D02*
X010083Y026592D01*
X010083Y026691D02*
X010458Y026691D01*
X010458Y026789D02*
X010083Y026789D01*
X010083Y026888D02*
X010459Y026888D01*
X010499Y026986D02*
X010083Y026986D01*
X010083Y027085D02*
X010540Y027085D01*
X010581Y027183D02*
X010083Y027183D01*
X010083Y027282D02*
X010664Y027282D01*
X010763Y027380D02*
X010083Y027380D01*
X010083Y027479D02*
X010895Y027479D01*
X011133Y027577D02*
X010083Y027577D01*
X010083Y027676D02*
X031376Y027676D01*
X031233Y027676D01*
X031233Y027774D02*
X031294Y027774D01*
X016674Y027774D01*
X016731Y027798D02*
X016829Y027896D01*
X016882Y028024D01*
X016882Y028163D01*
X016829Y028291D01*
X016731Y028389D01*
X016603Y028442D01*
X016464Y028442D01*
X016336Y028389D01*
X016238Y028291D01*
X016185Y028163D01*
X016185Y028024D01*
X016238Y027896D01*
X016336Y027798D01*
X016464Y027745D01*
X016603Y027745D01*
X016731Y027798D01*
X016806Y027873D02*
X031253Y027873D01*
X031233Y027873D01*
X031233Y027971D02*
X016860Y027971D01*
X016882Y028070D02*
X031233Y028070D01*
X031233Y028168D02*
X031259Y028168D01*
X016879Y028168D01*
X016839Y028267D02*
X031300Y028267D01*
X031233Y028267D01*
X031233Y028365D02*
X031391Y028365D01*
X016754Y028365D01*
X016313Y028365D02*
X010083Y028365D01*
X010083Y028267D02*
X016228Y028267D01*
X016187Y028168D02*
X010083Y028168D01*
X010083Y028070D02*
X016185Y028070D01*
X016207Y027971D02*
X010083Y027971D01*
X010083Y027873D02*
X016261Y027873D01*
X016393Y027774D02*
X010083Y027774D01*
X010083Y028464D02*
X028632Y028464D01*
X028654Y028455D02*
X028793Y028455D01*
X028921Y028508D01*
X029019Y028606D01*
X029072Y028734D01*
X029072Y028873D01*
X029019Y029001D01*
X028921Y029099D01*
X028793Y029152D01*
X028654Y029152D01*
X028526Y029099D01*
X028428Y029001D01*
X028375Y028873D01*
X028375Y028734D01*
X028428Y028606D01*
X028526Y028508D01*
X028654Y028455D01*
X028814Y028464D02*
X031563Y028464D01*
X031233Y028464D01*
X031233Y028562D02*
X038583Y028562D01*
X038583Y028464D02*
X032444Y028464D01*
X032616Y028365D02*
X033929Y028365D01*
X033905Y028355D02*
X033801Y028252D01*
X033745Y028117D01*
X033745Y027970D01*
X033801Y027835D01*
X033905Y027731D01*
X034040Y027675D01*
X034187Y027675D01*
X034322Y027731D01*
X034425Y027835D01*
X034481Y027970D01*
X034481Y028117D01*
X034425Y028252D01*
X034322Y028355D01*
X034187Y028411D01*
X034040Y028411D01*
X033905Y028355D01*
X033816Y028267D02*
X032707Y028267D01*
X032748Y028168D02*
X033767Y028168D01*
X033745Y028070D02*
X032773Y028070D01*
X032773Y027971D02*
X033745Y027971D01*
X033786Y027873D02*
X032754Y027873D01*
X032713Y027774D02*
X033862Y027774D01*
X034039Y027676D02*
X032631Y027676D01*
X032479Y027577D02*
X037133Y027577D01*
X037159Y027588D02*
X036838Y027455D01*
X036592Y027209D01*
X036458Y026887D01*
X036458Y026539D01*
X036592Y026218D01*
X036838Y025972D01*
X037159Y025838D01*
X037507Y025838D01*
X037829Y025972D01*
X038075Y026218D01*
X038208Y026539D01*
X038208Y026887D01*
X038075Y027209D01*
X037829Y027455D01*
X037507Y027588D01*
X037159Y027588D01*
X036895Y027479D02*
X031233Y027479D01*
X031233Y027577D02*
X031528Y027577D01*
X011534Y027577D01*
X011772Y027479D02*
X031630Y027479D01*
X031668Y027463D02*
X031598Y027452D01*
X031531Y027430D01*
X031467Y027398D01*
X031410Y027357D01*
X031360Y027306D01*
X031318Y027249D01*
X031286Y027186D01*
X031264Y027119D01*
X031256Y027063D01*
X031953Y027063D01*
X031953Y026963D01*
X032053Y026963D01*
X032053Y026563D01*
X032339Y026563D01*
X032409Y026574D01*
X032476Y026596D01*
X032539Y026628D01*
X032596Y026670D01*
X032647Y026720D01*
X032688Y026777D01*
X032720Y026841D01*
X032742Y026908D01*
X032751Y026963D01*
X032053Y026963D01*
X032053Y027063D01*
X031953Y027063D01*
X031953Y027463D01*
X031668Y027463D01*
X031633Y027380D02*
X016939Y027380D01*
X016931Y027389D02*
X016803Y027442D01*
X016664Y027442D01*
X016536Y027389D01*
X016438Y027291D01*
X016385Y027163D01*
X016385Y027024D01*
X016438Y026896D01*
X016536Y026798D01*
X016664Y026745D01*
X016803Y026745D01*
X016931Y026798D01*
X017029Y026896D01*
X017082Y027024D01*
X017082Y027163D01*
X017029Y027291D01*
X016931Y027389D01*
X017032Y027282D02*
X031636Y027282D01*
X031639Y027183D02*
X017073Y027183D01*
X017082Y027085D02*
X031641Y027085D01*
X031644Y026986D02*
X017066Y026986D01*
X017021Y026888D02*
X031647Y026888D01*
X031650Y026789D02*
X026528Y026789D01*
X026512Y026805D02*
X026377Y026861D01*
X026230Y026861D01*
X026095Y026805D01*
X025991Y026702D01*
X025935Y026567D01*
X025935Y026420D01*
X025991Y026285D01*
X026095Y026181D01*
X026230Y026125D01*
X026377Y026125D01*
X026512Y026181D01*
X026615Y026285D01*
X026671Y026420D01*
X026671Y026567D01*
X026615Y026702D01*
X026512Y026805D01*
X026620Y026691D02*
X031652Y026691D01*
X031655Y026592D02*
X026661Y026592D01*
X026671Y026494D02*
X031658Y026494D01*
X031668Y026563D02*
X031598Y026574D01*
X031531Y026596D01*
X031467Y026628D01*
X031410Y026670D01*
X031360Y026720D01*
X031318Y026777D01*
X031286Y026841D01*
X031264Y026908D01*
X031256Y026963D01*
X031953Y026963D01*
X031953Y026563D01*
X031668Y026563D01*
X031543Y026592D02*
X031233Y026592D01*
X031233Y026494D02*
X036477Y026494D01*
X036458Y026592D02*
X032464Y026592D01*
X032617Y026691D02*
X036458Y026691D01*
X036458Y026789D02*
X032694Y026789D01*
X032736Y026888D02*
X036459Y026888D01*
X036499Y026986D02*
X032053Y026986D01*
X032053Y027063D02*
X032751Y027063D01*
X032742Y027119D01*
X032720Y027186D01*
X032688Y027249D01*
X032647Y027306D01*
X032596Y027357D01*
X032539Y027398D01*
X032476Y027430D01*
X032409Y027452D01*
X032339Y027463D01*
X032053Y027463D01*
X032053Y027063D01*
X032053Y027085D02*
X031953Y027085D01*
X031953Y027183D02*
X032053Y027183D01*
X032053Y027282D02*
X031953Y027282D01*
X031953Y027380D02*
X032053Y027380D01*
X031953Y026986D02*
X031233Y026986D01*
X031233Y026888D02*
X031271Y026888D01*
X031233Y026789D02*
X031312Y026789D01*
X031389Y026691D02*
X031233Y026691D01*
X031233Y026395D02*
X036518Y026395D01*
X036559Y026297D02*
X031233Y026297D01*
X031233Y026198D02*
X036611Y026198D01*
X036709Y026100D02*
X031233Y026100D01*
X031233Y026001D02*
X036808Y026001D01*
X037004Y025903D02*
X031233Y025903D01*
X031233Y025804D02*
X038583Y025804D01*
X038583Y025706D02*
X031233Y025706D01*
X031233Y025607D02*
X038583Y025607D01*
X038583Y025509D02*
X031233Y025509D01*
X031233Y025463D02*
X031233Y029813D01*
X031333Y029983D01*
X034533Y029983D01*
X034533Y032013D01*
X034733Y032183D01*
X038583Y032183D01*
X038583Y025463D01*
X031233Y025463D01*
X031674Y025903D02*
X011663Y025903D01*
X011859Y026001D02*
X031671Y026001D01*
X031669Y026100D02*
X011957Y026100D01*
X012056Y026198D02*
X013566Y026198D01*
X013694Y026145D01*
X013833Y026145D01*
X013961Y026198D01*
X014059Y026296D01*
X014112Y026424D01*
X014112Y026563D01*
X014059Y026691D01*
X013961Y026789D01*
X013833Y026842D01*
X013694Y026842D01*
X013566Y026789D01*
X013468Y026691D01*
X012208Y026691D01*
X012208Y026789D02*
X013567Y026789D01*
X013468Y026691D02*
X013415Y026563D01*
X013415Y026424D01*
X013468Y026296D01*
X013566Y026198D01*
X013468Y026297D02*
X012108Y026297D01*
X012149Y026395D02*
X013427Y026395D01*
X013415Y026494D02*
X012190Y026494D01*
X012208Y026592D02*
X013427Y026592D01*
X013959Y026789D02*
X016557Y026789D01*
X016446Y026888D02*
X012208Y026888D01*
X012167Y026986D02*
X016401Y026986D01*
X016385Y027085D02*
X012127Y027085D01*
X012086Y027183D02*
X016393Y027183D01*
X016434Y027282D02*
X012002Y027282D01*
X011904Y027380D02*
X016528Y027380D01*
X016910Y026789D02*
X026079Y026789D01*
X025987Y026691D02*
X014059Y026691D01*
X014099Y026592D02*
X025946Y026592D01*
X025935Y026494D02*
X014112Y026494D01*
X014100Y026395D02*
X025945Y026395D01*
X025986Y026297D02*
X014059Y026297D01*
X013961Y026198D02*
X026078Y026198D01*
X026529Y026198D02*
X031666Y026198D01*
X031663Y026297D02*
X026620Y026297D01*
X026661Y026395D02*
X031660Y026395D01*
X031953Y026592D02*
X032053Y026592D01*
X032053Y026691D02*
X031953Y026691D01*
X031953Y026789D02*
X032053Y026789D01*
X032053Y026888D02*
X031953Y026888D01*
X031443Y027380D02*
X031233Y027380D01*
X031233Y027282D02*
X031342Y027282D01*
X031285Y027183D02*
X031233Y027183D01*
X031233Y027085D02*
X031259Y027085D01*
X032564Y027380D02*
X036763Y027380D01*
X036664Y027282D02*
X032664Y027282D01*
X032721Y027183D02*
X036581Y027183D01*
X036540Y027085D02*
X032748Y027085D01*
X034188Y027676D02*
X038583Y027676D01*
X038583Y027774D02*
X034365Y027774D01*
X034441Y027873D02*
X038583Y027873D01*
X038583Y027971D02*
X034481Y027971D01*
X034481Y028070D02*
X038583Y028070D01*
X038583Y028168D02*
X034460Y028168D01*
X034410Y028267D02*
X038583Y028267D01*
X038583Y028365D02*
X034298Y028365D01*
X034533Y030040D02*
X038583Y030040D01*
X038583Y030138D02*
X034533Y030138D01*
X034533Y030237D02*
X038583Y030237D01*
X038583Y030335D02*
X034533Y030335D01*
X034533Y030434D02*
X038583Y030434D01*
X038583Y030532D02*
X034533Y030532D01*
X034533Y030631D02*
X038583Y030631D01*
X038583Y030729D02*
X034533Y030729D01*
X034533Y030828D02*
X038583Y030828D01*
X038583Y030926D02*
X034533Y030926D01*
X034533Y031025D02*
X038583Y031025D01*
X038583Y031123D02*
X034533Y031123D01*
X034533Y031222D02*
X038583Y031222D01*
X038583Y031320D02*
X034533Y031320D01*
X034533Y031419D02*
X038583Y031419D01*
X038583Y031517D02*
X034533Y031517D01*
X034533Y031616D02*
X038583Y031616D01*
X038583Y031714D02*
X034533Y031714D01*
X034533Y031813D02*
X038583Y031813D01*
X038583Y031911D02*
X034533Y031911D01*
X034533Y032010D02*
X038583Y032010D01*
X038583Y032108D02*
X034645Y032108D01*
X034133Y032108D02*
X027938Y032108D01*
X027938Y032154D02*
X027839Y032253D01*
X027308Y032253D01*
X027208Y032154D01*
X027208Y031953D01*
X026670Y031953D01*
X026240Y032383D01*
X023290Y032383D01*
X023163Y032510D01*
X023163Y032614D01*
X023209Y032659D01*
X023258Y032779D01*
X023258Y032908D01*
X023209Y033027D01*
X023163Y033073D01*
X023163Y033324D01*
X023179Y033308D01*
X023299Y033258D01*
X023409Y033258D01*
X023438Y033189D01*
X023529Y033098D01*
X023649Y033048D01*
X023778Y033048D01*
X023889Y033094D01*
X023928Y032999D01*
X024019Y032908D01*
X024139Y032858D01*
X024268Y032858D01*
X024352Y032893D01*
X024942Y032893D01*
X025342Y032493D01*
X026424Y032493D01*
X026553Y032622D01*
X026894Y032963D01*
X028561Y032963D01*
X028528Y032931D01*
X028475Y032803D01*
X028475Y032664D01*
X028528Y032536D01*
X028626Y032438D01*
X028754Y032385D01*
X028893Y032385D01*
X029021Y032438D01*
X029119Y032536D01*
X029153Y032619D01*
X029251Y032482D01*
X029251Y032482D01*
X029251Y032482D01*
X029493Y032358D01*
X029493Y032318D01*
X029593Y032218D01*
X030144Y032218D01*
X030243Y032318D01*
X030243Y032849D01*
X030144Y032948D01*
X029593Y032948D01*
X029517Y032873D01*
X029510Y032883D01*
X029501Y032916D01*
X029499Y032925D01*
X029487Y033006D01*
X029485Y033022D01*
X029485Y033022D01*
X029378Y033208D01*
X029378Y033208D01*
X029212Y033344D01*
X029212Y033344D01*
X029007Y033409D01*
X028907Y033403D01*
X028452Y033403D01*
X028502Y033524D01*
X028502Y033663D01*
X028449Y033791D01*
X028351Y033889D01*
X028223Y033942D01*
X028084Y033942D01*
X027956Y033889D01*
X027858Y033791D01*
X027805Y033663D01*
X027805Y033524D01*
X027855Y033403D01*
X026712Y033403D01*
X026242Y032933D01*
X025524Y032933D01*
X025253Y033204D01*
X025234Y033223D01*
X026460Y033223D01*
X027890Y034653D01*
X029058Y034653D01*
X029058Y034443D01*
X029158Y034343D01*
X029689Y034343D01*
X029788Y034443D01*
X029788Y034994D01*
X029769Y035013D01*
X029788Y035033D01*
X029788Y035584D01*
X029689Y035683D01*
X029158Y035683D01*
X029058Y035584D01*
X029058Y035313D01*
X027617Y035313D01*
X027482Y035179D01*
X026188Y033884D01*
X025553Y033892D01*
X025553Y035136D01*
X025669Y035088D01*
X025798Y035088D01*
X025917Y035138D01*
X025933Y035154D01*
X025949Y035138D01*
X026069Y035088D01*
X026198Y035088D01*
X026317Y035138D01*
X026409Y035229D01*
X026458Y035349D01*
X026458Y035478D01*
X026409Y035597D01*
X026363Y035643D01*
X026363Y035732D01*
X026924Y036293D01*
X028018Y036293D01*
X028005Y036263D01*
X028005Y036124D01*
X028058Y035996D01*
X028156Y035898D01*
X028284Y035845D01*
X028423Y035845D01*
X028551Y035898D01*
X028649Y035996D01*
X028702Y036124D01*
X028702Y036263D01*
X028689Y036293D01*
X029024Y036293D01*
X029153Y036422D01*
X031053Y038322D01*
X031053Y042245D01*
X038583Y042263D01*
X038583Y032433D01*
X034133Y032433D01*
X034133Y030243D01*
X023163Y030243D01*
X023163Y030637D01*
X023209Y030618D01*
X023338Y030618D01*
X023457Y030668D01*
X023549Y030759D01*
X023598Y030879D01*
X023598Y031008D01*
X023549Y031127D01*
X023457Y031219D01*
X023338Y031268D01*
X023209Y031268D01*
X023163Y031250D01*
X023163Y031723D01*
X025967Y031723D01*
X026262Y031428D01*
X026397Y031293D01*
X027208Y031293D01*
X027208Y031103D01*
X027308Y031003D01*
X027839Y031003D01*
X027938Y031103D01*
X027938Y032154D01*
X027885Y032207D02*
X034133Y032207D01*
X034133Y032305D02*
X030231Y032305D01*
X030243Y032404D02*
X034133Y032404D01*
X034133Y032010D02*
X027938Y032010D01*
X027938Y031911D02*
X034133Y031911D01*
X034133Y031813D02*
X027938Y031813D01*
X027938Y031714D02*
X034133Y031714D01*
X034133Y031616D02*
X027938Y031616D01*
X027938Y031517D02*
X034133Y031517D01*
X034133Y031419D02*
X027938Y031419D01*
X027938Y031320D02*
X034133Y031320D01*
X034133Y031222D02*
X027938Y031222D01*
X027938Y031123D02*
X034133Y031123D01*
X034133Y031025D02*
X027860Y031025D01*
X027286Y031025D02*
X026464Y031025D01*
X026459Y031037D02*
X026367Y031129D01*
X026248Y031178D01*
X026119Y031178D01*
X025999Y031129D01*
X025908Y031037D01*
X025858Y030918D01*
X025858Y030789D01*
X025908Y030669D01*
X025999Y030578D01*
X026119Y030528D01*
X026248Y030528D01*
X026367Y030578D01*
X026459Y030669D01*
X026508Y030789D01*
X026508Y030918D01*
X026459Y031037D01*
X026505Y030926D02*
X034133Y030926D01*
X034133Y030828D02*
X026508Y030828D01*
X026484Y030729D02*
X034133Y030729D01*
X034133Y030631D02*
X026420Y030631D01*
X026258Y030532D02*
X034133Y030532D01*
X034133Y030434D02*
X025575Y030434D01*
X025538Y030418D02*
X025657Y030468D01*
X025749Y030559D01*
X025798Y030679D01*
X025798Y030808D01*
X025749Y030927D01*
X025657Y031019D01*
X025538Y031068D01*
X025409Y031068D01*
X025289Y031019D01*
X025198Y030927D01*
X025148Y030808D01*
X025148Y030679D01*
X025198Y030559D01*
X025289Y030468D01*
X025409Y030418D01*
X025538Y030418D01*
X025371Y030434D02*
X023163Y030434D01*
X023163Y030532D02*
X023965Y030532D01*
X023989Y030508D02*
X024109Y030458D01*
X024238Y030458D01*
X024357Y030508D01*
X024449Y030599D01*
X024460Y030627D01*
X024519Y030568D01*
X024639Y030518D01*
X024768Y030518D01*
X024887Y030568D01*
X024979Y030659D01*
X025028Y030779D01*
X025028Y030908D01*
X024979Y031027D01*
X024887Y031119D01*
X024768Y031168D01*
X024639Y031168D01*
X024519Y031119D01*
X024428Y031027D01*
X024416Y031000D01*
X024357Y031059D01*
X024238Y031108D01*
X024109Y031108D01*
X023989Y031059D01*
X023898Y030967D01*
X023848Y030848D01*
X023848Y030719D01*
X023898Y030599D01*
X023989Y030508D01*
X023885Y030631D02*
X023368Y030631D01*
X023519Y030729D02*
X023848Y030729D01*
X023848Y030828D02*
X023577Y030828D01*
X023598Y030926D02*
X023881Y030926D01*
X023955Y031025D02*
X023591Y031025D01*
X023551Y031123D02*
X024530Y031123D01*
X024427Y031025D02*
X024391Y031025D01*
X024382Y030532D02*
X024605Y030532D01*
X024802Y030532D02*
X025225Y030532D01*
X025168Y030631D02*
X024950Y030631D01*
X025008Y030729D02*
X025148Y030729D01*
X025157Y030828D02*
X025028Y030828D01*
X025021Y030926D02*
X025197Y030926D01*
X025304Y031025D02*
X024980Y031025D01*
X024877Y031123D02*
X025994Y031123D01*
X025903Y031025D02*
X025643Y031025D01*
X025749Y030926D02*
X025862Y030926D01*
X025858Y030828D02*
X025790Y030828D01*
X025798Y030729D02*
X025883Y030729D01*
X025946Y030631D02*
X025779Y030631D01*
X025722Y030532D02*
X026109Y030532D01*
X026373Y031123D02*
X027208Y031123D01*
X027208Y031222D02*
X023450Y031222D01*
X023163Y031320D02*
X026370Y031320D01*
X026271Y031419D02*
X023163Y031419D01*
X023163Y031517D02*
X026173Y031517D01*
X026074Y031616D02*
X023163Y031616D01*
X023163Y031714D02*
X025976Y031714D01*
X026417Y032207D02*
X027261Y032207D01*
X027208Y032108D02*
X026515Y032108D01*
X026614Y032010D02*
X027208Y032010D01*
X026532Y032601D02*
X028501Y032601D01*
X028475Y032699D02*
X026630Y032699D01*
X026729Y032798D02*
X028475Y032798D01*
X028514Y032896D02*
X026827Y032896D01*
X026803Y033183D02*
X026333Y032713D01*
X025433Y032713D01*
X025033Y033113D01*
X024273Y033113D01*
X024203Y033183D01*
X024047Y032896D02*
X023258Y032896D01*
X023258Y032798D02*
X025038Y032798D01*
X025136Y032699D02*
X023225Y032699D01*
X023163Y032601D02*
X025235Y032601D01*
X025333Y032502D02*
X023171Y032502D01*
X023270Y032404D02*
X028708Y032404D01*
X028562Y032502D02*
X026433Y032502D01*
X026318Y032305D02*
X029506Y032305D01*
X029404Y032404D02*
X028938Y032404D01*
X029085Y032502D02*
X029237Y032502D01*
X029166Y032601D02*
X029146Y032601D01*
X029283Y032883D02*
X029276Y032918D01*
X029266Y032951D01*
X029253Y032983D01*
X029236Y033014D01*
X029217Y033043D01*
X029194Y033069D01*
X029170Y033094D01*
X029143Y033116D01*
X029113Y033135D01*
X029083Y033151D01*
X029050Y033164D01*
X029017Y033174D01*
X028983Y033181D01*
X028948Y033184D01*
X028913Y033183D01*
X026803Y033183D01*
X026599Y033290D02*
X026527Y033290D01*
X026501Y033192D02*
X025266Y033192D01*
X025364Y033093D02*
X026402Y033093D01*
X026304Y032995D02*
X025463Y032995D01*
X025553Y033980D02*
X026283Y033980D01*
X026382Y034078D02*
X025553Y034078D01*
X025553Y034177D02*
X026480Y034177D01*
X026579Y034275D02*
X025553Y034275D01*
X025553Y034374D02*
X026677Y034374D01*
X026776Y034472D02*
X025553Y034472D01*
X025553Y034571D02*
X026874Y034571D01*
X026973Y034669D02*
X025553Y034669D01*
X025553Y034768D02*
X027071Y034768D01*
X027170Y034866D02*
X025553Y034866D01*
X025553Y034965D02*
X027268Y034965D01*
X027367Y035063D02*
X025553Y035063D01*
X025183Y035063D02*
X019757Y035063D01*
X019762Y035053D02*
X019709Y035181D01*
X019611Y035279D01*
X019483Y035332D01*
X019344Y035332D01*
X019216Y035279D01*
X019118Y035181D01*
X019065Y035053D01*
X019065Y034914D01*
X019118Y034786D01*
X019216Y034688D01*
X019344Y034635D01*
X019483Y034635D01*
X019611Y034688D01*
X019709Y034786D01*
X019762Y034914D01*
X019762Y035053D01*
X019762Y034965D02*
X025183Y034965D01*
X025183Y034866D02*
X019742Y034866D01*
X019691Y034768D02*
X025183Y034768D01*
X025183Y034669D02*
X019566Y034669D01*
X019534Y034392D02*
X019406Y034339D01*
X019308Y034241D01*
X019255Y034113D01*
X019255Y033974D01*
X019308Y033846D01*
X019406Y033748D01*
X019534Y033695D01*
X019673Y033695D01*
X019801Y033748D01*
X019899Y033846D01*
X019952Y033974D01*
X019952Y034113D01*
X019899Y034241D01*
X019801Y034339D01*
X019673Y034392D01*
X019534Y034392D01*
X019491Y034374D02*
X010083Y034374D01*
X010083Y034472D02*
X025183Y034472D01*
X025183Y034374D02*
X019716Y034374D01*
X019864Y034275D02*
X025183Y034275D01*
X025183Y034177D02*
X019925Y034177D01*
X019952Y034078D02*
X025183Y034078D01*
X025183Y033980D02*
X019952Y033980D01*
X019913Y033881D02*
X022923Y033881D01*
X022923Y033783D02*
X019836Y033783D01*
X019371Y033783D02*
X010083Y033783D01*
X010083Y033881D02*
X019293Y033881D01*
X019255Y033980D02*
X010083Y033980D01*
X010083Y034078D02*
X019255Y034078D01*
X019282Y034177D02*
X010083Y034177D01*
X010083Y034275D02*
X019343Y034275D01*
X019261Y034669D02*
X010083Y034669D01*
X010083Y034571D02*
X025183Y034571D01*
X025183Y035162D02*
X019717Y035162D01*
X019629Y035260D02*
X025183Y035260D01*
X025183Y035359D02*
X010083Y035359D01*
X010083Y035457D02*
X025183Y035457D01*
X025183Y035556D02*
X010083Y035556D01*
X010083Y035654D02*
X021650Y035654D01*
X021689Y035638D02*
X021818Y035638D01*
X021937Y035688D01*
X022029Y035779D01*
X022078Y035899D01*
X022078Y036028D01*
X022029Y036147D01*
X025183Y036147D01*
X025183Y036245D02*
X021922Y036245D01*
X021937Y036239D02*
X021818Y036288D01*
X021689Y036288D01*
X021569Y036239D01*
X021478Y036147D01*
X019362Y036147D01*
X019378Y036108D02*
X019329Y036227D01*
X019237Y036319D01*
X019118Y036368D01*
X018989Y036368D01*
X018869Y036319D01*
X018778Y036227D01*
X018728Y036108D01*
X018728Y035979D01*
X018778Y035859D01*
X018869Y035768D01*
X018989Y035718D01*
X019118Y035718D01*
X019237Y035768D01*
X019329Y035859D01*
X019378Y035979D01*
X019378Y036108D01*
X019378Y036048D02*
X021437Y036048D01*
X021428Y036028D02*
X021428Y035899D01*
X021478Y035779D01*
X021569Y035688D01*
X021689Y035638D01*
X021857Y035654D02*
X025183Y035654D01*
X025183Y035753D02*
X022002Y035753D01*
X022059Y035851D02*
X025183Y035851D01*
X025183Y035950D02*
X022078Y035950D01*
X022070Y036048D02*
X025183Y036048D01*
X025733Y036113D02*
X025233Y036613D01*
X022733Y036613D01*
X022333Y037013D01*
X022333Y038913D01*
X018833Y042413D01*
X018833Y043213D01*
X019333Y043713D01*
X019010Y044027D02*
X017633Y044027D01*
X017633Y044125D02*
X019109Y044125D01*
X019147Y044163D02*
X018883Y043900D01*
X018883Y043574D01*
X018613Y043304D01*
X018613Y042322D01*
X018742Y042193D01*
X019533Y041403D01*
X018713Y041443D01*
X017633Y041513D01*
X017633Y044963D01*
X038583Y044963D01*
X038583Y042158D01*
X031053Y042011D01*
X031053Y042357D01*
X031147Y042263D01*
X031520Y042263D01*
X031783Y042527D01*
X031783Y042900D01*
X031520Y043163D01*
X031147Y043163D01*
X031053Y043070D01*
X031053Y043122D01*
X031194Y043263D01*
X031520Y043263D01*
X031783Y043527D01*
X031783Y043900D01*
X031520Y044163D01*
X031147Y044163D01*
X030883Y043900D01*
X030883Y043574D01*
X030613Y043304D01*
X030613Y043041D01*
X030511Y043143D01*
X030373Y043143D01*
X030373Y042753D01*
X030293Y042753D01*
X030293Y043143D01*
X030155Y043143D01*
X030053Y043041D01*
X030053Y043122D01*
X030194Y043263D01*
X030520Y043263D01*
X030783Y043527D01*
X030783Y043900D01*
X030520Y044163D01*
X030147Y044163D01*
X029883Y043900D01*
X029883Y043574D01*
X029742Y043433D01*
X029613Y043304D01*
X029613Y043041D01*
X029511Y043143D01*
X029373Y043143D01*
X029373Y042753D01*
X029293Y042753D01*
X029293Y042673D01*
X029373Y042673D01*
X029373Y042283D01*
X029511Y042283D01*
X029613Y042385D01*
X029613Y041983D01*
X020893Y041813D01*
X020048Y041510D01*
X019274Y042283D01*
X019293Y042283D01*
X019293Y042673D01*
X019373Y042673D01*
X019373Y042283D01*
X019511Y042283D01*
X019763Y042535D01*
X019763Y042673D01*
X019373Y042673D01*
X019373Y042753D01*
X019293Y042753D01*
X019293Y043143D01*
X019155Y043143D01*
X019053Y043041D01*
X019053Y043122D01*
X019194Y043263D01*
X019520Y043263D01*
X019783Y043527D01*
X019783Y043900D01*
X019520Y044163D01*
X019147Y044163D01*
X018912Y043928D02*
X017633Y043928D01*
X017633Y043830D02*
X018883Y043830D01*
X018883Y043731D02*
X017633Y043731D01*
X017633Y043633D02*
X018883Y043633D01*
X018843Y043534D02*
X017633Y043534D01*
X017633Y043436D02*
X018745Y043436D01*
X018646Y043337D02*
X017633Y043337D01*
X017633Y043239D02*
X018613Y043239D01*
X018613Y043140D02*
X017633Y043140D01*
X017633Y043042D02*
X018613Y043042D01*
X018613Y042943D02*
X017633Y042943D01*
X017633Y042845D02*
X018613Y042845D01*
X018613Y042746D02*
X017633Y042746D01*
X017633Y042648D02*
X018613Y042648D01*
X018613Y042549D02*
X017633Y042549D01*
X017633Y042451D02*
X018613Y042451D01*
X018613Y042352D02*
X017633Y042352D01*
X017633Y042254D02*
X018682Y042254D01*
X018720Y042216D02*
X018742Y042193D01*
X021211Y039724D01*
X017633Y041513D01*
X017633Y042213D01*
X018720Y042216D01*
X018780Y042155D02*
X017633Y042155D01*
X018780Y042155D01*
X018879Y042057D02*
X017633Y042057D01*
X018879Y042057D01*
X018977Y041958D02*
X017633Y041958D01*
X018977Y041958D01*
X019076Y041860D02*
X017633Y041860D01*
X019076Y041860D01*
X019174Y041761D02*
X017633Y041761D01*
X019174Y041761D01*
X019273Y041663D02*
X017633Y041663D01*
X019273Y041663D01*
X019371Y041564D02*
X017633Y041564D01*
X019371Y041564D01*
X019470Y041466D02*
X018366Y041466D01*
X018319Y041170D02*
X019765Y041170D01*
X019864Y041072D02*
X018516Y041072D01*
X018713Y040973D02*
X019962Y040973D01*
X020061Y040875D02*
X018910Y040875D01*
X019107Y040776D02*
X020159Y040776D01*
X020258Y040678D02*
X019304Y040678D01*
X019501Y040579D02*
X020356Y040579D01*
X020455Y040481D02*
X019698Y040481D01*
X019895Y040382D02*
X020553Y040382D01*
X020652Y040284D02*
X020092Y040284D01*
X020289Y040185D02*
X020750Y040185D01*
X020849Y040087D02*
X020486Y040087D01*
X020683Y039988D02*
X020947Y039988D01*
X020880Y039890D02*
X021046Y039890D01*
X021077Y039791D02*
X021144Y039791D01*
X020915Y039496D02*
X010083Y039496D01*
X010083Y039594D02*
X020703Y039594D01*
X020492Y039693D02*
X010083Y039693D01*
X010083Y039791D02*
X020281Y039791D01*
X020069Y039890D02*
X010083Y039890D01*
X010083Y039988D02*
X019858Y039988D01*
X019646Y040087D02*
X010083Y040087D01*
X010083Y040185D02*
X019435Y040185D01*
X019224Y040284D02*
X010083Y040284D01*
X010083Y040382D02*
X019012Y040382D01*
X018801Y040481D02*
X010083Y040481D01*
X010083Y040579D02*
X018590Y040579D01*
X018378Y040678D02*
X010083Y040678D01*
X010083Y040776D02*
X018167Y040776D01*
X017955Y040875D02*
X010083Y040875D01*
X010083Y040973D02*
X017744Y040973D01*
X017533Y041072D02*
X010083Y041072D01*
X010083Y041170D02*
X017321Y041170D01*
X017293Y041269D02*
X010083Y041269D01*
X010083Y041367D02*
X017293Y041367D01*
X017293Y041466D02*
X010083Y041466D01*
X010083Y041564D02*
X017293Y041564D01*
X017293Y041663D02*
X010083Y041663D01*
X010083Y041761D02*
X017293Y041761D01*
X017293Y041860D02*
X010083Y041860D01*
X010083Y041958D02*
X017293Y041958D01*
X017293Y042057D02*
X010083Y042057D01*
X010083Y042155D02*
X017293Y042155D01*
X017293Y042254D02*
X010083Y042254D01*
X010083Y042352D02*
X017293Y042352D01*
X017293Y042451D02*
X010083Y042451D01*
X010083Y042549D02*
X017293Y042549D01*
X017293Y042648D02*
X010083Y042648D01*
X010083Y042746D02*
X017293Y042746D01*
X017293Y042845D02*
X011523Y042845D01*
X011507Y042838D02*
X011829Y042972D01*
X012075Y043218D01*
X012208Y043539D01*
X012208Y043887D01*
X012075Y044209D01*
X011829Y044455D01*
X011507Y044588D01*
X011159Y044588D01*
X010838Y044455D01*
X010592Y044209D01*
X010458Y043887D01*
X010458Y043539D01*
X010592Y043218D01*
X010838Y042972D01*
X011159Y042838D01*
X011507Y042838D01*
X011761Y042943D02*
X017293Y042943D01*
X017293Y043042D02*
X011899Y043042D01*
X011998Y043140D02*
X017293Y043140D01*
X017293Y043239D02*
X012084Y043239D01*
X012125Y043337D02*
X017293Y043337D01*
X017293Y043436D02*
X012165Y043436D01*
X012206Y043534D02*
X017293Y043534D01*
X017293Y043633D02*
X012208Y043633D01*
X012208Y043731D02*
X017293Y043731D01*
X017293Y043830D02*
X012208Y043830D01*
X012191Y043928D02*
X017293Y043928D01*
X017293Y044027D02*
X012151Y044027D01*
X012110Y044125D02*
X017293Y044125D01*
X017293Y044224D02*
X012060Y044224D01*
X011962Y044322D02*
X017293Y044322D01*
X017293Y044421D02*
X011863Y044421D01*
X011674Y044519D02*
X017293Y044519D01*
X017293Y044618D02*
X010083Y044618D01*
X010083Y044716D02*
X017293Y044716D01*
X017293Y044815D02*
X010083Y044815D01*
X010083Y044913D02*
X017293Y044913D01*
X017633Y044913D02*
X038583Y044913D01*
X038583Y044815D02*
X017633Y044815D01*
X017633Y044716D02*
X038583Y044716D01*
X038583Y044618D02*
X017633Y044618D01*
X017633Y044519D02*
X036993Y044519D01*
X036838Y044455D02*
X037159Y044588D01*
X037507Y044588D01*
X037829Y044455D01*
X038075Y044209D01*
X038208Y043887D01*
X038208Y043539D01*
X038075Y043218D01*
X037829Y042972D01*
X037507Y042838D01*
X037159Y042838D01*
X036838Y042972D01*
X036592Y043218D01*
X036458Y043539D01*
X036458Y043887D01*
X036592Y044209D01*
X036838Y044455D01*
X036803Y044421D02*
X017633Y044421D01*
X017633Y044322D02*
X036705Y044322D01*
X036606Y044224D02*
X017633Y044224D01*
X019072Y043140D02*
X019152Y043140D01*
X019170Y043239D02*
X029613Y043239D01*
X029520Y043263D02*
X029783Y043527D01*
X029783Y043900D01*
X029520Y044163D01*
X029147Y044163D01*
X028883Y043900D01*
X028883Y043527D01*
X029147Y043263D01*
X029520Y043263D01*
X029594Y043337D02*
X029646Y043337D01*
X029692Y043436D02*
X029745Y043436D01*
X029783Y043534D02*
X029843Y043534D01*
X029883Y043633D02*
X029783Y043633D01*
X029783Y043731D02*
X029883Y043731D01*
X029883Y043830D02*
X029783Y043830D01*
X029755Y043928D02*
X029912Y043928D01*
X030010Y044027D02*
X029656Y044027D01*
X029558Y044125D02*
X030109Y044125D01*
X030558Y044125D02*
X031109Y044125D01*
X031010Y044027D02*
X030656Y044027D01*
X030755Y043928D02*
X030912Y043928D01*
X030883Y043830D02*
X030783Y043830D01*
X030783Y043731D02*
X030883Y043731D01*
X030883Y043633D02*
X030783Y043633D01*
X030783Y043534D02*
X030843Y043534D01*
X030745Y043436D02*
X030692Y043436D01*
X030646Y043337D02*
X030594Y043337D01*
X030613Y043239D02*
X030170Y043239D01*
X030152Y043140D02*
X030072Y043140D01*
X030053Y043042D02*
X030054Y043042D01*
X030293Y043042D02*
X030373Y043042D01*
X030373Y043140D02*
X030293Y043140D01*
X030293Y042943D02*
X030373Y042943D01*
X030373Y042845D02*
X030293Y042845D01*
X030293Y042673D02*
X030373Y042673D01*
X030373Y042283D01*
X030511Y042283D01*
X030613Y042385D01*
X030613Y042003D01*
X030053Y041992D01*
X030053Y042385D01*
X030155Y042283D01*
X030293Y042283D01*
X030293Y042673D01*
X030293Y042648D02*
X030373Y042648D01*
X030373Y042549D02*
X030293Y042549D01*
X030293Y042451D02*
X030373Y042451D01*
X030373Y042352D02*
X030293Y042352D01*
X030086Y042352D02*
X030053Y042352D01*
X030053Y042254D02*
X030613Y042254D01*
X030613Y042244D02*
X030613Y038504D01*
X028842Y036733D01*
X028386Y036733D01*
X028432Y036844D01*
X028432Y036983D01*
X028379Y037111D01*
X028281Y037209D01*
X028153Y037262D01*
X028014Y037262D01*
X027886Y037209D01*
X027788Y037111D01*
X027735Y036983D01*
X027735Y036844D01*
X027781Y036733D01*
X026742Y036733D01*
X026042Y036033D01*
X025953Y035944D01*
X025953Y036204D01*
X025824Y036333D01*
X025769Y036388D01*
X025798Y036388D01*
X025917Y036438D01*
X025973Y036493D01*
X026424Y036493D01*
X028124Y038193D01*
X028163Y038193D01*
X028163Y038148D01*
X028263Y038048D01*
X028814Y038048D01*
X028913Y038148D01*
X028913Y038679D01*
X028814Y038778D01*
X028263Y038778D01*
X028163Y038679D01*
X028163Y038633D01*
X027942Y038633D01*
X027813Y038504D01*
X026242Y036933D01*
X025973Y036933D01*
X025917Y036989D01*
X025907Y036993D01*
X026224Y036993D01*
X027124Y037893D01*
X027253Y038022D01*
X027253Y039174D01*
X027309Y039229D01*
X027358Y039349D01*
X027358Y039478D01*
X027311Y039593D01*
X029624Y039593D01*
X029753Y039722D01*
X030053Y040022D01*
X030053Y042243D01*
X030613Y042244D01*
X030613Y042155D02*
X030053Y042155D01*
X030613Y042155D01*
X030613Y042057D02*
X030053Y042057D01*
X030613Y042057D01*
X030613Y041958D02*
X030053Y041958D01*
X030053Y041860D02*
X030613Y041860D01*
X030613Y041761D02*
X030053Y041761D01*
X030053Y041663D02*
X030613Y041663D01*
X030613Y041564D02*
X030053Y041564D01*
X030053Y041466D02*
X030613Y041466D01*
X030613Y041367D02*
X030053Y041367D01*
X030053Y041269D02*
X030613Y041269D01*
X030613Y041170D02*
X030053Y041170D01*
X030053Y041072D02*
X030613Y041072D01*
X030613Y040973D02*
X030053Y040973D01*
X030053Y040875D02*
X030613Y040875D01*
X030613Y040776D02*
X030053Y040776D01*
X030053Y040678D02*
X030613Y040678D01*
X030613Y040579D02*
X030053Y040579D01*
X030053Y040481D02*
X030613Y040481D01*
X030613Y040382D02*
X030053Y040382D01*
X030053Y040284D02*
X030613Y040284D01*
X030613Y040185D02*
X030053Y040185D01*
X030053Y040087D02*
X030613Y040087D01*
X030613Y039988D02*
X030019Y039988D01*
X029921Y039890D02*
X030613Y039890D01*
X030613Y039791D02*
X029822Y039791D01*
X029724Y039693D02*
X030613Y039693D01*
X030613Y039594D02*
X029625Y039594D01*
X029533Y039813D02*
X029833Y040113D01*
X029833Y043213D01*
X030333Y043713D01*
X030514Y043140D02*
X030613Y043140D01*
X030613Y043042D02*
X030613Y043042D01*
X030833Y043213D02*
X031333Y043713D01*
X031656Y044027D02*
X036516Y044027D01*
X036557Y044125D02*
X031558Y044125D01*
X031755Y043928D02*
X036475Y043928D01*
X036458Y043830D02*
X031783Y043830D01*
X031783Y043731D02*
X036458Y043731D01*
X036458Y043633D02*
X031783Y043633D01*
X031783Y043534D02*
X036460Y043534D01*
X036501Y043436D02*
X031692Y043436D01*
X031594Y043337D02*
X036542Y043337D01*
X036583Y043239D02*
X031170Y043239D01*
X031124Y043140D02*
X031072Y043140D01*
X030833Y043213D02*
X030833Y038413D01*
X028933Y036513D01*
X026833Y036513D01*
X026133Y035813D01*
X026133Y035713D01*
X026363Y035654D02*
X029129Y035654D01*
X029058Y035556D02*
X026426Y035556D01*
X026458Y035457D02*
X029058Y035457D01*
X029058Y035359D02*
X026458Y035359D01*
X026422Y035260D02*
X027564Y035260D01*
X027465Y035162D02*
X026341Y035162D01*
X026384Y035753D02*
X038583Y035753D01*
X038583Y035851D02*
X028438Y035851D01*
X028268Y035851D02*
X026482Y035851D01*
X026581Y035950D02*
X028104Y035950D01*
X028036Y036048D02*
X026679Y036048D01*
X026778Y036147D02*
X028005Y036147D01*
X028005Y036245D02*
X026876Y036245D01*
X026550Y036541D02*
X026472Y036541D01*
X026451Y036442D02*
X025922Y036442D01*
X025814Y036344D02*
X026353Y036344D01*
X026254Y036245D02*
X025912Y036245D01*
X025953Y036147D02*
X026156Y036147D01*
X026057Y036048D02*
X025953Y036048D01*
X025953Y035950D02*
X025959Y035950D01*
X025733Y036113D02*
X025733Y035413D01*
X025824Y036333D02*
X025824Y036333D01*
X025733Y036713D02*
X026333Y036713D01*
X028033Y038413D01*
X028538Y038413D01*
X028913Y038412D02*
X030521Y038412D01*
X030613Y038511D02*
X028913Y038511D01*
X028913Y038609D02*
X030613Y038609D01*
X030613Y038708D02*
X028884Y038708D01*
X028913Y038314D02*
X030423Y038314D01*
X030324Y038215D02*
X028913Y038215D01*
X028882Y038117D02*
X030226Y038117D01*
X030127Y038018D02*
X027949Y038018D01*
X027851Y037920D02*
X030029Y037920D01*
X029930Y037821D02*
X027752Y037821D01*
X027654Y037723D02*
X029832Y037723D01*
X029733Y037624D02*
X027555Y037624D01*
X027457Y037526D02*
X029635Y037526D01*
X029536Y037427D02*
X027358Y037427D01*
X027260Y037329D02*
X029438Y037329D01*
X029339Y037230D02*
X028228Y037230D01*
X028358Y037132D02*
X029241Y037132D01*
X029142Y037033D02*
X028411Y037033D01*
X028432Y036935D02*
X029044Y036935D01*
X028945Y036836D02*
X028429Y036836D01*
X028388Y036738D02*
X028847Y036738D01*
X029173Y036442D02*
X038583Y036442D01*
X038583Y036344D02*
X029075Y036344D01*
X029272Y036541D02*
X038583Y036541D01*
X038583Y036639D02*
X029370Y036639D01*
X029469Y036738D02*
X038583Y036738D01*
X038583Y036836D02*
X029567Y036836D01*
X029666Y036935D02*
X038583Y036935D01*
X038583Y037033D02*
X029764Y037033D01*
X029863Y037132D02*
X038583Y037132D01*
X038583Y037230D02*
X029961Y037230D01*
X030060Y037329D02*
X038583Y037329D01*
X038583Y037427D02*
X030158Y037427D01*
X030257Y037526D02*
X038583Y037526D01*
X038583Y037624D02*
X030355Y037624D01*
X030454Y037723D02*
X038583Y037723D01*
X038583Y037821D02*
X030552Y037821D01*
X030651Y037920D02*
X038583Y037920D01*
X038583Y038018D02*
X030749Y038018D01*
X030848Y038117D02*
X038583Y038117D01*
X038583Y038215D02*
X030946Y038215D01*
X031045Y038314D02*
X038583Y038314D01*
X038583Y038412D02*
X031053Y038412D01*
X031053Y038511D02*
X038583Y038511D01*
X038583Y038609D02*
X031053Y038609D01*
X031053Y038708D02*
X038583Y038708D01*
X038583Y038806D02*
X031053Y038806D01*
X031053Y038905D02*
X038583Y038905D01*
X038583Y039003D02*
X031053Y039003D01*
X031053Y039102D02*
X038583Y039102D01*
X038583Y039200D02*
X031053Y039200D01*
X031053Y039299D02*
X038583Y039299D01*
X038583Y039397D02*
X031053Y039397D01*
X031053Y039496D02*
X038583Y039496D01*
X038583Y039594D02*
X031053Y039594D01*
X031053Y039693D02*
X038583Y039693D01*
X038583Y039791D02*
X031053Y039791D01*
X031053Y039890D02*
X038583Y039890D01*
X038583Y039988D02*
X031053Y039988D01*
X031053Y040087D02*
X038583Y040087D01*
X038583Y040185D02*
X031053Y040185D01*
X031053Y040284D02*
X038583Y040284D01*
X038583Y040382D02*
X031053Y040382D01*
X031053Y040481D02*
X038583Y040481D01*
X038583Y040579D02*
X031053Y040579D01*
X031053Y040678D02*
X038583Y040678D01*
X038583Y040776D02*
X031053Y040776D01*
X031053Y040875D02*
X038583Y040875D01*
X038583Y040973D02*
X031053Y040973D01*
X031053Y041072D02*
X038583Y041072D01*
X038583Y041170D02*
X031053Y041170D01*
X031053Y041269D02*
X038583Y041269D01*
X038583Y041367D02*
X031053Y041367D01*
X031053Y041466D02*
X038583Y041466D01*
X038583Y041564D02*
X031053Y041564D01*
X031053Y041663D02*
X038583Y041663D01*
X038583Y041761D02*
X031053Y041761D01*
X031053Y041860D02*
X038583Y041860D01*
X038583Y041958D02*
X031053Y041958D01*
X031053Y042057D02*
X033384Y042057D01*
X034872Y042254D02*
X038583Y042254D01*
X031053Y042254D01*
X031053Y042352D02*
X031058Y042352D01*
X031053Y042155D02*
X038435Y042155D01*
X038583Y042155D02*
X031053Y042155D01*
X031053Y042057D02*
X038583Y042057D01*
X038583Y042352D02*
X031609Y042352D01*
X031707Y042451D02*
X038583Y042451D01*
X038583Y042549D02*
X031783Y042549D01*
X031783Y042648D02*
X038583Y042648D01*
X038583Y042746D02*
X031783Y042746D01*
X031783Y042845D02*
X037143Y042845D01*
X036906Y042943D02*
X031740Y042943D01*
X031641Y043042D02*
X036767Y043042D01*
X036669Y043140D02*
X031543Y043140D01*
X030613Y042352D02*
X030580Y042352D01*
X029613Y042352D02*
X029580Y042352D01*
X029613Y042254D02*
X019304Y042254D01*
X019340Y042217D02*
X029613Y042242D01*
X029613Y040204D01*
X029442Y040033D01*
X025542Y040033D01*
X025242Y039733D01*
X025233Y039724D01*
X025227Y039729D01*
X025108Y039778D01*
X024979Y039778D01*
X024859Y039729D01*
X024853Y039723D01*
X024853Y040022D01*
X025224Y040393D01*
X028994Y040393D01*
X029049Y040338D01*
X029169Y040288D01*
X029298Y040288D01*
X029417Y040338D01*
X029509Y040429D01*
X029558Y040549D01*
X029558Y040678D01*
X029509Y040797D01*
X029417Y040889D01*
X029298Y040938D01*
X029169Y040938D01*
X029151Y040931D01*
X029158Y040949D01*
X029158Y041078D01*
X029109Y041197D01*
X029017Y041289D01*
X028898Y041338D01*
X028769Y041338D01*
X028649Y041289D01*
X028594Y041233D01*
X025042Y041233D01*
X024913Y041104D01*
X024113Y040304D01*
X024113Y039753D01*
X024097Y039769D01*
X023978Y039818D01*
X023849Y039818D01*
X023729Y039769D01*
X023638Y039677D01*
X023588Y039558D01*
X023588Y039429D01*
X023638Y039309D01*
X023729Y039218D01*
X023849Y039168D01*
X023977Y039168D01*
X023613Y038804D01*
X023613Y037304D01*
X023547Y037238D01*
X023469Y037238D01*
X023349Y037189D01*
X023258Y037097D01*
X023208Y036978D01*
X023208Y036849D01*
X023215Y036833D01*
X022824Y036833D01*
X022553Y037104D01*
X022553Y039004D01*
X019340Y042217D01*
X019402Y042155D02*
X029613Y042155D01*
X019402Y042155D01*
X019501Y042057D02*
X029613Y042057D01*
X019501Y042057D01*
X019599Y041958D02*
X028332Y041958D01*
X028293Y042283D02*
X028293Y042673D01*
X028373Y042673D01*
X028373Y042283D01*
X028511Y042283D01*
X028763Y042535D01*
X028763Y042673D01*
X028373Y042673D01*
X028373Y042753D01*
X028763Y042753D01*
X028763Y042891D01*
X028511Y043143D01*
X028373Y043143D01*
X028373Y042753D01*
X028293Y042753D01*
X028293Y042673D01*
X027903Y042673D01*
X027903Y042535D01*
X028155Y042283D01*
X028293Y042283D01*
X028293Y042352D02*
X028373Y042352D01*
X028373Y042451D02*
X028293Y042451D01*
X028293Y042549D02*
X028373Y042549D01*
X028373Y042648D02*
X028293Y042648D01*
X028293Y042746D02*
X027373Y042746D01*
X027373Y042753D02*
X027763Y042753D01*
X027763Y042891D01*
X027511Y043143D01*
X027373Y043143D01*
X027373Y042753D01*
X027373Y042673D01*
X027373Y042283D01*
X027511Y042283D01*
X027763Y042535D01*
X027763Y042673D01*
X027373Y042673D01*
X027293Y042673D01*
X027293Y042283D01*
X027155Y042283D01*
X026903Y042535D01*
X026903Y042673D01*
X027293Y042673D01*
X027293Y042753D01*
X026903Y042753D01*
X026903Y042891D01*
X027155Y043143D01*
X027293Y043143D01*
X027293Y042753D01*
X027373Y042753D01*
X027293Y042746D02*
X026373Y042746D01*
X026373Y042753D02*
X026763Y042753D01*
X026763Y042891D01*
X026511Y043143D01*
X026373Y043143D01*
X026373Y042753D01*
X026373Y042673D01*
X026373Y042283D01*
X026511Y042283D01*
X026763Y042535D01*
X026763Y042673D01*
X026373Y042673D01*
X026293Y042673D01*
X026293Y042283D01*
X026155Y042283D01*
X025903Y042535D01*
X025903Y042673D01*
X026293Y042673D01*
X026293Y042753D01*
X025903Y042753D01*
X025903Y042891D01*
X026155Y043143D01*
X026293Y043143D01*
X026293Y042753D01*
X026373Y042753D01*
X026293Y042746D02*
X025373Y042746D01*
X025373Y042753D02*
X025763Y042753D01*
X025763Y042891D01*
X025511Y043143D01*
X025373Y043143D01*
X025373Y042753D01*
X025373Y042673D01*
X025373Y042283D01*
X025511Y042283D01*
X025763Y042535D01*
X025763Y042673D01*
X025373Y042673D01*
X025293Y042673D01*
X025293Y042283D01*
X025155Y042283D01*
X024903Y042535D01*
X024903Y042673D01*
X025293Y042673D01*
X025293Y042753D01*
X024903Y042753D01*
X024903Y042891D01*
X025155Y043143D01*
X025293Y043143D01*
X025293Y042753D01*
X025373Y042753D01*
X025293Y042746D02*
X024373Y042746D01*
X024373Y042753D02*
X024763Y042753D01*
X024763Y042891D01*
X024511Y043143D01*
X024373Y043143D01*
X024373Y042753D01*
X024373Y042673D01*
X024373Y042283D01*
X024511Y042283D01*
X024763Y042535D01*
X024763Y042673D01*
X024373Y042673D01*
X024293Y042673D01*
X024293Y042283D01*
X024155Y042283D01*
X023903Y042535D01*
X023903Y042673D01*
X024293Y042673D01*
X024293Y042753D01*
X023903Y042753D01*
X023903Y042891D01*
X024155Y043143D01*
X024293Y043143D01*
X024293Y042753D01*
X024373Y042753D01*
X024293Y042746D02*
X023373Y042746D01*
X023373Y042753D02*
X023763Y042753D01*
X023763Y042891D01*
X023511Y043143D01*
X023373Y043143D01*
X023373Y042753D01*
X023373Y042673D01*
X023373Y042283D01*
X023511Y042283D01*
X023763Y042535D01*
X023763Y042673D01*
X023373Y042673D01*
X023293Y042673D01*
X023293Y042283D01*
X023155Y042283D01*
X022903Y042535D01*
X022903Y042673D01*
X023293Y042673D01*
X023293Y042753D01*
X022903Y042753D01*
X022903Y042891D01*
X023155Y043143D01*
X023293Y043143D01*
X023293Y042753D01*
X023373Y042753D01*
X023293Y042746D02*
X022373Y042746D01*
X022373Y042753D02*
X022763Y042753D01*
X022763Y042891D01*
X022511Y043143D01*
X022373Y043143D01*
X022373Y042753D01*
X022373Y042673D01*
X022373Y042283D01*
X022511Y042283D01*
X022763Y042535D01*
X022763Y042673D01*
X022373Y042673D01*
X022293Y042673D01*
X022293Y042283D01*
X022155Y042283D01*
X021903Y042535D01*
X021903Y042673D01*
X022293Y042673D01*
X022293Y042753D01*
X021903Y042753D01*
X021903Y042891D01*
X022155Y043143D01*
X022293Y043143D01*
X022293Y042753D01*
X022373Y042753D01*
X022293Y042746D02*
X021373Y042746D01*
X021373Y042753D02*
X021763Y042753D01*
X021763Y042891D01*
X021511Y043143D01*
X021373Y043143D01*
X021373Y042753D01*
X021373Y042673D01*
X021373Y042283D01*
X021511Y042283D01*
X021763Y042535D01*
X021763Y042673D01*
X021373Y042673D01*
X021293Y042673D01*
X021293Y042283D01*
X021155Y042283D01*
X020903Y042535D01*
X020903Y042673D01*
X021293Y042673D01*
X021293Y042753D01*
X020903Y042753D01*
X020903Y042891D01*
X021155Y043143D01*
X021293Y043143D01*
X021293Y042753D01*
X021373Y042753D01*
X021293Y042746D02*
X020373Y042746D01*
X020373Y042753D02*
X020763Y042753D01*
X020763Y042891D01*
X020511Y043143D01*
X020373Y043143D01*
X020373Y042753D01*
X020373Y042673D01*
X020373Y042283D01*
X020511Y042283D01*
X020763Y042535D01*
X020763Y042673D01*
X020373Y042673D01*
X020293Y042673D01*
X020293Y042283D01*
X020155Y042283D01*
X019903Y042535D01*
X019903Y042673D01*
X020293Y042673D01*
X020293Y042753D01*
X019903Y042753D01*
X019903Y042891D01*
X020155Y043143D01*
X020293Y043143D01*
X020293Y042753D01*
X020373Y042753D01*
X020293Y042746D02*
X019373Y042746D01*
X019373Y042753D02*
X019763Y042753D01*
X019763Y042891D01*
X019511Y043143D01*
X019373Y043143D01*
X019373Y042753D01*
X019373Y042845D02*
X019293Y042845D01*
X019293Y042943D02*
X019373Y042943D01*
X019373Y043042D02*
X019293Y043042D01*
X019293Y043140D02*
X019373Y043140D01*
X019514Y043140D02*
X020152Y043140D01*
X020147Y043263D02*
X020520Y043263D01*
X020783Y043527D01*
X020783Y043900D01*
X020520Y044163D01*
X020147Y044163D01*
X019883Y043900D01*
X019883Y043527D01*
X020147Y043263D01*
X020073Y043337D02*
X019594Y043337D01*
X019692Y043436D02*
X019974Y043436D01*
X019883Y043534D02*
X019783Y043534D01*
X019783Y043633D02*
X019883Y043633D01*
X019883Y043731D02*
X019783Y043731D01*
X019783Y043830D02*
X019883Y043830D01*
X019912Y043928D02*
X019755Y043928D01*
X019656Y044027D02*
X020010Y044027D01*
X020109Y044125D02*
X019558Y044125D01*
X020558Y044125D02*
X021109Y044125D01*
X021147Y044163D02*
X020883Y043900D01*
X020883Y043527D01*
X021147Y043263D01*
X021520Y043263D01*
X021783Y043527D01*
X021783Y043900D01*
X021520Y044163D01*
X021147Y044163D01*
X021010Y044027D02*
X020656Y044027D01*
X020755Y043928D02*
X020912Y043928D01*
X020883Y043830D02*
X020783Y043830D01*
X020783Y043731D02*
X020883Y043731D01*
X020883Y043633D02*
X020783Y043633D01*
X020783Y043534D02*
X020883Y043534D01*
X020974Y043436D02*
X020692Y043436D01*
X020594Y043337D02*
X021073Y043337D01*
X021152Y043140D02*
X020514Y043140D01*
X020613Y043042D02*
X021054Y043042D01*
X020955Y042943D02*
X020711Y042943D01*
X020763Y042845D02*
X020903Y042845D01*
X020903Y042648D02*
X020763Y042648D01*
X020763Y042549D02*
X020903Y042549D01*
X020988Y042451D02*
X020679Y042451D01*
X020580Y042352D02*
X021086Y042352D01*
X021293Y042352D02*
X021373Y042352D01*
X021373Y042451D02*
X021293Y042451D01*
X021293Y042549D02*
X021373Y042549D01*
X021373Y042648D02*
X021293Y042648D01*
X021293Y042845D02*
X021373Y042845D01*
X021373Y042943D02*
X021293Y042943D01*
X021293Y043042D02*
X021373Y043042D01*
X021373Y043140D02*
X021293Y043140D01*
X021514Y043140D02*
X022152Y043140D01*
X022147Y043263D02*
X022520Y043263D01*
X022783Y043527D01*
X022783Y043900D01*
X022520Y044163D01*
X022147Y044163D01*
X021883Y043900D01*
X021883Y043527D01*
X022147Y043263D01*
X022073Y043337D02*
X021594Y043337D01*
X021692Y043436D02*
X021974Y043436D01*
X021883Y043534D02*
X021783Y043534D01*
X021783Y043633D02*
X021883Y043633D01*
X021883Y043731D02*
X021783Y043731D01*
X021783Y043830D02*
X021883Y043830D01*
X021912Y043928D02*
X021755Y043928D01*
X021656Y044027D02*
X022010Y044027D01*
X022109Y044125D02*
X021558Y044125D01*
X022558Y044125D02*
X023109Y044125D01*
X023147Y044163D02*
X022883Y043900D01*
X022883Y043527D01*
X023147Y043263D01*
X023520Y043263D01*
X023783Y043527D01*
X023783Y043900D01*
X023520Y044163D01*
X023147Y044163D01*
X023010Y044027D02*
X022656Y044027D01*
X022755Y043928D02*
X022912Y043928D01*
X022883Y043830D02*
X022783Y043830D01*
X022783Y043731D02*
X022883Y043731D01*
X022883Y043633D02*
X022783Y043633D01*
X022783Y043534D02*
X022883Y043534D01*
X022974Y043436D02*
X022692Y043436D01*
X022594Y043337D02*
X023073Y043337D01*
X023152Y043140D02*
X022514Y043140D01*
X022613Y043042D02*
X023054Y043042D01*
X022955Y042943D02*
X022711Y042943D01*
X022763Y042845D02*
X022903Y042845D01*
X022903Y042648D02*
X022763Y042648D01*
X022763Y042549D02*
X022903Y042549D01*
X022988Y042451D02*
X022679Y042451D01*
X022580Y042352D02*
X023086Y042352D01*
X023293Y042352D02*
X023373Y042352D01*
X023373Y042451D02*
X023293Y042451D01*
X023293Y042549D02*
X023373Y042549D01*
X023373Y042648D02*
X023293Y042648D01*
X023293Y042845D02*
X023373Y042845D01*
X023373Y042943D02*
X023293Y042943D01*
X023293Y043042D02*
X023373Y043042D01*
X023373Y043140D02*
X023293Y043140D01*
X023514Y043140D02*
X024152Y043140D01*
X024147Y043263D02*
X024520Y043263D01*
X024783Y043527D01*
X024783Y043900D01*
X024520Y044163D01*
X024147Y044163D01*
X023883Y043900D01*
X023883Y043527D01*
X024147Y043263D01*
X024073Y043337D02*
X023594Y043337D01*
X023692Y043436D02*
X023974Y043436D01*
X023883Y043534D02*
X023783Y043534D01*
X023783Y043633D02*
X023883Y043633D01*
X023883Y043731D02*
X023783Y043731D01*
X023783Y043830D02*
X023883Y043830D01*
X023912Y043928D02*
X023755Y043928D01*
X023656Y044027D02*
X024010Y044027D01*
X024109Y044125D02*
X023558Y044125D01*
X024558Y044125D02*
X025109Y044125D01*
X025147Y044163D02*
X024883Y043900D01*
X024883Y043527D01*
X025147Y043263D01*
X025520Y043263D01*
X025783Y043527D01*
X025783Y043900D01*
X025520Y044163D01*
X025147Y044163D01*
X025010Y044027D02*
X024656Y044027D01*
X024755Y043928D02*
X024912Y043928D01*
X024883Y043830D02*
X024783Y043830D01*
X024783Y043731D02*
X024883Y043731D01*
X024883Y043633D02*
X024783Y043633D01*
X024783Y043534D02*
X024883Y043534D01*
X024974Y043436D02*
X024692Y043436D01*
X024594Y043337D02*
X025073Y043337D01*
X025152Y043140D02*
X024514Y043140D01*
X024613Y043042D02*
X025054Y043042D01*
X024955Y042943D02*
X024711Y042943D01*
X024763Y042845D02*
X024903Y042845D01*
X024903Y042648D02*
X024763Y042648D01*
X024763Y042549D02*
X024903Y042549D01*
X024988Y042451D02*
X024679Y042451D01*
X024580Y042352D02*
X025086Y042352D01*
X025293Y042352D02*
X025373Y042352D01*
X025373Y042451D02*
X025293Y042451D01*
X025293Y042549D02*
X025373Y042549D01*
X025373Y042648D02*
X025293Y042648D01*
X025293Y042845D02*
X025373Y042845D01*
X025373Y042943D02*
X025293Y042943D01*
X025293Y043042D02*
X025373Y043042D01*
X025373Y043140D02*
X025293Y043140D01*
X025514Y043140D02*
X026152Y043140D01*
X026147Y043263D02*
X026520Y043263D01*
X026783Y043527D01*
X026783Y043900D01*
X026520Y044163D01*
X026147Y044163D01*
X025883Y043900D01*
X025883Y043527D01*
X026147Y043263D01*
X026073Y043337D02*
X025594Y043337D01*
X025692Y043436D02*
X025974Y043436D01*
X025883Y043534D02*
X025783Y043534D01*
X025783Y043633D02*
X025883Y043633D01*
X025883Y043731D02*
X025783Y043731D01*
X025783Y043830D02*
X025883Y043830D01*
X025912Y043928D02*
X025755Y043928D01*
X025656Y044027D02*
X026010Y044027D01*
X026109Y044125D02*
X025558Y044125D01*
X026558Y044125D02*
X027109Y044125D01*
X027147Y044163D02*
X026883Y043900D01*
X026883Y043527D01*
X027147Y043263D01*
X027520Y043263D01*
X027783Y043527D01*
X027783Y043900D01*
X027520Y044163D01*
X027147Y044163D01*
X027010Y044027D02*
X026656Y044027D01*
X026755Y043928D02*
X026912Y043928D01*
X026883Y043830D02*
X026783Y043830D01*
X026783Y043731D02*
X026883Y043731D01*
X026883Y043633D02*
X026783Y043633D01*
X026783Y043534D02*
X026883Y043534D01*
X026974Y043436D02*
X026692Y043436D01*
X026594Y043337D02*
X027073Y043337D01*
X027152Y043140D02*
X026514Y043140D01*
X026613Y043042D02*
X027054Y043042D01*
X026955Y042943D02*
X026711Y042943D01*
X026763Y042845D02*
X026903Y042845D01*
X026903Y042648D02*
X026763Y042648D01*
X026763Y042549D02*
X026903Y042549D01*
X026988Y042451D02*
X026679Y042451D01*
X026580Y042352D02*
X027086Y042352D01*
X027293Y042352D02*
X027373Y042352D01*
X027373Y042451D02*
X027293Y042451D01*
X027293Y042549D02*
X027373Y042549D01*
X027373Y042648D02*
X027293Y042648D01*
X027293Y042845D02*
X027373Y042845D01*
X027373Y042943D02*
X027293Y042943D01*
X027293Y043042D02*
X027373Y043042D01*
X027373Y043140D02*
X027293Y043140D01*
X027514Y043140D02*
X028152Y043140D01*
X028155Y043143D02*
X027903Y042891D01*
X027903Y042753D01*
X028293Y042753D01*
X028293Y043143D01*
X028155Y043143D01*
X028147Y043263D02*
X028520Y043263D01*
X028783Y043527D01*
X028783Y043900D01*
X028520Y044163D01*
X028147Y044163D01*
X027883Y043900D01*
X027883Y043527D01*
X028147Y043263D01*
X028073Y043337D02*
X027594Y043337D01*
X027692Y043436D02*
X027974Y043436D01*
X027883Y043534D02*
X027783Y043534D01*
X027783Y043633D02*
X027883Y043633D01*
X027883Y043731D02*
X027783Y043731D01*
X027783Y043830D02*
X027883Y043830D01*
X027912Y043928D02*
X027755Y043928D01*
X027656Y044027D02*
X028010Y044027D01*
X028109Y044125D02*
X027558Y044125D01*
X028558Y044125D02*
X029109Y044125D01*
X029010Y044027D02*
X028656Y044027D01*
X028755Y043928D02*
X028912Y043928D01*
X028883Y043830D02*
X028783Y043830D01*
X028783Y043731D02*
X028883Y043731D01*
X028883Y043633D02*
X028783Y043633D01*
X028783Y043534D02*
X028883Y043534D01*
X028974Y043436D02*
X028692Y043436D01*
X028594Y043337D02*
X029073Y043337D01*
X029155Y043143D02*
X028903Y042891D01*
X028903Y042753D01*
X029293Y042753D01*
X029293Y043143D01*
X029155Y043143D01*
X029152Y043140D02*
X028514Y043140D01*
X028613Y043042D02*
X029054Y043042D01*
X028955Y042943D02*
X028711Y042943D01*
X028763Y042845D02*
X028903Y042845D01*
X028903Y042673D02*
X028903Y042535D01*
X029155Y042283D01*
X029293Y042283D01*
X029293Y042673D01*
X028903Y042673D01*
X028903Y042648D02*
X028763Y042648D01*
X028763Y042549D02*
X028903Y042549D01*
X028988Y042451D02*
X028679Y042451D01*
X028580Y042352D02*
X029086Y042352D01*
X029293Y042352D02*
X029373Y042352D01*
X029373Y042451D02*
X029293Y042451D01*
X029293Y042549D02*
X029373Y042549D01*
X029373Y042648D02*
X029293Y042648D01*
X029293Y042746D02*
X028373Y042746D01*
X028373Y042845D02*
X028293Y042845D01*
X028293Y042943D02*
X028373Y042943D01*
X028373Y043042D02*
X028293Y043042D01*
X028293Y043140D02*
X028373Y043140D01*
X028054Y043042D02*
X027613Y043042D01*
X027711Y042943D02*
X027955Y042943D01*
X027903Y042845D02*
X027763Y042845D01*
X027763Y042648D02*
X027903Y042648D01*
X027903Y042549D02*
X027763Y042549D01*
X027679Y042451D02*
X027988Y042451D01*
X028086Y042352D02*
X027580Y042352D01*
X028629Y041269D02*
X020289Y041269D01*
X020190Y041367D02*
X029613Y041367D01*
X029613Y041269D02*
X029037Y041269D01*
X029120Y041170D02*
X029613Y041170D01*
X029613Y041072D02*
X029158Y041072D01*
X029158Y040973D02*
X029613Y040973D01*
X029613Y040875D02*
X029431Y040875D01*
X029518Y040776D02*
X029613Y040776D01*
X029613Y040678D02*
X029558Y040678D01*
X029558Y040579D02*
X029613Y040579D01*
X029613Y040481D02*
X029530Y040481D01*
X029462Y040382D02*
X029613Y040382D01*
X029613Y040284D02*
X025115Y040284D01*
X025213Y040382D02*
X029005Y040382D01*
X029233Y040613D02*
X025133Y040613D01*
X024633Y040113D01*
X024633Y039213D01*
X024483Y039063D01*
X024483Y038213D01*
X024133Y037863D01*
X024133Y037013D01*
X023833Y037213D02*
X023833Y038713D01*
X024333Y039213D01*
X024333Y040213D01*
X025133Y041013D01*
X028833Y041013D01*
X029613Y041466D02*
X020092Y041466D01*
X019993Y041564D02*
X029613Y041564D01*
X029613Y041663D02*
X019895Y041663D01*
X020474Y041663D01*
X020200Y041564D02*
X019993Y041564D01*
X019796Y041761D02*
X029613Y041761D01*
X029613Y041860D02*
X019698Y041860D01*
X023280Y041860D01*
X023580Y042352D02*
X024086Y042352D01*
X023988Y042451D02*
X023679Y042451D01*
X023763Y042549D02*
X023903Y042549D01*
X023903Y042648D02*
X023763Y042648D01*
X023763Y042845D02*
X023903Y042845D01*
X023955Y042943D02*
X023711Y042943D01*
X023613Y043042D02*
X024054Y043042D01*
X024293Y043042D02*
X024373Y043042D01*
X024373Y043140D02*
X024293Y043140D01*
X024293Y042943D02*
X024373Y042943D01*
X024373Y042845D02*
X024293Y042845D01*
X024293Y042648D02*
X024373Y042648D01*
X024373Y042549D02*
X024293Y042549D01*
X024293Y042451D02*
X024373Y042451D01*
X024373Y042352D02*
X024293Y042352D01*
X025580Y042352D02*
X026086Y042352D01*
X025988Y042451D02*
X025679Y042451D01*
X025763Y042549D02*
X025903Y042549D01*
X025903Y042648D02*
X025763Y042648D01*
X025763Y042845D02*
X025903Y042845D01*
X025955Y042943D02*
X025711Y042943D01*
X025613Y043042D02*
X026054Y043042D01*
X026293Y043042D02*
X026373Y043042D01*
X026373Y043140D02*
X026293Y043140D01*
X026293Y042943D02*
X026373Y042943D01*
X026373Y042845D02*
X026293Y042845D01*
X026293Y042648D02*
X026373Y042648D01*
X026373Y042549D02*
X026293Y042549D01*
X026293Y042451D02*
X026373Y042451D01*
X026373Y042352D02*
X026293Y042352D01*
X024979Y041170D02*
X020387Y041170D01*
X020486Y041072D02*
X024881Y041072D01*
X024782Y040973D02*
X020584Y040973D01*
X020683Y040875D02*
X024684Y040875D01*
X024585Y040776D02*
X020781Y040776D01*
X020880Y040678D02*
X024487Y040678D01*
X024388Y040579D02*
X020978Y040579D01*
X021077Y040481D02*
X024290Y040481D01*
X024191Y040382D02*
X021175Y040382D01*
X021274Y040284D02*
X024113Y040284D01*
X024113Y040185D02*
X021372Y040185D01*
X021471Y040087D02*
X024113Y040087D01*
X024113Y039988D02*
X023345Y039988D01*
X023313Y040002D02*
X023174Y040002D01*
X023046Y039949D01*
X022948Y039851D01*
X022895Y039723D01*
X022895Y039584D01*
X022948Y039456D01*
X023046Y039358D01*
X023174Y039305D01*
X023313Y039305D01*
X023441Y039358D01*
X023539Y039456D01*
X023592Y039584D01*
X023592Y039723D01*
X023539Y039851D01*
X023441Y039949D01*
X023313Y040002D01*
X023142Y039988D02*
X021569Y039988D01*
X021668Y039890D02*
X022987Y039890D01*
X022923Y039791D02*
X021766Y039791D01*
X021865Y039693D02*
X022895Y039693D01*
X022895Y039594D02*
X021963Y039594D01*
X022062Y039496D02*
X022931Y039496D01*
X023007Y039397D02*
X022160Y039397D01*
X022259Y039299D02*
X023648Y039299D01*
X023601Y039397D02*
X023480Y039397D01*
X023555Y039496D02*
X023588Y039496D01*
X023592Y039594D02*
X023603Y039594D01*
X023592Y039693D02*
X023653Y039693D01*
X023563Y039791D02*
X023784Y039791D01*
X024043Y039791D02*
X024113Y039791D01*
X024113Y039890D02*
X023500Y039890D01*
X023771Y039200D02*
X022357Y039200D01*
X022456Y039102D02*
X023911Y039102D01*
X023812Y039003D02*
X022553Y039003D01*
X022553Y038905D02*
X023714Y038905D01*
X023615Y038806D02*
X022553Y038806D01*
X022553Y038708D02*
X023613Y038708D01*
X023613Y038609D02*
X022553Y038609D01*
X022553Y038511D02*
X023613Y038511D01*
X023613Y038412D02*
X022553Y038412D01*
X022553Y038314D02*
X023613Y038314D01*
X023613Y038215D02*
X022553Y038215D01*
X022553Y038117D02*
X023613Y038117D01*
X023613Y038018D02*
X022553Y038018D01*
X022553Y037920D02*
X023613Y037920D01*
X023613Y037821D02*
X022553Y037821D01*
X022553Y037723D02*
X023613Y037723D01*
X023613Y037624D02*
X022553Y037624D01*
X022553Y037526D02*
X023613Y037526D01*
X023613Y037427D02*
X022553Y037427D01*
X022553Y037329D02*
X023613Y037329D01*
X023449Y037230D02*
X022553Y037230D01*
X022553Y037132D02*
X023292Y037132D01*
X023231Y037033D02*
X022624Y037033D01*
X022723Y036935D02*
X023208Y036935D01*
X023213Y036836D02*
X022821Y036836D01*
X023533Y036913D02*
X023833Y037213D01*
X024433Y037413D02*
X024433Y037513D01*
X025133Y038213D01*
X025133Y039013D01*
X025333Y039213D01*
X025333Y039513D01*
X025633Y039813D01*
X029533Y039813D01*
X029496Y040087D02*
X024918Y040087D01*
X024853Y039988D02*
X025497Y039988D01*
X025399Y039890D02*
X024853Y039890D01*
X024853Y039791D02*
X025300Y039791D01*
X025016Y040185D02*
X029594Y040185D01*
X030613Y039496D02*
X027351Y039496D01*
X027358Y039397D02*
X030613Y039397D01*
X030613Y039299D02*
X027338Y039299D01*
X027280Y039200D02*
X030613Y039200D01*
X030613Y039102D02*
X027253Y039102D01*
X027253Y039003D02*
X030613Y039003D01*
X030613Y038905D02*
X027253Y038905D01*
X027253Y038806D02*
X030613Y038806D01*
X028192Y038708D02*
X027253Y038708D01*
X027253Y038609D02*
X027918Y038609D01*
X027820Y038511D02*
X027253Y038511D01*
X027253Y038412D02*
X027721Y038412D01*
X027623Y038314D02*
X027253Y038314D01*
X027253Y038215D02*
X027524Y038215D01*
X027426Y038117D02*
X027253Y038117D01*
X027249Y038018D02*
X027327Y038018D01*
X027229Y037920D02*
X027151Y037920D01*
X027130Y037821D02*
X027052Y037821D01*
X027032Y037723D02*
X026954Y037723D01*
X026933Y037624D02*
X026855Y037624D01*
X026835Y037526D02*
X026757Y037526D01*
X026736Y037427D02*
X026658Y037427D01*
X026638Y037329D02*
X026560Y037329D01*
X026539Y037230D02*
X026461Y037230D01*
X026441Y037132D02*
X026363Y037132D01*
X026342Y037033D02*
X026264Y037033D01*
X026244Y036935D02*
X025971Y036935D01*
X026133Y037213D02*
X027033Y038113D01*
X027033Y039413D01*
X026716Y039496D02*
X026700Y039496D01*
X026714Y039490D02*
X026598Y039538D01*
X026469Y039538D01*
X026349Y039489D01*
X026258Y039397D01*
X026008Y039397D01*
X026008Y039428D02*
X025959Y039547D01*
X025913Y039593D01*
X026756Y039593D01*
X026714Y039490D01*
X026533Y039213D02*
X025863Y038543D01*
X025853Y037533D01*
X025528Y037526D02*
X025128Y037526D01*
X025098Y037538D02*
X024969Y037538D01*
X024849Y037489D01*
X024758Y037398D01*
X024758Y037478D01*
X024744Y037513D01*
X025224Y037993D01*
X025353Y038122D01*
X025353Y038922D01*
X025424Y038993D01*
X025513Y039082D01*
X025619Y039038D01*
X025748Y039038D01*
X025867Y039088D01*
X025959Y039179D01*
X026008Y039299D01*
X026217Y039299D01*
X026208Y039278D02*
X026208Y039199D01*
X025709Y038700D01*
X025644Y038637D01*
X025644Y038635D01*
X025643Y038634D01*
X025643Y038544D01*
X025636Y037775D01*
X025578Y037717D01*
X025528Y037598D01*
X025528Y037469D01*
X025543Y037433D01*
X025273Y037433D01*
X025217Y037489D01*
X025098Y037538D01*
X024939Y037526D02*
X024757Y037526D01*
X024758Y037427D02*
X024788Y037427D01*
X024855Y037624D02*
X025539Y037624D01*
X025583Y037723D02*
X024954Y037723D01*
X025052Y037821D02*
X025636Y037821D01*
X025637Y037920D02*
X025151Y037920D01*
X025249Y038018D02*
X025638Y038018D01*
X025639Y038117D02*
X025348Y038117D01*
X025353Y038215D02*
X025640Y038215D01*
X025641Y038314D02*
X025353Y038314D01*
X025353Y038412D02*
X025642Y038412D01*
X025643Y038511D02*
X025353Y038511D01*
X025353Y038609D02*
X025643Y038609D01*
X025717Y038708D02*
X025353Y038708D01*
X025353Y038806D02*
X025815Y038806D01*
X025914Y038905D02*
X025353Y038905D01*
X025424Y038993D02*
X025424Y038993D01*
X025434Y039003D02*
X026012Y039003D01*
X026111Y039102D02*
X025881Y039102D01*
X025968Y039200D02*
X026208Y039200D01*
X026208Y039278D02*
X026258Y039397D01*
X026366Y039496D02*
X025980Y039496D01*
X026008Y039428D02*
X026008Y039299D01*
X026437Y038806D02*
X026813Y038806D01*
X026813Y038708D02*
X026339Y038708D01*
X026240Y038609D02*
X026813Y038609D01*
X026813Y038511D02*
X026142Y038511D01*
X026082Y038451D02*
X026519Y038888D01*
X026598Y038888D01*
X026717Y038938D01*
X026809Y039029D01*
X026813Y039040D01*
X026813Y038204D01*
X026178Y037569D01*
X026178Y037598D01*
X026129Y037717D01*
X026076Y037771D01*
X026082Y038451D01*
X026082Y038412D02*
X026813Y038412D01*
X026813Y038314D02*
X026081Y038314D01*
X026080Y038215D02*
X026813Y038215D01*
X026726Y038117D02*
X026079Y038117D01*
X026078Y038018D02*
X026627Y038018D01*
X026529Y037920D02*
X026077Y037920D01*
X026076Y037821D02*
X026430Y037821D01*
X026332Y037723D02*
X026123Y037723D01*
X026167Y037624D02*
X026233Y037624D01*
X026133Y037213D02*
X025033Y037213D01*
X024430Y037821D02*
X024402Y037821D01*
X024353Y037772D02*
X024574Y037993D01*
X024703Y038122D01*
X024703Y038972D01*
X024724Y038993D01*
X024853Y039122D01*
X024853Y039184D01*
X024859Y039178D01*
X024949Y039140D01*
X024913Y039104D01*
X024913Y038304D01*
X024353Y037744D01*
X024353Y037772D01*
X024501Y037920D02*
X024529Y037920D01*
X024599Y038018D02*
X024627Y038018D01*
X024698Y038117D02*
X024726Y038117D01*
X024703Y038215D02*
X024824Y038215D01*
X024913Y038314D02*
X024703Y038314D01*
X024703Y038412D02*
X024913Y038412D01*
X024913Y038511D02*
X024703Y038511D01*
X024703Y038609D02*
X024913Y038609D01*
X024913Y038708D02*
X024703Y038708D01*
X024703Y038806D02*
X024913Y038806D01*
X024913Y038905D02*
X024703Y038905D01*
X024734Y039003D02*
X024913Y039003D01*
X024913Y039102D02*
X024833Y039102D01*
X024263Y038832D02*
X024263Y038304D01*
X024053Y038094D01*
X024053Y038622D01*
X024263Y038832D01*
X024263Y038806D02*
X024237Y038806D01*
X024263Y038708D02*
X024139Y038708D01*
X024053Y038609D02*
X024263Y038609D01*
X024263Y038511D02*
X024053Y038511D01*
X024053Y038412D02*
X024263Y038412D01*
X024263Y038314D02*
X024053Y038314D01*
X024053Y038215D02*
X024174Y038215D01*
X024076Y038117D02*
X024053Y038117D01*
X021993Y038117D02*
X019530Y038117D01*
X019522Y038125D02*
X019625Y038022D01*
X019681Y037887D01*
X019681Y037740D01*
X019625Y037605D01*
X019522Y037501D01*
X019387Y037445D01*
X019240Y037445D01*
X019105Y037501D01*
X019001Y037605D01*
X018945Y037740D01*
X018945Y037887D01*
X019001Y038022D01*
X019105Y038125D01*
X019240Y038181D01*
X019387Y038181D01*
X019522Y038125D01*
X019627Y038018D02*
X021993Y038018D01*
X021993Y037920D02*
X019668Y037920D01*
X019681Y037821D02*
X020442Y037821D01*
X020398Y037777D02*
X020348Y037658D01*
X020348Y037529D01*
X020398Y037409D01*
X020489Y037318D01*
X020609Y037268D01*
X020738Y037268D01*
X020857Y037318D01*
X020949Y037409D01*
X020998Y037529D01*
X020998Y037658D01*
X020949Y037777D01*
X020857Y037869D01*
X020738Y037918D01*
X020609Y037918D01*
X020489Y037869D01*
X020398Y037777D01*
X020375Y037723D02*
X019674Y037723D01*
X019633Y037624D02*
X020348Y037624D01*
X020350Y037526D02*
X019546Y037526D01*
X019080Y037526D02*
X010083Y037526D01*
X010083Y037624D02*
X018993Y037624D01*
X018952Y037723D02*
X010083Y037723D01*
X010083Y037821D02*
X018945Y037821D01*
X018959Y037920D02*
X010083Y037920D01*
X010083Y038018D02*
X019000Y038018D01*
X019096Y038117D02*
X016846Y038117D01*
X016793Y038095D02*
X016921Y038148D01*
X017019Y038246D01*
X017072Y038374D01*
X017072Y038513D01*
X017019Y038641D01*
X016921Y038739D01*
X016793Y038792D01*
X016654Y038792D01*
X016526Y038739D01*
X016428Y038641D01*
X016375Y038513D01*
X016375Y038374D01*
X016428Y038246D01*
X016526Y038148D01*
X016654Y038095D01*
X016793Y038095D01*
X016601Y038117D02*
X010083Y038117D01*
X010083Y038215D02*
X016459Y038215D01*
X016400Y038314D02*
X010083Y038314D01*
X010083Y038412D02*
X016375Y038412D01*
X016375Y038511D02*
X010083Y038511D01*
X010083Y038609D02*
X016415Y038609D01*
X016495Y038708D02*
X010083Y038708D01*
X010083Y038806D02*
X021067Y038806D01*
X021079Y038819D02*
X020988Y038727D01*
X020938Y038608D01*
X020938Y038479D01*
X020988Y038359D01*
X021079Y038268D01*
X021199Y038218D01*
X021328Y038218D01*
X021447Y038268D01*
X021539Y038359D01*
X021588Y038479D01*
X021588Y038608D01*
X021539Y038727D01*
X021447Y038819D01*
X021328Y038868D01*
X021199Y038868D01*
X021079Y038819D01*
X020980Y038708D02*
X016952Y038708D01*
X017032Y038609D02*
X020939Y038609D01*
X020938Y038511D02*
X017072Y038511D01*
X017072Y038412D02*
X020966Y038412D01*
X021033Y038314D02*
X017047Y038314D01*
X016988Y038215D02*
X021993Y038215D01*
X021993Y038314D02*
X021493Y038314D01*
X021561Y038412D02*
X021993Y038412D01*
X021993Y038511D02*
X021588Y038511D01*
X021588Y038609D02*
X021993Y038609D01*
X021993Y038708D02*
X021547Y038708D01*
X021460Y038806D02*
X021993Y038806D01*
X021993Y038905D02*
X010083Y038905D01*
X010083Y039003D02*
X021932Y039003D01*
X021760Y039102D02*
X010083Y039102D01*
X010083Y039200D02*
X021549Y039200D01*
X021338Y039299D02*
X010083Y039299D01*
X010083Y039397D02*
X021126Y039397D01*
X020905Y037821D02*
X021993Y037821D01*
X021993Y037723D02*
X020971Y037723D01*
X020998Y037624D02*
X021993Y037624D01*
X021993Y037526D02*
X020997Y037526D01*
X020956Y037427D02*
X021993Y037427D01*
X021993Y037329D02*
X020868Y037329D01*
X020478Y037329D02*
X010083Y037329D01*
X010083Y037427D02*
X020390Y037427D01*
X019311Y036245D02*
X021585Y036245D01*
X021478Y036147D02*
X021428Y036028D01*
X021428Y035950D02*
X019366Y035950D01*
X019321Y035851D02*
X021448Y035851D01*
X021504Y035753D02*
X019201Y035753D01*
X018905Y035753D02*
X010083Y035753D01*
X010083Y035851D02*
X018786Y035851D01*
X018740Y035950D02*
X010083Y035950D01*
X010083Y036048D02*
X018728Y036048D01*
X018744Y036147D02*
X010083Y036147D01*
X010083Y036245D02*
X018796Y036245D01*
X018930Y036344D02*
X010083Y036344D01*
X010083Y036442D02*
X021993Y036442D01*
X021993Y036344D02*
X019177Y036344D01*
X019198Y035260D02*
X010083Y035260D01*
X010083Y035162D02*
X019110Y035162D01*
X019069Y035063D02*
X010083Y035063D01*
X010083Y034965D02*
X019065Y034965D01*
X019085Y034866D02*
X010083Y034866D01*
X010083Y034768D02*
X019136Y034768D01*
X017841Y032229D02*
X017713Y032282D01*
X017574Y032282D01*
X017446Y032229D01*
X017348Y032131D01*
X017295Y032003D01*
X017295Y031864D01*
X017348Y031736D01*
X017446Y031638D01*
X017574Y031585D01*
X017713Y031585D01*
X017841Y031638D01*
X017939Y031736D01*
X017992Y031864D01*
X017992Y032003D01*
X017939Y032131D01*
X017841Y032229D01*
X017863Y032207D02*
X022533Y032207D01*
X022435Y032305D02*
X010083Y032305D01*
X010083Y032207D02*
X017424Y032207D01*
X017339Y032108D02*
X010083Y032108D01*
X010083Y032010D02*
X017298Y032010D01*
X017295Y031911D02*
X010083Y031911D01*
X010083Y031813D02*
X017316Y031813D01*
X017370Y031714D02*
X010083Y031714D01*
X010083Y031616D02*
X017499Y031616D01*
X017787Y031616D02*
X022923Y031616D01*
X022923Y031714D02*
X017917Y031714D01*
X017971Y031813D02*
X022923Y031813D01*
X022829Y031911D02*
X017992Y031911D01*
X017989Y032010D02*
X022730Y032010D01*
X022632Y032108D02*
X017948Y032108D01*
X022029Y036147D02*
X021937Y036239D01*
X021993Y036541D02*
X010083Y036541D01*
X010083Y036639D02*
X021993Y036639D01*
X021993Y036738D02*
X010083Y036738D01*
X010083Y036836D02*
X021993Y036836D01*
X021993Y036935D02*
X010083Y036935D01*
X010083Y037033D02*
X021993Y037033D01*
X021993Y037132D02*
X010083Y037132D01*
X010083Y037230D02*
X021993Y037230D01*
X022923Y033684D02*
X010083Y033684D01*
X010083Y033586D02*
X022923Y033586D01*
X022923Y033487D02*
X010083Y033487D01*
X010083Y033389D02*
X022923Y033389D01*
X022923Y033290D02*
X010083Y033290D01*
X010083Y033192D02*
X022923Y033192D01*
X022724Y033093D02*
X010083Y033093D01*
X010083Y032995D02*
X022460Y032995D01*
X022606Y032995D02*
X022644Y032995D01*
X022297Y032896D02*
X010083Y032896D01*
X010083Y032798D02*
X022233Y032798D01*
X022208Y032699D02*
X010083Y032699D01*
X010083Y032601D02*
X022212Y032601D01*
X022252Y032502D02*
X010083Y032502D01*
X010083Y032404D02*
X022343Y032404D01*
X023163Y033093D02*
X023540Y033093D01*
X023437Y033192D02*
X023163Y033192D01*
X023163Y033290D02*
X023221Y033290D01*
X023222Y032995D02*
X023932Y032995D01*
X023887Y033093D02*
X023889Y033093D01*
X022923Y031517D02*
X010083Y031517D01*
X010083Y031419D02*
X022923Y031419D01*
X022923Y031320D02*
X010083Y031320D01*
X010083Y031222D02*
X022923Y031222D01*
X022923Y031123D02*
X010083Y031123D01*
X010083Y031025D02*
X022923Y031025D01*
X022923Y030926D02*
X010083Y030926D01*
X010083Y030828D02*
X022923Y030828D01*
X022923Y030729D02*
X010083Y030729D01*
X010083Y030631D02*
X022923Y030631D01*
X022923Y030532D02*
X010083Y030532D01*
X010083Y030434D02*
X022923Y030434D01*
X022923Y030335D02*
X010083Y030335D01*
X010083Y030237D02*
X022923Y030237D01*
X022923Y030138D02*
X010083Y030138D01*
X010083Y030040D02*
X022923Y030040D01*
X023163Y030335D02*
X034133Y030335D01*
X031583Y029941D02*
X010083Y029941D01*
X010083Y029843D02*
X031583Y029843D01*
X031583Y029744D02*
X010083Y029744D01*
X010083Y029646D02*
X031583Y029646D01*
X031583Y029547D02*
X010083Y029547D01*
X010083Y029449D02*
X031583Y029449D01*
X031583Y029350D02*
X010083Y029350D01*
X010083Y029252D02*
X031583Y029252D01*
X031584Y029153D02*
X010083Y029153D01*
X010083Y029055D02*
X028482Y029055D01*
X028410Y028956D02*
X010083Y028956D01*
X010083Y028858D02*
X028375Y028858D01*
X028375Y028759D02*
X010083Y028759D01*
X010083Y028661D02*
X028405Y028661D01*
X028472Y028562D02*
X010083Y028562D01*
X023163Y030631D02*
X023178Y030631D01*
X026626Y033389D02*
X026698Y033389D01*
X026724Y033487D02*
X027820Y033487D01*
X027805Y033586D02*
X026823Y033586D01*
X026921Y033684D02*
X027814Y033684D01*
X027855Y033783D02*
X027020Y033783D01*
X027118Y033881D02*
X027949Y033881D01*
X028358Y033881D02*
X038583Y033881D01*
X038583Y033783D02*
X028452Y033783D01*
X028493Y033684D02*
X038583Y033684D01*
X038583Y033586D02*
X032311Y033586D01*
X032282Y033615D02*
X032147Y033671D01*
X032000Y033671D01*
X031865Y033615D01*
X031761Y033512D01*
X031705Y033377D01*
X031705Y033230D01*
X031761Y033095D01*
X031865Y032991D01*
X032000Y032935D01*
X032147Y032935D01*
X032282Y032991D01*
X032385Y033095D01*
X032441Y033230D01*
X032441Y033377D01*
X032385Y033512D01*
X032282Y033615D01*
X032396Y033487D02*
X038583Y033487D01*
X038583Y033389D02*
X032436Y033389D01*
X032441Y033290D02*
X038583Y033290D01*
X038583Y033192D02*
X032426Y033192D01*
X032384Y033093D02*
X038583Y033093D01*
X038583Y032995D02*
X032285Y032995D01*
X031861Y032995D02*
X029489Y032995D01*
X029487Y033006D02*
X029487Y033006D01*
X029444Y033093D02*
X031763Y033093D01*
X031721Y033192D02*
X029388Y033192D01*
X029277Y033290D02*
X031705Y033290D01*
X031710Y033389D02*
X029071Y033389D01*
X029007Y033409D02*
X029007Y033409D01*
X028487Y033487D02*
X031751Y033487D01*
X031835Y033586D02*
X028502Y033586D01*
X029506Y032896D02*
X029541Y032896D01*
X029283Y032883D02*
X029290Y032847D01*
X029301Y032811D01*
X029316Y032777D01*
X029334Y032745D01*
X029355Y032715D01*
X029379Y032687D01*
X029405Y032661D01*
X029435Y032639D01*
X029466Y032619D01*
X029499Y032603D01*
X029534Y032590D01*
X029570Y032580D01*
X029606Y032575D01*
X029643Y032573D01*
X029858Y032573D01*
X029868Y032583D01*
X030243Y032601D02*
X038583Y032601D01*
X038583Y032699D02*
X030243Y032699D01*
X030243Y032798D02*
X038583Y032798D01*
X038583Y032896D02*
X030196Y032896D01*
X030243Y032502D02*
X038583Y032502D01*
X038583Y033980D02*
X027217Y033980D01*
X027315Y034078D02*
X038583Y034078D01*
X038583Y034177D02*
X027414Y034177D01*
X027512Y034275D02*
X038583Y034275D01*
X038583Y034374D02*
X029719Y034374D01*
X029788Y034472D02*
X038583Y034472D01*
X038583Y034571D02*
X029788Y034571D01*
X029788Y034669D02*
X038583Y034669D01*
X038583Y034768D02*
X029788Y034768D01*
X029788Y034866D02*
X038583Y034866D01*
X038583Y034965D02*
X029788Y034965D01*
X029788Y035063D02*
X038583Y035063D01*
X038583Y035162D02*
X029788Y035162D01*
X029788Y035260D02*
X038583Y035260D01*
X038583Y035359D02*
X029788Y035359D01*
X029788Y035457D02*
X038583Y035457D01*
X038583Y035556D02*
X029788Y035556D01*
X029718Y035654D02*
X038583Y035654D01*
X038583Y035950D02*
X028603Y035950D01*
X028670Y036048D02*
X038583Y036048D01*
X038583Y036147D02*
X028702Y036147D01*
X028702Y036245D02*
X038583Y036245D01*
X038583Y029941D02*
X031309Y029941D01*
X031251Y029843D02*
X038583Y029843D01*
X038583Y029744D02*
X031233Y029744D01*
X031233Y029646D02*
X038583Y029646D01*
X038583Y029547D02*
X031233Y029547D01*
X031233Y029449D02*
X038583Y029449D01*
X038583Y029350D02*
X031233Y029350D01*
X031233Y029252D02*
X038583Y029252D01*
X038583Y029153D02*
X031233Y029153D01*
X031233Y029055D02*
X038583Y029055D01*
X038583Y028956D02*
X031233Y028956D01*
X031233Y028858D02*
X038583Y028858D01*
X038583Y028759D02*
X031233Y028759D01*
X031233Y028661D02*
X038583Y028661D01*
X038583Y027577D02*
X037534Y027577D01*
X037772Y027479D02*
X038583Y027479D01*
X038583Y027380D02*
X037904Y027380D01*
X038002Y027282D02*
X038583Y027282D01*
X038583Y027183D02*
X038086Y027183D01*
X038127Y027085D02*
X038583Y027085D01*
X038583Y026986D02*
X038167Y026986D01*
X038208Y026888D02*
X038583Y026888D01*
X038583Y026789D02*
X038208Y026789D01*
X038208Y026691D02*
X038583Y026691D01*
X038583Y026592D02*
X038208Y026592D01*
X038190Y026494D02*
X038583Y026494D01*
X038583Y026395D02*
X038149Y026395D01*
X038108Y026297D02*
X038583Y026297D01*
X038583Y026198D02*
X038056Y026198D01*
X037957Y026100D02*
X038583Y026100D01*
X038583Y026001D02*
X037859Y026001D01*
X037663Y025903D02*
X038583Y025903D01*
X031600Y028562D02*
X028975Y028562D01*
X029041Y028661D02*
X031598Y028661D01*
X031595Y028759D02*
X029072Y028759D01*
X029072Y028858D02*
X031592Y028858D01*
X031589Y028956D02*
X029037Y028956D01*
X028965Y029055D02*
X031587Y029055D01*
X029127Y034374D02*
X027611Y034374D01*
X027709Y034472D02*
X029058Y034472D01*
X029058Y034571D02*
X027808Y034571D01*
X027779Y036738D02*
X026669Y036738D01*
X026648Y036639D02*
X026570Y036639D01*
X026767Y036836D02*
X027738Y036836D01*
X027735Y036935D02*
X026866Y036935D01*
X026964Y037033D02*
X027756Y037033D01*
X027809Y037132D02*
X027063Y037132D01*
X027161Y037230D02*
X027938Y037230D01*
X028048Y038117D02*
X028194Y038117D01*
X026813Y038905D02*
X026638Y038905D01*
X026783Y039003D02*
X026813Y039003D01*
X029613Y041958D02*
X019599Y041958D01*
X019796Y041761D02*
X020749Y041761D01*
X020373Y042352D02*
X020293Y042352D01*
X020293Y042451D02*
X020373Y042451D01*
X020373Y042549D02*
X020293Y042549D01*
X020293Y042648D02*
X020373Y042648D01*
X020373Y042845D02*
X020293Y042845D01*
X020293Y042943D02*
X020373Y042943D01*
X020373Y043042D02*
X020293Y043042D01*
X020293Y043140D02*
X020373Y043140D01*
X020054Y043042D02*
X019613Y043042D01*
X019711Y042943D02*
X019955Y042943D01*
X019903Y042845D02*
X019763Y042845D01*
X019763Y042648D02*
X019903Y042648D01*
X019903Y042549D02*
X019763Y042549D01*
X019679Y042451D02*
X019988Y042451D01*
X020086Y042352D02*
X019580Y042352D01*
X019373Y042352D02*
X019293Y042352D01*
X019293Y042451D02*
X019373Y042451D01*
X019373Y042549D02*
X019293Y042549D01*
X019293Y042648D02*
X019373Y042648D01*
X019054Y043042D02*
X019053Y043042D01*
X019470Y041466D02*
X017728Y041466D01*
X017925Y041367D02*
X019568Y041367D01*
X019667Y041269D02*
X018122Y041269D01*
X021580Y042352D02*
X022086Y042352D01*
X021988Y042451D02*
X021679Y042451D01*
X021763Y042549D02*
X021903Y042549D01*
X021903Y042648D02*
X021763Y042648D01*
X021763Y042845D02*
X021903Y042845D01*
X021955Y042943D02*
X021711Y042943D01*
X021613Y043042D02*
X022054Y043042D01*
X022293Y043042D02*
X022373Y043042D01*
X022373Y043140D02*
X022293Y043140D01*
X022293Y042943D02*
X022373Y042943D01*
X022373Y042845D02*
X022293Y042845D01*
X022293Y042648D02*
X022373Y042648D01*
X022373Y042549D02*
X022293Y042549D01*
X022293Y042451D02*
X022373Y042451D01*
X022373Y042352D02*
X022293Y042352D01*
X029293Y042845D02*
X029373Y042845D01*
X029373Y042943D02*
X029293Y042943D01*
X029293Y043042D02*
X029373Y043042D01*
X029373Y043140D02*
X029293Y043140D01*
X029514Y043140D02*
X029613Y043140D01*
X029613Y043042D02*
X029613Y043042D01*
X037523Y042845D02*
X038583Y042845D01*
X038583Y042943D02*
X037761Y042943D01*
X037899Y043042D02*
X038583Y043042D01*
X038583Y043140D02*
X037998Y043140D01*
X038084Y043239D02*
X038583Y043239D01*
X038583Y043337D02*
X038125Y043337D01*
X038165Y043436D02*
X038583Y043436D01*
X038583Y043534D02*
X038206Y043534D01*
X038208Y043633D02*
X038583Y043633D01*
X038583Y043731D02*
X038208Y043731D01*
X038208Y043830D02*
X038583Y043830D01*
X038583Y043928D02*
X038191Y043928D01*
X038151Y044027D02*
X038583Y044027D01*
X038583Y044125D02*
X038110Y044125D01*
X038060Y044224D02*
X038583Y044224D01*
X038583Y044322D02*
X037962Y044322D01*
X037863Y044421D02*
X038583Y044421D01*
X038583Y044519D02*
X037674Y044519D01*
X011143Y042845D02*
X010083Y042845D01*
X010083Y042943D02*
X010906Y042943D01*
X010767Y043042D02*
X010083Y043042D01*
X010083Y043140D02*
X010669Y043140D01*
X010583Y043239D02*
X010083Y043239D01*
X010083Y043337D02*
X010542Y043337D01*
X010501Y043436D02*
X010083Y043436D01*
X010083Y043534D02*
X010460Y043534D01*
X010458Y043633D02*
X010083Y043633D01*
X010083Y043731D02*
X010458Y043731D01*
X010458Y043830D02*
X010083Y043830D01*
X010083Y043928D02*
X010475Y043928D01*
X010516Y044027D02*
X010083Y044027D01*
X010083Y044125D02*
X010557Y044125D01*
X010606Y044224D02*
X010083Y044224D01*
X010083Y044322D02*
X010705Y044322D01*
X010803Y044421D02*
X010083Y044421D01*
X010083Y044519D02*
X010993Y044519D01*
D20*
X019313Y037813D03*
X026303Y026493D03*
X032073Y033303D03*
X034113Y028043D03*
X037403Y041113D03*
X034863Y044273D03*
D21*
X029423Y035083D02*
X027712Y035083D01*
X026282Y033653D01*
X024498Y033673D01*
X023983Y033723D01*
X023543Y033723D01*
X023403Y033583D01*
X023363Y033583D01*
X023733Y033483D02*
X023973Y033503D01*
X024518Y033453D01*
X026365Y033453D01*
X027795Y034883D01*
X029423Y034883D01*
X026133Y035413D02*
X026133Y035713D01*
X023733Y033483D02*
X023713Y033373D01*
X022933Y032843D02*
X022883Y032573D01*
X022883Y032465D01*
X023195Y032153D01*
X026145Y032153D01*
X026575Y031723D01*
X027593Y031723D01*
X027593Y031908D01*
X027573Y031878D01*
X027593Y031523D02*
X026492Y031523D01*
X026062Y031953D01*
X023112Y031953D01*
X022623Y032442D01*
X022623Y032523D01*
X022533Y032613D01*
X022533Y032673D01*
D22*
X027593Y031523D02*
X027593Y031438D01*
X027573Y031378D01*
X029423Y034718D02*
X029423Y034883D01*
X029423Y035083D02*
X029423Y035308D01*
M02*
