G75*
%MOIN*%
%OFA0B0*%
%FSLAX24Y24*%
%IPPOS*%
%LPD*%
%AMOC8*
5,1,8,0,0,1.08239X$1,22.5*
%
%ADD10C,0.1330*%
%ADD11OC8,0.0640*%
%ADD12R,0.0470X0.0490*%
%ADD13R,0.0490X0.0950*%
%ADD14R,0.0490X0.0470*%
%ADD15R,0.0950X0.0490*%
%ADD16R,0.2080X0.0980*%
%ADD17C,0.0680*%
%ADD18C,0.0476*%
D10*
X011333Y026713D03*
X011333Y043713D03*
X037333Y043713D03*
X037333Y026713D03*
D11*
X031333Y042713D03*
X030333Y042713D03*
X029333Y042713D03*
X028333Y042713D03*
X027333Y042713D03*
X026333Y042713D03*
X025333Y042713D03*
X024333Y042713D03*
X023333Y042713D03*
X022333Y042713D03*
X021333Y042713D03*
X020333Y042713D03*
X019333Y042713D03*
X019333Y043713D03*
X020333Y043713D03*
X021333Y043713D03*
X022333Y043713D03*
X023333Y043713D03*
X024333Y043713D03*
X025333Y043713D03*
X026333Y043713D03*
X027333Y043713D03*
X028333Y043713D03*
X029333Y043713D03*
X030333Y043713D03*
X031333Y043713D03*
D12*
X029423Y035308D03*
X029423Y034718D03*
X027573Y031878D03*
X027573Y031378D03*
D13*
X026993Y030783D03*
X028153Y030783D03*
X028153Y032473D03*
X026993Y032473D03*
X028843Y034123D03*
X030003Y034123D03*
X030003Y035903D03*
X028843Y035903D03*
D14*
X029868Y032583D03*
D15*
X030463Y032003D03*
X030463Y033163D03*
D16*
X010843Y033473D03*
X010843Y031953D03*
X010843Y028473D03*
X010843Y036953D03*
X010843Y038473D03*
X010843Y041953D03*
D17*
X031703Y028013D02*
X032303Y028013D01*
X032303Y027013D02*
X031703Y027013D01*
D18*
X034113Y028043D03*
X032073Y033303D03*
X026303Y026493D03*
X019313Y037813D03*
X034863Y044273D03*
X037403Y041113D03*
M02*
