%
M48
M72
T01C0.0150
T02C0.0197
T03C0.0236
T04C0.0360
T05C0.0400
T06C0.1250
%
T01
X13053Y25733
X14243Y25673
X15273Y26413
X16553Y25733
X18163Y26773
X18463Y27773
X17913Y28623
X18963Y28873
X19713Y26723
X19453Y25733
X20753Y25733
X21653Y26133
X23153Y26133
X24753Y25833
X25963Y27873
X25663Y28873
X27243Y28993
X27703Y29513
X28153Y31013
X26993Y31033
X26573Y31173
X26183Y30853
X25683Y31123
X25473Y30743
X25013Y31093
X24703Y30843
X24173Y30783
X23723Y31043
X23273Y30943
X22843Y31033
X22083Y30943
X22093Y30113
X22453Y29233
X21413Y29353
X23773Y31613
X23953Y32743
X24203Y33183
X23713Y33373
X23363Y33583
X22933Y32843
X22533Y32673
X22073Y32683
X21493Y32833
X21433Y33583
X20493Y33593
X20023Y33643
X18833Y33843
X18233Y33663
X18233Y34083
X18103Y33173
X17343Y33253
X17293Y33933
X16783Y33993
X16263Y34023
X15513Y33873
X15273Y34593
X14473Y34243
X14023Y33893
X13573Y33443
X13273Y32993
X13043Y32433
X12823Y31893
X12723Y31193
X12273Y30643
X12823Y29893
X13223Y30243
X13423Y30843
X13423Y31443
X13613Y31973
X13913Y32573
X14313Y33073
X14813Y33523
X15043Y32523
X15513Y31823
X15163Y31423
X15763Y30973
X16113Y31423
X16513Y31723
X17013Y31973
X16363Y32473
X15913Y32173
X16853Y32733
X17823Y32433
X20053Y32093
X19803Y35253
X20443Y35253
X21433Y35083
X21483Y35613
X21753Y35963
X21503Y36333
X21413Y36943
X20673Y37593
X19783Y37053
X19053Y37003
X18193Y37003
X17893Y37513
X17373Y37013
X16593Y37013
X15923Y37443
X15373Y37993
X14673Y38193
X14023Y37993
X13823Y38593
X13823Y39193
X13773Y39893
X13323Y40443
X12823Y40643
X12223Y40643
X11523Y40693
X11373Y39743
X10973Y39243
X10523Y39743
X10473Y40693
X12123Y39793
X12873Y39743
X12973Y39043
X12973Y38593
X12573Y38043
X13123Y37493
X13523Y37043
X13023Y36793
X13173Y36043
X12573Y36093
X12473Y35693
X11873Y35743
X11323Y35743
X10523Y35743
X11023Y34693
X10523Y34193
X10423Y32693
X11423Y32743
X11473Y31243
X11323Y30743
X10523Y30793
X10273Y31243
X10423Y29693
X10723Y29193
X11073Y29693
X11723Y29693
X12323Y29243
X12173Y28443
X13223Y28893
X15673Y29813
X12973Y34743
X13623Y34843
X14273Y34993
X14373Y36393
X15173Y36543
X16653Y36103
X17473Y36093
X18173Y36093
X18123Y35643
X18323Y35143
X18933Y35103
X19053Y36043
X19683Y36093
X18943Y38403
X18483Y38403
X16693Y39863
X16693Y40733
X15453Y40403
X14883Y40863
X15123Y42183
X15553Y43833
X16843Y43913
X16843Y43303
X16913Y42263
X18113Y41953
X18103Y43123
X18353Y44323
X21053Y44723
X23053Y44623
X24353Y44823
X26253Y44823
X26453Y42023
X27393Y41353
X27453Y42123
X28453Y41923
X28393Y41433
X28833Y41013
X29233Y40613
X29483Y41353
X28453Y40223
X28353Y39223
X27553Y38823
X27033Y39413
X26533Y39213
X25953Y39023
X25683Y39363
X25043Y39453
X24793Y38473
X24153Y38503
X23503Y39273
X23913Y39493
X23753Y40623
X24653Y41123
X25353Y41923
X27353Y40223
X26653Y38423
X25853Y37533
X25033Y37213
X24433Y37413
X24133Y37013
X23533Y36913
X23493Y37473
X23193Y35833
X23193Y35133
X23193Y34433
X22293Y34833
X23893Y35133
X23893Y34433
X24593Y34433
X24593Y35133
X24593Y35833
X23893Y35833
X25733Y35413
X26133Y35413
X26223Y36393
X25733Y36713
X27413Y35313
X27993Y35883
X28023Y37493
X29253Y38323
X30353Y39123
X31353Y40223
X31213Y41133
X32753Y41023
X33903Y41423
X35203Y42643
X34653Y43623
X33353Y44523
X31553Y44723
X29053Y44623
X22853Y40673
X22353Y41523
X21453Y41523
X21153Y40523
X20253Y41423
X18953Y41023
X21583Y39063
X21263Y38543
X16793Y34853
X16023Y34793
X12273Y34793
X11673Y34693
X12223Y36443
X12123Y37243
X11523Y37693
X10473Y37693
X12173Y41943
X13453Y42533
X13253Y44133
X10373Y42743
X24533Y32663
X24893Y32753
X26253Y33123
X26563Y32403
X26993Y32233
X27983Y32703
X27913Y34103
X27513Y34083
X31613Y34773
X33143Y33583
X33843Y31883
X33253Y30973
X32053Y30823
X31753Y29333
X30113Y29323
X29663Y28623
X29663Y26923
X30973Y26993
X32063Y25873
X34373Y27093
X34993Y29923
X35893Y29973
X35893Y30573
X36193Y31123
X35843Y31673
X37843Y28873
X33943Y35383
X33353Y36273
X34043Y37363
X33253Y37823
X32053Y36823
X37653Y38323
X29603Y30463
X28363Y26273
X10323Y27693
T02
X13763Y26493
X16733Y27093
X16533Y28093
X18093Y31063
X18923Y31403
X18923Y31853
X17643Y31933
X19863Y30763
X20733Y28553
X21093Y27773
X21493Y27773
X20473Y26793
X22993Y27773
X23493Y27783
X24133Y26803
X23803Y28553
X28723Y28803
X29023Y31583
X29493Y31583
X28823Y32733
X28153Y33593
X28353Y36193
X28083Y36913
X29523Y36273
X30053Y36273
X23243Y39653
X19413Y34983
X19603Y34043
X16723Y38443
X16673Y44463
T03
X19313Y37813
X26303Y26493
X32073Y33303
X34113Y28043
X37403Y41113
X34863Y44273
T04
X31333Y43713
X31333Y42713
X30333Y42713
X29333Y42713
X28333Y42713
X27333Y42713
X26333Y42713
X25333Y42713
X24333Y42713
X23333Y42713
X22333Y42713
X21333Y42713
X20333Y42713
X19333Y42713
X19333Y43713
X20333Y43713
X21333Y43713
X22333Y43713
X23333Y43713
X24333Y43713
X25333Y43713
X26333Y43713
X27333Y43713
X28333Y43713
X29333Y43713
X30333Y43713
T05
X32003Y28013
X32003Y27013
T06
X37333Y26713
X37333Y43713
X11333Y43713
X11333Y26713
M30
