G75*
%MOIN*%
%OFA0B0*%
%FSLAX24Y24*%
%IPPOS*%
%LPD*%
%AMOC8*
5,1,8,0,0,1.08239X$1,22.5*
%
%ADD10C,0.0000*%
%ADD11C,0.0060*%
%ADD12C,0.0040*%
%ADD13C,0.0050*%
%ADD14R,0.0100X0.0100*%
%ADD15R,0.0200X0.0100*%
%ADD16R,0.0500X0.0100*%
%ADD17R,0.0400X0.0100*%
%ADD18R,0.0300X0.0100*%
%ADD19R,0.0800X0.0100*%
%ADD20R,0.0900X0.0100*%
%ADD21R,0.1000X0.0100*%
%ADD22R,0.0600X0.0100*%
%ADD23R,0.3300X0.0400*%
%ADD24R,0.0400X0.2500*%
D10*
X009833Y025213D02*
X009833Y045213D01*
X038833Y045213D01*
X038833Y025213D01*
X009833Y025213D01*
X010708Y026713D02*
X010710Y026763D01*
X010716Y026812D01*
X010726Y026861D01*
X010739Y026908D01*
X010757Y026955D01*
X010778Y027000D01*
X010802Y027043D01*
X010830Y027084D01*
X010861Y027123D01*
X010895Y027159D01*
X010932Y027193D01*
X010972Y027223D01*
X011013Y027250D01*
X011057Y027274D01*
X011102Y027294D01*
X011149Y027310D01*
X011197Y027323D01*
X011246Y027332D01*
X011296Y027337D01*
X011345Y027338D01*
X011395Y027335D01*
X011444Y027328D01*
X011493Y027317D01*
X011540Y027303D01*
X011586Y027284D01*
X011631Y027262D01*
X011674Y027237D01*
X011714Y027208D01*
X011752Y027176D01*
X011788Y027142D01*
X011821Y027104D01*
X011850Y027064D01*
X011876Y027022D01*
X011899Y026978D01*
X011918Y026932D01*
X011934Y026885D01*
X011946Y026836D01*
X011954Y026787D01*
X011958Y026738D01*
X011958Y026688D01*
X011954Y026639D01*
X011946Y026590D01*
X011934Y026541D01*
X011918Y026494D01*
X011899Y026448D01*
X011876Y026404D01*
X011850Y026362D01*
X011821Y026322D01*
X011788Y026284D01*
X011752Y026250D01*
X011714Y026218D01*
X011674Y026189D01*
X011631Y026164D01*
X011586Y026142D01*
X011540Y026123D01*
X011493Y026109D01*
X011444Y026098D01*
X011395Y026091D01*
X011345Y026088D01*
X011296Y026089D01*
X011246Y026094D01*
X011197Y026103D01*
X011149Y026116D01*
X011102Y026132D01*
X011057Y026152D01*
X011013Y026176D01*
X010972Y026203D01*
X010932Y026233D01*
X010895Y026267D01*
X010861Y026303D01*
X010830Y026342D01*
X010802Y026383D01*
X010778Y026426D01*
X010757Y026471D01*
X010739Y026518D01*
X010726Y026565D01*
X010716Y026614D01*
X010710Y026663D01*
X010708Y026713D01*
X010708Y043713D02*
X010710Y043763D01*
X010716Y043812D01*
X010726Y043861D01*
X010739Y043908D01*
X010757Y043955D01*
X010778Y044000D01*
X010802Y044043D01*
X010830Y044084D01*
X010861Y044123D01*
X010895Y044159D01*
X010932Y044193D01*
X010972Y044223D01*
X011013Y044250D01*
X011057Y044274D01*
X011102Y044294D01*
X011149Y044310D01*
X011197Y044323D01*
X011246Y044332D01*
X011296Y044337D01*
X011345Y044338D01*
X011395Y044335D01*
X011444Y044328D01*
X011493Y044317D01*
X011540Y044303D01*
X011586Y044284D01*
X011631Y044262D01*
X011674Y044237D01*
X011714Y044208D01*
X011752Y044176D01*
X011788Y044142D01*
X011821Y044104D01*
X011850Y044064D01*
X011876Y044022D01*
X011899Y043978D01*
X011918Y043932D01*
X011934Y043885D01*
X011946Y043836D01*
X011954Y043787D01*
X011958Y043738D01*
X011958Y043688D01*
X011954Y043639D01*
X011946Y043590D01*
X011934Y043541D01*
X011918Y043494D01*
X011899Y043448D01*
X011876Y043404D01*
X011850Y043362D01*
X011821Y043322D01*
X011788Y043284D01*
X011752Y043250D01*
X011714Y043218D01*
X011674Y043189D01*
X011631Y043164D01*
X011586Y043142D01*
X011540Y043123D01*
X011493Y043109D01*
X011444Y043098D01*
X011395Y043091D01*
X011345Y043088D01*
X011296Y043089D01*
X011246Y043094D01*
X011197Y043103D01*
X011149Y043116D01*
X011102Y043132D01*
X011057Y043152D01*
X011013Y043176D01*
X010972Y043203D01*
X010932Y043233D01*
X010895Y043267D01*
X010861Y043303D01*
X010830Y043342D01*
X010802Y043383D01*
X010778Y043426D01*
X010757Y043471D01*
X010739Y043518D01*
X010726Y043565D01*
X010716Y043614D01*
X010710Y043663D01*
X010708Y043713D01*
X036708Y043713D02*
X036710Y043763D01*
X036716Y043812D01*
X036726Y043861D01*
X036739Y043908D01*
X036757Y043955D01*
X036778Y044000D01*
X036802Y044043D01*
X036830Y044084D01*
X036861Y044123D01*
X036895Y044159D01*
X036932Y044193D01*
X036972Y044223D01*
X037013Y044250D01*
X037057Y044274D01*
X037102Y044294D01*
X037149Y044310D01*
X037197Y044323D01*
X037246Y044332D01*
X037296Y044337D01*
X037345Y044338D01*
X037395Y044335D01*
X037444Y044328D01*
X037493Y044317D01*
X037540Y044303D01*
X037586Y044284D01*
X037631Y044262D01*
X037674Y044237D01*
X037714Y044208D01*
X037752Y044176D01*
X037788Y044142D01*
X037821Y044104D01*
X037850Y044064D01*
X037876Y044022D01*
X037899Y043978D01*
X037918Y043932D01*
X037934Y043885D01*
X037946Y043836D01*
X037954Y043787D01*
X037958Y043738D01*
X037958Y043688D01*
X037954Y043639D01*
X037946Y043590D01*
X037934Y043541D01*
X037918Y043494D01*
X037899Y043448D01*
X037876Y043404D01*
X037850Y043362D01*
X037821Y043322D01*
X037788Y043284D01*
X037752Y043250D01*
X037714Y043218D01*
X037674Y043189D01*
X037631Y043164D01*
X037586Y043142D01*
X037540Y043123D01*
X037493Y043109D01*
X037444Y043098D01*
X037395Y043091D01*
X037345Y043088D01*
X037296Y043089D01*
X037246Y043094D01*
X037197Y043103D01*
X037149Y043116D01*
X037102Y043132D01*
X037057Y043152D01*
X037013Y043176D01*
X036972Y043203D01*
X036932Y043233D01*
X036895Y043267D01*
X036861Y043303D01*
X036830Y043342D01*
X036802Y043383D01*
X036778Y043426D01*
X036757Y043471D01*
X036739Y043518D01*
X036726Y043565D01*
X036716Y043614D01*
X036710Y043663D01*
X036708Y043713D01*
X036708Y026713D02*
X036710Y026763D01*
X036716Y026812D01*
X036726Y026861D01*
X036739Y026908D01*
X036757Y026955D01*
X036778Y027000D01*
X036802Y027043D01*
X036830Y027084D01*
X036861Y027123D01*
X036895Y027159D01*
X036932Y027193D01*
X036972Y027223D01*
X037013Y027250D01*
X037057Y027274D01*
X037102Y027294D01*
X037149Y027310D01*
X037197Y027323D01*
X037246Y027332D01*
X037296Y027337D01*
X037345Y027338D01*
X037395Y027335D01*
X037444Y027328D01*
X037493Y027317D01*
X037540Y027303D01*
X037586Y027284D01*
X037631Y027262D01*
X037674Y027237D01*
X037714Y027208D01*
X037752Y027176D01*
X037788Y027142D01*
X037821Y027104D01*
X037850Y027064D01*
X037876Y027022D01*
X037899Y026978D01*
X037918Y026932D01*
X037934Y026885D01*
X037946Y026836D01*
X037954Y026787D01*
X037958Y026738D01*
X037958Y026688D01*
X037954Y026639D01*
X037946Y026590D01*
X037934Y026541D01*
X037918Y026494D01*
X037899Y026448D01*
X037876Y026404D01*
X037850Y026362D01*
X037821Y026322D01*
X037788Y026284D01*
X037752Y026250D01*
X037714Y026218D01*
X037674Y026189D01*
X037631Y026164D01*
X037586Y026142D01*
X037540Y026123D01*
X037493Y026109D01*
X037444Y026098D01*
X037395Y026091D01*
X037345Y026088D01*
X037296Y026089D01*
X037246Y026094D01*
X037197Y026103D01*
X037149Y026116D01*
X037102Y026132D01*
X037057Y026152D01*
X037013Y026176D01*
X036972Y026203D01*
X036932Y026233D01*
X036895Y026267D01*
X036861Y026303D01*
X036830Y026342D01*
X036802Y026383D01*
X036778Y026426D01*
X036757Y026471D01*
X036739Y026518D01*
X036726Y026565D01*
X036716Y026614D01*
X036710Y026663D01*
X036708Y026713D01*
D11*
X000038Y000363D02*
X-000176Y000363D01*
X-000282Y000470D01*
X000145Y000897D01*
X000145Y000470D01*
X000038Y000363D01*
X-000282Y000470D02*
X-000282Y000897D01*
X-000176Y001004D01*
X000038Y001004D01*
X000145Y000897D01*
X-000285Y001413D02*
X-000285Y001734D01*
X-000392Y001840D01*
X-000712Y001840D01*
X-000712Y001413D01*
X-000930Y001520D02*
X-000930Y001840D01*
X-000930Y001520D02*
X-001036Y001413D01*
X-001143Y001520D01*
X-001250Y001413D01*
X-001357Y001520D01*
X-001357Y001840D01*
X-001574Y001734D02*
X-001681Y001840D01*
X-001894Y001840D01*
X-002001Y001734D01*
X-002001Y001520D01*
X-001894Y001413D01*
X-001681Y001413D01*
X-001574Y001520D01*
X-001574Y001734D01*
X-002219Y001840D02*
X-002539Y001840D01*
X-002646Y001734D01*
X-002646Y001520D01*
X-002539Y001413D01*
X-002219Y001413D01*
X-002219Y002054D01*
X-002001Y002463D02*
X-002001Y002890D01*
X-001681Y002890D01*
X-001574Y002784D01*
X-001574Y002463D01*
X-001357Y002570D02*
X-001357Y002784D01*
X-001250Y002890D01*
X-001036Y002890D01*
X-000930Y002784D01*
X-000930Y002677D01*
X-001357Y002677D01*
X-001357Y002570D02*
X-001250Y002463D01*
X-001036Y002463D01*
X-000712Y002570D02*
X-000605Y002677D01*
X-000285Y002677D01*
X-000285Y002784D02*
X-000285Y002463D01*
X-000605Y002463D01*
X-000712Y002570D01*
X-000605Y002890D02*
X-000392Y002890D01*
X-000285Y002784D01*
X-000068Y002890D02*
X-000068Y002463D01*
X-000068Y002677D02*
X000146Y002890D01*
X000253Y002890D01*
X000039Y003513D02*
X-000175Y003513D01*
X-000068Y003513D02*
X-000068Y004154D01*
X-000175Y004154D01*
X-000393Y003834D02*
X-000393Y003513D01*
X-000713Y003513D01*
X-000820Y003620D01*
X-000713Y003727D01*
X-000393Y003727D01*
X-000393Y003834D02*
X-000499Y003940D01*
X-000713Y003940D01*
X-001143Y003940D02*
X-001143Y003513D01*
X-001249Y003513D02*
X-001036Y003513D01*
X-001465Y003513D02*
X-001572Y003620D01*
X-001572Y004047D01*
X-001679Y003940D02*
X-001465Y003940D01*
X-001249Y003940D02*
X-001143Y003940D01*
X-001143Y004154D02*
X-001143Y004261D01*
X-000930Y004563D02*
X-000930Y004884D01*
X-001036Y004990D01*
X-001250Y004990D01*
X-001357Y004884D01*
X-001574Y004884D02*
X-001681Y004990D01*
X-001894Y004990D01*
X-002001Y004884D01*
X-002001Y004670D01*
X-001894Y004563D01*
X-001681Y004563D01*
X-001574Y004670D01*
X-001574Y004884D01*
X-001357Y005204D02*
X-001357Y004563D01*
X-000712Y004563D02*
X-000712Y004990D01*
X-000605Y004990D01*
X-000499Y004884D01*
X-000392Y004990D01*
X-000285Y004884D01*
X-000285Y004563D01*
X-000499Y004563D02*
X-000499Y004884D01*
X-000497Y005613D02*
X-000497Y006040D01*
X-000177Y006040D01*
X-000070Y005934D01*
X-000070Y005613D01*
X000147Y005720D02*
X000147Y005934D01*
X000254Y006040D01*
X000574Y006040D01*
X000574Y006254D02*
X000574Y005613D01*
X000254Y005613D01*
X000147Y005720D01*
X000792Y005720D02*
X000792Y005934D01*
X000899Y006040D01*
X001112Y006040D01*
X001219Y005934D01*
X001219Y005827D01*
X000792Y005827D01*
X000792Y005720D02*
X000899Y005613D01*
X001112Y005613D01*
X001436Y005613D02*
X001436Y006040D01*
X001436Y005827D02*
X001650Y006040D01*
X001757Y006040D01*
X001544Y006663D02*
X001544Y007090D01*
X001864Y007090D01*
X001971Y006984D01*
X001971Y006663D01*
X002188Y006770D02*
X002188Y006984D01*
X002295Y007090D01*
X002615Y007090D01*
X002615Y007304D02*
X002615Y006663D01*
X002295Y006663D01*
X002188Y006770D01*
X002725Y006147D02*
X002725Y005720D01*
X002832Y005613D01*
X003048Y005613D02*
X003048Y006254D01*
X003154Y006040D02*
X003368Y006040D01*
X003475Y005934D01*
X003475Y005613D01*
X003692Y005720D02*
X003692Y005934D01*
X003799Y006040D01*
X004013Y006040D01*
X004119Y005934D01*
X004119Y005827D01*
X003692Y005827D01*
X003692Y005720D02*
X003799Y005613D01*
X004013Y005613D01*
X003904Y004990D02*
X003584Y004990D01*
X003477Y004884D01*
X003584Y004777D01*
X003798Y004777D01*
X003904Y004670D01*
X003798Y004563D01*
X003477Y004563D01*
X003260Y004777D02*
X002833Y004777D01*
X002833Y004670D02*
X002833Y004884D01*
X002940Y004990D01*
X003153Y004990D01*
X003260Y004884D01*
X003260Y004777D01*
X003153Y004563D02*
X002940Y004563D01*
X002833Y004670D01*
X002615Y004563D02*
X002295Y004563D01*
X002188Y004670D01*
X002188Y004884D01*
X002295Y004990D01*
X002615Y004990D01*
X001971Y004884D02*
X001971Y004563D01*
X001651Y004563D01*
X001544Y004670D01*
X001651Y004777D01*
X001971Y004777D01*
X001971Y004884D02*
X001864Y004990D01*
X001651Y004990D01*
X001327Y004990D02*
X001220Y004990D01*
X001007Y004777D01*
X001007Y004990D02*
X001007Y004563D01*
X000790Y004563D02*
X000684Y004670D01*
X000684Y005097D01*
X000790Y004990D02*
X000577Y004990D01*
X-000715Y005613D02*
X-000715Y006040D01*
X-000713Y006450D02*
X-000607Y006450D01*
X-000500Y006557D01*
X-000500Y007090D01*
X-000820Y007090D01*
X-000927Y006984D01*
X-000927Y006770D01*
X-000820Y006663D01*
X-000500Y006663D01*
X-000282Y006663D02*
X-000282Y007090D01*
X-000069Y007090D02*
X000038Y007090D01*
X-000069Y007090D02*
X-000282Y006877D01*
X000255Y006984D02*
X000255Y006770D01*
X000361Y006663D01*
X000575Y006663D01*
X000682Y006770D01*
X000682Y006984D01*
X000575Y007090D01*
X000361Y007090D01*
X000255Y006984D01*
X000899Y007090D02*
X000899Y006770D01*
X001006Y006663D01*
X001326Y006663D01*
X001326Y007090D01*
X001436Y007713D02*
X001329Y007820D01*
X001329Y008034D01*
X001436Y008140D01*
X001649Y008140D01*
X001756Y008034D01*
X001756Y007927D01*
X001329Y007927D01*
X001436Y007713D02*
X001649Y007713D01*
X001111Y007713D02*
X001111Y008034D01*
X001005Y008140D01*
X000684Y008140D01*
X000684Y007713D01*
X000467Y007713D02*
X000467Y008034D01*
X000360Y008140D01*
X000147Y008140D01*
X000147Y007927D02*
X000467Y007927D01*
X000467Y007713D02*
X000147Y007713D01*
X000040Y007820D01*
X000147Y007927D01*
X-000176Y007713D02*
X-000390Y007713D01*
X-000283Y007713D02*
X-000283Y008354D01*
X-000390Y008354D01*
X-000607Y008034D02*
X-000607Y007820D01*
X-000714Y007713D01*
X-001034Y007713D01*
X-001034Y007500D02*
X-001034Y008140D01*
X-000714Y008140D01*
X-000607Y008034D01*
X-000498Y008763D02*
X-000605Y008870D01*
X-000498Y008977D01*
X-000178Y008977D01*
X-000178Y009084D02*
X-000178Y008763D01*
X-000498Y008763D01*
X-000821Y008763D02*
X-001034Y008763D01*
X-000928Y008763D02*
X-000928Y009404D01*
X-001034Y009404D01*
X-001252Y009084D02*
X-001359Y009190D01*
X-001679Y009190D01*
X-001679Y008550D01*
X-001679Y008763D02*
X-001359Y008763D01*
X-001252Y008870D01*
X-001252Y009084D01*
X-000498Y009190D02*
X-000284Y009190D01*
X-000178Y009084D01*
X000040Y009190D02*
X000040Y008763D01*
X000467Y008763D02*
X000467Y009084D01*
X000360Y009190D01*
X000040Y009190D01*
X000145Y009813D02*
X000252Y009920D01*
X000145Y010027D01*
X-000068Y010027D01*
X-000175Y010134D01*
X-000068Y010240D01*
X000252Y010240D01*
X000470Y010134D02*
X000470Y009920D01*
X000576Y009813D01*
X000897Y009813D01*
X001114Y009813D02*
X001114Y010240D01*
X001114Y010027D02*
X001328Y010240D01*
X001434Y010240D01*
X001651Y010134D02*
X001758Y010240D01*
X001971Y010240D01*
X002078Y010134D01*
X002078Y010027D01*
X001651Y010027D01*
X001651Y009920D02*
X001651Y010134D01*
X001651Y009920D02*
X001758Y009813D01*
X001971Y009813D01*
X002296Y009920D02*
X002296Y010240D01*
X002296Y009920D02*
X002403Y009813D01*
X002509Y009920D01*
X002616Y009813D01*
X002723Y009920D01*
X002723Y010240D01*
X002940Y010134D02*
X003047Y010240D01*
X003367Y010240D01*
X003261Y010027D02*
X003047Y010027D01*
X002940Y010134D01*
X002940Y009813D02*
X003261Y009813D01*
X003367Y009920D01*
X003261Y010027D01*
X002832Y009404D02*
X002725Y009297D01*
X002725Y008763D01*
X002618Y009084D02*
X002832Y009084D01*
X003048Y008870D02*
X003154Y008977D01*
X003475Y008977D01*
X003475Y009084D02*
X003475Y008763D01*
X003154Y008763D01*
X003048Y008870D01*
X003154Y009190D02*
X003368Y009190D01*
X003475Y009084D01*
X003692Y009190D02*
X003692Y008763D01*
X003692Y008977D02*
X003906Y009190D01*
X004013Y009190D01*
X004229Y009813D02*
X004656Y009813D01*
X004443Y009813D02*
X004443Y010454D01*
X004229Y010240D01*
X004874Y010347D02*
X004981Y010454D01*
X005194Y010454D01*
X005301Y010347D01*
X005301Y010240D01*
X004874Y009813D01*
X005301Y009813D01*
X005519Y009920D02*
X005946Y010347D01*
X005946Y009920D01*
X005839Y009813D01*
X005625Y009813D01*
X005519Y009920D01*
X005519Y010347D01*
X005625Y010454D01*
X005839Y010454D01*
X005946Y010347D01*
X006808Y010240D02*
X006808Y009813D01*
X007021Y009813D02*
X007021Y010134D01*
X007128Y010240D01*
X007235Y010134D01*
X007235Y009813D01*
X007452Y009813D02*
X007666Y009813D01*
X007559Y009813D02*
X007559Y010240D01*
X007452Y010240D01*
X007559Y010454D02*
X007559Y010561D01*
X007882Y010454D02*
X007989Y010454D01*
X007989Y009813D01*
X008095Y009813D02*
X007882Y009813D01*
X008312Y009813D02*
X008632Y009813D01*
X008739Y009920D01*
X008632Y010027D01*
X008418Y010027D01*
X008312Y010134D01*
X008418Y010240D01*
X008739Y010240D01*
X008846Y009404D02*
X008846Y008763D01*
X008526Y008763D01*
X008419Y008870D01*
X008419Y009084D01*
X008526Y009190D01*
X008846Y009190D01*
X009064Y009084D02*
X009064Y008870D01*
X009170Y008763D01*
X009491Y008763D01*
X009491Y008657D02*
X009491Y009190D01*
X009170Y009190D01*
X009064Y009084D01*
X009277Y008550D02*
X009384Y008550D01*
X009491Y008657D01*
X009708Y008870D02*
X009708Y009084D01*
X009815Y009190D01*
X010028Y009190D01*
X010135Y009084D01*
X010135Y008977D01*
X009708Y008977D01*
X009708Y008870D02*
X009815Y008763D01*
X010028Y008763D01*
X010028Y008140D02*
X009922Y008034D01*
X009922Y007713D01*
X010135Y007713D02*
X010135Y008034D01*
X010028Y008140D01*
X009922Y008034D02*
X009815Y008140D01*
X009708Y008140D01*
X009708Y007713D01*
X009491Y007820D02*
X009491Y008034D01*
X009384Y008140D01*
X009170Y008140D01*
X009064Y008034D01*
X009064Y007820D01*
X009170Y007713D01*
X009384Y007713D01*
X009491Y007820D01*
X009170Y007304D02*
X009170Y006663D01*
X009064Y006663D02*
X009277Y006663D01*
X008846Y006663D02*
X008846Y006984D01*
X008739Y007090D01*
X008526Y007090D01*
X008526Y006877D02*
X008419Y006770D01*
X008526Y006663D01*
X008846Y006663D01*
X008846Y006877D02*
X008526Y006877D01*
X008201Y006984D02*
X008201Y006663D01*
X008201Y006984D02*
X008095Y007090D01*
X007774Y007090D01*
X007774Y006663D01*
X007557Y006663D02*
X007237Y006663D01*
X007130Y006770D01*
X007130Y006984D01*
X007237Y007090D01*
X007557Y007090D01*
X007557Y006557D01*
X007450Y006450D01*
X007343Y006450D01*
X007666Y006147D02*
X007773Y006254D01*
X007666Y006147D02*
X007666Y005613D01*
X007560Y005934D02*
X007773Y005934D01*
X007989Y005934D02*
X007989Y005720D01*
X008096Y005613D01*
X008310Y005613D01*
X008416Y005720D01*
X008416Y005934D01*
X008310Y006040D01*
X008096Y006040D01*
X007989Y005934D01*
X008634Y006040D02*
X008634Y005613D01*
X008634Y005827D02*
X008847Y006040D01*
X008954Y006040D01*
X009816Y006040D02*
X010136Y006040D01*
X010243Y005934D01*
X010243Y005720D01*
X010136Y005613D01*
X009816Y005613D01*
X009816Y006254D01*
X010351Y006663D02*
X010565Y007090D01*
X010782Y007090D02*
X010889Y007090D01*
X010889Y006663D01*
X010782Y006663D02*
X010996Y006663D01*
X011212Y006770D02*
X011319Y006877D01*
X011639Y006877D01*
X011639Y006984D02*
X011639Y006663D01*
X011319Y006663D01*
X011212Y006770D01*
X011319Y007090D02*
X011532Y007090D01*
X011639Y006984D01*
X011857Y006984D02*
X011963Y007090D01*
X012284Y007090D01*
X012177Y006877D02*
X011963Y006877D01*
X011857Y006984D01*
X011857Y006663D02*
X012177Y006663D01*
X012284Y006770D01*
X012177Y006877D01*
X012071Y006040D02*
X012284Y006040D01*
X012391Y005934D01*
X012391Y005827D01*
X011964Y005827D01*
X011964Y005720D02*
X011964Y005934D01*
X012071Y006040D01*
X011748Y006040D02*
X011534Y006040D01*
X011641Y006147D02*
X011641Y005720D01*
X011748Y005613D01*
X011964Y005720D02*
X012071Y005613D01*
X012284Y005613D01*
X012609Y005613D02*
X012609Y006040D01*
X012609Y005827D02*
X012822Y006040D01*
X012929Y006040D01*
X013359Y006663D02*
X013252Y006770D01*
X013252Y007197D01*
X013146Y007090D02*
X013359Y007090D01*
X013575Y006984D02*
X013575Y006770D01*
X013682Y006663D01*
X013896Y006663D01*
X014002Y006770D01*
X014002Y006984D01*
X013896Y007090D01*
X013682Y007090D01*
X013575Y006984D01*
X013361Y007713D02*
X013361Y008140D01*
X013574Y008140D02*
X013681Y008140D01*
X013574Y008140D02*
X013361Y007927D01*
X013143Y007927D02*
X013143Y008034D01*
X013036Y008140D01*
X012823Y008140D01*
X012716Y008034D01*
X012716Y007820D01*
X012823Y007713D01*
X013036Y007713D01*
X013143Y007927D02*
X012716Y007927D01*
X012498Y008140D02*
X012498Y007607D01*
X012392Y007500D01*
X012285Y007500D01*
X012178Y007713D02*
X012498Y007713D01*
X012178Y007713D02*
X012071Y007820D01*
X012071Y008140D01*
X011854Y008034D02*
X011854Y007713D01*
X011534Y007713D01*
X011427Y007820D01*
X011534Y007927D01*
X011854Y007927D01*
X011854Y008034D02*
X011747Y008140D01*
X011534Y008140D01*
X011104Y008354D02*
X011104Y007713D01*
X010997Y007713D02*
X011211Y007713D01*
X010889Y007411D02*
X010889Y007304D01*
X010138Y007090D02*
X010351Y006663D01*
X010567Y006040D02*
X010460Y005934D01*
X010460Y005720D01*
X010567Y005613D01*
X010780Y005613D01*
X010887Y005827D02*
X010460Y005827D01*
X010567Y006040D02*
X010780Y006040D01*
X010887Y005934D01*
X010887Y005827D01*
X011105Y006040D02*
X011318Y006040D01*
X011211Y006147D02*
X011211Y005720D01*
X011318Y005613D01*
X010995Y005204D02*
X010995Y004563D01*
X010674Y004563D01*
X010567Y004670D01*
X010567Y004884D01*
X010674Y004990D01*
X010995Y004990D01*
X011212Y004884D02*
X011212Y004670D01*
X011319Y004563D01*
X011532Y004563D01*
X011639Y004777D02*
X011212Y004777D01*
X011212Y004884D02*
X011319Y004990D01*
X011532Y004990D01*
X011639Y004884D01*
X011639Y004777D01*
X012501Y004777D02*
X012501Y004990D01*
X012715Y005204D01*
X013038Y004990D02*
X013251Y004990D01*
X013358Y004884D01*
X013358Y004563D01*
X013038Y004563D01*
X012931Y004670D01*
X013038Y004777D01*
X013358Y004777D01*
X013575Y004884D02*
X013682Y004777D01*
X013896Y004777D01*
X014002Y004670D01*
X013896Y004563D01*
X013575Y004563D01*
X013575Y004884D02*
X013682Y004990D01*
X014002Y004990D01*
X014220Y004884D02*
X014327Y004990D01*
X014647Y004990D01*
X014864Y004990D02*
X014864Y004670D01*
X014971Y004563D01*
X015292Y004563D01*
X015292Y004990D01*
X015509Y004990D02*
X015509Y004563D01*
X015723Y004563D02*
X015723Y004884D01*
X015829Y004990D01*
X015936Y004884D01*
X015936Y004563D01*
X016154Y004563D02*
X016367Y004563D01*
X016260Y004563D02*
X016260Y004990D01*
X016154Y004990D01*
X016260Y005204D02*
X016260Y005311D01*
X016151Y005613D02*
X016151Y005934D01*
X016044Y006040D01*
X015724Y006040D01*
X015724Y005613D01*
X015506Y005613D02*
X015506Y005934D01*
X015400Y006040D01*
X015079Y006040D01*
X015079Y005613D01*
X014862Y005720D02*
X014862Y005934D01*
X014755Y006040D01*
X014542Y006040D01*
X014435Y005934D01*
X014435Y005720D01*
X014542Y005613D01*
X014755Y005613D01*
X014862Y005720D01*
X015509Y004990D02*
X015616Y004990D01*
X015723Y004884D01*
X016583Y004990D02*
X016583Y004563D01*
X017010Y004563D02*
X017010Y004884D01*
X016904Y004990D01*
X016583Y004990D01*
X016689Y005613D02*
X016475Y005613D01*
X016368Y005720D01*
X016368Y005934D01*
X016475Y006040D01*
X016689Y006040D01*
X016795Y005934D01*
X016795Y005827D01*
X016368Y005827D01*
X017013Y005934D02*
X017013Y005720D01*
X017120Y005613D01*
X017440Y005613D01*
X017764Y005720D02*
X017871Y005613D01*
X017764Y005720D02*
X017764Y006147D01*
X017658Y006040D02*
X017871Y006040D01*
X018087Y006040D02*
X018194Y006040D01*
X018194Y005613D01*
X018087Y005613D02*
X018301Y005613D01*
X018517Y005720D02*
X018517Y005934D01*
X018624Y006040D01*
X018837Y006040D01*
X018944Y005934D01*
X018944Y005720D01*
X018837Y005613D01*
X018624Y005613D01*
X018517Y005720D01*
X018517Y005204D02*
X018517Y004563D01*
X018944Y004563D01*
X019161Y004563D02*
X019161Y004990D01*
X019161Y004777D02*
X019375Y004990D01*
X019482Y004990D01*
X019699Y004990D02*
X020126Y004990D01*
X020126Y004777D02*
X019699Y004777D01*
X020343Y004884D02*
X020770Y004884D01*
X020988Y004670D02*
X021094Y004670D01*
X021094Y004563D01*
X020988Y004563D01*
X020988Y004670D01*
X021310Y004670D02*
X021417Y004563D01*
X021630Y004563D01*
X021737Y004670D01*
X021737Y004884D01*
X021630Y004990D01*
X021523Y004990D01*
X021310Y004884D01*
X021310Y005204D01*
X021737Y005204D01*
X021202Y005613D02*
X021202Y006147D01*
X021309Y006254D01*
X021309Y005934D02*
X021095Y005934D01*
X020878Y005934D02*
X020771Y006040D01*
X020557Y006040D01*
X020451Y005934D01*
X020451Y005720D01*
X020557Y005613D01*
X020771Y005613D01*
X020878Y005720D01*
X020878Y005934D01*
X020663Y005204D02*
X020343Y004884D01*
X020663Y005204D02*
X020663Y004563D01*
X019589Y005613D02*
X019589Y005934D01*
X019482Y006040D01*
X019161Y006040D01*
X019161Y005613D01*
X018944Y005204D02*
X018517Y005204D01*
X018517Y004884D02*
X018730Y004884D01*
X017655Y004990D02*
X017655Y004457D01*
X017548Y004350D01*
X017441Y004350D01*
X017335Y004563D02*
X017655Y004563D01*
X017335Y004563D02*
X017228Y004670D01*
X017228Y004884D01*
X017335Y004990D01*
X017655Y004990D01*
X017440Y006040D02*
X017120Y006040D01*
X017013Y005934D01*
X017012Y006663D02*
X017012Y006984D01*
X017118Y007090D01*
X017225Y006984D01*
X017225Y006663D01*
X017443Y006663D02*
X017656Y006663D01*
X017549Y006663D02*
X017549Y007090D01*
X017443Y007090D01*
X017549Y007304D02*
X017549Y007411D01*
X017872Y007304D02*
X017979Y007304D01*
X017979Y006663D01*
X017872Y006663D02*
X018086Y006663D01*
X018302Y006663D02*
X018622Y006663D01*
X018729Y006770D01*
X018622Y006877D01*
X018409Y006877D01*
X018302Y006984D01*
X018409Y007090D01*
X018729Y007090D01*
X018194Y006361D02*
X018194Y006254D01*
X017012Y006984D02*
X016905Y007090D01*
X016798Y007090D01*
X016798Y006663D01*
X015936Y006770D02*
X015936Y006984D01*
X015829Y007090D01*
X015723Y007090D01*
X015509Y006984D01*
X015509Y007304D01*
X015936Y007304D01*
X015936Y006770D02*
X015829Y006663D01*
X015616Y006663D01*
X015509Y006770D01*
X015292Y006663D02*
X014864Y006663D01*
X015078Y006663D02*
X015078Y007304D01*
X014864Y007090D01*
X014217Y006040D02*
X013897Y006040D01*
X013790Y005934D01*
X013790Y005720D01*
X013897Y005613D01*
X014217Y005613D01*
X014220Y004884D02*
X014327Y004777D01*
X014540Y004777D01*
X014647Y004670D01*
X014540Y004563D01*
X014220Y004563D01*
X012715Y004563D02*
X012501Y004777D01*
X012500Y002890D02*
X012394Y002784D01*
X012394Y002570D01*
X012500Y002463D01*
X012821Y002463D01*
X013038Y002570D02*
X013145Y002677D01*
X013465Y002677D01*
X013465Y002784D02*
X013465Y002463D01*
X013145Y002463D01*
X013038Y002570D01*
X013145Y002890D02*
X013359Y002890D01*
X013465Y002784D01*
X013683Y002890D02*
X014003Y002890D01*
X014110Y002784D01*
X014110Y002570D01*
X014003Y002463D01*
X013683Y002463D01*
X013683Y002250D02*
X013683Y002890D01*
X012821Y002890D02*
X012500Y002890D01*
X011533Y002784D02*
X011319Y002784D01*
X011102Y002784D02*
X010995Y002890D01*
X010782Y002890D01*
X010675Y002784D01*
X010675Y002570D01*
X010782Y002463D01*
X010995Y002463D01*
X011102Y002570D01*
X011102Y002784D01*
X011426Y002997D02*
X011533Y003104D01*
X011426Y002997D02*
X011426Y002463D01*
X011317Y001840D02*
X011424Y001734D01*
X011424Y001627D01*
X010997Y001627D01*
X010997Y001734D02*
X011104Y001840D01*
X011317Y001840D01*
X011642Y001840D02*
X011642Y001413D01*
X011642Y001627D02*
X011855Y001840D01*
X011962Y001840D01*
X011317Y001413D02*
X011104Y001413D01*
X010997Y001520D01*
X010997Y001734D01*
X010781Y001840D02*
X010567Y001840D01*
X010674Y001947D02*
X010674Y001520D01*
X010781Y001413D01*
X010350Y001520D02*
X010243Y001627D01*
X010030Y001627D01*
X009923Y001734D01*
X010030Y001840D01*
X010350Y001840D01*
X010350Y001520D02*
X010243Y001413D01*
X009923Y001413D01*
X009705Y001413D02*
X009385Y001413D01*
X009278Y001520D01*
X009385Y001627D01*
X009705Y001627D01*
X009705Y001734D02*
X009705Y001413D01*
X009705Y001734D02*
X009599Y001840D01*
X009385Y001840D01*
X009061Y001734D02*
X009061Y001413D01*
X008847Y001413D02*
X008847Y001734D01*
X008954Y001840D01*
X009061Y001734D01*
X008847Y001734D02*
X008741Y001840D01*
X008634Y001840D01*
X008634Y001413D01*
X008524Y000790D02*
X008418Y000790D01*
X008204Y000577D01*
X008204Y000790D02*
X008204Y000363D01*
X008741Y000470D02*
X008741Y000684D01*
X008848Y000790D01*
X009062Y000790D01*
X009168Y000684D01*
X009168Y000577D01*
X008741Y000577D01*
X008741Y000470D02*
X008848Y000363D01*
X009062Y000363D01*
X009386Y000470D02*
X009386Y000684D01*
X009493Y000790D01*
X009813Y000790D01*
X009813Y001004D02*
X009813Y000363D01*
X009493Y000363D01*
X009386Y000470D01*
X010030Y000470D02*
X010137Y000363D01*
X010457Y000363D01*
X010457Y000790D01*
X010675Y000684D02*
X010675Y000470D01*
X010782Y000363D01*
X011102Y000363D01*
X011319Y000470D02*
X011319Y000684D01*
X011426Y000790D01*
X011640Y000790D01*
X011746Y000684D01*
X011746Y000577D01*
X011319Y000577D01*
X011319Y000470D02*
X011426Y000363D01*
X011640Y000363D01*
X011102Y000790D02*
X010782Y000790D01*
X010675Y000684D01*
X010030Y000790D02*
X010030Y000470D01*
X009813Y002463D02*
X009493Y002463D01*
X009386Y002570D01*
X009386Y002784D01*
X009493Y002890D01*
X009813Y002890D01*
X009168Y002890D02*
X008848Y002890D01*
X008741Y002784D01*
X008741Y002570D01*
X008848Y002463D01*
X009168Y002463D01*
X008524Y002890D02*
X008310Y002463D01*
X008097Y002890D01*
X008097Y003513D02*
X008310Y003513D01*
X008203Y003513D02*
X008203Y004154D01*
X008097Y004154D01*
X007774Y004154D02*
X007774Y004261D01*
X007774Y004563D02*
X007988Y004563D01*
X007881Y004563D02*
X007881Y005204D01*
X007774Y005204D01*
X007451Y005204D02*
X007451Y005311D01*
X007451Y004990D02*
X007451Y004563D01*
X007345Y004563D02*
X007558Y004563D01*
X007127Y004563D02*
X007127Y004884D01*
X007020Y004990D01*
X006914Y004884D01*
X006914Y004563D01*
X006700Y004563D02*
X006700Y004990D01*
X006807Y004990D01*
X006914Y004884D01*
X007345Y004990D02*
X007451Y004990D01*
X008204Y004884D02*
X008311Y004777D01*
X008524Y004777D01*
X008631Y004670D01*
X008524Y004563D01*
X008204Y004563D01*
X008204Y004884D02*
X008311Y004990D01*
X008631Y004990D01*
X009493Y004990D02*
X009493Y004670D01*
X009600Y004563D01*
X009707Y004670D01*
X009814Y004563D01*
X009920Y004670D01*
X009920Y004990D01*
X010138Y004990D02*
X010245Y004990D01*
X010245Y004563D01*
X010351Y004563D02*
X010138Y004563D01*
X010245Y005204D02*
X010245Y005311D01*
X008953Y003940D02*
X008633Y003940D01*
X008526Y003834D01*
X008633Y003727D01*
X008847Y003727D01*
X008953Y003620D01*
X008847Y003513D01*
X008526Y003513D01*
X007881Y003513D02*
X007667Y003513D01*
X007774Y003513D02*
X007774Y003940D01*
X007667Y003940D01*
X007449Y003834D02*
X007449Y003513D01*
X007236Y003513D02*
X007236Y003834D01*
X007343Y003940D01*
X007449Y003834D01*
X007236Y003834D02*
X007129Y003940D01*
X007022Y003940D01*
X007022Y003513D01*
X007235Y003104D02*
X007235Y002463D01*
X006914Y002463D01*
X006808Y002570D01*
X006808Y002784D01*
X006914Y002890D01*
X007235Y002890D01*
X006590Y002784D02*
X006590Y002463D01*
X006590Y002784D02*
X006483Y002890D01*
X006163Y002890D01*
X006163Y002463D01*
X005946Y002463D02*
X005625Y002463D01*
X005519Y002570D01*
X005625Y002677D01*
X005946Y002677D01*
X005946Y002784D02*
X005946Y002463D01*
X005946Y002784D02*
X005839Y002890D01*
X005625Y002890D01*
X005733Y003513D02*
X006160Y003940D01*
X006160Y004047D01*
X006054Y004154D01*
X005840Y004154D01*
X005733Y004047D01*
X005302Y004154D02*
X005302Y003513D01*
X005089Y003513D02*
X005516Y003513D01*
X005733Y003513D02*
X006160Y003513D01*
X005302Y004154D02*
X005089Y003940D01*
X005194Y004563D02*
X004767Y004563D01*
X004980Y004563D02*
X004980Y005204D01*
X004767Y004990D01*
X005411Y004884D02*
X005411Y004670D01*
X005518Y004563D01*
X005731Y004563D01*
X005838Y004670D01*
X005838Y004777D01*
X005731Y004884D01*
X005411Y004884D01*
X005625Y005097D01*
X005838Y005204D01*
X005946Y005613D02*
X005626Y005613D01*
X005626Y006254D01*
X005946Y006254D01*
X006053Y006147D01*
X006053Y005720D01*
X005946Y005613D01*
X006270Y005720D02*
X006377Y005613D01*
X006591Y005613D01*
X006698Y005720D01*
X006698Y005827D01*
X006591Y005934D01*
X006377Y005934D01*
X006270Y006040D01*
X006270Y006147D01*
X006377Y006254D01*
X006591Y006254D01*
X006698Y006147D01*
X006700Y006663D02*
X006914Y006663D01*
X006807Y006663D02*
X006807Y007090D01*
X006700Y007090D01*
X006483Y007090D02*
X006162Y007090D01*
X006056Y006984D01*
X006162Y006877D01*
X006376Y006877D01*
X006483Y006770D01*
X006376Y006663D01*
X006056Y006663D01*
X005408Y006147D02*
X005302Y006254D01*
X004981Y006254D01*
X004981Y005613D01*
X005302Y005613D01*
X005408Y005720D01*
X005408Y006147D01*
X005194Y006663D02*
X004873Y006663D01*
X004767Y006770D01*
X004767Y006984D01*
X004873Y007090D01*
X005194Y007090D01*
X005194Y007304D02*
X005194Y006663D01*
X004549Y006663D02*
X004549Y006984D01*
X004442Y007090D01*
X004122Y007090D01*
X004122Y006663D01*
X003904Y006663D02*
X003584Y006663D01*
X003477Y006770D01*
X003584Y006877D01*
X003904Y006877D01*
X003904Y006984D02*
X003904Y006663D01*
X003904Y006984D02*
X003798Y007090D01*
X003584Y007090D01*
X003690Y007713D02*
X003690Y008034D01*
X003583Y008140D01*
X003263Y008140D01*
X003263Y007713D01*
X003045Y007820D02*
X003045Y008034D01*
X002938Y008140D01*
X002725Y008140D01*
X002618Y008034D01*
X002618Y007820D01*
X002725Y007713D01*
X002938Y007713D01*
X003045Y007820D01*
X001756Y008870D02*
X001649Y008977D01*
X001436Y008977D01*
X001329Y009084D01*
X001436Y009190D01*
X001756Y009190D01*
X001756Y008870D02*
X001649Y008763D01*
X001329Y008763D01*
X001111Y008977D02*
X000684Y008977D01*
X000684Y009084D02*
X000791Y009190D01*
X001005Y009190D01*
X001111Y009084D01*
X001111Y008977D01*
X001005Y008763D02*
X000791Y008763D01*
X000684Y008870D01*
X000684Y009084D01*
X-001896Y008354D02*
X-001896Y007713D01*
X-002217Y007713D01*
X-002324Y007820D01*
X-002324Y008034D01*
X-002217Y008140D01*
X-001896Y008140D01*
X-002541Y008034D02*
X-002541Y007713D01*
X-002541Y008034D02*
X-002648Y008140D01*
X-002968Y008140D01*
X-002968Y007713D01*
X-003186Y007713D02*
X-003186Y008140D01*
X-003613Y008140D02*
X-003613Y007820D01*
X-003506Y007713D01*
X-003186Y007713D01*
X-003185Y007090D02*
X-003398Y007090D01*
X-003505Y006984D01*
X-003505Y006770D01*
X-003398Y006663D01*
X-003185Y006663D01*
X-003078Y006770D01*
X-003078Y006984D01*
X-003185Y007090D01*
X-002861Y007090D02*
X-002754Y007090D01*
X-002647Y006984D01*
X-002540Y007090D01*
X-002434Y006984D01*
X-002434Y006663D01*
X-002647Y006663D02*
X-002647Y006984D01*
X-002861Y007090D02*
X-002861Y006663D01*
X-003398Y006361D02*
X-003398Y006254D01*
X-003398Y006040D02*
X-003398Y005613D01*
X-003292Y005613D02*
X-003505Y005613D01*
X-003508Y005204D02*
X-003935Y005204D01*
X-003935Y004884D01*
X-003721Y004990D01*
X-003615Y004990D01*
X-003508Y004884D01*
X-003508Y004670D01*
X-003615Y004563D01*
X-003828Y004563D01*
X-003935Y004670D01*
X-003290Y004670D02*
X-002863Y005097D01*
X-002863Y004670D01*
X-002970Y004563D01*
X-003184Y004563D01*
X-003290Y004670D01*
X-003290Y005097D01*
X-003184Y005204D01*
X-002970Y005204D01*
X-002863Y005097D01*
X-002969Y005613D02*
X-003075Y005720D01*
X-002969Y005827D01*
X-002648Y005827D01*
X-002648Y005934D02*
X-002648Y005613D01*
X-002969Y005613D01*
X-002969Y006040D02*
X-002755Y006040D01*
X-002648Y005934D01*
X-002431Y005934D02*
X-002324Y006040D01*
X-002004Y006040D01*
X-002111Y005827D02*
X-002324Y005827D01*
X-002431Y005934D01*
X-002431Y005613D02*
X-002111Y005613D01*
X-002004Y005720D01*
X-002111Y005827D01*
X-001142Y005720D02*
X-001035Y005613D01*
X-000715Y005613D01*
X-001142Y005720D02*
X-001142Y006040D01*
X-001896Y006663D02*
X-002109Y006663D01*
X-002216Y006770D01*
X-002216Y006984D01*
X-002109Y007090D01*
X-001896Y007090D01*
X-001789Y006984D01*
X-001789Y006877D01*
X-002216Y006877D01*
X-003398Y006040D02*
X-003505Y006040D01*
X-003723Y006040D02*
X-003936Y005613D01*
X-004150Y006040D01*
X-004150Y006663D02*
X-003829Y006663D01*
X-003723Y006770D01*
X-003829Y006877D01*
X-004043Y006877D01*
X-004150Y006984D01*
X-004043Y007090D01*
X-003723Y007090D01*
X-003937Y007713D02*
X-003830Y007820D01*
X-003830Y008034D01*
X-003937Y008140D01*
X-004150Y008140D01*
X-004257Y008034D01*
X-004257Y007820D01*
X-004150Y007713D01*
X-003937Y007713D01*
X-004474Y008140D02*
X-004581Y008140D01*
X-004794Y007927D01*
X-004794Y008140D02*
X-004794Y007713D01*
X-005012Y007713D02*
X-005332Y007713D01*
X-005439Y007820D01*
X-005439Y008034D01*
X-005332Y008140D01*
X-005012Y008140D01*
X-005012Y007607D01*
X-005119Y007500D01*
X-005225Y007500D01*
X-005012Y007304D02*
X-005012Y006663D01*
X-005332Y006663D01*
X-005439Y006770D01*
X-005439Y006984D01*
X-005332Y007090D01*
X-005012Y007090D01*
X-005656Y006984D02*
X-005656Y006877D01*
X-006083Y006877D01*
X-006083Y006770D02*
X-006083Y006984D01*
X-005977Y007090D01*
X-005763Y007090D01*
X-005656Y006984D01*
X-005763Y006663D02*
X-005977Y006663D01*
X-006083Y006770D01*
X-006301Y006663D02*
X-006621Y006663D01*
X-006728Y006770D01*
X-006728Y006984D01*
X-006621Y007090D01*
X-006301Y007090D01*
X-006301Y006557D01*
X-006408Y006450D01*
X-006514Y006450D01*
X-006301Y006254D02*
X-006301Y005613D01*
X-006621Y005613D01*
X-006728Y005720D01*
X-006728Y005934D01*
X-006621Y006040D01*
X-006301Y006040D01*
X-006945Y005934D02*
X-006945Y005827D01*
X-007372Y005827D01*
X-007372Y005720D02*
X-007372Y005934D01*
X-007266Y006040D01*
X-007052Y006040D01*
X-006945Y005934D01*
X-007052Y005613D02*
X-007266Y005613D01*
X-007372Y005720D01*
X-007590Y005613D02*
X-007910Y005613D01*
X-008017Y005720D01*
X-008017Y005934D01*
X-007910Y006040D01*
X-007590Y006040D01*
X-007590Y006254D02*
X-007590Y005613D01*
X-007590Y005204D02*
X-007590Y004563D01*
X-007910Y004563D01*
X-008017Y004670D01*
X-008017Y004884D01*
X-007910Y004990D01*
X-007590Y004990D01*
X-007372Y004884D02*
X-007266Y004990D01*
X-007052Y004990D01*
X-006945Y004884D01*
X-006945Y004777D01*
X-007372Y004777D01*
X-007372Y004670D02*
X-007372Y004884D01*
X-007372Y004670D02*
X-007266Y004563D01*
X-007052Y004563D01*
X-007052Y003940D02*
X-006945Y003834D01*
X-006945Y003727D01*
X-007372Y003727D01*
X-007372Y003620D02*
X-007372Y003834D01*
X-007266Y003940D01*
X-007052Y003940D01*
X-007052Y003513D02*
X-007266Y003513D01*
X-007372Y003620D01*
X-007590Y003513D02*
X-007910Y003513D01*
X-008017Y003620D01*
X-008017Y003834D01*
X-007910Y003940D01*
X-007590Y003940D01*
X-007590Y004154D02*
X-007590Y003513D01*
X-007481Y002890D02*
X-007587Y002784D01*
X-007587Y002570D01*
X-007481Y002463D01*
X-007160Y002463D01*
X-006943Y002570D02*
X-006943Y002784D01*
X-006836Y002890D01*
X-006623Y002890D01*
X-006516Y002784D01*
X-006516Y002677D01*
X-006943Y002677D01*
X-006943Y002570D02*
X-006836Y002463D01*
X-006623Y002463D01*
X-006298Y002570D02*
X-006298Y002784D01*
X-006191Y002890D01*
X-005871Y002890D01*
X-005871Y003104D02*
X-005871Y002463D01*
X-006191Y002463D01*
X-006298Y002570D01*
X-006301Y002054D02*
X-006301Y001413D01*
X-006621Y001413D01*
X-006728Y001520D01*
X-006728Y001734D01*
X-006621Y001840D01*
X-006301Y001840D01*
X-006945Y001734D02*
X-006945Y001627D01*
X-007372Y001627D01*
X-007372Y001734D02*
X-007266Y001840D01*
X-007052Y001840D01*
X-006945Y001734D01*
X-007052Y001413D02*
X-007266Y001413D01*
X-007372Y001520D01*
X-007372Y001734D01*
X-007590Y001840D02*
X-007910Y001840D01*
X-008017Y001734D01*
X-008017Y001520D01*
X-007910Y001413D01*
X-007590Y001413D01*
X-007590Y002054D01*
X-007805Y002463D02*
X-008125Y002463D01*
X-008232Y002570D01*
X-008125Y002677D01*
X-007805Y002677D01*
X-007805Y002784D02*
X-007805Y002463D01*
X-007805Y002784D02*
X-007912Y002890D01*
X-008125Y002890D01*
X-008555Y003104D02*
X-008555Y002463D01*
X-008662Y002463D02*
X-008448Y002463D01*
X-008235Y002054D02*
X-008235Y001413D01*
X-008555Y001413D01*
X-008662Y001520D01*
X-008662Y001734D01*
X-008555Y001840D01*
X-008235Y001840D01*
X-008879Y001840D02*
X-008879Y001413D01*
X-008879Y001734D02*
X-009306Y001734D01*
X-009306Y001840D02*
X-009093Y002054D01*
X-008879Y001840D01*
X-009306Y001840D02*
X-009306Y001413D01*
X-009736Y001004D02*
X-009522Y000790D01*
X-009522Y000577D01*
X-009736Y000363D01*
X-009953Y000470D02*
X-010060Y000363D01*
X-010274Y000363D01*
X-010380Y000470D01*
X-009953Y000897D01*
X-009953Y000470D01*
X-009953Y000897D02*
X-010060Y001004D01*
X-010274Y001004D01*
X-010380Y000897D01*
X-010380Y000470D01*
X-010598Y000363D02*
X-011025Y000363D01*
X-010811Y000363D02*
X-010811Y001004D01*
X-011025Y000790D01*
X-010918Y001413D02*
X-010705Y001413D01*
X-010598Y001520D01*
X-010598Y001947D01*
X-010705Y002054D01*
X-010918Y002054D01*
X-011025Y001947D01*
X-011025Y001840D01*
X-010918Y001734D01*
X-010598Y001734D01*
X-010380Y002054D02*
X-010167Y001840D01*
X-010167Y001627D01*
X-010380Y001413D01*
X-010918Y001413D02*
X-011025Y001520D01*
X-008662Y001004D02*
X-008448Y000790D01*
X-008235Y001004D01*
X-008235Y000363D01*
X-008017Y000470D02*
X-007910Y000363D01*
X-007697Y000363D01*
X-007590Y000470D01*
X-007590Y000684D01*
X-007697Y000790D01*
X-007910Y000790D01*
X-008017Y000684D01*
X-008017Y000470D01*
X-007372Y000470D02*
X-007372Y000684D01*
X-007266Y000790D01*
X-006945Y000790D01*
X-006945Y001004D02*
X-006945Y000363D01*
X-007266Y000363D01*
X-007372Y000470D01*
X-006728Y000363D02*
X-006514Y000363D01*
X-006621Y000363D02*
X-006621Y000790D01*
X-006728Y000790D01*
X-006621Y001004D02*
X-006621Y001111D01*
X-006191Y000897D02*
X-006085Y001004D01*
X-006191Y000897D02*
X-006191Y000363D01*
X-005869Y000363D02*
X-005655Y000363D01*
X-005762Y000363D02*
X-005762Y000790D01*
X-005869Y000790D01*
X-005762Y001004D02*
X-005762Y001111D01*
X-005439Y001200D02*
X-005439Y001840D01*
X-005119Y001840D01*
X-005012Y001734D01*
X-005012Y001520D01*
X-005119Y001413D01*
X-005439Y001413D01*
X-005332Y000790D02*
X-005119Y000790D01*
X-005012Y000684D01*
X-005012Y000577D01*
X-005439Y000577D01*
X-005439Y000684D02*
X-005332Y000790D01*
X-005439Y000684D02*
X-005439Y000470D01*
X-005332Y000363D01*
X-005119Y000363D01*
X-004794Y000470D02*
X-004794Y000684D01*
X-004688Y000790D01*
X-004367Y000790D01*
X-004367Y001004D02*
X-004367Y000363D01*
X-004688Y000363D01*
X-004794Y000470D01*
X-003505Y000363D02*
X-003505Y000790D01*
X-003292Y001004D01*
X-003078Y000790D01*
X-003078Y000363D01*
X-002861Y000363D02*
X-002540Y000363D01*
X-002434Y000470D01*
X-002434Y000897D01*
X-002540Y001004D01*
X-002861Y001004D01*
X-002861Y000363D01*
X-003078Y000684D02*
X-003505Y000684D01*
X-003507Y001413D02*
X-003720Y001413D01*
X-003613Y001413D02*
X-003613Y002054D01*
X-003720Y002054D01*
X-004043Y002054D02*
X-004043Y001413D01*
X-004150Y001413D02*
X-003936Y001413D01*
X-004367Y001413D02*
X-004367Y001840D01*
X-004150Y002054D02*
X-004043Y002054D01*
X-004151Y002463D02*
X-004365Y002463D01*
X-004258Y002463D02*
X-004258Y002890D01*
X-004365Y002890D01*
X-004582Y002890D02*
X-004796Y002463D01*
X-005009Y002890D01*
X-004902Y003513D02*
X-004902Y004047D01*
X-004796Y004154D01*
X-004796Y003834D02*
X-005009Y003834D01*
X-005332Y003940D02*
X-005332Y003513D01*
X-005439Y003513D02*
X-005225Y003513D01*
X-005656Y003513D02*
X-005977Y003513D01*
X-006083Y003620D01*
X-006083Y003834D01*
X-005977Y003940D01*
X-005656Y003940D01*
X-005656Y004154D02*
X-005656Y003513D01*
X-005439Y003940D02*
X-005332Y003940D01*
X-005332Y004154D02*
X-005332Y004261D01*
X-005332Y004563D02*
X-005332Y005204D01*
X-005439Y005204D01*
X-005656Y004884D02*
X-005656Y004563D01*
X-005977Y004563D01*
X-006083Y004670D01*
X-005977Y004777D01*
X-005656Y004777D01*
X-005656Y004884D02*
X-005763Y004990D01*
X-005977Y004990D01*
X-005439Y004563D02*
X-005225Y004563D01*
X-005009Y004563D02*
X-004796Y004563D01*
X-004902Y004563D02*
X-004902Y005204D01*
X-005009Y005204D01*
X-005119Y005613D02*
X-005012Y005720D01*
X-005012Y006147D01*
X-005119Y006254D01*
X-005332Y006254D01*
X-005439Y006147D01*
X-005439Y006040D01*
X-005332Y005934D01*
X-005012Y005934D01*
X-005119Y005613D02*
X-005332Y005613D01*
X-005439Y005720D01*
X-008235Y005613D02*
X-008555Y005613D01*
X-008662Y005720D01*
X-008662Y005934D01*
X-008555Y006040D01*
X-008235Y006040D01*
X-008235Y006254D02*
X-008235Y005613D01*
X-008341Y004990D02*
X-008235Y004884D01*
X-008235Y004563D01*
X-008555Y004563D01*
X-008662Y004670D01*
X-008555Y004777D01*
X-008235Y004777D01*
X-008341Y004990D02*
X-008555Y004990D01*
X-008879Y005204D02*
X-008879Y004563D01*
X-008879Y004154D02*
X-008879Y003513D01*
X-008662Y003620D02*
X-008555Y003727D01*
X-008235Y003727D01*
X-008235Y003834D02*
X-008235Y003513D01*
X-008555Y003513D01*
X-008662Y003620D01*
X-008555Y003940D02*
X-008341Y003940D01*
X-008235Y003834D01*
X-008879Y004154D02*
X-009093Y003940D01*
X-009306Y004154D01*
X-009306Y003513D01*
X-009306Y003104D02*
X-008986Y003104D01*
X-008879Y002997D01*
X-008879Y002784D01*
X-008986Y002677D01*
X-009306Y002677D01*
X-009306Y002463D02*
X-009306Y003104D01*
X-008662Y003104D02*
X-008555Y003104D01*
X-007481Y002890D02*
X-007160Y002890D01*
X-004473Y003513D02*
X-004473Y004047D01*
X-004366Y004154D01*
X-004366Y003834D02*
X-004579Y003834D01*
X-004150Y003834D02*
X-004043Y003940D01*
X-003829Y003940D01*
X-003723Y003834D01*
X-003723Y003727D01*
X-004150Y003727D01*
X-004150Y003620D02*
X-004150Y003834D01*
X-004150Y003620D02*
X-004043Y003513D01*
X-003829Y003513D01*
X-003505Y003513D02*
X-003505Y003940D01*
X-003505Y003727D02*
X-003292Y003940D01*
X-003185Y003940D01*
X-002968Y003834D02*
X-002861Y003940D01*
X-002648Y003940D01*
X-002541Y003834D01*
X-002541Y003727D01*
X-002968Y003727D01*
X-002968Y003620D02*
X-002968Y003834D01*
X-002968Y003620D02*
X-002861Y003513D01*
X-002648Y003513D01*
X-002324Y003513D02*
X-002324Y003940D01*
X-002003Y003940D01*
X-001896Y003834D01*
X-001896Y003513D01*
X-002863Y002890D02*
X-003184Y002890D01*
X-003290Y002784D01*
X-003184Y002677D01*
X-002970Y002677D01*
X-002863Y002570D01*
X-002970Y002463D01*
X-003290Y002463D01*
X-003508Y002463D02*
X-003828Y002463D01*
X-003935Y002570D01*
X-003828Y002677D01*
X-003508Y002677D01*
X-003508Y002784D02*
X-003508Y002463D01*
X-003508Y002784D02*
X-003615Y002890D01*
X-003828Y002890D01*
X-004258Y003104D02*
X-004258Y003211D01*
X000899Y003940D02*
X001113Y003940D01*
X001006Y004047D02*
X001006Y003620D01*
X001113Y003513D01*
X001329Y003513D02*
X001329Y003940D01*
X001329Y003727D02*
X001542Y003940D01*
X001649Y003940D01*
X001973Y003940D02*
X002186Y003940D01*
X002293Y003834D01*
X002293Y003513D01*
X001973Y003513D01*
X001866Y003620D01*
X001973Y003727D01*
X002293Y003727D01*
X002511Y003834D02*
X002511Y003620D01*
X002617Y003513D01*
X002938Y003513D01*
X003155Y003620D02*
X003155Y003834D01*
X003262Y003940D01*
X003475Y003940D01*
X003582Y003834D01*
X003582Y003727D01*
X003155Y003727D01*
X003155Y003620D02*
X003262Y003513D01*
X003475Y003513D01*
X003800Y003513D02*
X004120Y003513D01*
X004227Y003620D01*
X004120Y003727D01*
X003906Y003727D01*
X003800Y003834D01*
X003906Y003940D01*
X004227Y003940D01*
X004656Y003104D02*
X004656Y002463D01*
X004336Y002463D01*
X004229Y002570D01*
X004229Y002784D01*
X004336Y002890D01*
X004656Y002890D01*
X004012Y002784D02*
X004012Y002463D01*
X004012Y002784D02*
X003905Y002890D01*
X003585Y002890D01*
X003585Y002463D01*
X003367Y002463D02*
X003367Y002890D01*
X003367Y002463D02*
X003047Y002463D01*
X002940Y002570D01*
X002940Y002890D01*
X002723Y002784D02*
X002616Y002890D01*
X002403Y002890D01*
X002296Y002784D01*
X002296Y002570D01*
X002403Y002463D01*
X002616Y002463D01*
X002723Y002570D01*
X002723Y002784D01*
X002510Y002161D02*
X002510Y002054D01*
X002510Y001840D02*
X002510Y001413D01*
X002403Y001413D02*
X002617Y001413D01*
X002833Y001413D02*
X003153Y001413D01*
X003260Y001520D01*
X003153Y001627D01*
X002940Y001627D01*
X002833Y001734D01*
X002940Y001840D01*
X003260Y001840D01*
X003477Y001840D02*
X003691Y001840D01*
X003584Y001947D02*
X003584Y001520D01*
X003691Y001413D01*
X003907Y001520D02*
X003907Y001734D01*
X004014Y001840D01*
X004227Y001840D01*
X004334Y001734D01*
X004334Y001520D01*
X004227Y001413D01*
X004014Y001413D01*
X003907Y001520D01*
X004552Y001413D02*
X004552Y001840D01*
X004552Y001627D02*
X004765Y001840D01*
X004872Y001840D01*
X005089Y001734D02*
X005196Y001840D01*
X005516Y001840D01*
X005409Y001627D02*
X005196Y001627D01*
X005089Y001734D01*
X005089Y001413D02*
X005409Y001413D01*
X005516Y001520D01*
X005409Y001627D01*
X005518Y000897D02*
X005518Y000470D01*
X005625Y000363D01*
X005625Y000790D02*
X005411Y000790D01*
X005194Y000684D02*
X005194Y000363D01*
X005194Y000684D02*
X005087Y000790D01*
X004767Y000790D01*
X004767Y000363D01*
X004550Y000363D02*
X004337Y000363D01*
X004444Y000363D02*
X004444Y000790D01*
X004337Y000790D01*
X004120Y000790D02*
X004013Y000790D01*
X003800Y000577D01*
X003800Y000790D02*
X003800Y000363D01*
X003582Y000470D02*
X003475Y000363D01*
X003155Y000363D01*
X003155Y000150D02*
X003155Y000790D01*
X003475Y000790D01*
X003582Y000684D01*
X003582Y000470D01*
X002939Y000363D02*
X002832Y000470D01*
X002832Y000897D01*
X002725Y000790D02*
X002939Y000790D01*
X002508Y000684D02*
X002508Y000470D01*
X002401Y000363D01*
X002188Y000363D01*
X002081Y000470D01*
X002081Y000684D01*
X002188Y000790D01*
X002401Y000790D01*
X002508Y000684D01*
X001863Y000684D02*
X001863Y000470D01*
X001757Y000363D01*
X001543Y000363D01*
X001436Y000470D01*
X001436Y000684D01*
X001543Y000790D01*
X001757Y000790D01*
X001863Y000684D01*
X001220Y000684D02*
X001007Y000684D01*
X001113Y000897D02*
X001113Y000363D01*
X001113Y000897D02*
X001220Y001004D01*
X001221Y001413D02*
X001114Y001520D01*
X001114Y001734D01*
X001221Y001840D01*
X001434Y001840D01*
X001541Y001734D01*
X001541Y001627D01*
X001114Y001627D01*
X001221Y001413D02*
X001434Y001413D01*
X001759Y001413D02*
X002079Y001413D01*
X002186Y001520D01*
X002079Y001627D01*
X001865Y001627D01*
X001759Y001734D01*
X001865Y001840D01*
X002186Y001840D01*
X002403Y001840D02*
X002510Y001840D01*
X001759Y002463D02*
X001759Y002890D01*
X001759Y002677D02*
X001972Y002890D01*
X002079Y002890D01*
X001541Y002890D02*
X001541Y002357D01*
X001434Y002250D01*
X001328Y002250D01*
X001221Y002463D02*
X001541Y002463D01*
X001221Y002463D02*
X001114Y002570D01*
X001114Y002784D01*
X001221Y002890D01*
X001541Y002890D01*
X000897Y001840D02*
X000790Y001840D01*
X000577Y001627D01*
X000577Y001840D02*
X000577Y001413D01*
X-000713Y001004D02*
X-000713Y000363D01*
X-000500Y000363D02*
X-000927Y000363D01*
X-001145Y000470D02*
X-001145Y000897D01*
X-001251Y001004D01*
X-001465Y001004D01*
X-001572Y000897D01*
X-001572Y000790D01*
X-001465Y000684D01*
X-001145Y000684D01*
X-001145Y000470D02*
X-001251Y000363D01*
X-001465Y000363D01*
X-001572Y000470D01*
X-001789Y000470D02*
X-001789Y000897D01*
X-001896Y001004D01*
X-002109Y001004D01*
X-002216Y000897D01*
X-002216Y000790D01*
X-002109Y000684D01*
X-001789Y000684D01*
X-001789Y000470D02*
X-001896Y000363D01*
X-002109Y000363D01*
X-002216Y000470D01*
X-000927Y000790D02*
X-000713Y001004D01*
X-004367Y001413D02*
X-004688Y001413D01*
X-004794Y001520D01*
X-004794Y001840D01*
X-003290Y001734D02*
X-002863Y001734D01*
X-010167Y002677D02*
X-010380Y002463D01*
X-010598Y002570D02*
X-010705Y002463D01*
X-010918Y002463D01*
X-011025Y002570D01*
X-011025Y002677D01*
X-010918Y002784D01*
X-010705Y002784D01*
X-010598Y002677D01*
X-010598Y002570D01*
X-010705Y002784D02*
X-010598Y002890D01*
X-010598Y002997D01*
X-010705Y003104D01*
X-010918Y003104D01*
X-011025Y002997D01*
X-011025Y002890D01*
X-010918Y002784D01*
X-010380Y003104D02*
X-010167Y002890D01*
X-010167Y002677D01*
X-010380Y003513D02*
X-010167Y003727D01*
X-010167Y003940D01*
X-010380Y004154D01*
X-010598Y004154D02*
X-010598Y004047D01*
X-011025Y003620D01*
X-011025Y003513D01*
X-011025Y004154D02*
X-010598Y004154D01*
X-010705Y004563D02*
X-010598Y004670D01*
X-010598Y004777D01*
X-010705Y004884D01*
X-011025Y004884D01*
X-011025Y004670D01*
X-010918Y004563D01*
X-010705Y004563D01*
X-010380Y004563D02*
X-010167Y004777D01*
X-010167Y004990D01*
X-010380Y005204D01*
X-010598Y005204D02*
X-010811Y005097D01*
X-011025Y004884D01*
X-010918Y005613D02*
X-011025Y005720D01*
X-010918Y005613D02*
X-010705Y005613D01*
X-010598Y005720D01*
X-010598Y005934D01*
X-010705Y006040D01*
X-010811Y006040D01*
X-011025Y005934D01*
X-011025Y006254D01*
X-010598Y006254D01*
X-010380Y006254D02*
X-010167Y006040D01*
X-010167Y005827D01*
X-010380Y005613D01*
X-009306Y005613D02*
X-009306Y006040D01*
X-009093Y006254D01*
X-008879Y006040D01*
X-008879Y005613D01*
X-008879Y005934D02*
X-009306Y005934D01*
X-009199Y006663D02*
X-008986Y006663D01*
X-008879Y006770D01*
X-008662Y006663D02*
X-008662Y007304D01*
X-008555Y007090D02*
X-008341Y007090D01*
X-008235Y006984D01*
X-008235Y006663D01*
X-008017Y006770D02*
X-007910Y006877D01*
X-007590Y006877D01*
X-007590Y006984D02*
X-007590Y006663D01*
X-007910Y006663D01*
X-008017Y006770D01*
X-007910Y007090D02*
X-007697Y007090D01*
X-007590Y006984D01*
X-007372Y007090D02*
X-007052Y007090D01*
X-006945Y006984D01*
X-006945Y006663D01*
X-007372Y006663D02*
X-007372Y007090D01*
X-007266Y007713D02*
X-007372Y007820D01*
X-007372Y008034D01*
X-007266Y008140D01*
X-007052Y008140D01*
X-006945Y008034D01*
X-006945Y007927D01*
X-007372Y007927D01*
X-007266Y007713D02*
X-007052Y007713D01*
X-006728Y007820D02*
X-006728Y008034D01*
X-006621Y008140D01*
X-006301Y008140D01*
X-006301Y008354D02*
X-006301Y007713D01*
X-006621Y007713D01*
X-006728Y007820D01*
X-007590Y007713D02*
X-007910Y007713D01*
X-008017Y007820D01*
X-008017Y008034D01*
X-007910Y008140D01*
X-007590Y008140D01*
X-007590Y008354D02*
X-007590Y007713D01*
X-008235Y007713D02*
X-008555Y007713D01*
X-008662Y007820D01*
X-008662Y008034D01*
X-008555Y008140D01*
X-008235Y008140D01*
X-008235Y008354D02*
X-008235Y007713D01*
X-008879Y007713D02*
X-008879Y008140D01*
X-009093Y008354D01*
X-009306Y008140D01*
X-009306Y007713D01*
X-009306Y008034D02*
X-008879Y008034D01*
X-008879Y008763D02*
X-008879Y009404D01*
X-009093Y009190D01*
X-009306Y009404D01*
X-009306Y008763D01*
X-008662Y008870D02*
X-008555Y008763D01*
X-008341Y008763D01*
X-008235Y008870D01*
X-008235Y009084D01*
X-008341Y009190D01*
X-008555Y009190D01*
X-008662Y009084D01*
X-008662Y008870D01*
X-008017Y009190D02*
X-007804Y008763D01*
X-007590Y009190D01*
X-007372Y009084D02*
X-007266Y009190D01*
X-007052Y009190D01*
X-006945Y009084D01*
X-006945Y008977D01*
X-007372Y008977D01*
X-007372Y008870D02*
X-007372Y009084D01*
X-007372Y008870D02*
X-007266Y008763D01*
X-007052Y008763D01*
X-006728Y008870D02*
X-006728Y009084D01*
X-006621Y009190D01*
X-006301Y009190D01*
X-006301Y009404D02*
X-006301Y008763D01*
X-006621Y008763D01*
X-006728Y008870D01*
X-005439Y008763D02*
X-005119Y008763D01*
X-005012Y008870D01*
X-005012Y009084D01*
X-005119Y009190D01*
X-005439Y009190D01*
X-005439Y008550D01*
X-004794Y008870D02*
X-004688Y008763D01*
X-004474Y008763D01*
X-004367Y008870D01*
X-004367Y009084D01*
X-004474Y009190D01*
X-004688Y009190D01*
X-004794Y009084D01*
X-004794Y008870D01*
X-004150Y008870D02*
X-004043Y008763D01*
X-003936Y008870D01*
X-003829Y008763D01*
X-003723Y008870D01*
X-003723Y009190D01*
X-003505Y009084D02*
X-003398Y009190D01*
X-003185Y009190D01*
X-003078Y009084D01*
X-003078Y008977D01*
X-003505Y008977D01*
X-003505Y008870D02*
X-003505Y009084D01*
X-003505Y008870D02*
X-003398Y008763D01*
X-003185Y008763D01*
X-002861Y008763D02*
X-002861Y009190D01*
X-002861Y008977D02*
X-002647Y009190D01*
X-002540Y009190D01*
X-003077Y009813D02*
X-003077Y010454D01*
X-003398Y010134D01*
X-002971Y010134D01*
X-002753Y010134D02*
X-002326Y010134D01*
X-002109Y010134D02*
X-001682Y010134D01*
X-001464Y010347D02*
X-001464Y009920D01*
X-001037Y010347D01*
X-001037Y009920D01*
X-001144Y009813D01*
X-001357Y009813D01*
X-001464Y009920D01*
X-001788Y009813D02*
X-001788Y010454D01*
X-002109Y010134D01*
X-001464Y010347D02*
X-001357Y010454D01*
X-001144Y010454D01*
X-001037Y010347D01*
X-000175Y009813D02*
X000145Y009813D01*
X000470Y010134D02*
X000576Y010240D01*
X000897Y010240D01*
X-004259Y010240D02*
X-004366Y010240D01*
X-004579Y010027D01*
X-004579Y010240D02*
X-004579Y009813D01*
X-004797Y009920D02*
X-004797Y010134D01*
X-004904Y010240D01*
X-005117Y010240D01*
X-005224Y010134D01*
X-005224Y009920D01*
X-005117Y009813D01*
X-004904Y009813D01*
X-004797Y009920D01*
X-005440Y010134D02*
X-005654Y010134D01*
X-005547Y010347D02*
X-005547Y009813D01*
X-005547Y010347D02*
X-005440Y010454D01*
X-006516Y010240D02*
X-006836Y010240D01*
X-006943Y010134D01*
X-006836Y010027D01*
X-006623Y010027D01*
X-006516Y009920D01*
X-006623Y009813D01*
X-006943Y009813D01*
X-007160Y010027D02*
X-007587Y010027D01*
X-007587Y010134D02*
X-007481Y010240D01*
X-007267Y010240D01*
X-007160Y010134D01*
X-007160Y010027D01*
X-007267Y009813D02*
X-007481Y009813D01*
X-007587Y009920D01*
X-007587Y010134D01*
X-007804Y009813D02*
X-008017Y009813D01*
X-007910Y009813D02*
X-007910Y010454D01*
X-008017Y010454D01*
X-008235Y010134D02*
X-008341Y010240D01*
X-008555Y010240D01*
X-008662Y010134D01*
X-008662Y009920D01*
X-008555Y009813D01*
X-008341Y009813D01*
X-008235Y009920D01*
X-008235Y010134D01*
X-008879Y010134D02*
X-009306Y010134D01*
X-009306Y010454D02*
X-009306Y009813D01*
X-008879Y009813D02*
X-008879Y010454D01*
X-008986Y010863D02*
X-009199Y010863D01*
X-009306Y010970D01*
X-009306Y011184D01*
X-009199Y011290D01*
X-008986Y011290D01*
X-008879Y011184D01*
X-008879Y011077D01*
X-009306Y011077D01*
X-009522Y011290D02*
X-009736Y011290D01*
X-009629Y011397D02*
X-009629Y010970D01*
X-009522Y010863D01*
X-009953Y010970D02*
X-009953Y011184D01*
X-010060Y011290D01*
X-010274Y011290D01*
X-010380Y011184D01*
X-010380Y010970D01*
X-010274Y010863D01*
X-010060Y010863D01*
X-009953Y010970D01*
X-010598Y010863D02*
X-010598Y011504D01*
X-011025Y011504D02*
X-010598Y010863D01*
X-011025Y010863D02*
X-011025Y011504D01*
X-008662Y011184D02*
X-008555Y011290D01*
X-008235Y011290D01*
X-008017Y011290D02*
X-008017Y011184D01*
X-007910Y011184D01*
X-007910Y011290D01*
X-008017Y011290D01*
X-008017Y010970D02*
X-008017Y010863D01*
X-007910Y010863D01*
X-007910Y010970D01*
X-008017Y010970D01*
X-008235Y010970D02*
X-008341Y011077D01*
X-008555Y011077D01*
X-008662Y011184D01*
X-008662Y010863D02*
X-008341Y010863D01*
X-008235Y010970D01*
X-010167Y010240D02*
X-010380Y010454D01*
X-010167Y010240D02*
X-010167Y010027D01*
X-010380Y009813D01*
X-010598Y009813D02*
X-011025Y009813D01*
X-010811Y009813D02*
X-010811Y010454D01*
X-011025Y010240D01*
X-010918Y009404D02*
X-011025Y009297D01*
X-010918Y009404D02*
X-010705Y009404D01*
X-010598Y009297D01*
X-010598Y009190D01*
X-011025Y008763D01*
X-010598Y008763D01*
X-010380Y008763D02*
X-010167Y008977D01*
X-010167Y009190D01*
X-010380Y009404D01*
X-004150Y009190D02*
X-004150Y008870D01*
X-010167Y008140D02*
X-010380Y008354D01*
X-010598Y008247D02*
X-010598Y008140D01*
X-010705Y008034D01*
X-010598Y007927D01*
X-010598Y007820D01*
X-010705Y007713D01*
X-010918Y007713D01*
X-011025Y007820D01*
X-010811Y008034D02*
X-010705Y008034D01*
X-010598Y008247D02*
X-010705Y008354D01*
X-010918Y008354D01*
X-011025Y008247D01*
X-010380Y007713D02*
X-010167Y007927D01*
X-010167Y008140D01*
X-010380Y007304D02*
X-010167Y007090D01*
X-010167Y006877D01*
X-010380Y006663D01*
X-010705Y006663D02*
X-010705Y007304D01*
X-011025Y006984D01*
X-010598Y006984D01*
X-009306Y007197D02*
X-009306Y006770D01*
X-009199Y006663D01*
X-009306Y007197D02*
X-009199Y007304D01*
X-008986Y007304D01*
X-008879Y007197D01*
X-008662Y006984D02*
X-008555Y007090D01*
X-008879Y005204D02*
X-009093Y004990D01*
X-009306Y005204D01*
X-009306Y004563D01*
X002511Y003834D02*
X002617Y003940D01*
X002938Y003940D01*
X003048Y005934D02*
X003154Y006040D01*
X002832Y006040D02*
X002618Y006040D01*
X004658Y007820D02*
X004658Y008247D01*
X004552Y008140D02*
X004765Y008140D01*
X004981Y008034D02*
X005088Y008140D01*
X005302Y008140D01*
X005408Y008034D01*
X005408Y007713D01*
X005626Y007820D02*
X005626Y008034D01*
X005733Y008140D01*
X005946Y008140D01*
X006053Y008034D01*
X006053Y007927D01*
X005626Y007927D01*
X005626Y007820D02*
X005733Y007713D01*
X005946Y007713D01*
X006807Y007411D02*
X006807Y007304D01*
X006915Y007713D02*
X007235Y007713D01*
X007342Y007820D01*
X007342Y008034D01*
X007235Y008140D01*
X006915Y008140D01*
X006915Y008354D02*
X006915Y007713D01*
X007560Y007820D02*
X007560Y008034D01*
X007666Y008140D01*
X007880Y008140D01*
X007987Y008034D01*
X007987Y007820D01*
X007880Y007713D01*
X007666Y007713D01*
X007560Y007820D01*
X008204Y008140D02*
X008418Y008140D01*
X008311Y008247D02*
X008311Y007820D01*
X008418Y007713D01*
X008741Y007820D02*
X008741Y008247D01*
X008847Y008140D02*
X008634Y008140D01*
X008741Y007820D02*
X008847Y007713D01*
X009064Y007304D02*
X009170Y007304D01*
X008095Y008763D02*
X007881Y008763D01*
X007774Y008870D01*
X007774Y009084D01*
X007881Y009190D01*
X008095Y009190D01*
X008201Y009084D01*
X008201Y008977D01*
X007774Y008977D01*
X006912Y009084D02*
X006912Y008763D01*
X006699Y008763D02*
X006699Y009084D01*
X006806Y009190D01*
X006912Y009084D01*
X006699Y009084D02*
X006592Y009190D01*
X006485Y009190D01*
X006485Y008763D01*
X006268Y008870D02*
X006268Y009084D01*
X006161Y009190D01*
X005948Y009190D01*
X005841Y009084D01*
X005841Y008870D01*
X005948Y008763D01*
X006161Y008763D01*
X006268Y008870D01*
X005624Y009190D02*
X005517Y009190D01*
X005304Y008977D01*
X005304Y009190D02*
X005304Y008763D01*
X004981Y008763D02*
X004981Y009297D01*
X005087Y009404D01*
X005087Y009084D02*
X004874Y009084D01*
X004981Y008354D02*
X004981Y007713D01*
X004765Y007713D02*
X004658Y007820D01*
X006808Y010240D02*
X006914Y010240D01*
X007021Y010134D01*
X009601Y010134D02*
X009707Y010240D01*
X010028Y010240D01*
X010028Y010454D02*
X010028Y009813D01*
X009707Y009813D01*
X009601Y009920D01*
X009601Y010134D01*
X010245Y010240D02*
X010352Y010240D01*
X010352Y009813D01*
X010245Y009813D02*
X010459Y009813D01*
X010675Y009920D02*
X010782Y010027D01*
X011102Y010027D01*
X011102Y010134D02*
X011102Y009813D01*
X010782Y009813D01*
X010675Y009920D01*
X010782Y010240D02*
X010995Y010240D01*
X011102Y010134D01*
X011319Y010240D02*
X011319Y009813D01*
X011533Y009813D02*
X011533Y010134D01*
X011640Y010240D01*
X011746Y010134D01*
X011746Y009813D01*
X011964Y009920D02*
X011964Y010134D01*
X012071Y010240D01*
X012284Y010240D01*
X012391Y010134D01*
X012391Y010027D01*
X011964Y010027D01*
X011964Y009920D02*
X012071Y009813D01*
X012284Y009813D01*
X012715Y009920D02*
X012715Y010347D01*
X012609Y010240D02*
X012822Y010240D01*
X013038Y010134D02*
X013145Y010240D01*
X013359Y010240D01*
X013465Y010134D01*
X013465Y010027D01*
X013038Y010027D01*
X013038Y009920D02*
X013038Y010134D01*
X013038Y009920D02*
X013145Y009813D01*
X013359Y009813D01*
X013683Y009813D02*
X013683Y010240D01*
X013683Y010027D02*
X013896Y010240D01*
X014003Y010240D01*
X014220Y009920D02*
X014327Y009920D01*
X014327Y009813D01*
X014220Y009813D01*
X014220Y009920D01*
X014112Y009190D02*
X014325Y009190D01*
X014432Y009084D01*
X014432Y008763D01*
X014112Y008763D01*
X014005Y008870D01*
X014112Y008977D01*
X014432Y008977D01*
X014650Y008977D02*
X014863Y009190D01*
X014970Y009190D01*
X015187Y009084D02*
X015294Y009190D01*
X015614Y009190D01*
X015614Y009404D02*
X015614Y008763D01*
X015294Y008763D01*
X015187Y008870D01*
X015187Y009084D01*
X014650Y009190D02*
X014650Y008763D01*
X013788Y008870D02*
X013788Y009084D01*
X013681Y009190D01*
X013467Y009190D01*
X013361Y009084D01*
X013361Y008870D01*
X013467Y008763D01*
X013681Y008763D01*
X013788Y008870D01*
X013143Y008870D02*
X013143Y009084D01*
X013036Y009190D01*
X012716Y009190D01*
X012716Y009404D02*
X012716Y008763D01*
X013036Y008763D01*
X013143Y008870D01*
X012822Y009813D02*
X012715Y009920D01*
X011855Y009404D02*
X011748Y009297D01*
X011748Y008763D01*
X011642Y009084D02*
X011855Y009084D01*
X011424Y009084D02*
X011317Y009190D01*
X011104Y009190D01*
X010997Y009084D01*
X010997Y008870D01*
X011104Y008763D01*
X011317Y008763D01*
X011424Y008870D01*
X011424Y009084D01*
X011104Y008354D02*
X010997Y008354D01*
X011533Y010134D02*
X011426Y010240D01*
X011319Y010240D01*
X010352Y010454D02*
X010352Y010561D01*
X015831Y008870D02*
X015938Y008870D01*
X015938Y008763D01*
X015831Y008763D01*
X015831Y008870D01*
X015723Y003211D02*
X015723Y003104D01*
X015723Y002890D02*
X015723Y002463D01*
X015616Y002463D02*
X015830Y002463D01*
X016153Y002570D02*
X016260Y002463D01*
X016153Y002570D02*
X016153Y002997D01*
X016046Y002890D02*
X016260Y002890D01*
X016476Y002784D02*
X016476Y002570D01*
X016583Y002463D01*
X016796Y002463D01*
X016903Y002570D01*
X016903Y002784D01*
X016796Y002890D01*
X016583Y002890D01*
X016476Y002784D01*
X017120Y002890D02*
X017120Y002463D01*
X017120Y002677D02*
X017334Y002890D01*
X017441Y002890D01*
X017658Y002784D02*
X017764Y002890D01*
X018085Y002890D01*
X017978Y002677D02*
X017764Y002677D01*
X017658Y002784D01*
X017658Y002463D02*
X017978Y002463D01*
X018085Y002570D01*
X017978Y002677D01*
X018409Y002570D02*
X018409Y002463D01*
X018516Y002463D01*
X018516Y002570D01*
X018409Y002570D01*
X018516Y002463D02*
X018302Y002250D01*
X018085Y002054D02*
X018085Y001413D01*
X017764Y001413D01*
X017658Y001520D01*
X017658Y001734D01*
X017764Y001840D01*
X018085Y001840D01*
X017440Y001734D02*
X017440Y001413D01*
X017440Y001734D02*
X017333Y001840D01*
X017013Y001840D01*
X017013Y001413D01*
X016795Y001413D02*
X016795Y001734D01*
X016689Y001840D01*
X016475Y001840D01*
X016475Y001627D02*
X016795Y001627D01*
X016795Y001413D02*
X016475Y001413D01*
X016368Y001520D01*
X016475Y001627D01*
X016798Y000790D02*
X017118Y000790D01*
X017225Y000684D01*
X017225Y000470D01*
X017118Y000363D01*
X016798Y000363D01*
X016798Y000150D02*
X016798Y000790D01*
X015937Y000790D02*
X015830Y000790D01*
X015616Y000577D01*
X015616Y000790D02*
X015616Y000363D01*
X015399Y000577D02*
X014972Y000577D01*
X014972Y000684D02*
X015079Y000790D01*
X015292Y000790D01*
X015399Y000684D01*
X015399Y000577D01*
X015292Y000363D02*
X015079Y000363D01*
X014972Y000470D01*
X014972Y000684D01*
X014754Y000790D02*
X014434Y000790D01*
X014327Y000684D01*
X014327Y000470D01*
X014434Y000363D01*
X014754Y000363D01*
X014754Y001004D01*
X014756Y001413D02*
X014650Y001520D01*
X014650Y001734D01*
X014756Y001840D01*
X014970Y001840D01*
X015077Y001734D01*
X015077Y001627D01*
X014650Y001627D01*
X014756Y001413D02*
X014970Y001413D01*
X015401Y001520D02*
X015401Y001947D01*
X015294Y001840D02*
X015508Y001840D01*
X015401Y001520D02*
X015508Y001413D01*
X015399Y002463D02*
X015079Y002463D01*
X014972Y002570D01*
X014972Y002784D01*
X015079Y002890D01*
X015399Y002890D01*
X015616Y002890D02*
X015723Y002890D01*
X014754Y002784D02*
X014754Y002463D01*
X014434Y002463D01*
X014327Y002570D01*
X014434Y002677D01*
X014754Y002677D01*
X014754Y002784D02*
X014648Y002890D01*
X014434Y002890D01*
X014432Y001840D02*
X014112Y001840D01*
X014005Y001734D01*
X014112Y001627D01*
X014325Y001627D01*
X014432Y001520D01*
X014325Y001413D01*
X014005Y001413D01*
X013788Y001627D02*
X013361Y001627D01*
X013361Y001734D02*
X013467Y001840D01*
X013681Y001840D01*
X013788Y001734D01*
X013788Y001627D01*
X013681Y001413D02*
X013467Y001413D01*
X013361Y001520D01*
X013361Y001734D01*
X013144Y001840D02*
X013037Y001840D01*
X012823Y001627D01*
X012823Y001840D02*
X012823Y001413D01*
X012715Y000790D02*
X012609Y000684D01*
X012715Y000577D01*
X012929Y000577D01*
X013036Y000470D01*
X012929Y000363D01*
X012609Y000363D01*
X012715Y000790D02*
X013036Y000790D01*
X013253Y000684D02*
X013253Y000470D01*
X013360Y000363D01*
X013573Y000363D01*
X013680Y000470D01*
X013680Y000684D01*
X013573Y000790D01*
X013360Y000790D01*
X013253Y000684D01*
X013898Y001004D02*
X014004Y001004D01*
X014004Y000363D01*
X013898Y000363D02*
X014111Y000363D01*
X017443Y000470D02*
X017549Y000577D01*
X017870Y000577D01*
X017870Y000684D02*
X017870Y000363D01*
X017549Y000363D01*
X017443Y000470D01*
X017549Y000790D02*
X017763Y000790D01*
X017870Y000684D01*
X018087Y000684D02*
X018194Y000790D01*
X018514Y000790D01*
X018732Y000790D02*
X018945Y000790D01*
X018839Y000897D02*
X018839Y000470D01*
X018945Y000363D01*
X019161Y000470D02*
X019161Y000684D01*
X019268Y000790D01*
X019482Y000790D01*
X019589Y000684D01*
X019589Y000577D01*
X019161Y000577D01*
X019161Y000470D02*
X019268Y000363D01*
X019482Y000363D01*
X018514Y000470D02*
X018408Y000577D01*
X018194Y000577D01*
X018087Y000684D01*
X018087Y000363D02*
X018408Y000363D01*
X018514Y000470D01*
X018947Y001200D02*
X018947Y001840D01*
X019267Y001840D01*
X019374Y001734D01*
X019374Y001520D01*
X019267Y001413D01*
X018947Y001413D01*
X019591Y001413D02*
X019591Y001840D01*
X019591Y001627D02*
X019805Y001840D01*
X019911Y001840D01*
X020128Y001734D02*
X020128Y001520D01*
X020235Y001413D01*
X020449Y001413D01*
X020555Y001520D01*
X020555Y001734D01*
X020449Y001840D01*
X020235Y001840D01*
X020128Y001734D01*
X020773Y001734D02*
X020986Y001734D01*
X020880Y001947D02*
X020986Y002054D01*
X020880Y001947D02*
X020880Y001413D01*
X021203Y001413D02*
X021416Y001413D01*
X021309Y001413D02*
X021309Y001840D01*
X021203Y001840D01*
X021309Y002054D02*
X021309Y002161D01*
X021202Y002463D02*
X021522Y002463D01*
X021740Y002570D02*
X021740Y002784D01*
X021846Y002890D01*
X022060Y002890D01*
X022167Y002784D01*
X022167Y002677D01*
X021740Y002677D01*
X021740Y002570D02*
X021846Y002463D01*
X022060Y002463D01*
X021739Y002054D02*
X021632Y002054D01*
X021739Y002054D02*
X021739Y001413D01*
X021632Y001413D02*
X021846Y001413D01*
X022062Y001520D02*
X022062Y001734D01*
X022169Y001840D01*
X022382Y001840D01*
X022489Y001734D01*
X022489Y001627D01*
X022062Y001627D01*
X022062Y001520D02*
X022169Y001413D01*
X022382Y001413D01*
X022707Y001413D02*
X023134Y001840D01*
X023134Y001947D01*
X023027Y002054D01*
X022813Y002054D01*
X022707Y001947D01*
X022707Y001413D02*
X023134Y001413D01*
X023134Y000790D02*
X023241Y000684D01*
X023241Y000577D01*
X022814Y000577D01*
X022814Y000684D02*
X022921Y000790D01*
X023134Y000790D01*
X023458Y000790D02*
X023458Y000363D01*
X023134Y000363D02*
X022921Y000363D01*
X022814Y000470D01*
X022814Y000684D01*
X022596Y000790D02*
X022276Y000790D01*
X022169Y000684D01*
X022169Y000470D01*
X022276Y000363D01*
X022596Y000363D01*
X023458Y000790D02*
X023779Y000790D01*
X023886Y000684D01*
X023886Y000363D01*
X024210Y000470D02*
X024317Y000363D01*
X024210Y000470D02*
X024210Y000897D01*
X024103Y000790D02*
X024317Y000790D01*
X024533Y000790D02*
X024533Y000363D01*
X024533Y000577D02*
X024746Y000790D01*
X024853Y000790D01*
X025177Y000790D02*
X025390Y000790D01*
X025497Y000684D01*
X025497Y000363D01*
X025177Y000363D01*
X025070Y000470D01*
X025177Y000577D01*
X025497Y000577D01*
X025714Y000363D02*
X025928Y000363D01*
X025821Y000363D02*
X025821Y001004D01*
X025714Y001004D01*
X026789Y000790D02*
X026789Y000150D01*
X026789Y000363D02*
X027109Y000363D01*
X027216Y000470D01*
X027216Y000684D01*
X027109Y000790D01*
X026789Y000790D01*
X027433Y000470D02*
X027540Y000577D01*
X027860Y000577D01*
X027860Y000684D02*
X027860Y000363D01*
X027540Y000363D01*
X027433Y000470D01*
X027540Y000790D02*
X027753Y000790D01*
X027860Y000684D01*
X028078Y000684D02*
X028078Y000470D01*
X028185Y000363D01*
X028505Y000363D01*
X028505Y001004D01*
X028505Y000790D02*
X028185Y000790D01*
X028078Y000684D01*
X029367Y000470D02*
X029474Y000577D01*
X029794Y000577D01*
X029794Y000684D02*
X029794Y000363D01*
X029474Y000363D01*
X029367Y000470D01*
X029474Y000790D02*
X029687Y000790D01*
X029794Y000684D01*
X030011Y000790D02*
X030332Y000790D01*
X030438Y000684D01*
X030438Y000363D01*
X030656Y000470D02*
X030656Y000684D01*
X030763Y000790D01*
X031083Y000790D01*
X031083Y001004D02*
X031083Y000363D01*
X030763Y000363D01*
X030656Y000470D01*
X030011Y000363D02*
X030011Y000790D01*
X029579Y002463D02*
X029259Y002463D01*
X029152Y002570D01*
X029152Y002784D01*
X029259Y002890D01*
X029579Y002890D01*
X029579Y003104D02*
X029579Y002463D01*
X030441Y002890D02*
X030655Y002890D01*
X030548Y002997D02*
X030548Y002570D01*
X030655Y002463D01*
X030871Y002463D02*
X030871Y002890D01*
X030871Y002677D02*
X031084Y002890D01*
X031191Y002890D01*
X031515Y002890D02*
X031728Y002890D01*
X031835Y002784D01*
X031835Y002463D01*
X031515Y002463D01*
X031408Y002570D01*
X031515Y002677D01*
X031835Y002677D01*
X032052Y002784D02*
X032052Y002570D01*
X032159Y002463D01*
X032480Y002463D01*
X032697Y002570D02*
X032697Y002784D01*
X032804Y002890D01*
X033017Y002890D01*
X033124Y002784D01*
X033124Y002677D01*
X032697Y002677D01*
X032697Y002570D02*
X032804Y002463D01*
X033017Y002463D01*
X033342Y002463D02*
X033662Y002463D01*
X033769Y002570D01*
X033662Y002677D01*
X033448Y002677D01*
X033342Y002784D01*
X033448Y002890D01*
X033769Y002890D01*
X034631Y002570D02*
X034737Y002677D01*
X035058Y002677D01*
X035058Y002784D02*
X035058Y002463D01*
X034737Y002463D01*
X034631Y002570D01*
X034737Y002890D02*
X034951Y002890D01*
X035058Y002784D01*
X035275Y002890D02*
X035595Y002890D01*
X035702Y002784D01*
X035702Y002463D01*
X035920Y002570D02*
X035920Y002784D01*
X036027Y002890D01*
X036347Y002890D01*
X036347Y003104D02*
X036347Y002463D01*
X036027Y002463D01*
X035920Y002570D01*
X035275Y002463D02*
X035275Y002890D01*
X035383Y004563D02*
X035810Y004563D01*
X035596Y004563D02*
X035596Y005204D01*
X035383Y004990D01*
X035381Y005400D02*
X035488Y005400D01*
X035595Y005507D01*
X035595Y006040D01*
X035275Y006040D01*
X035168Y005934D01*
X035168Y005720D01*
X035275Y005613D01*
X035595Y005613D01*
X034950Y005720D02*
X034950Y005934D01*
X034844Y006040D01*
X034630Y006040D01*
X034523Y005934D01*
X034523Y005720D01*
X034630Y005613D01*
X034844Y005613D01*
X034950Y005720D01*
X034307Y005613D02*
X034094Y005613D01*
X034200Y005613D02*
X034200Y006254D01*
X034094Y006254D01*
X033876Y005934D02*
X033876Y005613D01*
X033556Y005613D01*
X033449Y005720D01*
X033556Y005827D01*
X033876Y005827D01*
X033876Y005934D02*
X033769Y006040D01*
X033556Y006040D01*
X033231Y005934D02*
X033231Y005613D01*
X033231Y005934D02*
X033125Y006040D01*
X032804Y006040D01*
X032804Y005613D01*
X032587Y005613D02*
X032587Y005934D01*
X032480Y006040D01*
X032267Y006040D01*
X032267Y005827D02*
X032160Y005720D01*
X032267Y005613D01*
X032587Y005613D01*
X032587Y005827D02*
X032267Y005827D01*
X031942Y004990D02*
X031622Y004990D01*
X031515Y004884D01*
X031622Y004777D01*
X031836Y004777D01*
X031942Y004670D01*
X031836Y004563D01*
X031515Y004563D01*
X031299Y004563D02*
X031086Y004563D01*
X031192Y004563D02*
X031192Y005204D01*
X031086Y005204D01*
X030763Y005204D02*
X030763Y005311D01*
X030763Y004990D02*
X030763Y004563D01*
X030869Y004563D02*
X030656Y004563D01*
X030438Y004563D02*
X030438Y004884D01*
X030332Y004990D01*
X030225Y004884D01*
X030225Y004563D01*
X030011Y004563D02*
X030011Y004990D01*
X030118Y004990D01*
X030225Y004884D01*
X029794Y004884D02*
X029474Y004884D01*
X029367Y004990D01*
X029367Y005097D01*
X029474Y005204D01*
X029687Y005204D01*
X029794Y005097D01*
X029794Y004670D01*
X029687Y004563D01*
X029474Y004563D01*
X029367Y004670D01*
X029149Y004777D02*
X028722Y004777D01*
X028722Y004990D02*
X029149Y004990D01*
X028505Y004990D02*
X028185Y004990D01*
X028078Y004884D01*
X028078Y004670D01*
X028185Y004563D01*
X028505Y004563D01*
X027862Y004563D02*
X027648Y004563D01*
X027755Y004563D02*
X027755Y004990D01*
X027648Y004990D01*
X027431Y004990D02*
X027324Y004990D01*
X027111Y004777D01*
X027111Y004990D02*
X027111Y004563D01*
X026895Y004563D02*
X026788Y004670D01*
X026788Y005097D01*
X026681Y004990D02*
X026895Y004990D01*
X026789Y005400D02*
X026789Y006040D01*
X027109Y006040D01*
X027216Y005934D01*
X027216Y005720D01*
X027109Y005613D01*
X026789Y005613D01*
X027433Y005720D02*
X027540Y005827D01*
X027860Y005827D01*
X027860Y005934D02*
X027860Y005613D01*
X027540Y005613D01*
X027433Y005720D01*
X027540Y006040D02*
X027753Y006040D01*
X027860Y005934D01*
X028078Y005934D02*
X028078Y005720D01*
X028185Y005613D01*
X028505Y005613D01*
X028505Y006254D01*
X028505Y006040D02*
X028185Y006040D01*
X028078Y005934D01*
X027755Y005311D02*
X027755Y005204D01*
X026464Y004990D02*
X026143Y004990D01*
X026037Y004884D01*
X026037Y004670D01*
X026143Y004563D01*
X026464Y004563D01*
X025819Y004777D02*
X025392Y004777D01*
X025392Y004670D02*
X025392Y004884D01*
X025499Y004990D01*
X025712Y004990D01*
X025819Y004884D01*
X025819Y004777D01*
X025712Y004563D02*
X025499Y004563D01*
X025392Y004670D01*
X025176Y004563D02*
X024962Y004563D01*
X025069Y004563D02*
X025069Y005204D01*
X024962Y005204D01*
X024745Y004884D02*
X024745Y004777D01*
X024318Y004777D01*
X024318Y004670D02*
X024318Y004884D01*
X024425Y004990D01*
X024638Y004990D01*
X024745Y004884D01*
X024638Y004563D02*
X024425Y004563D01*
X024318Y004670D01*
X024102Y004563D02*
X023888Y004563D01*
X023995Y004563D02*
X023995Y004990D01*
X023888Y004990D01*
X023671Y004990D02*
X023350Y004990D01*
X023244Y004884D01*
X023244Y004670D01*
X023350Y004563D01*
X023671Y004563D01*
X023671Y005204D01*
X023995Y005204D02*
X023995Y005311D01*
X023888Y005613D02*
X023888Y006040D01*
X023888Y005827D02*
X024102Y006040D01*
X024208Y006040D01*
X024425Y006040D02*
X024425Y005613D01*
X024639Y005613D02*
X024639Y005934D01*
X024746Y006040D01*
X024852Y005934D01*
X024852Y005613D01*
X025070Y005720D02*
X025177Y005827D01*
X025497Y005827D01*
X025497Y005934D02*
X025497Y005613D01*
X025177Y005613D01*
X025070Y005720D01*
X025177Y006040D02*
X025390Y006040D01*
X025497Y005934D01*
X025714Y006254D02*
X025821Y006254D01*
X025821Y005613D01*
X025714Y005613D02*
X025928Y005613D01*
X024639Y005934D02*
X024532Y006040D01*
X024425Y006040D01*
X023671Y005934D02*
X023671Y005827D01*
X023244Y005827D01*
X023244Y005720D02*
X023244Y005934D01*
X023350Y006040D01*
X023564Y006040D01*
X023671Y005934D01*
X023564Y005613D02*
X023350Y005613D01*
X023244Y005720D01*
X023026Y005613D02*
X023026Y005934D01*
X022919Y006040D01*
X022706Y006040D01*
X022599Y005934D01*
X022383Y006040D02*
X022169Y006040D01*
X022276Y006147D02*
X022276Y005720D01*
X022383Y005613D01*
X022599Y005613D02*
X022599Y006254D01*
X022599Y005204D02*
X022599Y004563D01*
X022599Y004884D02*
X023026Y004884D01*
X023026Y005204D02*
X023026Y004563D01*
X023780Y003211D02*
X023780Y003104D01*
X023780Y002890D02*
X023780Y002463D01*
X023673Y002463D02*
X023887Y002463D01*
X024103Y002570D02*
X024210Y002677D01*
X024530Y002677D01*
X024530Y002784D02*
X024530Y002463D01*
X024210Y002463D01*
X024103Y002570D01*
X024210Y002890D02*
X024423Y002890D01*
X024530Y002784D01*
X024748Y002784D02*
X024854Y002890D01*
X025175Y002890D01*
X025068Y002677D02*
X024854Y002677D01*
X024748Y002784D01*
X024748Y002463D02*
X025068Y002463D01*
X025175Y002570D01*
X025068Y002677D01*
X026037Y002570D02*
X026143Y002677D01*
X026464Y002677D01*
X026464Y002784D02*
X026464Y002463D01*
X026143Y002463D01*
X026037Y002570D01*
X026143Y002890D02*
X026357Y002890D01*
X026464Y002784D01*
X026681Y002890D02*
X026681Y002463D01*
X026681Y002677D02*
X026895Y002890D01*
X027002Y002890D01*
X027218Y002784D02*
X027218Y002570D01*
X027325Y002463D01*
X027539Y002463D01*
X027645Y002570D01*
X027645Y002784D01*
X027539Y002890D01*
X027325Y002890D01*
X027218Y002784D01*
X027863Y002890D02*
X027863Y002570D01*
X027970Y002463D01*
X028290Y002463D01*
X028290Y002890D01*
X028507Y002890D02*
X028507Y002463D01*
X028507Y002890D02*
X028828Y002890D01*
X028934Y002784D01*
X028934Y002463D01*
X030656Y004990D02*
X030763Y004990D01*
X030871Y005613D02*
X030871Y006254D01*
X030978Y006040D02*
X031191Y006040D01*
X031298Y005934D01*
X031298Y005613D01*
X030978Y006040D02*
X030871Y005934D01*
X030655Y006040D02*
X030441Y006040D01*
X030548Y006147D02*
X030548Y005720D01*
X030655Y005613D01*
X030225Y005613D02*
X030011Y005613D01*
X030118Y005613D02*
X030118Y006040D01*
X030011Y006040D01*
X029794Y006040D02*
X029794Y005720D01*
X029687Y005613D01*
X029580Y005720D01*
X029474Y005613D01*
X029367Y005720D01*
X029367Y006040D01*
X030118Y006254D02*
X030118Y006361D01*
X032911Y004990D02*
X033125Y004990D01*
X033231Y004884D01*
X033231Y004563D01*
X032911Y004563D01*
X032804Y004670D01*
X032911Y004777D01*
X033231Y004777D01*
X033449Y004990D02*
X033769Y004990D01*
X033876Y004884D01*
X033876Y004563D01*
X034094Y004670D02*
X034094Y004884D01*
X034200Y004990D01*
X034521Y004990D01*
X034521Y005204D02*
X034521Y004563D01*
X034200Y004563D01*
X034094Y004670D01*
X033449Y004563D02*
X033449Y004990D01*
X032480Y002890D02*
X032159Y002890D01*
X032052Y002784D01*
X032052Y000897D02*
X032052Y000470D01*
X032159Y000363D01*
X032375Y000470D02*
X032482Y000363D01*
X032695Y000363D01*
X032802Y000470D01*
X032802Y000684D01*
X032695Y000790D01*
X032482Y000790D01*
X032375Y000684D01*
X032375Y000470D01*
X032159Y000790D02*
X031945Y000790D01*
X033664Y000790D02*
X033664Y000363D01*
X033664Y000577D02*
X033877Y000790D01*
X033984Y000790D01*
X034201Y000684D02*
X034308Y000790D01*
X034521Y000790D01*
X034628Y000684D01*
X034628Y000577D01*
X034201Y000577D01*
X034201Y000470D02*
X034201Y000684D01*
X034201Y000470D02*
X034308Y000363D01*
X034521Y000363D01*
X034846Y000363D02*
X034846Y000790D01*
X034952Y000790D01*
X035059Y000684D01*
X035166Y000790D01*
X035273Y000684D01*
X035273Y000363D01*
X035059Y000363D02*
X035059Y000684D01*
X035490Y000684D02*
X035490Y000470D01*
X035597Y000363D01*
X035810Y000363D01*
X035917Y000470D01*
X035917Y000684D01*
X035810Y000790D01*
X035597Y000790D01*
X035490Y000684D01*
X036135Y000790D02*
X036348Y000363D01*
X036562Y000790D01*
X036779Y000684D02*
X036886Y000790D01*
X037099Y000790D01*
X037206Y000684D01*
X037206Y000577D01*
X036779Y000577D01*
X036779Y000470D02*
X036779Y000684D01*
X036779Y000470D02*
X036886Y000363D01*
X037099Y000363D01*
X038068Y000790D02*
X038282Y000790D01*
X038175Y000897D02*
X038175Y000470D01*
X038282Y000363D01*
X038498Y000363D02*
X038498Y001004D01*
X038605Y000790D02*
X038498Y000684D01*
X038605Y000790D02*
X038818Y000790D01*
X038925Y000684D01*
X038925Y000363D01*
X039143Y000470D02*
X039143Y000684D01*
X039249Y000790D01*
X039463Y000790D01*
X039570Y000684D01*
X039570Y000577D01*
X039143Y000577D01*
X039143Y000470D02*
X039249Y000363D01*
X039463Y000363D01*
X039787Y000363D02*
X039787Y000790D01*
X039787Y000577D02*
X040001Y000790D01*
X040107Y000790D01*
X040324Y000790D02*
X040431Y000790D01*
X040538Y000684D01*
X040644Y000790D01*
X040751Y000684D01*
X040751Y000363D01*
X040538Y000363D02*
X040538Y000684D01*
X040324Y000790D02*
X040324Y000363D01*
X040969Y000470D02*
X041076Y000577D01*
X041396Y000577D01*
X041396Y000684D02*
X041396Y000363D01*
X041076Y000363D01*
X040969Y000470D01*
X041076Y000790D02*
X041289Y000790D01*
X041396Y000684D01*
X041613Y001004D02*
X041720Y001004D01*
X041720Y000363D01*
X041613Y000363D02*
X041827Y000363D01*
X042043Y000363D02*
X042363Y000363D01*
X042470Y000470D01*
X042363Y000577D01*
X042150Y000577D01*
X042043Y000684D01*
X042150Y000790D01*
X042470Y000790D01*
X043332Y000684D02*
X043546Y000684D01*
X043439Y000897D02*
X043546Y001004D01*
X043439Y000897D02*
X043439Y000363D01*
X043762Y000363D02*
X043762Y000790D01*
X043762Y000577D02*
X043975Y000790D01*
X044082Y000790D01*
X044299Y000684D02*
X044299Y000470D01*
X044406Y000363D01*
X044619Y000363D01*
X044726Y000470D01*
X044726Y000684D01*
X044619Y000790D01*
X044406Y000790D01*
X044299Y000684D01*
X044943Y000790D02*
X044943Y000363D01*
X045157Y000363D02*
X045157Y000684D01*
X045264Y000790D01*
X045371Y000684D01*
X045371Y000363D01*
X045157Y000684D02*
X045050Y000790D01*
X044943Y000790D01*
X046233Y000470D02*
X046339Y000577D01*
X046660Y000577D01*
X046660Y000684D02*
X046660Y000363D01*
X046339Y000363D01*
X046233Y000470D01*
X046339Y000790D02*
X046553Y000790D01*
X046660Y000684D01*
X046877Y001004D02*
X046984Y001004D01*
X046984Y000363D01*
X046877Y000363D02*
X047091Y000363D01*
X047307Y000363D02*
X047520Y000363D01*
X047414Y000363D02*
X047414Y001004D01*
X047307Y001004D01*
X048381Y000790D02*
X048381Y000150D01*
X048381Y000363D02*
X048701Y000363D01*
X048808Y000470D01*
X048808Y000684D01*
X048701Y000790D01*
X048381Y000790D01*
X049026Y000790D02*
X049132Y000790D01*
X049132Y000363D01*
X049026Y000363D02*
X049239Y000363D01*
X049455Y000363D02*
X049455Y000790D01*
X049776Y000790D01*
X049882Y000684D01*
X049882Y000363D01*
X050100Y000363D02*
X050420Y000363D01*
X050527Y000470D01*
X050420Y000577D01*
X050207Y000577D01*
X050100Y000684D01*
X050207Y000790D01*
X050527Y000790D01*
X050744Y000470D02*
X050851Y000470D01*
X050851Y000363D01*
X050744Y000363D01*
X050744Y000470D01*
X049132Y001004D02*
X049132Y001111D01*
X048701Y002463D02*
X048380Y002463D01*
X048274Y002570D01*
X048274Y002784D01*
X048380Y002890D01*
X048701Y002890D01*
X048701Y003104D02*
X048701Y002463D01*
X048056Y002463D02*
X048056Y002784D01*
X047949Y002890D01*
X047629Y002890D01*
X047629Y002463D01*
X047412Y002463D02*
X047412Y002784D01*
X047305Y002890D01*
X047091Y002890D01*
X047091Y002677D02*
X047412Y002677D01*
X047412Y002463D02*
X047091Y002463D01*
X046985Y002570D01*
X047091Y002677D01*
X046122Y002677D02*
X045695Y002677D01*
X045695Y002784D02*
X045802Y002890D01*
X046016Y002890D01*
X046122Y002784D01*
X046122Y002677D01*
X046016Y002463D02*
X045802Y002463D01*
X045695Y002570D01*
X045695Y002784D01*
X045479Y002890D02*
X045372Y002890D01*
X045158Y002677D01*
X045158Y002890D02*
X045158Y002463D01*
X044941Y002677D02*
X044514Y002677D01*
X044514Y002784D02*
X044621Y002890D01*
X044834Y002890D01*
X044941Y002784D01*
X044941Y002677D01*
X044834Y002463D02*
X044621Y002463D01*
X044514Y002570D01*
X044514Y002784D01*
X044296Y002784D02*
X044296Y002463D01*
X044296Y002784D02*
X044189Y002890D01*
X043976Y002890D01*
X043869Y002784D01*
X043869Y003104D02*
X043869Y002463D01*
X043007Y002570D02*
X042900Y002677D01*
X042687Y002677D01*
X042580Y002784D01*
X042687Y002890D01*
X043007Y002890D01*
X043007Y002570D02*
X042900Y002463D01*
X042580Y002463D01*
X042363Y002463D02*
X042042Y002463D01*
X041936Y002570D01*
X042042Y002677D01*
X042363Y002677D01*
X042363Y002784D02*
X042363Y002463D01*
X042363Y002784D02*
X042256Y002890D01*
X042042Y002890D01*
X041613Y002890D02*
X041613Y002463D01*
X041719Y002463D02*
X041506Y002463D01*
X041506Y002890D02*
X041613Y002890D01*
X041613Y003104D02*
X041613Y003211D01*
X041288Y002890D02*
X041075Y002463D01*
X040861Y002890D01*
X039999Y002784D02*
X039999Y002677D01*
X039572Y002677D01*
X039572Y002784D02*
X039679Y002890D01*
X039892Y002890D01*
X039999Y002784D01*
X039892Y002463D02*
X039679Y002463D01*
X039572Y002570D01*
X039572Y002784D01*
X039355Y002890D02*
X039034Y002890D01*
X038928Y002784D01*
X038928Y002570D01*
X039034Y002463D01*
X039355Y002463D01*
X038710Y002463D02*
X038710Y002784D01*
X038603Y002890D01*
X038390Y002890D01*
X038390Y002677D02*
X038710Y002677D01*
X038710Y002463D02*
X038390Y002463D01*
X038283Y002570D01*
X038390Y002677D01*
X038067Y002463D02*
X037853Y002463D01*
X037960Y002463D02*
X037960Y003104D01*
X037853Y003104D01*
X037636Y002784D02*
X037636Y002570D01*
X037529Y002463D01*
X037209Y002463D01*
X037209Y002250D02*
X037209Y002890D01*
X037529Y002890D01*
X037636Y002784D01*
X037530Y004563D02*
X037530Y004884D01*
X037637Y004990D01*
X037743Y004884D01*
X037743Y004563D01*
X037961Y004563D02*
X038174Y004563D01*
X038068Y004563D02*
X038068Y004990D01*
X037961Y004990D01*
X038068Y005204D02*
X038068Y005311D01*
X037959Y005613D02*
X038066Y005720D01*
X038066Y005934D01*
X037959Y006040D01*
X037745Y006040D01*
X037639Y005934D01*
X037639Y005720D01*
X037745Y005613D01*
X037959Y005613D01*
X038283Y005720D02*
X038283Y006040D01*
X038283Y005720D02*
X038390Y005613D01*
X038710Y005613D01*
X038710Y006040D01*
X038928Y006040D02*
X039248Y006040D01*
X039355Y005934D01*
X039355Y005613D01*
X039572Y005720D02*
X039572Y005934D01*
X039679Y006040D01*
X039999Y006040D01*
X039999Y006254D02*
X039999Y005613D01*
X039679Y005613D01*
X039572Y005720D01*
X038928Y005613D02*
X038928Y006040D01*
X038497Y005204D02*
X038497Y004563D01*
X038391Y004563D02*
X038604Y004563D01*
X038820Y004563D02*
X039141Y004563D01*
X039247Y004670D01*
X039141Y004777D01*
X038927Y004777D01*
X038820Y004884D01*
X038927Y004990D01*
X039247Y004990D01*
X038497Y005204D02*
X038391Y005204D01*
X037530Y004884D02*
X037423Y004990D01*
X037316Y004990D01*
X037316Y004563D01*
X036454Y004563D02*
X036027Y004563D01*
X036454Y004990D01*
X036454Y005097D01*
X036347Y005204D01*
X036134Y005204D01*
X036027Y005097D01*
X036670Y005400D02*
X036777Y005400D01*
X036884Y005507D01*
X036884Y006040D01*
X036564Y006040D01*
X036457Y005934D01*
X036457Y005720D01*
X036564Y005613D01*
X036884Y005613D01*
X037101Y005613D02*
X037101Y006040D01*
X037101Y005827D02*
X037315Y006040D01*
X037422Y006040D01*
X040109Y004884D02*
X040109Y004670D01*
X040216Y004563D01*
X040430Y004563D01*
X040536Y004670D01*
X040536Y004884D01*
X040430Y004990D01*
X040216Y004990D01*
X040109Y004884D01*
X040754Y004884D02*
X040967Y004884D01*
X040861Y005097D02*
X040967Y005204D01*
X040861Y005097D02*
X040861Y004563D01*
X041828Y004670D02*
X041935Y004563D01*
X042255Y004563D01*
X042473Y004563D02*
X042686Y004563D01*
X042579Y004563D02*
X042579Y005204D01*
X042473Y005204D01*
X042255Y004990D02*
X041935Y004990D01*
X041828Y004884D01*
X041828Y004670D01*
X042902Y004670D02*
X042902Y004884D01*
X043009Y004990D01*
X043223Y004990D01*
X043329Y004884D01*
X043329Y004777D01*
X042902Y004777D01*
X042902Y004670D02*
X043009Y004563D01*
X043223Y004563D01*
X043547Y004670D02*
X043654Y004777D01*
X043974Y004777D01*
X043974Y004884D02*
X043974Y004563D01*
X043654Y004563D01*
X043547Y004670D01*
X043654Y004990D02*
X043867Y004990D01*
X043974Y004884D01*
X044191Y004990D02*
X044191Y004563D01*
X044191Y004777D02*
X044405Y004990D01*
X044512Y004990D01*
X044835Y004990D02*
X045049Y004990D01*
X045156Y004884D01*
X045156Y004563D01*
X044835Y004563D01*
X044729Y004670D01*
X044835Y004777D01*
X045156Y004777D01*
X045373Y004563D02*
X045373Y004990D01*
X045693Y004990D01*
X045800Y004884D01*
X045800Y004563D01*
X046018Y004670D02*
X046018Y004884D01*
X046124Y004990D01*
X046445Y004990D01*
X046662Y004884D02*
X046769Y004990D01*
X046983Y004990D01*
X047089Y004884D01*
X047089Y004777D01*
X046662Y004777D01*
X046662Y004670D02*
X046662Y004884D01*
X046662Y004670D02*
X046769Y004563D01*
X046983Y004563D01*
X047307Y004563D02*
X047520Y004777D01*
X047520Y004990D01*
X047307Y005204D01*
X046445Y004563D02*
X046124Y004563D01*
X046018Y004670D01*
X049563Y002890D02*
X049776Y002890D01*
X049669Y002997D02*
X049669Y002570D01*
X049776Y002463D01*
X049992Y002463D02*
X049992Y003104D01*
X050099Y002890D02*
X050313Y002890D01*
X050419Y002784D01*
X050419Y002463D01*
X050637Y002570D02*
X050637Y002784D01*
X050744Y002890D01*
X050957Y002890D01*
X051064Y002784D01*
X051064Y002677D01*
X050637Y002677D01*
X050637Y002570D02*
X050744Y002463D01*
X050957Y002463D01*
X051282Y002463D02*
X051282Y002890D01*
X051495Y002890D02*
X051602Y002890D01*
X051495Y002890D02*
X051282Y002677D01*
X051819Y002677D02*
X052246Y002677D01*
X052246Y002784D01*
X052139Y002890D01*
X051925Y002890D01*
X051819Y002784D01*
X051819Y002570D01*
X051925Y002463D01*
X052139Y002463D01*
X050099Y002890D02*
X049992Y002784D01*
X036283Y026713D02*
X036285Y026778D01*
X036291Y026842D01*
X036301Y026906D01*
X036315Y026969D01*
X036332Y027031D01*
X036354Y027092D01*
X036379Y027152D01*
X036408Y027210D01*
X036440Y027266D01*
X036476Y027320D01*
X036515Y027371D01*
X036557Y027420D01*
X036602Y027467D01*
X036650Y027510D01*
X036700Y027551D01*
X036753Y027588D01*
X036808Y027622D01*
X036865Y027653D01*
X036924Y027680D01*
X036984Y027703D01*
X037046Y027723D01*
X037108Y027739D01*
X037172Y027751D01*
X037236Y027759D01*
X037301Y027763D01*
X037365Y027763D01*
X037430Y027759D01*
X037494Y027751D01*
X037558Y027739D01*
X037620Y027723D01*
X037682Y027703D01*
X037742Y027680D01*
X037801Y027653D01*
X037858Y027622D01*
X037913Y027588D01*
X037966Y027551D01*
X038016Y027510D01*
X038064Y027467D01*
X038109Y027420D01*
X038151Y027371D01*
X038190Y027320D01*
X038226Y027266D01*
X038258Y027210D01*
X038287Y027152D01*
X038312Y027092D01*
X038334Y027031D01*
X038351Y026969D01*
X038365Y026906D01*
X038375Y026842D01*
X038381Y026778D01*
X038383Y026713D01*
X038381Y026648D01*
X038375Y026584D01*
X038365Y026520D01*
X038351Y026457D01*
X038334Y026395D01*
X038312Y026334D01*
X038287Y026274D01*
X038258Y026216D01*
X038226Y026160D01*
X038190Y026106D01*
X038151Y026055D01*
X038109Y026006D01*
X038064Y025959D01*
X038016Y025916D01*
X037966Y025875D01*
X037913Y025838D01*
X037858Y025804D01*
X037801Y025773D01*
X037742Y025746D01*
X037682Y025723D01*
X037620Y025703D01*
X037558Y025687D01*
X037494Y025675D01*
X037430Y025667D01*
X037365Y025663D01*
X037301Y025663D01*
X037236Y025667D01*
X037172Y025675D01*
X037108Y025687D01*
X037046Y025703D01*
X036984Y025723D01*
X036924Y025746D01*
X036865Y025773D01*
X036808Y025804D01*
X036753Y025838D01*
X036700Y025875D01*
X036650Y025916D01*
X036602Y025959D01*
X036557Y026006D01*
X036515Y026055D01*
X036476Y026106D01*
X036440Y026160D01*
X036408Y026216D01*
X036379Y026274D01*
X036354Y026334D01*
X036332Y026395D01*
X036315Y026457D01*
X036301Y026520D01*
X036291Y026584D01*
X036285Y026648D01*
X036283Y026713D01*
X033333Y026213D02*
X030833Y026213D01*
X030833Y028713D01*
X033333Y028713D01*
X033333Y026213D01*
X036283Y043713D02*
X036285Y043778D01*
X036291Y043842D01*
X036301Y043906D01*
X036315Y043969D01*
X036332Y044031D01*
X036354Y044092D01*
X036379Y044152D01*
X036408Y044210D01*
X036440Y044266D01*
X036476Y044320D01*
X036515Y044371D01*
X036557Y044420D01*
X036602Y044467D01*
X036650Y044510D01*
X036700Y044551D01*
X036753Y044588D01*
X036808Y044622D01*
X036865Y044653D01*
X036924Y044680D01*
X036984Y044703D01*
X037046Y044723D01*
X037108Y044739D01*
X037172Y044751D01*
X037236Y044759D01*
X037301Y044763D01*
X037365Y044763D01*
X037430Y044759D01*
X037494Y044751D01*
X037558Y044739D01*
X037620Y044723D01*
X037682Y044703D01*
X037742Y044680D01*
X037801Y044653D01*
X037858Y044622D01*
X037913Y044588D01*
X037966Y044551D01*
X038016Y044510D01*
X038064Y044467D01*
X038109Y044420D01*
X038151Y044371D01*
X038190Y044320D01*
X038226Y044266D01*
X038258Y044210D01*
X038287Y044152D01*
X038312Y044092D01*
X038334Y044031D01*
X038351Y043969D01*
X038365Y043906D01*
X038375Y043842D01*
X038381Y043778D01*
X038383Y043713D01*
X038381Y043648D01*
X038375Y043584D01*
X038365Y043520D01*
X038351Y043457D01*
X038334Y043395D01*
X038312Y043334D01*
X038287Y043274D01*
X038258Y043216D01*
X038226Y043160D01*
X038190Y043106D01*
X038151Y043055D01*
X038109Y043006D01*
X038064Y042959D01*
X038016Y042916D01*
X037966Y042875D01*
X037913Y042838D01*
X037858Y042804D01*
X037801Y042773D01*
X037742Y042746D01*
X037682Y042723D01*
X037620Y042703D01*
X037558Y042687D01*
X037494Y042675D01*
X037430Y042667D01*
X037365Y042663D01*
X037301Y042663D01*
X037236Y042667D01*
X037172Y042675D01*
X037108Y042687D01*
X037046Y042703D01*
X036984Y042723D01*
X036924Y042746D01*
X036865Y042773D01*
X036808Y042804D01*
X036753Y042838D01*
X036700Y042875D01*
X036650Y042916D01*
X036602Y042959D01*
X036557Y043006D01*
X036515Y043055D01*
X036476Y043106D01*
X036440Y043160D01*
X036408Y043216D01*
X036379Y043274D01*
X036354Y043334D01*
X036332Y043395D01*
X036315Y043457D01*
X036301Y043520D01*
X036291Y043584D01*
X036285Y043648D01*
X036283Y043713D01*
X010283Y043713D02*
X010285Y043778D01*
X010291Y043842D01*
X010301Y043906D01*
X010315Y043969D01*
X010332Y044031D01*
X010354Y044092D01*
X010379Y044152D01*
X010408Y044210D01*
X010440Y044266D01*
X010476Y044320D01*
X010515Y044371D01*
X010557Y044420D01*
X010602Y044467D01*
X010650Y044510D01*
X010700Y044551D01*
X010753Y044588D01*
X010808Y044622D01*
X010865Y044653D01*
X010924Y044680D01*
X010984Y044703D01*
X011046Y044723D01*
X011108Y044739D01*
X011172Y044751D01*
X011236Y044759D01*
X011301Y044763D01*
X011365Y044763D01*
X011430Y044759D01*
X011494Y044751D01*
X011558Y044739D01*
X011620Y044723D01*
X011682Y044703D01*
X011742Y044680D01*
X011801Y044653D01*
X011858Y044622D01*
X011913Y044588D01*
X011966Y044551D01*
X012016Y044510D01*
X012064Y044467D01*
X012109Y044420D01*
X012151Y044371D01*
X012190Y044320D01*
X012226Y044266D01*
X012258Y044210D01*
X012287Y044152D01*
X012312Y044092D01*
X012334Y044031D01*
X012351Y043969D01*
X012365Y043906D01*
X012375Y043842D01*
X012381Y043778D01*
X012383Y043713D01*
X012381Y043648D01*
X012375Y043584D01*
X012365Y043520D01*
X012351Y043457D01*
X012334Y043395D01*
X012312Y043334D01*
X012287Y043274D01*
X012258Y043216D01*
X012226Y043160D01*
X012190Y043106D01*
X012151Y043055D01*
X012109Y043006D01*
X012064Y042959D01*
X012016Y042916D01*
X011966Y042875D01*
X011913Y042838D01*
X011858Y042804D01*
X011801Y042773D01*
X011742Y042746D01*
X011682Y042723D01*
X011620Y042703D01*
X011558Y042687D01*
X011494Y042675D01*
X011430Y042667D01*
X011365Y042663D01*
X011301Y042663D01*
X011236Y042667D01*
X011172Y042675D01*
X011108Y042687D01*
X011046Y042703D01*
X010984Y042723D01*
X010924Y042746D01*
X010865Y042773D01*
X010808Y042804D01*
X010753Y042838D01*
X010700Y042875D01*
X010650Y042916D01*
X010602Y042959D01*
X010557Y043006D01*
X010515Y043055D01*
X010476Y043106D01*
X010440Y043160D01*
X010408Y043216D01*
X010379Y043274D01*
X010354Y043334D01*
X010332Y043395D01*
X010315Y043457D01*
X010301Y043520D01*
X010291Y043584D01*
X010285Y043648D01*
X010283Y043713D01*
X010283Y026713D02*
X010285Y026778D01*
X010291Y026842D01*
X010301Y026906D01*
X010315Y026969D01*
X010332Y027031D01*
X010354Y027092D01*
X010379Y027152D01*
X010408Y027210D01*
X010440Y027266D01*
X010476Y027320D01*
X010515Y027371D01*
X010557Y027420D01*
X010602Y027467D01*
X010650Y027510D01*
X010700Y027551D01*
X010753Y027588D01*
X010808Y027622D01*
X010865Y027653D01*
X010924Y027680D01*
X010984Y027703D01*
X011046Y027723D01*
X011108Y027739D01*
X011172Y027751D01*
X011236Y027759D01*
X011301Y027763D01*
X011365Y027763D01*
X011430Y027759D01*
X011494Y027751D01*
X011558Y027739D01*
X011620Y027723D01*
X011682Y027703D01*
X011742Y027680D01*
X011801Y027653D01*
X011858Y027622D01*
X011913Y027588D01*
X011966Y027551D01*
X012016Y027510D01*
X012064Y027467D01*
X012109Y027420D01*
X012151Y027371D01*
X012190Y027320D01*
X012226Y027266D01*
X012258Y027210D01*
X012287Y027152D01*
X012312Y027092D01*
X012334Y027031D01*
X012351Y026969D01*
X012365Y026906D01*
X012375Y026842D01*
X012381Y026778D01*
X012383Y026713D01*
X012381Y026648D01*
X012375Y026584D01*
X012365Y026520D01*
X012351Y026457D01*
X012334Y026395D01*
X012312Y026334D01*
X012287Y026274D01*
X012258Y026216D01*
X012226Y026160D01*
X012190Y026106D01*
X012151Y026055D01*
X012109Y026006D01*
X012064Y025959D01*
X012016Y025916D01*
X011966Y025875D01*
X011913Y025838D01*
X011858Y025804D01*
X011801Y025773D01*
X011742Y025746D01*
X011682Y025723D01*
X011620Y025703D01*
X011558Y025687D01*
X011494Y025675D01*
X011430Y025667D01*
X011365Y025663D01*
X011301Y025663D01*
X011236Y025667D01*
X011172Y025675D01*
X011108Y025687D01*
X011046Y025703D01*
X010984Y025723D01*
X010924Y025746D01*
X010865Y025773D01*
X010808Y025804D01*
X010753Y025838D01*
X010700Y025875D01*
X010650Y025916D01*
X010602Y025959D01*
X010557Y026006D01*
X010515Y026055D01*
X010476Y026106D01*
X010440Y026160D01*
X010408Y026216D01*
X010379Y026274D01*
X010354Y026334D01*
X010332Y026395D01*
X010315Y026457D01*
X010301Y026520D01*
X010291Y026584D01*
X010285Y026648D01*
X010283Y026713D01*
X019376Y002890D02*
X019697Y002890D01*
X019803Y002784D01*
X019803Y002570D01*
X019697Y002463D01*
X019376Y002463D01*
X019376Y002250D02*
X019376Y002890D01*
X020021Y003104D02*
X020128Y003104D01*
X020128Y002463D01*
X020234Y002463D02*
X020021Y002463D01*
X020451Y002570D02*
X020557Y002677D01*
X020878Y002677D01*
X020878Y002784D02*
X020878Y002463D01*
X020557Y002463D01*
X020451Y002570D01*
X020557Y002890D02*
X020771Y002890D01*
X020878Y002784D01*
X021095Y002784D02*
X021095Y002570D01*
X021202Y002463D01*
X021095Y002784D02*
X021202Y002890D01*
X021522Y002890D01*
X023029Y002890D02*
X023242Y002463D01*
X023456Y002890D01*
X023673Y002890D02*
X023780Y002890D01*
X021307Y000684D02*
X021307Y000363D01*
X021307Y000684D02*
X021201Y000790D01*
X020880Y000790D01*
X020880Y000363D01*
X020664Y000363D02*
X020451Y000363D01*
X020557Y000363D02*
X020557Y000790D01*
X020451Y000790D01*
X020557Y001004D02*
X020557Y001111D01*
X007772Y001840D02*
X007666Y001840D01*
X007452Y001627D01*
X007452Y001840D02*
X007452Y001413D01*
X007235Y001520D02*
X007235Y001734D01*
X007128Y001840D01*
X006914Y001840D01*
X006808Y001734D01*
X006808Y001520D01*
X006914Y001413D01*
X007128Y001413D01*
X007235Y001520D01*
X006591Y001734D02*
X006378Y001734D01*
X006485Y001947D02*
X006591Y002054D01*
X006485Y001947D02*
X006485Y001413D01*
X006592Y000897D02*
X006592Y000470D01*
X006699Y000363D01*
X006915Y000470D02*
X007022Y000363D01*
X007235Y000363D01*
X007342Y000470D01*
X007342Y000684D01*
X007235Y000790D01*
X007022Y000790D01*
X006915Y000684D01*
X006915Y000470D01*
X006699Y000790D02*
X006485Y000790D01*
X004444Y001004D02*
X004444Y001111D01*
X-006085Y000684D02*
X-006298Y000684D01*
X-008662Y000363D02*
X-008662Y001004D01*
D12*
X028793Y030503D02*
X029254Y030810D01*
X029254Y030964D02*
X029024Y030964D01*
X029100Y031117D01*
X029100Y031194D01*
X029024Y031271D01*
X028870Y031271D01*
X028793Y031194D01*
X028793Y031040D01*
X028870Y030964D01*
X028793Y030810D02*
X029254Y030503D01*
X029254Y030964D02*
X029254Y031271D01*
X030076Y031103D02*
X030383Y031103D01*
X030536Y031103D02*
X030843Y031564D01*
X030536Y031564D02*
X030843Y031103D01*
X030383Y031410D02*
X030229Y031564D01*
X030229Y031103D01*
X030536Y033923D02*
X030843Y033923D01*
X030536Y034230D01*
X030536Y034307D01*
X030613Y034384D01*
X030766Y034384D01*
X030843Y034307D01*
X030996Y034384D02*
X031303Y033923D01*
X030996Y033923D02*
X031303Y034384D01*
X029803Y036843D02*
X029496Y037304D01*
X029343Y037227D02*
X029266Y037304D01*
X029113Y037304D01*
X029036Y037227D01*
X029036Y037150D01*
X029113Y037074D01*
X029036Y036997D01*
X029036Y036920D01*
X029113Y036843D01*
X029266Y036843D01*
X029343Y036920D01*
X029496Y036843D02*
X029803Y037304D01*
X029189Y037074D02*
X029113Y037074D01*
X032076Y038993D02*
X032076Y039113D01*
X032196Y039113D01*
X032316Y038993D02*
X032316Y039234D01*
X032256Y039294D01*
X032136Y039294D01*
X032076Y039234D01*
X032076Y038993D02*
X032136Y038933D01*
X032256Y038933D01*
X032316Y038993D01*
X032444Y038993D02*
X032504Y038933D01*
X032684Y038933D01*
X032684Y039294D01*
X032504Y039294D01*
X032444Y039234D01*
X032444Y039174D01*
X032504Y039113D01*
X032684Y039113D01*
X032504Y039113D02*
X032444Y039053D01*
X032444Y038993D01*
X032812Y038933D02*
X032812Y039294D01*
X033052Y039294D02*
X033052Y038933D01*
X032932Y039053D01*
X032812Y038933D01*
X033181Y039053D02*
X033181Y039294D01*
X033421Y039294D02*
X033421Y039053D01*
X033301Y038933D01*
X033181Y039053D01*
X033549Y039174D02*
X033669Y038933D01*
X033789Y039174D01*
X033917Y039294D02*
X034157Y038933D01*
X034286Y038993D02*
X034286Y039113D01*
X034346Y039174D01*
X034466Y039174D01*
X034526Y039113D01*
X034526Y038993D01*
X034466Y038933D01*
X034346Y038933D01*
X034286Y038993D01*
X034651Y038933D02*
X034771Y038933D01*
X034711Y038933D02*
X034711Y039174D01*
X034771Y039174D01*
X034711Y039294D02*
X034711Y039354D01*
X034651Y039533D02*
X034711Y039593D01*
X034711Y039834D01*
X034771Y039774D02*
X034651Y039774D01*
X034526Y039774D02*
X034466Y039774D01*
X034466Y039533D01*
X034526Y039533D02*
X034406Y039533D01*
X034280Y039593D02*
X034220Y039533D01*
X034100Y039533D01*
X034040Y039593D01*
X034040Y039713D01*
X034100Y039774D01*
X034220Y039774D01*
X034280Y039713D01*
X034280Y039593D01*
X034466Y039894D02*
X034466Y039954D01*
X034468Y040133D02*
X034588Y040133D01*
X034649Y040193D01*
X034777Y040193D02*
X034777Y040434D01*
X034837Y040494D01*
X035017Y040494D01*
X035017Y040133D01*
X034837Y040133D01*
X034777Y040193D01*
X034649Y040374D02*
X034588Y040313D01*
X034468Y040313D01*
X034408Y040253D01*
X034408Y040193D01*
X034468Y040133D01*
X034649Y040374D02*
X034649Y040434D01*
X034588Y040494D01*
X034468Y040494D01*
X034408Y040434D01*
X035145Y040434D02*
X035205Y040494D01*
X035385Y040494D01*
X035385Y040133D01*
X035205Y040133D01*
X035145Y040193D01*
X035145Y040434D01*
X035513Y040313D02*
X035753Y040313D01*
X035882Y040193D02*
X035942Y040133D01*
X036062Y040133D01*
X036122Y040193D01*
X035882Y040434D01*
X035882Y040193D01*
X036122Y040193D02*
X036122Y040434D01*
X036062Y040494D01*
X035942Y040494D01*
X035882Y040434D01*
X036250Y040133D02*
X036490Y040133D01*
X036370Y040133D02*
X036370Y040494D01*
X036490Y040374D01*
X036618Y040434D02*
X036678Y040494D01*
X036798Y040494D01*
X036858Y040434D01*
X036858Y040374D01*
X036798Y040313D01*
X036618Y040313D01*
X036618Y040193D02*
X036618Y040434D01*
X036618Y040193D02*
X036678Y040133D01*
X036798Y040133D01*
X036858Y040193D01*
X036986Y040193D02*
X036986Y040434D01*
X037047Y040494D01*
X037167Y040494D01*
X037227Y040434D01*
X037227Y040374D01*
X037167Y040313D01*
X036986Y040313D01*
X036986Y040193D02*
X037047Y040133D01*
X037167Y040133D01*
X037227Y040193D01*
X037355Y040193D02*
X037355Y040434D01*
X037415Y040494D01*
X037595Y040494D01*
X037595Y040133D01*
X037415Y040133D01*
X037355Y040193D01*
X037723Y040133D02*
X037723Y040374D01*
X037843Y040494D01*
X037963Y040374D01*
X037963Y040133D01*
X037963Y040313D02*
X037723Y040313D01*
X037783Y039894D02*
X037963Y039894D01*
X037963Y039533D01*
X037783Y039533D01*
X037723Y039593D01*
X037723Y039834D01*
X037783Y039894D01*
X037595Y039713D02*
X037595Y039593D01*
X037535Y039533D01*
X037415Y039533D01*
X037355Y039593D01*
X037355Y039713D01*
X037415Y039774D01*
X037535Y039774D01*
X037595Y039713D01*
X037227Y039713D02*
X037227Y039593D01*
X037167Y039533D01*
X036986Y039533D01*
X036858Y039593D02*
X036798Y039533D01*
X036618Y039533D01*
X036618Y039774D01*
X036490Y039774D02*
X036430Y039774D01*
X036370Y039713D01*
X036310Y039774D01*
X036250Y039713D01*
X036250Y039533D01*
X036370Y039533D02*
X036370Y039713D01*
X036490Y039774D02*
X036490Y039533D01*
X036311Y039294D02*
X036551Y038933D01*
X036676Y038933D02*
X036736Y038933D01*
X036736Y038993D01*
X036676Y038993D01*
X036676Y038933D01*
X036676Y039113D02*
X036736Y039113D01*
X036736Y039174D01*
X036676Y039174D01*
X036676Y039113D01*
X036864Y039113D02*
X036864Y038993D01*
X036924Y038933D01*
X037104Y038933D01*
X037104Y038813D02*
X037104Y039174D01*
X036924Y039174D01*
X036864Y039113D01*
X037229Y039174D02*
X037349Y039174D01*
X037289Y039234D02*
X037289Y038993D01*
X037229Y038933D01*
X037475Y038933D02*
X037535Y038993D01*
X037535Y039234D01*
X037595Y039174D02*
X037475Y039174D01*
X037723Y039113D02*
X037723Y038933D01*
X037723Y039113D02*
X037783Y039174D01*
X037903Y039174D01*
X037963Y039113D01*
X037963Y038933D02*
X037963Y039294D01*
X037903Y038634D02*
X037903Y038393D01*
X037843Y038333D01*
X037718Y038393D02*
X037658Y038453D01*
X037478Y038453D01*
X037478Y038513D02*
X037478Y038333D01*
X037658Y038333D01*
X037718Y038393D01*
X037658Y038574D02*
X037538Y038574D01*
X037478Y038513D01*
X037349Y038513D02*
X037349Y038393D01*
X037289Y038333D01*
X037109Y038333D01*
X037109Y038273D02*
X037109Y038574D01*
X037289Y038574D01*
X037349Y038513D01*
X037229Y038213D02*
X037169Y038213D01*
X037109Y038273D01*
X036981Y038333D02*
X036981Y038393D01*
X036921Y038393D01*
X036921Y038333D01*
X036981Y038333D01*
X036981Y038513D02*
X036921Y038513D01*
X036921Y038574D01*
X036981Y038574D01*
X036981Y038513D01*
X036429Y038574D02*
X036309Y038333D01*
X036188Y038574D01*
X036060Y038574D02*
X035940Y038694D01*
X035940Y038333D01*
X036060Y038333D02*
X035820Y038333D01*
X035692Y038333D02*
X035632Y038333D01*
X035632Y038393D01*
X035692Y038393D01*
X035692Y038333D01*
X035508Y038393D02*
X035268Y038634D01*
X035268Y038393D01*
X035328Y038333D01*
X035448Y038333D01*
X035508Y038393D01*
X035508Y038634D01*
X035448Y038694D01*
X035328Y038694D01*
X035268Y038634D01*
X035326Y038933D02*
X035447Y038933D01*
X035386Y038933D02*
X035386Y039174D01*
X035447Y039174D01*
X035575Y039174D02*
X035755Y039174D01*
X035815Y039113D01*
X035815Y038993D01*
X035755Y038933D01*
X035575Y038933D01*
X035575Y038873D02*
X035575Y039174D01*
X035386Y039294D02*
X035386Y039354D01*
X035265Y039533D02*
X035325Y039593D01*
X035325Y039834D01*
X035385Y039774D02*
X035265Y039774D01*
X035080Y039774D02*
X034959Y039774D01*
X034899Y039713D01*
X034899Y039533D01*
X035080Y039533D01*
X035140Y039593D01*
X035080Y039653D01*
X034899Y039653D01*
X035141Y039234D02*
X035141Y038993D01*
X035081Y038933D01*
X034955Y038933D02*
X034895Y038933D01*
X034895Y038993D01*
X034955Y038993D01*
X034955Y038933D01*
X035081Y039174D02*
X035201Y039174D01*
X035513Y039533D02*
X035513Y039713D01*
X035573Y039774D01*
X035753Y039774D01*
X035753Y039533D01*
X035882Y039653D02*
X036122Y039653D01*
X036122Y039593D02*
X036122Y039713D01*
X036062Y039774D01*
X035942Y039774D01*
X035882Y039713D01*
X035882Y039653D01*
X035942Y039533D02*
X036062Y039533D01*
X036122Y039593D01*
X035943Y039294D02*
X036183Y038933D01*
X035695Y038813D02*
X035635Y038813D01*
X035575Y038873D01*
X036858Y039593D02*
X036858Y039774D01*
X036986Y039774D02*
X037167Y039774D01*
X037227Y039713D01*
X037843Y038574D02*
X037963Y038574D01*
X033912Y039533D02*
X033912Y039774D01*
X033732Y039774D01*
X033672Y039713D01*
X033672Y039533D01*
X033544Y039533D02*
X033544Y039593D01*
X033484Y039593D01*
X033484Y039533D01*
X033544Y039533D01*
X033544Y039713D02*
X033544Y039774D01*
X033484Y039774D01*
X033484Y039713D01*
X033544Y039713D01*
X026354Y032763D02*
X026124Y032533D01*
X026124Y032840D01*
X026354Y032763D02*
X025893Y032763D01*
X025893Y032379D02*
X026354Y032073D01*
X026354Y032379D02*
X025893Y032073D01*
D13*
X026948Y031848D02*
X026948Y033098D01*
X028198Y033098D01*
X028198Y031848D01*
X026948Y031848D01*
X026948Y031408D02*
X026948Y030158D01*
X028198Y030158D01*
X028198Y031408D01*
X026948Y031408D01*
X028798Y033498D02*
X030048Y033498D01*
X030048Y034748D01*
X028798Y034748D01*
X028798Y033498D01*
X029838Y033208D02*
X029838Y031958D01*
X031088Y031958D01*
X031088Y033208D01*
X029838Y033208D01*
X030048Y035278D02*
X028798Y035278D01*
X028798Y036528D01*
X030048Y036528D01*
X030048Y035278D01*
D14*
X035183Y035313D03*
X035183Y035213D03*
X035183Y035113D03*
X035283Y035013D03*
X035483Y035213D03*
X035483Y035413D03*
X035683Y035313D03*
X035883Y035313D03*
X036083Y035313D03*
X036183Y035213D03*
X036383Y035413D03*
X036383Y035613D03*
X036583Y035513D03*
X036783Y035513D03*
X036883Y035213D03*
X037083Y035113D03*
X037083Y035013D03*
X037083Y034913D03*
X036883Y034913D03*
X036683Y034913D03*
X036483Y034713D03*
X036883Y034713D03*
X036583Y035213D03*
X037083Y035713D03*
X037083Y035913D03*
X037283Y035813D03*
X037383Y035713D03*
X037583Y035713D03*
X037583Y036113D03*
X037483Y036313D03*
X037183Y036213D03*
X036883Y036113D03*
X036583Y035913D03*
X036283Y036013D03*
X036083Y036013D03*
X035983Y036113D03*
X035983Y036313D03*
X035883Y036513D03*
X035883Y036613D03*
X036083Y036613D03*
X036083Y036513D03*
X036283Y036513D03*
X036283Y036613D03*
X036483Y036613D03*
X036483Y036513D03*
X036583Y036413D03*
X036683Y036513D03*
X036883Y036513D03*
X037083Y036713D03*
X037083Y036813D03*
X037083Y036913D03*
X036883Y036913D03*
X036883Y037113D03*
X036283Y037013D03*
X036283Y036913D03*
X036083Y037013D03*
X036083Y037113D03*
X035883Y037113D03*
X035883Y037013D03*
X035883Y036813D03*
X035683Y036813D03*
X035683Y036713D03*
X035683Y036913D03*
X035283Y036913D03*
X035283Y036813D03*
X035283Y036713D03*
X035283Y036313D03*
X035383Y036213D03*
X035283Y036013D03*
X035383Y035813D03*
X035683Y035813D03*
X035883Y035813D03*
X036183Y035813D03*
X035683Y034713D03*
X035483Y034713D03*
X035283Y034713D03*
X037483Y034913D03*
X037483Y035013D03*
X037483Y035113D03*
X037483Y036713D03*
X037483Y036813D03*
X037483Y036913D03*
D15*
X037233Y036313D03*
X037233Y036113D03*
X036933Y036213D03*
X036833Y036313D03*
X036833Y036613D03*
X036833Y036713D03*
X036533Y036713D03*
X036233Y036413D03*
X035933Y036213D03*
X035833Y036013D03*
X035533Y036013D03*
X035233Y035613D03*
X035433Y035513D03*
X035433Y035313D03*
X035233Y034813D03*
X036033Y034713D03*
X036133Y034813D03*
X036333Y035013D03*
X036533Y035313D03*
X036833Y035313D03*
X036833Y035013D03*
X036833Y034813D03*
X037133Y035513D03*
X037033Y035613D03*
X036933Y035813D03*
X036533Y036013D03*
X036533Y036113D03*
X036233Y035513D03*
X036133Y035413D03*
X036333Y037113D03*
D16*
X036083Y036713D03*
X036383Y036313D03*
X036483Y036213D03*
X036083Y035713D03*
X035483Y036613D03*
X035483Y037013D03*
X037283Y037013D03*
X037283Y036613D03*
X037283Y035213D03*
X037283Y034813D03*
D17*
X036733Y035713D03*
X036233Y035913D03*
X035433Y035913D03*
X035733Y034813D03*
X036733Y037013D03*
D18*
X036583Y036913D03*
X036783Y036813D03*
X036183Y036813D03*
X035983Y036913D03*
X035583Y036313D03*
X035383Y036113D03*
X035283Y035713D03*
X035783Y035413D03*
X035783Y035213D03*
X035883Y035613D03*
X036583Y035813D03*
X036983Y036013D03*
X037483Y036013D03*
X037483Y035913D03*
X037483Y036213D03*
X037383Y035613D03*
X037483Y035513D03*
X036483Y034813D03*
X036383Y034913D03*
X035283Y034913D03*
D19*
X036533Y035113D03*
X037233Y036413D03*
D20*
X035583Y036413D03*
D21*
X037133Y035413D03*
D22*
X035833Y034913D03*
X035733Y035013D03*
D23*
X036383Y034463D03*
X036383Y037363D03*
D24*
X034933Y035913D03*
X037833Y035913D03*
M02*
